<?xml version="1.0" encoding="utf-8" standalone="no"?>
<!DOCTYPE svg PUBLIC "-//W3C//DTD SVG 1.1//EN"
  "http://www.w3.org/Graphics/SVG/1.1/DTD/svg11.dtd">
<svg xmlns:xlink="http://www.w3.org/1999/xlink" width="288pt" height="216pt" viewBox="0 0 288 216" xmlns="http://www.w3.org/2000/svg" version="1.1">
 <metadata>
  <rdf:RDF xmlns:dc="http://purl.org/dc/elements/1.1/" xmlns:cc="http://creativecommons.org/ns#" xmlns:rdf="http://www.w3.org/1999/02/22-rdf-syntax-ns#">
   <cc:Work>
    <dc:type rdf:resource="http://purl.org/dc/dcmitype/StillImage"/>
    <dc:date>2023-05-20T11:35:43.564189</dc:date>
    <dc:format>image/svg+xml</dc:format>
    <dc:creator>
     <cc:Agent>
      <dc:title>Matplotlib v3.7.1, https://matplotlib.org/</dc:title>
     </cc:Agent>
    </dc:creator>
   </cc:Work>
  </rdf:RDF>
 </metadata>
 <defs>
  <style type="text/css">*{stroke-linejoin: round; stroke-linecap: butt}</style>
 </defs>
 <g id="figure_1">
  <g id="patch_1">
   <path d="M 0 216 
L 288 216 
L 288 0 
L 0 0 
z
" style="fill: #ffffff"/>
  </g>
  <g id="axes_1">
   <g id="patch_2">
    <path d="M 59.157031 180.740125 
L 277.2 180.740125 
L 277.2 14.979141 
L 59.157031 14.979141 
z
" style="fill: #ffffff"/>
   </g>
   <g id="PolyCollection_1">
    <path d="M 69.068075 151.738611 
L 69.068075 151.738611 
L 71.070306 151.636017 
L 73.072538 151.525856 
L 75.074769 151.407583 
L 77.077 151.280616 
L 79.079231 151.144335 
L 81.081462 150.998077 
L 83.083693 150.841135 
L 85.085924 150.672758 
L 87.088155 150.492145 
L 89.090386 150.298442 
L 91.092618 150.090743 
L 93.094849 149.868087 
L 95.09708 149.629452 
L 97.099311 149.373756 
L 99.101542 149.099852 
L 101.103773 148.806529 
L 103.106004 148.492506 
L 105.108235 148.156436 
L 107.110467 147.796896 
L 109.112698 147.412393 
L 111.114929 147.001362 
L 113.11716 146.562161 
L 115.119391 146.093078 
L 117.121622 145.592327 
L 119.123853 145.058052 
L 121.126084 144.488329 
L 123.128315 143.881171 
L 125.130547 143.234533 
L 127.132778 142.546315 
L 129.135009 141.814375 
L 131.13724 141.036536 
L 133.139471 140.210597 
L 135.141702 139.334345 
L 137.143933 138.405574 
L 139.146164 137.422098 
L 141.148396 136.381774 
L 143.150627 135.282521 
L 145.152858 134.122345 
L 147.155089 132.899364 
L 149.15732 131.61184 
L 151.159551 130.258201 
L 153.161782 128.837081 
L 155.164013 127.347347 
L 157.166244 125.788133 
L 159.168476 124.158877 
L 161.170707 122.459352 
L 163.172938 120.689694 
L 165.175169 118.850442 
L 167.1774 116.942556 
L 169.179631 114.967448 
L 171.181862 112.926994 
L 173.184093 110.823558 
L 175.186325 108.659992 
L 177.188556 106.439639 
L 179.190787 104.166328 
L 181.193018 101.84436 
L 183.195249 99.478484 
L 185.19748 97.073864 
L 187.199711 94.636044 
L 189.201942 92.1709 
L 191.204173 89.684584 
L 193.206405 87.18347 
L 195.208636 84.674083 
L 197.210867 82.163037 
L 199.213098 79.656963 
L 201.215329 77.16244 
L 203.21756 74.685926 
L 205.219791 72.233691 
L 207.222022 69.811756 
L 209.224254 67.425838 
L 211.226485 65.081295 
L 213.228716 62.78309 
L 215.230947 60.53575 
L 217.233178 58.343341 
L 219.235409 56.209452 
L 221.23764 54.137182 
L 223.239871 52.129136 
L 225.242102 50.187434 
L 227.244334 48.313717 
L 229.246565 46.509169 
L 231.248796 44.774536 
L 233.251027 43.110152 
L 235.253258 41.515967 
L 237.255489 39.991584 
L 239.25772 38.536282 
L 241.259951 37.14906 
L 243.262183 35.828662 
L 245.264414 34.573617 
L 247.266645 33.382266 
L 249.268876 32.252794 
L 251.271107 31.183261 
L 253.273338 30.171626 
L 255.275569 29.215773 
L 257.2778 28.313537 
L 259.280031 27.462718 
L 261.282263 26.661105 
L 263.284494 25.906489 
L 265.286725 25.196681 
L 267.288956 24.529518 
L 267.288956 24.529518 
L 267.288956 15.903652 
L 265.286725 16.021889 
L 263.284494 16.155118 
L 261.282263 16.305205 
L 259.280031 16.474238 
L 257.2778 16.664552 
L 255.275569 16.878755 
L 253.273338 17.119754 
L 251.271107 17.390786 
L 249.268876 17.69545 
L 247.266645 18.037735 
L 245.264414 18.422055 
L 243.262183 18.853281 
L 241.259951 19.33677 
L 239.25772 19.878397 
L 237.255489 20.484574 
L 235.253258 21.162271 
L 233.251027 21.919026 
L 231.248796 22.762936 
L 229.246565 23.702645 
L 227.244334 24.747299 
L 225.242102 25.906489 
L 223.239871 27.190155 
L 221.23764 28.60846 
L 219.235409 30.171626 
L 217.233178 31.889722 
L 215.230947 33.772415 
L 213.228716 35.828662 
L 211.226485 38.066367 
L 209.224254 40.491994 
L 207.222022 43.110152 
L 205.219791 45.923165 
L 203.21756 48.930653 
L 201.215329 52.129136 
L 199.213098 55.51171 
L 197.210867 59.067809 
L 195.208636 62.78309 
L 193.206405 66.639473 
L 191.204173 70.615341 
L 189.201942 74.685926 
L 187.199711 78.82385 
L 185.19748 82.999827 
L 183.195249 87.18347 
L 181.193018 91.344169 
L 179.190787 95.451983 
L 177.188556 99.478484 
L 175.186325 103.39752 
L 173.184093 107.185839 
L 171.181862 110.823558 
L 169.179631 114.29445 
L 167.1774 117.586067 
L 165.175169 120.689694 
L 163.172938 123.600178 
L 161.170707 126.315632 
L 159.168476 128.837081 
L 157.166244 131.168045 
L 155.164013 133.314113 
L 153.161782 135.282521 
L 151.159551 137.081744 
L 149.15732 138.721135 
L 147.155089 140.210597 
L 145.152858 141.560304 
L 143.150627 142.780472 
L 141.148396 143.881171 
L 139.146164 144.87218 
L 137.143933 145.762876 
L 135.141702 146.562161 
L 133.139471 147.27841 
L 131.13724 147.919441 
L 129.135009 148.492506 
L 127.132778 149.004297 
L 125.130547 149.460953 
L 123.128315 149.868087 
L 121.126084 150.23081 
L 119.123853 150.55376 
L 117.121622 150.841135 
L 115.119391 151.096725 
L 113.11716 151.323942 
L 111.114929 151.525856 
L 109.112698 151.705222 
L 107.110467 151.864505 
L 105.108235 152.005917 
L 103.106004 152.13143 
L 101.103773 152.242807 
L 99.101542 152.341622 
L 97.099311 152.429275 
L 95.09708 152.507016 
L 93.094849 152.575956 
L 91.092618 152.637084 
L 89.090386 152.691279 
L 87.088155 152.739323 
L 85.085924 152.781911 
L 83.083693 152.819659 
L 81.081462 152.853116 
L 79.079231 152.882767 
L 77.077 152.909043 
L 75.074769 152.932329 
L 73.072538 152.952963 
L 71.070306 152.971246 
L 69.068075 152.987447 
z
" clip-path="url(#p4d8b7f9eab)" style="fill: #bf00bf; fill-opacity: 0.15"/>
   </g>
   <g id="PolyCollection_2">
    <path d="M 69.068075 129.909296 
L 69.068075 129.909296 
L 71.070306 129.674339 
L 73.072538 129.437494 
L 75.074769 129.198754 
L 77.077 128.958115 
L 79.079231 128.715571 
L 81.081462 128.471119 
L 83.083693 128.224753 
L 85.085924 127.97647 
L 87.088155 127.726265 
L 89.090386 127.474135 
L 91.092618 127.220076 
L 93.094849 126.964084 
L 95.09708 126.706158 
L 97.099311 126.446292 
L 99.101542 126.184486 
L 101.103773 125.920737 
L 103.106004 125.655043 
L 105.108235 125.387401 
L 107.110467 125.11781 
L 109.112698 124.846269 
L 111.114929 124.572776 
L 113.11716 124.297332 
L 115.119391 124.019935 
L 117.121622 123.740585 
L 119.123853 123.459282 
L 121.126084 123.176027 
L 123.128315 122.89082 
L 125.130547 122.603662 
L 127.132778 122.314554 
L 129.135009 122.023498 
L 131.13724 121.730496 
L 133.139471 121.435549 
L 135.141702 121.138661 
L 137.143933 120.839834 
L 139.146164 120.539071 
L 141.148396 120.236376 
L 143.150627 119.931752 
L 145.152858 119.625203 
L 147.155089 119.316735 
L 149.15732 119.006351 
L 151.159551 118.694057 
L 153.161782 118.379858 
L 155.164013 118.06376 
L 157.166244 117.74577 
L 159.168476 117.425893 
L 161.170707 117.104137 
L 163.172938 116.780509 
L 165.175169 116.455016 
L 167.1774 116.127667 
L 169.179631 115.798469 
L 171.181862 115.467432 
L 173.184093 115.134565 
L 175.186325 114.799876 
L 177.188556 114.463376 
L 179.190787 114.125075 
L 181.193018 113.784984 
L 183.195249 113.443113 
L 185.19748 113.099473 
L 187.199711 112.754077 
L 189.201942 112.406937 
L 191.204173 112.058064 
L 193.206405 111.707472 
L 195.208636 111.355174 
L 197.210867 111.001184 
L 199.213098 110.645515 
L 201.215329 110.288182 
L 203.21756 109.929199 
L 205.219791 109.568582 
L 207.222022 109.206346 
L 209.224254 108.842507 
L 211.226485 108.477082 
L 213.228716 108.110086 
L 215.230947 107.741537 
L 217.233178 107.371452 
L 219.235409 106.999849 
L 221.23764 106.626747 
L 223.239871 106.252162 
L 225.242102 105.876116 
L 227.244334 105.498625 
L 229.246565 105.119711 
L 231.248796 104.739393 
L 233.251027 104.357691 
L 235.253258 103.974627 
L 237.255489 103.59022 
L 239.25772 103.204492 
L 241.259951 102.817465 
L 243.262183 102.429162 
L 245.264414 102.039603 
L 247.266645 101.648812 
L 249.268876 101.256813 
L 251.271107 100.863627 
L 253.273338 100.46928 
L 255.275569 100.073794 
L 257.2778 99.677194 
L 259.280031 99.279504 
L 261.282263 98.880751 
L 263.284494 98.480957 
L 265.286725 98.08015 
L 267.288956 97.678354 
L 267.288956 97.678354 
L 267.288956 31.445135 
L 265.286725 32.3446 
L 263.284494 33.285806 
L 261.282263 34.269877 
L 259.280031 35.297876 
L 257.2778 36.370797 
L 255.275569 37.489547 
L 253.273338 38.654941 
L 251.271107 39.867682 
L 249.268876 41.128351 
L 247.266645 42.437392 
L 245.264414 43.795103 
L 243.262183 45.201615 
L 241.259951 46.656886 
L 239.25772 48.160683 
L 237.255489 49.712577 
L 235.253258 51.311926 
L 233.251027 52.95787 
L 231.248796 54.649322 
L 229.246565 56.384963 
L 227.244334 58.163236 
L 225.242102 59.982349 
L 223.239871 61.840273 
L 221.23764 63.734744 
L 219.235409 65.663273 
L 217.233178 67.623155 
L 215.230947 69.611478 
L 213.228716 71.625138 
L 211.226485 73.660859 
L 209.224254 75.715211 
L 207.222022 77.784632 
L 205.219791 79.865452 
L 203.21756 81.953916 
L 201.215329 84.046217 
L 199.213098 86.138519 
L 197.210867 88.226983 
L 195.208636 90.307803 
L 193.206405 92.377223 
L 191.204173 94.431576 
L 189.201942 96.467297 
L 187.199711 98.480957 
L 185.19748 100.46928 
L 183.195249 102.429162 
L 181.193018 104.357691 
L 179.190787 106.252162 
L 177.188556 108.110086 
L 175.186325 109.929199 
L 173.184093 111.707472 
L 171.181862 113.443113 
L 169.179631 115.134565 
L 167.1774 116.780509 
L 165.175169 118.379858 
L 163.172938 119.931752 
L 161.170707 121.435549 
L 159.168476 122.89082 
L 157.166244 124.297332 
L 155.164013 125.655043 
L 153.161782 126.964084 
L 151.159551 128.224753 
L 149.15732 129.437494 
L 147.155089 130.602888 
L 145.152858 131.721638 
L 143.150627 132.794559 
L 141.148396 133.822558 
L 139.146164 134.806629 
L 137.143933 135.747835 
L 135.141702 136.6473 
L 133.139471 137.506196 
L 131.13724 138.325737 
L 129.135009 139.107162 
L 127.132778 139.851733 
L 125.130547 140.560726 
L 123.128315 141.235419 
L 121.126084 141.877093 
L 119.123853 142.48702 
L 117.121622 143.066459 
L 115.119391 143.616656 
L 113.11716 144.138833 
L 111.114929 144.634191 
L 109.112698 145.103902 
L 107.110467 145.549111 
L 105.108235 145.970931 
L 103.106004 146.370443 
L 101.103773 146.748693 
L 99.101542 147.106695 
L 97.099311 147.445426 
L 95.09708 147.765828 
L 93.094849 148.068808 
L 91.092618 148.355236 
L 89.090386 148.625949 
L 87.088155 148.881749 
L 85.085924 149.123402 
L 83.083693 149.351642 
L 81.081462 149.567171 
L 79.079231 149.770659 
L 77.077 149.962743 
L 75.074769 150.144032 
L 73.072538 150.315105 
L 71.070306 150.476515 
L 69.068075 150.628784 
z
" clip-path="url(#p4d8b7f9eab)" style="fill: #00bfbf; fill-opacity: 0.15"/>
   </g>
   <g id="matplotlib.axis_1">
    <g id="xtick_1">
     <g id="line2d_1">
      <defs>
       <path id="mc5176c1e08" d="M 0 0 
L 0 3.5 
" style="stroke: #000000; stroke-width: 0.8"/>
      </defs>
      <g>
       <use xlink:href="#mc5176c1e08" x="85.586482" y="153.113294" style="stroke: #000000; stroke-width: 0.8"/>
      </g>
     </g>
     <g id="text_1">
      <text style="font: 11px 'DejaVu Sans', 'Bitstream Vera Sans', 'Computer Modern Sans Serif', 'Lucida Grande', 'Verdana', 'Geneva', 'Lucid', 'Arial', 'Helvetica', 'Avant Garde', sans-serif; text-anchor: middle" x="85.586482" y="168.471576" transform="rotate(-0 85.586482 168.471576)">−5.0</text>
     </g>
    </g>
    <g id="xtick_2">
     <g id="line2d_2">
      <g>
       <use xlink:href="#mc5176c1e08" x="126.882499" y="153.113294" style="stroke: #000000; stroke-width: 0.8"/>
      </g>
     </g>
     <g id="text_2">
      <text style="font: 11px 'DejaVu Sans', 'Bitstream Vera Sans', 'Computer Modern Sans Serif', 'Lucida Grande', 'Verdana', 'Geneva', 'Lucid', 'Arial', 'Helvetica', 'Avant Garde', sans-serif; text-anchor: middle" x="126.882499" y="168.471576" transform="rotate(-0 126.882499 168.471576)">−2.5</text>
     </g>
    </g>
    <g id="xtick_3">
     <g id="line2d_3">
      <g>
       <use xlink:href="#mc5176c1e08" x="168.178516" y="153.113294" style="stroke: #000000; stroke-width: 0.8"/>
      </g>
     </g>
     <g id="text_3">
      <text style="font: 11px 'DejaVu Sans', 'Bitstream Vera Sans', 'Computer Modern Sans Serif', 'Lucida Grande', 'Verdana', 'Geneva', 'Lucid', 'Arial', 'Helvetica', 'Avant Garde', sans-serif; text-anchor: middle" x="168.178516" y="168.471576" transform="rotate(-0 168.178516 168.471576)">0.0</text>
     </g>
    </g>
    <g id="xtick_4">
     <g id="line2d_4">
      <g>
       <use xlink:href="#mc5176c1e08" x="209.474532" y="153.113294" style="stroke: #000000; stroke-width: 0.8"/>
      </g>
     </g>
     <g id="text_4">
      <text style="font: 11px 'DejaVu Sans', 'Bitstream Vera Sans', 'Computer Modern Sans Serif', 'Lucida Grande', 'Verdana', 'Geneva', 'Lucid', 'Arial', 'Helvetica', 'Avant Garde', sans-serif; text-anchor: middle" x="209.474532" y="168.471576" transform="rotate(-0 209.474532 168.471576)">2.5</text>
     </g>
    </g>
    <g id="xtick_5">
     <g id="line2d_5">
      <g>
       <use xlink:href="#mc5176c1e08" x="250.770549" y="153.113294" style="stroke: #000000; stroke-width: 0.8"/>
      </g>
     </g>
     <g id="text_5">
      <text style="font: 11px 'DejaVu Sans', 'Bitstream Vera Sans', 'Computer Modern Sans Serif', 'Lucida Grande', 'Verdana', 'Geneva', 'Lucid', 'Arial', 'Helvetica', 'Avant Garde', sans-serif; text-anchor: middle" x="250.770549" y="168.471576" transform="rotate(-0 250.770549 168.471576)">5.0</text>
     </g>
    </g>
    <g id="text_6">
     <text style="font: 11px 'DejaVu Sans', 'Bitstream Vera Sans', 'Computer Modern Sans Serif', 'Lucida Grande', 'Verdana', 'Geneva', 'Lucid', 'Arial', 'Helvetica', 'Avant Garde', sans-serif; text-anchor: middle" x="168.178516" y="183.117513" transform="rotate(-0 168.178516 183.117513)">z (Input)</text>
    </g>
   </g>
   <g id="matplotlib.axis_2">
    <g id="ytick_1">
     <g id="line2d_6">
      <defs>
       <path id="m12d786868a" d="M 0 0 
L -3.5 0 
" style="stroke: #000000; stroke-width: 0.8"/>
      </defs>
      <g>
       <use xlink:href="#m12d786868a" x="59.157031" y="180.740125" style="stroke: #000000; stroke-width: 0.8"/>
      </g>
     </g>
     <g id="text_7">
      <text style="font: 11px 'DejaVu Sans', 'Bitstream Vera Sans', 'Computer Modern Sans Serif', 'Lucida Grande', 'Verdana', 'Geneva', 'Lucid', 'Arial', 'Helvetica', 'Avant Garde', sans-serif; text-anchor: end" x="52.157031" y="184.919266" transform="rotate(-0 52.157031 184.919266)">−0.2</text>
     </g>
    </g>
    <g id="ytick_2">
     <g id="line2d_7">
      <g>
       <use xlink:href="#m12d786868a" x="59.157031" y="153.113294" style="stroke: #000000; stroke-width: 0.8"/>
      </g>
     </g>
     <g id="text_8">
      <text style="font: 11px 'DejaVu Sans', 'Bitstream Vera Sans', 'Computer Modern Sans Serif', 'Lucida Grande', 'Verdana', 'Geneva', 'Lucid', 'Arial', 'Helvetica', 'Avant Garde', sans-serif; text-anchor: end" x="52.157031" y="157.292435" transform="rotate(-0 52.157031 157.292435)">0.0</text>
     </g>
    </g>
    <g id="ytick_3">
     <g id="line2d_8">
      <g>
       <use xlink:href="#m12d786868a" x="59.157031" y="125.486464" style="stroke: #000000; stroke-width: 0.8"/>
      </g>
     </g>
     <g id="text_9">
      <text style="font: 11px 'DejaVu Sans', 'Bitstream Vera Sans', 'Computer Modern Sans Serif', 'Lucida Grande', 'Verdana', 'Geneva', 'Lucid', 'Arial', 'Helvetica', 'Avant Garde', sans-serif; text-anchor: end" x="52.157031" y="129.665604" transform="rotate(-0 52.157031 129.665604)">0.2</text>
     </g>
    </g>
    <g id="ytick_4">
     <g id="line2d_9">
      <g>
       <use xlink:href="#m12d786868a" x="59.157031" y="97.859633" style="stroke: #000000; stroke-width: 0.8"/>
      </g>
     </g>
     <g id="text_10">
      <text style="font: 11px 'DejaVu Sans', 'Bitstream Vera Sans', 'Computer Modern Sans Serif', 'Lucida Grande', 'Verdana', 'Geneva', 'Lucid', 'Arial', 'Helvetica', 'Avant Garde', sans-serif; text-anchor: end" x="52.157031" y="102.038773" transform="rotate(-0 52.157031 102.038773)">0.4</text>
     </g>
    </g>
    <g id="ytick_5">
     <g id="line2d_10">
      <g>
       <use xlink:href="#m12d786868a" x="59.157031" y="70.232802" style="stroke: #000000; stroke-width: 0.8"/>
      </g>
     </g>
     <g id="text_11">
      <text style="font: 11px 'DejaVu Sans', 'Bitstream Vera Sans', 'Computer Modern Sans Serif', 'Lucida Grande', 'Verdana', 'Geneva', 'Lucid', 'Arial', 'Helvetica', 'Avant Garde', sans-serif; text-anchor: end" x="52.157031" y="74.411943" transform="rotate(-0 52.157031 74.411943)">0.6</text>
     </g>
    </g>
    <g id="ytick_6">
     <g id="line2d_11">
      <g>
       <use xlink:href="#m12d786868a" x="59.157031" y="42.605971" style="stroke: #000000; stroke-width: 0.8"/>
      </g>
     </g>
     <g id="text_12">
      <text style="font: 11px 'DejaVu Sans', 'Bitstream Vera Sans', 'Computer Modern Sans Serif', 'Lucida Grande', 'Verdana', 'Geneva', 'Lucid', 'Arial', 'Helvetica', 'Avant Garde', sans-serif; text-anchor: end" x="52.157031" y="46.785112" transform="rotate(-0 52.157031 46.785112)">0.8</text>
     </g>
    </g>
    <g id="ytick_7">
     <g id="line2d_12">
      <g>
       <use xlink:href="#m12d786868a" x="59.157031" y="14.979141" style="stroke: #000000; stroke-width: 0.8"/>
      </g>
     </g>
     <g id="text_13">
      <text style="font: 11px 'DejaVu Sans', 'Bitstream Vera Sans', 'Computer Modern Sans Serif', 'Lucida Grande', 'Verdana', 'Geneva', 'Lucid', 'Arial', 'Helvetica', 'Avant Garde', sans-serif; text-anchor: end" x="52.157031" y="19.158281" transform="rotate(-0 52.157031 19.158281)">1.0</text>
     </g>
    </g>
    <g id="text_14">
     <text style="font: 11px 'DejaVu Sans', 'Bitstream Vera Sans', 'Computer Modern Sans Serif', 'Lucida Grande', 'Verdana', 'Geneva', 'Lucid', 'Arial', 'Helvetica', 'Avant Garde', sans-serif; text-anchor: middle" x="19.158281" y="97.859633" transform="rotate(-90 19.158281 97.859633)">f(z) (Activation)</text>
    </g>
   </g>
   <g id="line2d_13">
    <path d="M 69.068075 152.696348 
L 71.070306 152.654033 
L 73.072538 152.607439 
L 75.074769 152.556137 
L 77.077 152.499655 
L 79.079231 152.437476 
L 81.081462 152.36903 
L 83.083693 152.293693 
L 85.085924 152.210781 
L 87.088155 152.119542 
L 89.090386 152.019153 
L 91.092618 151.908711 
L 93.094849 151.78723 
L 95.09708 151.653628 
L 97.099311 151.506723 
L 99.101542 151.345224 
L 101.103773 151.167723 
L 103.106004 150.972681 
L 105.108235 150.758425 
L 107.110467 150.523132 
L 109.112698 150.264822 
L 111.114929 149.981348 
L 113.11716 149.67038 
L 115.119391 149.329402 
L 117.121622 148.955696 
L 119.123853 148.546337 
L 121.126084 148.098182 
L 123.128315 147.607861 
L 125.130547 147.071778 
L 127.132778 146.486103 
L 129.135009 145.846776 
L 131.13724 145.149507 
L 133.139471 144.38979 
L 135.141702 143.562917 
L 137.143933 142.663996 
L 139.146164 141.687982 
L 141.148396 140.629717 
L 143.150627 139.483975 
L 145.152858 138.245518 
L 147.155089 136.909174 
L 149.15732 135.469908 
L 151.159551 133.922925 
L 153.161782 132.263773 
L 155.164013 130.48846 
L 157.166244 128.593584 
L 159.168476 126.576467 
L 161.170707 124.435298 
L 163.172938 122.169269 
L 165.175169 119.778718 
L 167.1774 117.265249 
L 169.179631 114.631852 
L 171.181862 111.882982 
L 173.184093 109.024626 
L 175.186325 106.064321 
L 177.188556 103.01114 
L 179.190787 99.875631 
L 181.193018 96.669711 
L 183.195249 93.406509 
L 185.19748 90.100172 
L 187.199711 86.765635 
L 189.201942 83.418352 
L 191.204173 80.074016 
L 193.206405 76.748265 
L 195.208636 73.456391 
L 197.210867 70.213061 
L 199.213098 67.032068 
L 201.215329 63.926107 
L 203.21756 60.906596 
L 205.219791 57.983539 
L 207.222022 55.165441 
L 209.224254 52.459255 
L 211.226485 49.870389 
L 213.228716 47.402741 
L 215.230947 45.058768 
L 217.233178 42.839586 
L 219.235409 40.745088 
L 221.23764 38.774074 
L 223.239871 36.92439 
L 225.242102 35.19307 
L 227.244334 33.576477 
L 229.246565 32.070431 
L 231.248796 30.670337 
L 233.251027 29.3713 
L 235.253258 28.168223 
L 237.255489 27.055899 
L 239.25772 26.029088 
L 241.259951 25.082583 
L 243.262183 24.211264 
L 245.264414 23.410138 
L 247.266645 22.674381 
L 249.268876 21.999357 
L 251.271107 21.380639 
L 253.273338 20.814025 
L 255.275569 20.295539 
L 257.2778 19.82144 
L 259.280031 19.388215 
L 261.282263 18.992583 
L 263.284494 18.631482 
L 265.286725 18.302065 
L 267.288956 18.001691 
" clip-path="url(#p4d8b7f9eab)" style="fill: none; stroke: #bf00bf; stroke-opacity: 0.3; stroke-width: 1.5; stroke-linecap: square"/>
   </g>
   <g id="line2d_14">
    <path d="M 69.068075 145.194868 
L 71.070306 144.919021 
L 73.072538 144.634191 
L 75.074769 144.340128 
L 77.077 144.036581 
L 79.079231 143.723294 
L 81.081462 143.400008 
L 83.083693 143.066459 
L 85.085924 142.722384 
L 87.088155 142.367513 
L 89.090386 142.001578 
L 91.092618 141.624304 
L 93.094849 141.235419 
L 95.09708 140.834647 
L 97.099311 140.421712 
L 99.101542 139.996337 
L 101.103773 139.558246 
L 103.106004 139.107162 
L 105.108235 138.64281 
L 107.110467 138.164918 
L 109.112698 137.673214 
L 111.114929 137.167429 
L 113.11716 136.6473 
L 115.119391 136.112565 
L 117.121622 135.562969 
L 119.123853 134.998264 
L 121.126084 134.418205 
L 123.128315 133.822558 
L 125.130547 133.211095 
L 127.132778 132.583599 
L 129.135009 131.939861 
L 131.13724 131.279685 
L 133.139471 130.602888 
L 135.141702 129.909296 
L 137.143933 129.198754 
L 139.146164 128.471119 
L 141.148396 127.726265 
L 143.150627 126.964084 
L 145.152858 126.184486 
L 147.155089 125.387401 
L 149.15732 124.572776 
L 151.159551 123.740585 
L 153.161782 122.89082 
L 155.164013 122.023498 
L 157.166244 121.138661 
L 159.168476 120.236376 
L 161.170707 119.316735 
L 163.172938 118.379858 
L 165.175169 117.425893 
L 167.1774 116.455016 
L 169.179631 115.467432 
L 171.181862 114.463376 
L 173.184093 113.443113 
L 175.186325 112.406937 
L 177.188556 111.355174 
L 179.190787 110.288182 
L 181.193018 109.206346 
L 183.195249 108.110086 
L 185.19748 106.999849 
L 187.199711 105.876116 
L 189.201942 104.739393 
L 191.204173 103.59022 
L 193.206405 102.429162 
L 195.208636 101.256813 
L 197.210867 100.073794 
L 199.213098 98.880751 
L 201.215329 97.678354 
L 203.21756 96.467297 
L 205.219791 95.248295 
L 207.222022 94.022084 
L 209.224254 92.789415 
L 211.226485 91.55106 
L 213.228716 90.307803 
L 215.230947 89.06044 
L 217.233178 87.809781 
L 219.235409 86.556641 
L 221.23764 85.301844 
L 223.239871 84.046217 
L 225.242102 82.790591 
L 227.244334 81.535794 
L 229.246565 80.282654 
L 231.248796 79.031995 
L 233.251027 77.784632 
L 235.253258 76.541375 
L 237.255489 75.30302 
L 239.25772 74.070351 
L 241.259951 72.84414 
L 243.262183 71.625138 
L 245.264414 70.414081 
L 247.266645 69.211684 
L 249.268876 68.018641 
L 251.271107 66.835622 
L 253.273338 65.663273 
L 255.275569 64.502215 
L 257.2778 63.353042 
L 259.280031 62.216319 
L 261.282263 61.092586 
L 263.284494 59.982349 
L 265.286725 58.886089 
L 267.288956 57.804253 
" clip-path="url(#p4d8b7f9eab)" style="fill: none; stroke: #00bfbf; stroke-opacity: 0.3; stroke-width: 1.5; stroke-linecap: square"/>
   </g>
   <g id="patch_3">
    <path d="M 59.157031 180.740125 
L 59.157031 14.979141 
" style="fill: none; stroke: #000000; stroke-width: 0.8; stroke-linejoin: miter; stroke-linecap: square"/>
   </g>
   <g id="patch_4">
    <path d="M 277.2 180.740125 
L 277.2 14.979141 
" style="fill: none"/>
   </g>
   <g id="patch_5">
    <path d="M 59.157031 153.113294 
L 277.2 153.113294 
" style="fill: none; stroke: #000000; stroke-width: 0.8; stroke-linejoin: miter; stroke-linecap: square"/>
   </g>
   <g id="patch_6">
    <path d="M 59.157031 14.979141 
L 277.2 14.979141 
" style="fill: none"/>
   </g>
   <g id="text_15">
    <!-- $f(z) =  \dfrac{1}{1 + e^{-gz}}$ -->
    <g style="opacity: 0.75" transform="translate(129.843516 28.792556)">
     <text>
      <tspan style="font: oblique 11px 'DejaVu Sans'" x="0 8.164062 52.233887" y="-0.1640625 -0.1640625 6.973437499999999">fze</tspan>
      <tspan style="font: 11px 'DejaVu Sans'" x="3.872559 13.937988 20.372559 31.732422 40.874023 49.732422" y="-0.1640625 -0.1640625 -0.1640625 6.973437499999999 6.973437499999999 -4.984375">()=1+1</tspan>
      <tspan style="font: 7.7px 'DejaVu Sans'" x="59.512428" y="2.7624999999999993">−</tspan>
      <tspan style="font: oblique 7.7px 'DejaVu Sans'" x="65.964186 70.851882" y="2.7624999999999993">gz</tspan>
     </text>
     <rect x="31.732422" y="-3.234375" width="43.461989" height="0.6875"/>
    </g>
   </g>
   <g id="text_16">
    <!-- $z=\sum_{i=1}^{n}{w_ix_i+b}$ -->
    <g style="opacity: 0.75" transform="translate(96.806702 84.046217)">
     <text>
      <tspan style="font: oblique 11px 'DejaVu Sans'" x="0 35.767187 47.203857 69.656641" y="-0.4406250000000007">zwxb</tspan>
      <tspan style="font: 11px 'DejaVu Sans'" x="7.916992 58.296777" y="-0.4406250000000007">=+</tspan>
      <tspan style="font: oblique 7.7px 'DejaVu Sans'" x="19.276855 25.276855 44.76377 53.713623" y="10.4578125 -13.690625 1.3640624999999993 1.3640624999999993">inii</tspan>
      <tspan style="font: 11px 'DejaVu Sans Display'" x="22.276855" y="-0.4406250000000007">∑</tspan>
      <tspan style="font: 7.7px 'DejaVu Sans'" x="22.916309 30.868213" y="10.4578125">=1</tspan>
     </text>
    </g>
   </g>
   <g id="text_17">
    <text style="opacity: 0.75; font: 11px 'DejaVu Sans', 'Bitstream Vera Sans', 'Computer Modern Sans Serif', 'Lucida Grande', 'Verdana', 'Geneva', 'Lucid', 'Arial', 'Helvetica', 'Avant Garde', sans-serif; text-anchor: middle" x="230.948461" y="52.547992" transform="rotate(-0 230.948461 52.547992)">g</text>
   </g>
   <g id="patch_7">
    <path d="M 235.903983 44.746444 
Q 235.903983 37.768565 235.903983 31.908721 
" style="fill: none; stroke: #000000; stroke-linecap: round"/>
    <path d="M 233.903983 35.908721 
L 235.903983 31.908721 
L 237.903983 35.908721 
" style="fill: none; stroke: #000000; stroke-linecap: round"/>
   </g>
   <g id="patch_8">
    <path d="M 235.903983 55.660256 
Q 235.903983 62.638134 235.903983 68.497979 
" style="fill: none; stroke: #000000; stroke-linecap: round"/>
    <path d="M 237.903983 64.497979 
L 235.903983 68.497979 
L 233.903983 64.497979 
" style="fill: none; stroke: #000000; stroke-linecap: round"/>
   </g>
   <g id="legend_1">
    <g id="patch_9">
     <path d="M 200.132969 205.255902 
L 269.5 205.255902 
Q 271.7 205.255902 271.7 203.055902 
L 271.7 171.864027 
Q 271.7 169.664027 269.5 169.664027 
L 200.132969 169.664027 
Q 197.932969 169.664027 197.932969 171.864027 
L 197.932969 203.055902 
Q 197.932969 205.255902 200.132969 205.255902 
z
" style="fill: #ffffff; opacity: 0.8; stroke: #cccccc; stroke-linejoin: miter"/>
    </g>
    <g id="line2d_15">
     <path d="M 202.332969 178.572308 
L 213.332969 178.572308 
L 224.332969 178.572308 
" style="fill: none; stroke: #bf00bf; stroke-opacity: 0.3; stroke-width: 1.5; stroke-linecap: square"/>
    </g>
    <g id="text_18">
     <text style="font: 11px 'DejaVu Sans', 'Bitstream Vera Sans', 'Computer Modern Sans Serif', 'Lucida Grande', 'Verdana', 'Geneva', 'Lucid', 'Arial', 'Helvetica', 'Avant Garde', sans-serif; text-anchor: start" x="233.132969" y="182.422308" transform="rotate(-0 233.132969 182.422308)">young</text>
    </g>
    <g id="line2d_16">
     <path d="M 202.332969 194.718245 
L 213.332969 194.718245 
L 224.332969 194.718245 
" style="fill: none; stroke: #00bfbf; stroke-opacity: 0.3; stroke-width: 1.5; stroke-linecap: square"/>
    </g>
    <g id="text_19">
     <text style="font: 11px 'DejaVu Sans', 'Bitstream Vera Sans', 'Computer Modern Sans Serif', 'Lucida Grande', 'Verdana', 'Geneva', 'Lucid', 'Arial', 'Helvetica', 'Avant Garde', sans-serif; text-anchor: start" x="233.132969" y="198.568245" transform="rotate(-0 233.132969 198.568245)">old</text>
    </g>
   </g>
  </g>
 </g>
 <defs>
  <clipPath id="p4d8b7f9eab">
   <rect x="59.157031" y="14.979141" width="218.042969" height="165.760984"/>
  </clipPath>
 </defs>
</svg>
