<?xml version="1.0" encoding="utf-8" standalone="no"?>
<!DOCTYPE svg PUBLIC "-//W3C//DTD SVG 1.1//EN"
  "http://www.w3.org/Graphics/SVG/1.1/DTD/svg11.dtd">
<svg xmlns:xlink="http://www.w3.org/1999/xlink" width="288pt" height="216pt" viewBox="0 0 288 216" xmlns="http://www.w3.org/2000/svg" version="1.1">
 <metadata>
  <rdf:RDF xmlns:dc="http://purl.org/dc/elements/1.1/" xmlns:cc="http://creativecommons.org/ns#" xmlns:rdf="http://www.w3.org/1999/02/22-rdf-syntax-ns#">
   <cc:Work>
    <dc:type rdf:resource="http://purl.org/dc/dcmitype/StillImage"/>
    <dc:date>2023-05-20T11:35:43.770201</dc:date>
    <dc:format>image/svg+xml</dc:format>
    <dc:creator>
     <cc:Agent>
      <dc:title>Matplotlib v3.7.1, https://matplotlib.org/</dc:title>
     </cc:Agent>
    </dc:creator>
   </cc:Work>
  </rdf:RDF>
 </metadata>
 <defs>
  <style type="text/css">*{stroke-linejoin: round; stroke-linecap: butt}</style>
 </defs>
 <g id="figure_1">
  <g id="patch_1">
   <path d="M 0 216 
L 288 216 
L 288 0 
L 0 0 
z
" style="fill: #ffffff"/>
  </g>
  <g id="axes_1">
   <g id="patch_2">
    <path d="M 10.8 205.2 
L 277.2 205.2 
L 277.2 10.8 
L 10.8 10.8 
z
" style="fill: #ffffff"/>
   </g>
   <g id="matplotlib.axis_1"/>
   <g id="matplotlib.axis_2"/>
   <g id="line2d_1">
    <path d="M 22.909091 192.033011 
L 25.355372 191.985394 
L 27.801653 191.932745 
L 30.247934 191.874535 
L 32.694215 191.810182 
L 35.140496 191.739042 
L 37.586777 191.660407 
L 40.033058 191.573492 
L 42.479339 191.477437 
L 44.92562 191.371292 
L 47.371901 191.254009 
L 49.818182 191.124439 
L 52.264463 190.981313 
L 54.710744 190.823239 
L 57.157025 190.648687 
L 59.603306 190.455976 
L 62.049587 190.243262 
L 64.495868 190.008526 
L 66.942149 189.749555 
L 69.38843 189.463929 
L 71.834711 189.149005 
L 74.280992 188.801899 
L 76.727273 188.41947 
L 79.173554 187.998304 
L 81.619835 187.534695 
L 84.066116 187.024627 
L 86.512397 186.463765 
L 88.958678 185.847435 
L 91.404959 185.170616 
L 93.85124 184.427931 
L 96.297521 183.613644 
L 98.743802 182.721661 
L 101.190083 181.745538 
L 103.636364 180.678499 
L 106.082645 179.513459 
L 108.528926 178.243068 
L 110.975207 176.859756 
L 113.421488 175.355803 
L 115.867769 173.723421 
L 118.31405 171.954861 
L 120.760331 170.042527 
L 123.206612 167.979128 
L 125.652893 165.757835 
L 128.099174 163.372468 
L 130.545455 160.817695 
L 132.991736 158.089249 
L 135.438017 155.184153 
L 137.884298 152.100946 
L 140.330579 148.839908 
L 142.77686 145.403263 
L 145.22314 141.795368 
L 147.669421 138.022847 
L 150.115702 134.094695 
L 152.561983 130.022311 
L 155.008264 125.819461 
L 157.454545 121.502178 
L 159.900826 117.088568 
L 162.347107 112.598555 
L 164.793388 108.053548 
L 167.239669 103.476046 
L 169.68595 98.889203 
L 172.132231 94.316361 
L 174.578512 89.780582 
L 177.024793 85.30418 
L 179.471074 80.908295 
L 181.917355 76.612513 
L 184.363636 72.434544 
L 186.809917 68.389979 
L 189.256198 64.492119 
L 191.702479 60.751881 
L 194.14876 57.177779 
L 196.595041 53.775979 
L 199.041322 50.550393 
L 201.487603 47.502845 
L 203.933884 44.633248 
L 206.380165 41.939819 
L 208.826446 39.419306 
L 211.272727 37.06721 
L 213.719008 34.878014 
L 216.165289 32.845391 
L 218.61157 30.962408 
L 221.057851 29.221697 
L 223.504132 27.615625 
L 225.950413 26.136422 
L 228.396694 24.776308 
L 230.842975 23.527586 
L 233.289256 22.382727 
L 235.735537 21.334429 
L 238.181818 20.375665 
L 240.628099 19.499726 
L 243.07438 18.700236 
L 245.520661 17.971171 
L 247.966942 17.306869 
L 250.413223 16.702022 
L 252.859504 16.151682 
L 255.305785 15.651243 
L 257.752066 15.196433 
L 260.198347 14.783301 
L 262.644628 14.408202 
L 265.090909 14.067775 
" clip-path="url(#p8ea7c74719)" style="fill: none; stroke: #000000; stroke-width: 1.5; stroke-linecap: square"/>
   </g>
   <g id="patch_3">
    <path d="M 22.909091 205.2 
L 22.909091 10.8 
" style="fill: none; stroke: #000000; stroke-width: 0.8; stroke-linejoin: miter; stroke-linecap: square"/>
   </g>
   <g id="patch_4">
    <path d="M 277.2 205.2 
L 277.2 10.8 
" style="fill: none"/>
   </g>
   <g id="patch_5">
    <path d="M 10.8 192.482243 
L 277.2 192.482243 
" style="fill: none; stroke: #000000; stroke-width: 0.8; stroke-linejoin: miter; stroke-linecap: square"/>
   </g>
   <g id="patch_6">
    <path d="M 10.8 10.8 
L 277.2 10.8 
" style="fill: none"/>
   </g>
  </g>
 </g>
 <defs>
  <clipPath id="p8ea7c74719">
   <rect x="10.8" y="10.8" width="266.4" height="194.4"/>
  </clipPath>
 </defs>
</svg>
