<?xml version="1.0" encoding="utf-8" standalone="no"?>
<!DOCTYPE svg PUBLIC "-//W3C//DTD SVG 1.1//EN"
  "http://www.w3.org/Graphics/SVG/1.1/DTD/svg11.dtd">
<svg xmlns:xlink="http://www.w3.org/1999/xlink" width="360pt" height="288pt" viewBox="0 0 360 288" xmlns="http://www.w3.org/2000/svg" version="1.1">
 <metadata>
  <rdf:RDF xmlns:dc="http://purl.org/dc/elements/1.1/" xmlns:cc="http://creativecommons.org/ns#" xmlns:rdf="http://www.w3.org/1999/02/22-rdf-syntax-ns#">
   <cc:Work>
    <dc:type rdf:resource="http://purl.org/dc/dcmitype/StillImage"/>
    <dc:date>2023-05-19T16:44:38.697046</dc:date>
    <dc:format>image/svg+xml</dc:format>
    <dc:creator>
     <cc:Agent>
      <dc:title>Matplotlib v3.7.1, https://matplotlib.org/</dc:title>
     </cc:Agent>
    </dc:creator>
   </cc:Work>
  </rdf:RDF>
 </metadata>
 <defs>
  <style type="text/css">*{stroke-linejoin: round; stroke-linecap: butt}</style>
 </defs>
 <g id="figure_1">
  <g id="patch_1">
   <path d="M 0 288 
L 360 288 
L 360 0 
L 0 0 
z
" style="fill: #ffffff"/>
  </g>
  <g id="axes_1">
   <g id="patch_2">
    <path d="M 45 256.32 
L 324 256.32 
L 324 34.56 
L 45 34.56 
z
" style="fill: #ffffff"/>
   </g>
   <g id="matplotlib.axis_1"/>
   <g id="matplotlib.axis_2"/>
   <g id="line2d_1">
    <path d="M 45 233.646536 
L 46.86 239.310761 
L 48.72 238.245182 
L 50.58 237.643209 
L 52.44 234.386715 
L 54.3 234.631296 
L 56.16 236.286351 
L 58.02 233.402186 
L 59.88 239.466343 
L 61.74 232.193321 
L 63.6 238.305351 
L 65.46 240.022601 
L 67.32 235.128897 
L 69.18 238.126233 
L 71.04 239.347313 
L 72.9 232.89786 
L 74.76 238.520663 
L 76.62 235.452114 
L 78.48 239.589269 
L 80.34 233.821327 
L 82.2 235.949563 
L 84.06 233.820799 
L 85.92 237.659862 
L 87.78 235.097885 
L 91.5 235.309787 
L 93.36 236.278472 
L 95.22 236.952417 
L 97.08 236.543881 
L 98.94 239.737346 
L 100.8 233.300224 
L 102.66 235.464273 
L 104.52 234.510495 
L 106.38 235.007572 
L 108.24 237.808386 
L 110.1 233.651505 
L 111.96 238.315132 
L 113.82 235.153023 
L 115.68 232.274821 
L 119.4 235.301147 
L 121.26 234.205936 
L 123.12 239.459075 
L 124.98 235.632173 
L 126.84 235.819283 
L 128.7 238.74387 
L 130.56 232.404601 
L 132.42 236.606935 
L 134.28 235.080798 
L 136.14 236.538928 
L 138 234.866077 
L 141.72 232.547763 
L 143.58 238.308265 
L 145.44 233.277494 
L 147.3 237.642198 
L 149.16 234.444499 
L 151.02 238.078134 
L 152.88 235.073862 
L 154.74 235.867811 
L 156.6 236.450975 
L 158.46 236.063699 
L 160.32 239.731611 
L 162.18 234.753491 
L 164.04 234.870927 
L 165.9 238.248729 
L 167.76 233.566921 
L 169.62 237.155333 
L 171.48 240.126059 
L 173.34 232.297495 
L 175.2 235.466813 
L 177.06 232.177583 
L 178.92 236.203516 
L 180.78 232.852512 
L 182.64 237.717967 
L 184.5 235.738207 
L 186.36 238.40567 
L 188.22 237.56895 
L 190.08 234.133733 
L 191.94 239.42327 
L 193.8 237.059426 
L 195.66 232.807194 
L 197.52 235.313308 
L 199.38 235.950725 
L 201.24 240.040511 
L 203.1 233.380677 
L 204.96 234.048364 
L 208.68 234.492022 
L 210.54 232.264994 
L 212.4 233.502223 
L 214.26 236.504885 
L 216.12 238.185009 
L 217.98 233.145762 
L 219.84 232.162534 
L 221.7 233.761854 
L 223.56 239.256436 
L 225.42 233.657457 
L 227.28 238.303582 
L 229.14 235.193178 
L 231 239.801123 
L 232.86 236.48366 
L 234.72 239.902973 
L 236.58 237.519575 
L 238.44 232.712895 
L 240.3 237.274986 
L 242.16 233.564461 
L 244.02 235.438508 
L 245.88 239.167254 
L 247.74 239.649716 
L 249.6 237.384583 
L 251.46 234.716065 
L 253.32 233.282731 
L 255.18 232.394545 
L 257.04 238.566514 
L 258.9 233.236254 
L 260.76 237.524433 
L 262.62 236.360058 
L 264.48 232.790041 
L 266.34 237.458865 
L 268.2 236.64794 
L 270.06 238.746497 
L 271.92 236.627356 
L 273.78 238.294695 
L 275.64 235.433515 
L 277.5 240.114546 
L 279.36 235.213603 
L 281.22 232.881214 
L 283.08 232.73762 
L 284.94 237.325761 
L 286.8 232.829925 
L 288.66 237.190451 
L 290.52 235.27086 
L 292.38 236.179996 
L 294.24 239.942268 
L 296.1 238.881468 
L 297.96 239.85882 
L 299.82 239.951942 
L 301.68 238.274354 
L 303.54 237.111563 
L 305.4 236.878462 
L 307.26 237.546907 
L 309.12 232.242136 
L 310.98 240.075712 
L 312.84 235.421141 
L 314.7 232.917472 
L 316.56 239.261776 
L 318.42 235.079474 
L 320.28 234.502899 
L 322.14 235.76835 
L 322.14 235.76835 
" clip-path="url(#pb1366afde7)" style="fill: none; stroke: #000000; stroke-width: 2; stroke-linecap: square"/>
   </g>
   <g id="line2d_2">
    <path d="M 45 214.472553 
L 46.86 213.874436 
L 48.72 215.505657 
L 50.58 219.341217 
L 52.44 218.289039 
L 54.3 212.853178 
L 56.16 215.883739 
L 58.02 218.610574 
L 59.88 219.195781 
L 61.74 219.012588 
L 63.6 212.561928 
L 65.46 214.554003 
L 67.32 219.289514 
L 69.18 219.567891 
L 71.04 214.16948 
L 72.9 216.875113 
L 74.76 214.31447 
L 76.62 213.755364 
L 78.48 217.144176 
L 80.34 214.788037 
L 82.2 218.590686 
L 84.06 212.73791 
L 85.92 212.401066 
L 87.78 218.47666 
L 89.64 219.224412 
L 91.5 216.384193 
L 93.36 216.479432 
L 95.22 218.72822 
L 97.08 216.256625 
L 98.94 216.574239 
L 100.8 219.207934 
L 102.66 214.913547 
L 104.52 212.950159 
L 106.38 218.900927 
L 108.24 216.573847 
L 110.1 218.767315 
L 111.96 217.709093 
L 113.82 213.94898 
L 115.68 212.834785 
L 117.54 218.7924 
L 119.4 214.860847 
L 121.26 215.609216 
L 123.12 214.496775 
L 124.98 217.198639 
L 126.84 215.983572 
L 128.7 218.908792 
L 130.56 216.568601 
L 132.42 217.515253 
L 134.28 219.534307 
L 136.14 219.188485 
L 138 215.30535 
L 139.86 219.42254 
L 141.72 213.128137 
L 143.58 216.491138 
L 145.44 211.992332 
L 147.3 216.50719 
L 149.16 212.395209 
L 151.02 218.629569 
L 152.88 217.716553 
L 154.74 218.767416 
L 156.6 215.786149 
L 158.46 218.5039 
L 160.32 214.524972 
L 162.18 216.224509 
L 164.04 215.821606 
L 165.9 217.492739 
L 167.76 217.676436 
L 169.62 214.956761 
L 171.48 216.956288 
L 173.34 219.950772 
L 175.2 219.666682 
L 177.06 217.187264 
L 180.78 215.190587 
L 182.64 213.415566 
L 184.5 216.244374 
L 186.36 216.676621 
L 188.22 213.576677 
L 190.08 213.584606 
L 191.94 217.35152 
L 193.8 212.399668 
L 195.66 217.926666 
L 197.52 217.92987 
L 199.38 212.663955 
L 201.24 217.669256 
L 203.1 215.802938 
L 204.96 214.766789 
L 206.82 218.368568 
L 208.68 212.521002 
L 210.54 218.109682 
L 212.4 212.22551 
L 214.26 216.012437 
L 216.12 214.826201 
L 217.98 212.220245 
L 219.84 217.198203 
L 221.7 214.874189 
L 223.56 212.848724 
L 225.42 218.261364 
L 227.28 219.325291 
L 229.14 215.091647 
L 231 219.801441 
L 232.86 213.823167 
L 234.72 218.337239 
L 236.58 216.704872 
L 238.44 213.77998 
L 240.3 215.680973 
L 242.16 214.096874 
L 244.02 215.564106 
L 245.88 217.788258 
L 247.74 219.683105 
L 249.6 214.46432 
L 251.46 212.726906 
L 253.32 219.329668 
L 255.18 214.751787 
L 257.04 212.350967 
L 258.9 216.315903 
L 260.76 213.634542 
L 262.62 213.033886 
L 264.48 219.484317 
L 266.34 216.697038 
L 268.2 216.298504 
L 270.06 213.676253 
L 271.92 213.430264 
L 273.78 219.414114 
L 275.64 214.838397 
L 277.5 212.108043 
L 279.36 214.97718 
L 281.22 214.372049 
L 283.08 217.153706 
L 284.94 216.712562 
L 286.8 212.434503 
L 288.66 215.255886 
L 290.52 215.010743 
L 292.38 219.462966 
L 294.24 217.153269 
L 296.1 218.901715 
L 297.96 217.434064 
L 299.82 212.985524 
L 301.68 216.323818 
L 303.54 216.81653 
L 305.4 212.256854 
L 307.26 218.330511 
L 309.12 217.957251 
L 310.98 217.780937 
L 312.84 219.144142 
L 314.7 214.060557 
L 316.56 215.016895 
L 318.42 212.614254 
L 320.28 217.554737 
L 322.14 220.002753 
L 322.14 220.002753 
" clip-path="url(#pb1366afde7)" style="fill: none; stroke: #000000; stroke-width: 2; stroke-linecap: square"/>
   </g>
   <g id="line2d_3">
    <path d="M 45 192.37473 
L 46.86 195.109465 
L 48.72 194.227026 
L 50.58 194.703277 
L 52.44 192.294268 
L 54.3 196.777251 
L 56.16 194.472902 
L 58.02 193.413977 
L 59.88 191.952811 
L 61.74 196.489948 
L 63.6 194.614458 
L 65.46 198.698746 
L 67.32 199.592833 
L 69.18 195.351848 
L 71.04 199.677004 
L 72.9 196.286082 
L 74.76 198.723206 
L 76.62 191.907018 
L 78.48 191.826632 
L 80.34 194.699022 
L 82.2 197.263227 
L 84.06 191.813656 
L 85.92 196.285636 
L 87.78 198.184258 
L 89.64 197.682101 
L 91.5 194.659244 
L 93.36 194.394223 
L 95.22 193.22943 
L 97.08 198.260865 
L 98.94 193.861571 
L 100.8 191.917295 
L 102.66 199.77681 
L 104.52 193.213015 
L 106.38 196.258599 
L 108.24 198.023963 
L 110.1 191.891149 
L 111.96 197.173259 
L 113.82 196.80522 
L 115.68 196.001392 
L 117.54 196.951088 
L 119.4 199.022306 
L 121.26 196.517414 
L 123.12 198.571616 
L 124.98 198.780887 
L 126.84 196.563976 
L 128.7 195.080684 
L 130.56 194.812198 
L 132.42 192.876609 
L 134.28 193.446973 
L 136.14 195.717686 
L 138 198.701623 
L 139.86 195.202113 
L 141.72 196.005191 
L 143.58 199.713643 
L 145.44 194.671554 
L 147.3 197.765741 
L 149.16 192.632372 
L 151.02 193.725681 
L 152.88 199.735368 
L 154.74 194.459536 
L 156.6 197.105533 
L 158.46 193.154994 
L 160.32 198.873787 
L 162.18 196.221978 
L 164.04 192.148985 
L 165.9 194.972905 
L 167.76 198.062466 
L 169.62 199.216771 
L 171.48 197.840614 
L 173.34 197.391911 
L 175.2 192.317633 
L 177.06 199.037421 
L 178.92 196.295736 
L 182.64 193.037451 
L 184.5 196.446359 
L 186.36 197.027903 
L 188.22 194.499963 
L 190.08 199.252258 
L 191.94 198.155175 
L 193.8 195.454307 
L 195.66 197.856513 
L 197.52 197.815857 
L 199.38 192.926947 
L 201.24 193.617158 
L 203.1 197.451468 
L 204.96 197.687847 
L 206.82 192.163578 
L 208.68 199.321514 
L 210.54 194.980666 
L 212.4 197.198738 
L 214.26 193.821075 
L 216.12 194.415501 
L 217.98 196.968326 
L 219.84 192.885202 
L 221.7 199.498928 
L 223.56 198.459974 
L 225.42 199.211049 
L 227.28 197.157021 
L 229.14 194.376366 
L 231 197.660279 
L 232.86 192.617094 
L 234.72 193.550567 
L 236.58 193.540099 
L 238.44 199.760129 
L 240.3 199.290945 
L 242.16 197.176948 
L 244.02 192.058607 
L 245.88 196.166489 
L 247.74 195.064832 
L 249.6 195.812172 
L 251.46 193.33606 
L 253.32 193.480795 
L 255.18 196.792353 
L 257.04 192.965706 
L 258.9 196.120524 
L 260.76 195.106191 
L 262.62 196.507905 
L 264.48 192.88156 
L 266.34 199.152248 
L 268.2 199.132796 
L 270.06 192.506483 
L 271.92 193.328402 
L 273.78 194.913709 
L 275.64 199.531529 
L 277.5 194.096909 
L 279.36 192.467826 
L 281.22 198.781678 
L 283.08 192.371409 
L 284.94 198.453707 
L 286.8 197.106138 
L 288.66 198.172973 
L 290.52 197.807369 
L 292.38 198.499434 
L 294.24 194.933298 
L 296.1 191.979697 
L 297.96 196.474007 
L 299.82 194.52294 
L 301.68 197.10729 
L 303.54 191.990994 
L 305.4 196.591043 
L 307.26 193.962935 
L 309.12 196.328771 
L 310.98 199.807628 
L 312.84 198.372 
L 314.7 192.607706 
L 316.56 196.782976 
L 318.42 196.871301 
L 320.28 192.426514 
L 322.14 194.641023 
L 322.14 194.641023 
" clip-path="url(#pb1366afde7)" style="fill: none; stroke: #000000; stroke-width: 2; stroke-linecap: square"/>
   </g>
   <g id="line2d_4">
    <path d="M 45 175.356433 
L 46.86 173.458479 
L 48.72 177.819827 
L 50.58 174.392092 
L 52.44 176.689011 
L 54.3 174.526068 
L 56.16 173.336901 
L 58.02 177.85064 
L 59.88 172.894393 
L 61.74 174.447453 
L 63.6 176.639593 
L 65.46 176.674684 
L 67.32 174.099061 
L 69.18 175.746889 
L 71.04 174.202868 
L 72.9 179.690405 
L 74.76 176.853098 
L 76.62 177.552257 
L 78.48 173.154371 
L 80.34 178.155843 
L 82.2 174.330751 
L 84.06 179.20991 
L 85.92 173.68355 
L 87.78 178.49474 
L 89.64 176.472446 
L 91.5 178.250248 
L 93.36 176.817248 
L 95.22 175.859608 
L 97.08 177.12211 
L 98.94 173.495352 
L 100.8 179.125908 
L 102.66 178.853213 
L 104.52 176.94335 
L 106.38 179.546035 
L 108.24 172.652886 
L 110.1 178.729675 
L 111.96 173.219095 
L 113.82 178.678613 
L 115.68 175.573967 
L 117.54 179.502018 
L 119.4 173.955559 
L 121.26 178.393992 
L 123.12 178.316356 
L 124.98 172.98497 
L 126.84 175.199356 
L 128.7 178.573392 
L 130.56 174.156649 
L 132.42 171.953136 
L 134.28 176.070542 
L 136.14 178.036381 
L 138 174.248844 
L 139.86 171.793125 
L 141.72 176.889214 
L 143.58 177.461624 
L 145.44 174.999611 
L 147.3 176.928483 
L 149.16 176.346129 
L 151.02 172.081542 
L 152.88 179.262175 
L 154.74 171.674328 
L 156.6 179.663633 
L 158.46 179.517927 
L 162.18 173.767 
L 164.04 177.955735 
L 165.9 174.901629 
L 167.76 172.321356 
L 169.62 174.65285 
L 171.48 171.65251 
L 173.34 175.212597 
L 175.2 172.026336 
L 177.06 172.087807 
L 178.92 177.770596 
L 180.78 175.469923 
L 182.64 174.88559 
L 184.5 175.410835 
L 186.36 172.103583 
L 188.22 172.946815 
L 190.08 179.63984 
L 191.94 177.291555 
L 193.8 174.573152 
L 195.66 177.82928 
L 197.52 174.539184 
L 199.38 174.300257 
L 201.24 173.568635 
L 203.1 173.869296 
L 204.96 178.912322 
L 206.82 175.181732 
L 208.68 178.790557 
L 210.54 172.24671 
L 212.4 173.550273 
L 214.26 177.540844 
L 217.98 175.638738 
L 219.84 174.198362 
L 221.7 176.200911 
L 223.56 178.96791 
L 225.42 173.803102 
L 227.28 175.557007 
L 229.14 175.640121 
L 231 172.655013 
L 232.86 176.596806 
L 234.72 179.660735 
L 236.58 173.782381 
L 238.44 174.274127 
L 240.3 175.296088 
L 242.16 172.651935 
L 244.02 171.800307 
L 245.88 171.766878 
L 247.74 174.851215 
L 249.6 178.489824 
L 251.46 179.251533 
L 253.32 175.334344 
L 255.18 179.70921 
L 257.04 172.957277 
L 258.9 179.687875 
L 260.76 175.594559 
L 262.62 173.600816 
L 264.48 172.014823 
L 266.34 178.40122 
L 268.2 173.128586 
L 270.06 171.870759 
L 271.92 178.786367 
L 273.78 178.059686 
L 275.64 174.494836 
L 277.5 179.296258 
L 279.36 172.483202 
L 281.22 178.184556 
L 283.08 177.63614 
L 284.94 177.935167 
L 286.8 178.524466 
L 288.66 175.388202 
L 290.52 175.496885 
L 292.38 176.512424 
L 294.24 176.350575 
L 296.1 178.280512 
L 297.96 177.539275 
L 299.82 178.845151 
L 301.68 176.037926 
L 303.54 178.865055 
L 305.4 179.54214 
L 307.26 178.15216 
L 309.12 173.868566 
L 310.98 177.968534 
L 312.84 178.634295 
L 314.7 177.798635 
L 316.56 175.389854 
L 318.42 177.995468 
L 320.28 173.027165 
L 322.14 178.246092 
L 322.14 178.246092 
" clip-path="url(#pb1366afde7)" style="fill: none; stroke: #000000; stroke-width: 2; stroke-linecap: square"/>
   </g>
   <g id="line2d_5">
    <path d="M 45 158.963241 
L 46.86 156.408052 
L 48.72 156.345385 
L 50.58 153.694726 
L 52.44 154.175991 
L 54.3 156.984005 
L 56.16 153.806641 
L 58.02 153.790598 
L 59.88 157.653514 
L 61.74 156.214157 
L 63.6 157.884724 
L 65.46 152.672533 
L 67.32 159.212892 
L 69.18 155.56283 
L 71.04 158.789605 
L 72.9 151.980774 
L 74.76 157.697611 
L 76.62 154.825531 
L 78.48 154.701192 
L 80.34 157.897728 
L 82.2 158.37337 
L 84.06 155.206624 
L 85.92 159.515925 
L 87.78 151.72224 
L 89.64 158.711567 
L 91.5 153.237653 
L 93.36 152.758054 
L 95.22 158.647252 
L 97.08 151.686111 
L 98.94 157.734401 
L 100.8 159.228403 
L 102.66 152.646164 
L 104.52 151.791183 
L 106.38 154.149577 
L 108.24 154.230905 
L 110.1 151.6437 
L 113.82 157.475283 
L 115.68 159.00652 
L 117.54 158.441381 
L 119.4 158.707396 
L 121.26 157.73738 
L 123.12 155.149778 
L 124.98 157.569275 
L 126.84 153.803844 
L 128.7 154.168996 
L 130.56 158.285957 
L 132.42 154.549737 
L 134.28 155.142878 
L 136.14 152.390252 
L 138 154.376627 
L 139.86 155.729005 
L 141.72 152.089559 
L 143.58 152.030322 
L 145.44 155.937514 
L 147.3 155.406203 
L 149.16 153.09244 
L 151.02 157.651573 
L 152.88 157.826112 
L 154.74 154.777003 
L 156.6 152.881187 
L 158.46 157.581238 
L 160.32 153.176538 
L 162.18 151.770555 
L 164.04 155.865652 
L 165.9 156.753721 
L 167.76 151.66566 
L 169.62 151.830656 
L 171.48 155.827935 
L 173.34 157.894305 
L 175.2 155.469287 
L 177.06 155.461781 
L 178.92 154.825551 
L 180.78 153.940585 
L 182.64 155.042125 
L 184.5 156.758761 
L 186.36 152.661854 
L 188.22 155.019212 
L 190.08 159.385406 
L 191.94 156.716777 
L 193.8 156.262234 
L 195.66 154.779978 
L 197.52 156.968236 
L 199.38 151.946992 
L 201.24 158.905757 
L 203.1 158.524921 
L 204.96 157.797794 
L 206.82 157.359062 
L 208.68 153.843584 
L 210.54 153.246319 
L 212.4 154.709287 
L 214.26 154.620763 
L 216.12 153.93896 
L 217.98 156.396043 
L 219.84 151.681151 
L 223.56 159.359931 
L 225.42 151.576255 
L 227.28 158.706266 
L 229.14 154.293558 
L 231 156.016107 
L 232.86 153.649391 
L 234.72 152.314956 
L 238.44 154.682304 
L 240.3 154.923122 
L 242.16 158.457919 
L 244.02 154.804081 
L 245.88 154.101136 
L 247.74 157.753664 
L 249.6 152.589704 
L 251.46 155.88082 
L 253.32 151.67354 
L 255.18 154.778393 
L 257.04 154.211735 
L 260.76 152.400637 
L 262.62 152.474518 
L 264.48 154.749886 
L 266.34 153.358395 
L 268.2 152.962755 
L 270.06 155.329248 
L 271.92 156.412747 
L 273.78 155.301099 
L 275.64 156.683167 
L 277.5 152.934405 
L 279.36 152.601885 
L 281.22 153.717362 
L 283.08 158.433922 
L 284.94 154.346444 
L 286.8 155.442498 
L 288.66 153.818754 
L 290.52 159.511329 
L 292.38 158.222847 
L 294.24 158.421221 
L 296.1 156.644458 
L 297.96 157.937251 
L 299.82 157.181494 
L 301.68 154.460613 
L 303.54 155.654064 
L 305.4 156.112856 
L 307.26 152.546547 
L 309.12 158.139027 
L 310.98 153.541614 
L 312.84 155.389588 
L 314.7 158.188783 
L 316.56 157.252052 
L 318.42 153.675926 
L 320.28 157.600093 
L 322.14 154.886742 
L 322.14 154.886742 
" clip-path="url(#pb1366afde7)" style="fill: none; stroke: #000000; stroke-width: 2; stroke-linecap: square"/>
   </g>
   <g id="line2d_6">
    <path d="M 45 137.44988 
L 46.86 134.710705 
L 48.72 132.171319 
L 50.58 138.048194 
L 52.44 132.061514 
L 54.3 132.241161 
L 56.16 137.740073 
L 58.02 134.296026 
L 59.88 136.271541 
L 61.74 138.517204 
L 63.6 135.813897 
L 65.46 134.305278 
L 67.32 137.238265 
L 69.18 132.056894 
L 71.04 132.860783 
L 72.9 138.159556 
L 74.76 131.489705 
L 76.62 139.033214 
L 78.48 133.321055 
L 80.34 135.438012 
L 82.2 132.084145 
L 84.06 137.78083 
L 85.92 132.065911 
L 87.78 136.503492 
L 89.64 137.891846 
L 91.5 133.38797 
L 93.36 133.033679 
L 95.22 136.417318 
L 97.08 139.38161 
L 98.94 134.202346 
L 100.8 137.986015 
L 102.66 132.116709 
L 104.52 133.005287 
L 106.38 134.163883 
L 108.24 133.023092 
L 110.1 138.662169 
L 111.96 135.183933 
L 113.82 139.275045 
L 115.68 134.13726 
L 117.54 132.257262 
L 119.4 135.505635 
L 121.26 132.954885 
L 123.12 136.692426 
L 124.98 137.518276 
L 126.84 139.156686 
L 130.56 132.683408 
L 132.42 133.24955 
L 134.28 137.206423 
L 136.14 133.360606 
L 138 138.476409 
L 139.86 137.36303 
L 141.72 138.191628 
L 143.58 132.238196 
L 145.44 132.986602 
L 147.3 132.400988 
L 149.16 136.657524 
L 151.02 132.263624 
L 152.88 131.509621 
L 154.74 132.378001 
L 156.6 132.559185 
L 158.46 138.934057 
L 160.32 134.250885 
L 162.18 134.799774 
L 164.04 138.59946 
L 165.9 131.335392 
L 167.76 139.309503 
L 171.48 136.135889 
L 173.34 131.792337 
L 175.2 136.438537 
L 177.06 135.485523 
L 178.92 139.34725 
L 180.78 139.093006 
L 182.64 136.632438 
L 184.5 132.592688 
L 186.36 137.015619 
L 188.22 134.308267 
L 190.08 133.937254 
L 191.94 132.329171 
L 193.8 133.973315 
L 195.66 133.69944 
L 197.52 135.617346 
L 199.38 135.601217 
L 201.24 133.092741 
L 203.1 135.865812 
L 204.96 136.415032 
L 206.82 135.073551 
L 208.68 138.013441 
L 210.54 136.446124 
L 212.4 131.883887 
L 214.26 134.882114 
L 216.12 136.067487 
L 217.98 135.218243 
L 219.84 137.50217 
L 221.7 137.020815 
L 223.56 132.28086 
L 225.42 138.66223 
L 227.28 137.954441 
L 229.14 134.079261 
L 231 135.432764 
L 232.86 132.608523 
L 234.72 134.291477 
L 236.58 138.406578 
L 238.44 137.569847 
L 240.3 132.322649 
L 242.16 136.988724 
L 244.02 136.08279 
L 245.88 131.951579 
L 247.74 136.941743 
L 249.6 132.617856 
L 251.46 137.249513 
L 253.32 139.206208 
L 255.18 138.525238 
L 257.04 137.235781 
L 258.9 134.300661 
L 260.76 138.958488 
L 262.62 138.229451 
L 264.48 137.821352 
L 266.34 132.815848 
L 268.2 134.116047 
L 270.06 137.095757 
L 271.92 137.830291 
L 273.78 131.591737 
L 275.64 132.365672 
L 277.5 135.659718 
L 279.36 136.674893 
L 281.22 139.050658 
L 283.08 137.065577 
L 284.94 131.978424 
L 286.8 139.196771 
L 288.66 131.640064 
L 290.52 136.69236 
L 292.38 131.547793 
L 294.24 138.207314 
L 296.1 139.093739 
L 297.96 136.068763 
L 299.82 138.390295 
L 301.68 138.790153 
L 303.54 133.269708 
L 305.4 131.639059 
L 307.26 134.585172 
L 309.12 135.108381 
L 310.98 133.727242 
L 314.7 136.045036 
L 316.56 136.507298 
L 318.42 134.037779 
L 320.28 134.597288 
L 322.14 133.389855 
L 322.14 133.389855 
" clip-path="url(#pb1366afde7)" style="fill: none; stroke: #000000; stroke-width: 2; stroke-linecap: square"/>
   </g>
   <g id="line2d_7">
    <path d="M 45 111.824554 
L 46.86 115.706955 
L 48.72 112.105038 
L 50.58 114.419334 
L 52.44 115.58223 
L 54.3 111.493925 
L 56.16 117.68494 
L 58.02 118.685097 
L 59.88 117.632065 
L 61.74 117.561615 
L 63.6 114.099847 
L 65.46 112.125904 
L 67.32 113.771245 
L 69.18 116.076903 
L 71.04 118.973164 
L 72.9 116.008774 
L 74.76 116.064238 
L 76.62 117.002579 
L 78.48 114.467269 
L 80.34 113.399519 
L 82.2 116.930306 
L 84.06 115.263016 
L 85.92 118.532829 
L 87.78 113.557015 
L 89.64 118.534028 
L 91.5 114.661782 
L 93.36 115.996669 
L 95.22 118.325682 
L 97.08 114.528896 
L 98.94 111.724251 
L 100.8 113.501439 
L 102.66 115.8929 
L 104.52 112.29084 
L 106.38 111.646548 
L 108.24 111.611184 
L 110.1 116.363828 
L 111.96 114.505838 
L 113.82 111.72235 
L 115.68 114.825257 
L 117.54 117.083787 
L 119.4 112.121793 
L 121.26 112.881303 
L 123.12 115.158603 
L 124.98 112.341885 
L 126.84 113.440263 
L 128.7 113.91208 
L 130.56 115.589203 
L 132.42 114.728219 
L 134.28 114.750046 
L 136.14 117.230085 
L 138 114.698573 
L 139.86 117.313322 
L 141.72 113.708501 
L 143.58 118.053184 
L 145.44 116.56185 
L 147.3 118.567542 
L 149.16 112.226761 
L 151.02 113.674257 
L 152.88 111.238041 
L 154.74 117.834257 
L 156.6 113.500811 
L 158.46 115.39656 
L 160.32 113.539822 
L 162.18 112.435725 
L 164.04 114.050246 
L 165.9 111.465001 
L 167.76 114.074568 
L 169.62 118.077722 
L 171.48 112.254008 
L 173.34 116.515333 
L 175.2 111.839736 
L 177.06 112.877201 
L 178.92 115.137009 
L 180.78 114.032628 
L 182.64 118.218045 
L 184.5 112.296931 
L 186.36 118.988802 
L 188.22 113.588546 
L 190.08 118.462861 
L 193.8 117.005059 
L 195.66 117.299565 
L 197.52 119.122403 
L 199.38 118.10705 
L 201.24 113.747851 
L 203.1 113.384832 
L 204.96 118.041698 
L 206.82 115.120359 
L 208.68 115.308384 
L 210.54 116.810854 
L 212.4 114.283075 
L 214.26 115.176368 
L 216.12 117.651414 
L 217.98 113.734417 
L 219.84 118.226217 
L 221.7 112.248264 
L 223.56 112.994475 
L 225.42 119.102066 
L 227.28 114.201964 
L 229.14 116.616754 
L 231 113.066829 
L 232.86 116.906276 
L 234.72 117.992867 
L 236.58 118.402245 
L 238.44 112.006257 
L 240.3 113.793935 
L 242.16 118.057258 
L 244.02 115.246118 
L 245.88 112.709956 
L 247.74 112.19558 
L 249.6 113.612869 
L 251.46 116.71153 
L 253.32 117.975483 
L 255.18 116.028788 
L 257.04 111.218148 
L 258.9 111.267655 
L 260.76 119.088266 
L 262.62 116.258405 
L 264.48 114.296161 
L 266.34 111.662899 
L 268.2 114.628971 
L 270.06 116.226977 
L 271.92 116.266842 
L 273.78 113.113847 
L 275.64 112.881898 
L 277.5 114.977552 
L 279.36 113.707796 
L 281.22 115.418352 
L 283.08 116.670701 
L 284.94 115.942365 
L 286.8 111.916881 
L 288.66 118.34566 
L 290.52 118.738858 
L 292.38 118.06095 
L 294.24 118.25242 
L 296.1 118.96966 
L 297.96 116.311162 
L 299.82 115.940238 
L 301.68 119.061211 
L 303.54 117.447382 
L 305.4 112.320967 
L 307.26 112.957305 
L 309.12 118.027515 
L 310.98 112.047581 
L 312.84 112.976797 
L 314.7 118.513329 
L 316.56 116.569662 
L 318.42 111.274109 
L 320.28 112.024729 
L 322.14 116.071225 
L 322.14 116.071225 
" clip-path="url(#pb1366afde7)" style="fill: none; stroke: #000000; stroke-width: 2; stroke-linecap: square"/>
   </g>
   <g id="line2d_8">
    <path d="M 45 94.224044 
L 46.86 91.201087 
L 48.72 94.358357 
L 50.58 98.547564 
L 52.44 96.641679 
L 54.3 91.578356 
L 56.16 98.12719 
L 58.02 98.192662 
L 59.88 98.928796 
L 61.74 97.41775 
L 63.6 94.931199 
L 65.46 96.809511 
L 67.32 94.546609 
L 69.18 96.967917 
L 71.04 93.762362 
L 72.9 98.563645 
L 74.76 96.637413 
L 76.62 96.530138 
L 78.48 91.381356 
L 80.34 98.011025 
L 82.2 93.662159 
L 84.06 97.224417 
L 85.92 93.889835 
L 87.78 94.600606 
L 89.64 92.920624 
L 91.5 94.999319 
L 93.36 91.447556 
L 95.22 97.984533 
L 97.08 95.678776 
L 98.94 94.603152 
L 100.8 98.511694 
L 102.66 92.520303 
L 106.38 95.909335 
L 108.24 93.120314 
L 110.1 92.211218 
L 111.96 96.67014 
L 113.82 97.126675 
L 117.54 92.524333 
L 119.4 96.266633 
L 121.26 92.430623 
L 123.12 97.522143 
L 124.98 95.861168 
L 126.84 96.119353 
L 128.7 91.64377 
L 130.56 94.006254 
L 132.42 93.294776 
L 134.28 97.234701 
L 136.14 95.251229 
L 138 95.359499 
L 139.86 97.447251 
L 141.72 95.180944 
L 143.58 97.437384 
L 147.3 96.076127 
L 149.16 97.630899 
L 151.02 92.591158 
L 152.88 95.823851 
L 154.74 91.137114 
L 156.6 91.968632 
L 158.46 98.589963 
L 160.32 96.870461 
L 162.18 92.276443 
L 164.04 93.177686 
L 165.9 92.201605 
L 167.76 96.27493 
L 169.62 92.671309 
L 171.48 96.602173 
L 173.34 92.483063 
L 175.2 91.991334 
L 177.06 91.911998 
L 178.92 97.179464 
L 180.78 93.747343 
L 182.64 92.410854 
L 184.5 95.758562 
L 186.36 98.665693 
L 188.22 95.840152 
L 190.08 98.564697 
L 191.94 97.637328 
L 193.8 98.28488 
L 195.66 92.703884 
L 197.52 94.561761 
L 199.38 93.133841 
L 201.24 98.396365 
L 203.1 95.082185 
L 204.96 92.504776 
L 206.82 92.71258 
L 208.68 98.677587 
L 210.54 93.074351 
L 212.4 98.736934 
L 214.26 97.622657 
L 216.12 98.237137 
L 219.84 94.770749 
L 221.7 95.005081 
L 223.56 94.697268 
L 225.42 98.210384 
L 227.28 93.991006 
L 229.14 95.914015 
L 231 94.258132 
L 232.86 94.674297 
L 234.72 91.981524 
L 236.58 96.023647 
L 238.44 92.510162 
L 240.3 91.739907 
L 242.16 98.513185 
L 244.02 97.269454 
L 245.88 94.504154 
L 247.74 98.6315 
L 249.6 95.432981 
L 251.46 97.543066 
L 253.32 94.853225 
L 255.18 95.998957 
L 257.04 96.640617 
L 258.9 97.956891 
L 260.76 95.037561 
L 262.62 94.329763 
L 264.48 98.93046 
L 266.34 94.899704 
L 268.2 96.313008 
L 270.06 98.384373 
L 271.92 93.235588 
L 273.78 97.239992 
L 275.64 95.427376 
L 277.5 95.585641 
L 279.36 98.667591 
L 281.22 91.329598 
L 283.08 95.695704 
L 284.94 91.093652 
L 286.8 98.617601 
L 288.66 98.799113 
L 290.52 91.609814 
L 292.38 97.547203 
L 294.24 93.967289 
L 296.1 93.871293 
L 297.96 95.545958 
L 299.82 93.96135 
L 301.68 97.644807 
L 303.54 98.657876 
L 305.4 95.84669 
L 307.26 95.599062 
L 309.12 93.092209 
L 310.98 94.825361 
L 312.84 91.755438 
L 314.7 91.40615 
L 316.56 92.943318 
L 318.42 97.944729 
L 320.28 98.405885 
L 322.14 97.547592 
L 322.14 97.547592 
" clip-path="url(#pb1366afde7)" style="fill: none; stroke: #000000; stroke-width: 2; stroke-linecap: square"/>
   </g>
   <g id="line2d_9">
    <path d="M 45 76.791173 
L 46.86 71.125068 
L 48.72 77.593882 
L 50.58 74.022813 
L 52.44 78.18191 
L 54.3 75.992546 
L 56.16 75.160817 
L 58.02 78.848965 
L 59.88 72.237998 
L 61.74 78.526021 
L 63.6 73.821595 
L 65.46 73.141271 
L 67.32 75.138954 
L 69.18 78.621903 
L 71.04 75.373696 
L 72.9 73.772476 
L 74.76 77.374187 
L 76.62 78.810895 
L 78.48 78.719418 
L 80.34 75.2923 
L 82.2 77.948519 
L 84.06 71.680604 
L 85.92 71.922233 
L 87.78 74.753604 
L 89.64 78.308239 
L 91.5 77.150188 
L 93.36 74.7551 
L 95.22 71.33609 
L 97.08 77.468464 
L 98.94 73.912781 
L 100.8 72.968689 
L 102.66 75.703561 
L 104.52 76.514362 
L 106.38 71.231475 
L 108.24 72.801766 
L 111.96 78.368401 
L 113.82 73.697195 
L 115.68 76.869606 
L 117.54 71.434541 
L 119.4 71.391351 
L 121.26 78.068451 
L 123.12 71.582613 
L 124.98 78.063022 
L 126.84 74.438378 
L 128.7 74.617151 
L 130.56 78.889232 
L 132.42 77.150235 
L 134.28 70.906168 
L 136.14 76.337397 
L 138 71.395279 
L 139.86 73.043303 
L 141.72 73.325498 
L 143.58 70.908765 
L 145.44 71.665866 
L 147.3 71.445237 
L 149.16 73.178054 
L 151.02 77.23986 
L 152.88 74.960354 
L 154.74 71.599513 
L 156.6 73.843807 
L 158.46 76.476154 
L 160.32 75.954582 
L 162.18 71.65397 
L 164.04 73.60183 
L 165.9 72.062012 
L 167.76 76.133241 
L 169.62 76.327928 
L 171.48 74.335039 
L 173.34 75.217047 
L 175.2 71.310321 
L 177.06 71.976984 
L 178.92 73.471623 
L 180.78 78.088815 
L 182.64 76.761161 
L 184.5 78.242861 
L 186.36 71.380502 
L 188.22 77.351359 
L 190.08 72.186698 
L 191.94 78.542997 
L 193.8 75.039535 
L 195.66 74.316375 
L 197.52 71.726131 
L 199.38 77.117877 
L 201.24 71.407288 
L 203.1 73.581216 
L 204.96 73.218525 
L 206.82 76.24534 
L 208.68 71.723454 
L 210.54 75.205682 
L 212.4 77.886188 
L 214.26 78.519791 
L 216.12 76.846512 
L 217.98 71.727478 
L 219.84 71.61663 
L 221.7 77.378349 
L 225.42 78.065782 
L 227.28 77.205012 
L 229.14 71.554733 
L 231 71.721441 
L 232.86 76.019704 
L 234.72 77.289132 
L 236.58 75.779234 
L 238.44 74.709348 
L 240.3 74.462713 
L 242.16 70.961453 
L 244.02 75.209027 
L 245.88 71.269612 
L 247.74 71.439364 
L 249.6 72.038266 
L 251.46 78.509371 
L 253.32 75.321511 
L 255.18 71.631195 
L 257.04 72.298693 
L 258.9 77.06413 
L 260.76 71.128844 
L 262.62 74.972329 
L 264.48 74.100049 
L 266.34 77.294631 
L 268.2 74.429348 
L 270.06 73.499489 
L 271.92 74.759906 
L 273.78 77.210587 
L 275.64 76.720778 
L 277.5 77.390014 
L 279.36 78.414458 
L 281.22 75.691578 
L 283.08 75.040523 
L 284.94 77.15853 
L 286.8 76.222627 
L 288.66 76.664165 
L 290.52 71.528189 
L 292.38 73.174635 
L 294.24 75.884189 
L 296.1 74.999418 
L 297.96 78.513908 
L 299.82 76.652581 
L 301.68 76.259601 
L 303.54 77.976982 
L 305.4 73.427514 
L 307.26 72.355778 
L 309.12 78.679324 
L 310.98 71.341022 
L 312.84 76.003972 
L 314.7 75.554757 
L 316.56 72.181466 
L 318.42 73.15764 
L 320.28 76.7731 
L 322.14 73.534276 
L 322.14 73.534276 
" clip-path="url(#pb1366afde7)" style="fill: none; stroke: #000000; stroke-width: 2; stroke-linecap: square"/>
   </g>
   <g id="line2d_10">
    <path d="M 45 53.975636 
L 46.86 54.740269 
L 48.72 55.686492 
L 50.58 53.876225 
L 52.44 58.312549 
L 54.3 50.861176 
L 56.16 56.429638 
L 58.02 52.956987 
L 59.88 57.677677 
L 61.74 52.822414 
L 63.6 57.524674 
L 65.46 57.530198 
L 67.32 54.068791 
L 69.18 52.150871 
L 71.04 52.270814 
L 72.9 53.225561 
L 74.76 51.82774 
L 76.62 50.960477 
L 78.48 55.210379 
L 80.34 54.825774 
L 82.2 55.574542 
L 84.06 54.56946 
L 85.92 55.310297 
L 87.78 51.509724 
L 89.64 52.997677 
L 91.5 55.309015 
L 93.36 52.446245 
L 95.22 52.43504 
L 98.94 57.637339 
L 100.8 56.235492 
L 102.66 52.844733 
L 104.52 56.420646 
L 108.24 55.721061 
L 110.1 52.009207 
L 111.96 58.45476 
L 113.82 55.941805 
L 115.68 58.23747 
L 117.54 54.372286 
L 119.4 53.776435 
L 121.26 56.65773 
L 123.12 55.566923 
L 124.98 56.218917 
L 126.84 51.23461 
L 128.7 57.581878 
L 130.56 53.656956 
L 132.42 56.835552 
L 134.28 50.709582 
L 136.14 55.165804 
L 138 55.520649 
L 139.86 55.059632 
L 141.72 54.284415 
L 143.58 51.863798 
L 145.44 57.210395 
L 147.3 53.149208 
L 149.16 54.128011 
L 151.02 54.661673 
L 152.88 53.458154 
L 154.74 58.404348 
L 156.6 57.433195 
L 160.32 52.537466 
L 162.18 56.586731 
L 164.04 55.841416 
L 165.9 55.49294 
L 167.76 52.053195 
L 169.62 53.351544 
L 171.48 56.08548 
L 173.34 57.218471 
L 175.2 57.551766 
L 177.06 57.275111 
L 180.78 56.546605 
L 182.64 51.45929 
L 184.5 53.157737 
L 186.36 57.669751 
L 188.22 56.305173 
L 190.08 56.537061 
L 191.94 52.345855 
L 193.8 56.834174 
L 195.66 55.212306 
L 197.52 53.249424 
L 199.38 53.028109 
L 201.24 53.315998 
L 203.1 56.109623 
L 204.96 56.055093 
L 206.82 53.487775 
L 208.68 58.223543 
L 210.54 55.369847 
L 212.4 55.666728 
L 214.26 51.347065 
L 216.12 55.899475 
L 217.98 57.724997 
L 219.84 51.878707 
L 221.7 51.579404 
L 223.56 54.28328 
L 225.42 57.324029 
L 227.28 56.072389 
L 229.14 55.432414 
L 231 50.734483 
L 232.86 58.186849 
L 234.72 51.483957 
L 236.58 58.184959 
L 238.44 57.598938 
L 240.3 55.091583 
L 242.16 53.162488 
L 244.02 54.416412 
L 245.88 52.542372 
L 247.74 53.640108 
L 249.6 57.520472 
L 251.46 52.810871 
L 253.32 56.298165 
L 255.18 53.349668 
L 257.04 55.747842 
L 258.9 51.558102 
L 262.62 57.034957 
L 264.48 53.70578 
L 266.34 53.60392 
L 268.2 56.92933 
L 270.06 50.865328 
L 271.92 52.961284 
L 273.78 57.003701 
L 275.64 55.636628 
L 277.5 55.168039 
L 279.36 51.019812 
L 281.22 54.621362 
L 283.08 58.477419 
L 284.94 58.611255 
L 286.8 51.956943 
L 288.66 56.6023 
L 290.52 53.009123 
L 292.38 58.585631 
L 294.24 56.710337 
L 296.1 52.882306 
L 297.96 57.947728 
L 299.82 51.361732 
L 301.68 52.106346 
L 303.54 51.020031 
L 305.4 58.471537 
L 307.26 53.044247 
L 309.12 58.50735 
L 310.98 55.931171 
L 312.84 56.253214 
L 314.7 55.686537 
L 316.56 58.314919 
L 318.42 58.693316 
L 320.28 56.219451 
L 322.14 51.196094 
L 322.14 51.196094 
" clip-path="url(#pb1366afde7)" style="fill: none; stroke: #000000; stroke-width: 2; stroke-linecap: square"/>
   </g>
  </g>
 </g>
 <defs>
  <clipPath id="pb1366afde7">
   <rect x="45" y="34.56" width="279" height="221.76"/>
  </clipPath>
 </defs>
</svg>
