<?xml version="1.0" encoding="utf-8" standalone="no"?>
<!DOCTYPE svg PUBLIC "-//W3C//DTD SVG 1.1//EN"
  "http://www.w3.org/Graphics/SVG/1.1/DTD/svg11.dtd">
<svg xmlns:xlink="http://www.w3.org/1999/xlink" width="460.8pt" height="345.6pt" viewBox="0 0 460.8 345.6" xmlns="http://www.w3.org/2000/svg" version="1.1">
 <metadata>
  <rdf:RDF xmlns:dc="http://purl.org/dc/elements/1.1/" xmlns:cc="http://creativecommons.org/ns#" xmlns:rdf="http://www.w3.org/1999/02/22-rdf-syntax-ns#">
   <cc:Work>
    <dc:type rdf:resource="http://purl.org/dc/dcmitype/StillImage"/>
    <dc:date>2023-04-28T15:52:21.047318</dc:date>
    <dc:format>image/svg+xml</dc:format>
    <dc:creator>
     <cc:Agent>
      <dc:title>Matplotlib v3.7.1, https://matplotlib.org/</dc:title>
     </cc:Agent>
    </dc:creator>
   </cc:Work>
  </rdf:RDF>
 </metadata>
 <defs>
  <style type="text/css">*{stroke-linejoin: round; stroke-linecap: butt}</style>
 </defs>
 <g id="figure_1">
  <g id="patch_1">
   <path d="M 0 345.6 
L 460.8 345.6 
L 460.8 0 
L 0 0 
z
" style="fill: #ffffff"/>
  </g>
  <g id="axes_1">
   <g id="patch_2">
    <path d="M 10.8 334.8 
L 450 334.8 
L 450 10.8 
L 10.8 10.8 
z
" style="fill: #ffffff"/>
   </g>
   <g id="matplotlib.axis_1"/>
   <g id="matplotlib.axis_2"/>
   <g id="line2d_1">
    <path d="M 30.763636 312.855019 
L 34.796694 312.775657 
L 38.829752 312.687908 
L 42.86281 312.590892 
L 46.895868 312.483637 
L 50.928926 312.365071 
L 54.961983 312.234011 
L 58.995041 312.089154 
L 63.028099 311.929062 
L 67.061157 311.752153 
L 71.094215 311.556682 
L 75.127273 311.340731 
L 79.160331 311.102188 
L 83.193388 310.838732 
L 87.226446 310.547812 
L 91.259504 310.226626 
L 95.292562 309.872104 
L 99.32562 309.480877 
L 103.358678 309.049258 
L 107.391736 308.573215 
L 111.424793 308.048341 
L 115.457851 307.469831 
L 119.490909 306.83245 
L 123.523967 306.130507 
L 127.557025 305.357825 
L 131.590083 304.507712 
L 135.62314 303.572942 
L 139.656198 302.545725 
L 143.689256 301.417693 
L 147.722314 300.179885 
L 151.755372 298.82274 
L 155.78843 297.336101 
L 159.821488 295.70923 
L 163.854545 293.930831 
L 167.887603 291.989099 
L 171.920661 289.871781 
L 175.953719 287.56626 
L 179.986777 285.059671 
L 184.019835 282.339036 
L 188.052893 279.391435 
L 192.08595 276.204212 
L 196.119008 272.765214 
L 200.152066 269.063059 
L 204.185124 265.087447 
L 208.218182 260.829492 
L 212.25124 256.282082 
L 216.284298 251.440255 
L 220.317355 246.301577 
L 224.350413 240.866513 
L 228.383471 235.138772 
L 232.416529 229.125613 
L 236.449587 222.838078 
L 240.482645 216.291159 
L 244.515702 209.503852 
L 248.54876 202.499102 
L 252.581818 195.303629 
L 256.614876 187.947613 
L 260.647934 180.464259 
L 264.680992 172.889247 
L 268.71405 165.260077 
L 272.747107 157.615338 
L 276.780165 149.993936 
L 280.813223 142.434304 
L 284.846281 134.973633 
L 288.879339 127.647158 
L 292.912397 120.487521 
L 296.945455 113.52424 
L 300.978512 106.783299 
L 305.01157 100.286865 
L 309.044628 94.053134 
L 313.077686 88.096299 
L 317.110744 82.426631 
L 321.143802 77.050656 
L 325.17686 71.971408 
L 329.209917 67.188746 
L 333.242975 62.699698 
L 337.276033 58.498843 
L 341.309091 54.578683 
L 345.342149 50.930023 
L 349.375207 47.542319 
L 353.408264 44.404013 
L 357.441322 41.502829 
L 361.47438 38.826041 
L 365.507438 36.360703 
L 369.540496 34.093846 
L 373.573554 32.012644 
L 377.606612 30.104546 
L 381.639669 28.357381 
L 385.672727 26.759442 
L 389.705785 25.299543 
L 393.738843 23.967059 
L 397.771901 22.751952 
L 401.804959 21.644781 
L 405.838017 20.636704 
L 409.871074 19.71947 
L 413.904132 18.885404 
L 417.93719 18.127388 
L 421.970248 17.438836 
L 426.003306 16.81367 
L 430.036364 16.246292 
" clip-path="url(#p9fb2d14fe7)" style="fill: none; stroke: #000000; stroke-width: 1.5; stroke-linecap: square"/>
   </g>
   <g id="patch_3">
    <path d="M 30.763636 334.8 
L 30.763636 10.8 
" style="fill: none; stroke: #000000; stroke-width: 0.8; stroke-linejoin: miter; stroke-linecap: square"/>
   </g>
   <g id="patch_4">
    <path d="M 450 334.8 
L 450 10.8 
" style="fill: none"/>
   </g>
   <g id="patch_5">
    <path d="M 10.8 313.603738 
L 450 313.603738 
" style="fill: none; stroke: #000000; stroke-width: 0.8; stroke-linejoin: miter; stroke-linecap: square"/>
   </g>
   <g id="patch_6">
    <path d="M 10.8 10.8 
L 450 10.8 
" style="fill: none"/>
   </g>
   <g id="text_1">
    <!-- $z=\sum_{i=1}^{n}{w_ix_i+b}$ -->
    <g style="opacity: 0.75" transform="translate(195.55 41.080374) scale(0.1 -0.1)">
     <defs>
      <path id="DejaVuSans-Oblique-7a" d="M 744 3500 
L 3475 3500 
L 3372 2975 
L 738 459 
L 2913 459 
L 2822 0 
L -19 0 
L 84 525 
L 2719 3041 
L 653 3041 
L 744 3500 
z
" transform="scale(0.015625)"/>
      <path id="DejaVuSans-3d" d="M 678 2906 
L 4684 2906 
L 4684 2381 
L 678 2381 
L 678 2906 
z
M 678 1631 
L 4684 1631 
L 4684 1100 
L 678 1100 
L 678 1631 
z
" transform="scale(0.015625)"/>
      <path id="DejaVuSans-Oblique-6e" d="M 3566 2113 
L 3156 0 
L 2578 0 
L 2988 2091 
Q 3016 2238 3031 2350 
Q 3047 2463 3047 2528 
Q 3047 2791 2881 2937 
Q 2716 3084 2419 3084 
Q 1956 3084 1622 2776 
Q 1288 2469 1184 1941 
L 800 0 
L 225 0 
L 903 3500 
L 1478 3500 
L 1363 2950 
Q 1603 3253 1940 3418 
Q 2278 3584 2650 3584 
Q 3113 3584 3367 3334 
Q 3622 3084 3622 2631 
Q 3622 2519 3608 2391 
Q 3594 2263 3566 2113 
z
" transform="scale(0.015625)"/>
      <path id="DejaVuSansDisplay-2211" d="M 244 6509 
L 5803 6509 
L 5803 5656 
L 1566 5656 
L 4534 2488 
L 1469 -888 
L 5919 -888 
L 5919 -1738 
L 109 -1738 
L 109 -1078 
L 3316 2463 
L 244 5728 
L 244 6509 
z
" transform="scale(0.015625)"/>
      <path id="DejaVuSans-Oblique-69" d="M 1172 4863 
L 1747 4863 
L 1606 4134 
L 1031 4134 
L 1172 4863 
z
M 909 3500 
L 1484 3500 
L 800 0 
L 225 0 
L 909 3500 
z
" transform="scale(0.015625)"/>
      <path id="DejaVuSans-31" d="M 794 531 
L 1825 531 
L 1825 4091 
L 703 3866 
L 703 4441 
L 1819 4666 
L 2450 4666 
L 2450 531 
L 3481 531 
L 3481 0 
L 794 0 
L 794 531 
z
" transform="scale(0.015625)"/>
      <path id="DejaVuSans-Oblique-77" d="M 544 3500 
L 1113 3500 
L 1259 684 
L 2566 3500 
L 3231 3500 
L 3425 684 
L 4666 3500 
L 5241 3500 
L 3641 0 
L 2969 0 
L 2797 2900 
L 1459 0 
L 781 0 
L 544 3500 
z
" transform="scale(0.015625)"/>
      <path id="DejaVuSans-Oblique-78" d="M 3841 3500 
L 2234 1784 
L 3219 0 
L 2559 0 
L 1819 1388 
L 531 0 
L -166 0 
L 1556 1844 
L 641 3500 
L 1300 3500 
L 1972 2234 
L 3144 3500 
L 3841 3500 
z
" transform="scale(0.015625)"/>
      <path id="DejaVuSans-2b" d="M 2944 4013 
L 2944 2272 
L 4684 2272 
L 4684 1741 
L 2944 1741 
L 2944 0 
L 2419 0 
L 2419 1741 
L 678 1741 
L 678 2272 
L 2419 2272 
L 2419 4013 
L 2944 4013 
z
" transform="scale(0.015625)"/>
      <path id="DejaVuSans-Oblique-62" d="M 3169 2138 
Q 3169 2591 2961 2847 
Q 2753 3103 2388 3103 
Q 2122 3103 1889 2973 
Q 1656 2844 1484 2597 
Q 1303 2338 1198 1995 
Q 1094 1653 1094 1313 
Q 1094 881 1298 636 
Q 1503 391 1863 391 
Q 2134 391 2365 517 
Q 2597 644 2772 891 
Q 2950 1147 3059 1487 
Q 3169 1828 3169 2138 
z
M 1381 2969 
Q 1594 3256 1914 3420 
Q 2234 3584 2584 3584 
Q 3122 3584 3439 3221 
Q 3756 2859 3756 2241 
Q 3756 1734 3570 1259 
Q 3384 784 3041 416 
Q 2816 172 2522 40 
Q 2228 -91 1906 -91 
Q 1566 -91 1316 65 
Q 1066 222 909 531 
L 806 0 
L 231 0 
L 1178 4863 
L 1753 4863 
L 1381 2969 
z
" transform="scale(0.015625)"/>
     </defs>
     <use xlink:href="#DejaVuSans-Oblique-7a" transform="translate(0 0.346875)"/>
     <use xlink:href="#DejaVuSans-3d" transform="translate(71.972656 0.346875)"/>
     <use xlink:href="#DejaVuSans-Oblique-6e" transform="translate(228.244141 120.8) scale(0.7)"/>
     <use xlink:href="#DejaVuSansDisplay-2211" transform="translate(205.244141 0.346875)"/>
     <use xlink:href="#DejaVuSans-Oblique-69" transform="translate(175.244141 -98.748438) scale(0.7)"/>
     <use xlink:href="#DejaVuSans-3d" transform="translate(208.330078 -98.748438) scale(0.7)"/>
     <use xlink:href="#DejaVuSans-31" transform="translate(280.620117 -98.748438) scale(0.7)"/>
     <use xlink:href="#DejaVuSans-Oblique-77" transform="translate(325.15625 0.346875)"/>
     <use xlink:href="#DejaVuSans-Oblique-69" transform="translate(406.943359 -16.059375) scale(0.7)"/>
     <use xlink:href="#DejaVuSans-Oblique-78" transform="translate(429.125977 0.346875)"/>
     <use xlink:href="#DejaVuSans-Oblique-69" transform="translate(488.305664 -16.059375) scale(0.7)"/>
     <use xlink:href="#DejaVuSans-2b" transform="translate(529.970703 0.346875)"/>
     <use xlink:href="#DejaVuSans-Oblique-62" transform="translate(633.242188 0.346875)"/>
    </g>
   </g>
  </g>
 </g>
 <defs>
  <clipPath id="p9fb2d14fe7">
   <rect x="10.8" y="10.8" width="439.2" height="324"/>
  </clipPath>
 </defs>
</svg>
