<svg xmlns="http://www.w3.org/2000/svg" style="cursor: move;" width="2666" height="1380"><g><path class="link" style="stroke-width: 1.07px; stroke-opacity: 1; stroke: rgb(0, 0, 0);" marker-end="" d="M1242,476, 1369,560"></path><path class="link" style="stroke-width: 1.07px; stroke-opacity: 1; stroke: rgb(0, 0, 0);" marker-end="" d="M1242,476, 1369,616"></path><path class="link" style="stroke-width: 1.07px; stroke-opacity: 1; stroke: rgb(0, 0, 0);" marker-end="" d="M1242,476, 1369,672"></path><path class="link" style="stroke-width: 1.07px; stroke-opacity: 1; stroke: rgb(0, 0, 0);" marker-end="" d="M1242,476, 1369,728"></path><path class="link" style="stroke-width: 1.07px; stroke-opacity: 1; stroke: rgb(0, 0, 0);" marker-end="" d="M1242,476, 1369,784"></path><path class="link" style="stroke-width: 1.07px; stroke-opacity: 1; stroke: rgb(0, 0, 0);" marker-end="" d="M1242,532, 1369,560"></path><path class="link" style="stroke-width: 1.07px; stroke-opacity: 1; stroke: rgb(0, 0, 0);" marker-end="" d="M1242,532, 1369,616"></path><path class="link" style="stroke-width: 1.07px; stroke-opacity: 1; stroke: rgb(0, 0, 0);" marker-end="" d="M1242,532, 1369,672"></path><path class="link" style="stroke-width: 1.07px; stroke-opacity: 1; stroke: rgb(0, 0, 0);" marker-end="" d="M1242,532, 1369,728"></path><path class="link" style="stroke-width: 1.07px; stroke-opacity: 1; stroke: rgb(0, 0, 0);" marker-end="" d="M1242,532, 1369,784"></path><path class="link" style="stroke-width: 1.07px; stroke-opacity: 1; stroke: rgb(0, 0, 0);" marker-end="" d="M1242,588, 1369,560"></path><path class="link" style="stroke-width: 1.07px; stroke-opacity: 1; stroke: rgb(0, 0, 0);" marker-end="" d="M1242,588, 1369,616"></path><path class="link" style="stroke-width: 1.07px; stroke-opacity: 1; stroke: rgb(0, 0, 0);" marker-end="" d="M1242,588, 1369,672"></path><path class="link" style="stroke-width: 1.07px; stroke-opacity: 1; stroke: rgb(0, 0, 0);" marker-end="" d="M1242,588, 1369,728"></path><path class="link" style="stroke-width: 1.07px; stroke-opacity: 1; stroke: rgb(0, 0, 0);" marker-end="" d="M1242,588, 1369,784"></path><path class="link" style="stroke-width: 1.07px; stroke-opacity: 1; stroke: rgb(0, 0, 0);" marker-end="" d="M1242,644, 1369,560"></path><path class="link" style="stroke-width: 1.07px; stroke-opacity: 1; stroke: rgb(0, 0, 0);" marker-end="" d="M1242,644, 1369,616"></path><path class="link" style="stroke-width: 1.07px; stroke-opacity: 1; stroke: rgb(0, 0, 0);" marker-end="" d="M1242,644, 1369,672"></path><path class="link" style="stroke-width: 1.07px; stroke-opacity: 1; stroke: rgb(0, 0, 0);" marker-end="" d="M1242,644, 1369,728"></path><path class="link" style="stroke-width: 1.07px; stroke-opacity: 1; stroke: rgb(0, 0, 0);" marker-end="" d="M1242,644, 1369,784"></path><path class="link" style="stroke-width: 1.07px; stroke-opacity: 1; stroke: rgb(0, 0, 0);" marker-end="" d="M1242,700, 1369,560"></path><path class="link" style="stroke-width: 1.07px; stroke-opacity: 1; stroke: rgb(0, 0, 0);" marker-end="" d="M1242,700, 1369,616"></path><path class="link" style="stroke-width: 1.07px; stroke-opacity: 1; stroke: rgb(0, 0, 0);" marker-end="" d="M1242,700, 1369,672"></path><path class="link" style="stroke-width: 1.07px; stroke-opacity: 1; stroke: rgb(0, 0, 0);" marker-end="" d="M1242,700, 1369,728"></path><path class="link" style="stroke-width: 1.07px; stroke-opacity: 1; stroke: rgb(0, 0, 0);" marker-end="" d="M1242,700, 1369,784"></path><path class="link" style="stroke-width: 1.07px; stroke-opacity: 1; stroke: rgb(0, 0, 0);" marker-end="" d="M1242,756, 1369,560"></path><path class="link" style="stroke-width: 1.07px; stroke-opacity: 1; stroke: rgb(0, 0, 0);" marker-end="" d="M1242,756, 1369,616"></path><path class="link" style="stroke-width: 1.07px; stroke-opacity: 1; stroke: rgb(0, 0, 0);" marker-end="" d="M1242,756, 1369,672"></path><path class="link" style="stroke-width: 1.07px; stroke-opacity: 1; stroke: rgb(0, 0, 0);" marker-end="" d="M1242,756, 1369,728"></path><path class="link" style="stroke-width: 1.07px; stroke-opacity: 1; stroke: rgb(0, 0, 0);" marker-end="" d="M1242,756, 1369,784"></path><path class="link" style="stroke-width: 1.07px; stroke-opacity: 1; stroke: rgb(0, 0, 0);" marker-end="" d="M1369,560, 1496,644"></path><path class="link" style="stroke-width: 1.07px; stroke-opacity: 1; stroke: rgb(0, 0, 0);" marker-end="" d="M1369,560, 1496,700"></path><path class="link" style="stroke-width: 1.07px; stroke-opacity: 1; stroke: rgb(0, 0, 0);" marker-end="" d="M1369,616, 1496,644"></path><path class="link" style="stroke-width: 1.07px; stroke-opacity: 1; stroke: rgb(0, 0, 0);" marker-end="" d="M1369,616, 1496,700"></path><path class="link" style="stroke-width: 1.07px; stroke-opacity: 1; stroke: rgb(0, 0, 0);" marker-end="" d="M1369,672, 1496,644"></path><path class="link" style="stroke-width: 1.07px; stroke-opacity: 1; stroke: rgb(0, 0, 0);" marker-end="" d="M1369,672, 1496,700"></path><path class="link" style="stroke-width: 1.07px; stroke-opacity: 1; stroke: rgb(0, 0, 0);" marker-end="" d="M1369,728, 1496,644"></path><path class="link" style="stroke-width: 1.07px; stroke-opacity: 1; stroke: rgb(0, 0, 0);" marker-end="" d="M1369,728, 1496,700"></path><path class="link" style="stroke-width: 1.07px; stroke-opacity: 1; stroke: rgb(0, 0, 0);" marker-end="" d="M1369,784, 1496,644"></path><path class="link" style="stroke-width: 1.07px; stroke-opacity: 1; stroke: rgb(0, 0, 0);" marker-end="" d="M1369,784, 1496,700"></path><path class="link" style="stroke-width: 1.07px; stroke-opacity: 1; stroke: rgb(0, 0, 0);" marker-end="" d="M1242,812, 1369,560"></path><path class="link" style="stroke-width: 1.07px; stroke-opacity: 1; stroke: rgb(0, 0, 0);" marker-end="" d="M1242,812, 1369,616"></path><path class="link" style="stroke-width: 1.07px; stroke-opacity: 1; stroke: rgb(0, 0, 0);" marker-end="" d="M1242,812, 1369,672"></path><path class="link" style="stroke-width: 1.07px; stroke-opacity: 1; stroke: rgb(0, 0, 0);" marker-end="" d="M1242,812, 1369,728"></path><path class="link" style="stroke-width: 1.07px; stroke-opacity: 1; stroke: rgb(0, 0, 0);" marker-end="" d="M1242,812, 1369,784"></path><path class="link" style="stroke-width: 1.07px; stroke-opacity: 1; stroke: rgb(0, 0, 0);" marker-end="" d="M1242,868, 1369,560"></path><path class="link" style="stroke-width: 1.07px; stroke-opacity: 1; stroke: rgb(0, 0, 0);" marker-end="" d="M1242,868, 1369,616"></path><path class="link" style="stroke-width: 1.07px; stroke-opacity: 1; stroke: rgb(0, 0, 0);" marker-end="" d="M1242,868, 1369,672"></path><path class="link" style="stroke-width: 1.07px; stroke-opacity: 1; stroke: rgb(0, 0, 0);" marker-end="" d="M1242,868, 1369,728"></path><path class="link" style="stroke-width: 1.07px; stroke-opacity: 1; stroke: rgb(0, 0, 0);" marker-end="" d="M1242,868, 1369,784"></path><circle r="18" class="node" id="0_0" style="fill: rgb(255, 255, 255); stroke: rgb(51, 51, 51);" cx="1242" cy="476"></circle><circle r="18" class="node" id="0_1" style="fill: rgb(255, 255, 255); stroke: rgb(51, 51, 51);" cx="1242" cy="532"></circle><circle r="18" class="node" id="0_2" style="fill: rgb(255, 255, 255); stroke: rgb(51, 51, 51);" cx="1242" cy="588"></circle><circle r="18" class="node" id="0_3" style="fill: rgb(255, 255, 255); stroke: rgb(51, 51, 51);" cx="1242" cy="644"></circle><circle r="18" class="node" id="0_4" style="fill: rgb(255, 255, 255); stroke: rgb(51, 51, 51);" cx="1242" cy="700"></circle><circle r="18" class="node" id="0_5" style="fill: rgb(255, 255, 255); stroke: rgb(51, 51, 51);" cx="1242" cy="756"></circle><circle r="18" class="node" id="0_6" style="fill: rgb(255, 255, 255); stroke: rgb(51, 51, 51);" cx="1242" cy="812"></circle><circle r="18" class="node" id="0_7" style="fill: rgb(255, 255, 255); stroke: rgb(51, 51, 51);" cx="1242" cy="868"></circle><circle r="18" class="node" id="1_0" style="fill: rgb(255, 255, 255); stroke: rgb(51, 51, 51);" cx="1369" cy="560"></circle><circle r="18" class="node" id="1_1" style="fill: rgb(255, 255, 255); stroke: rgb(51, 51, 51);" cx="1369" cy="616"></circle><circle r="18" class="node" id="1_2" style="fill: rgb(255, 255, 255); stroke: rgb(51, 51, 51);" cx="1369" cy="672"></circle><circle r="18" class="node" id="1_3" style="fill: rgb(255, 255, 255); stroke: rgb(51, 51, 51);" cx="1369" cy="728"></circle><circle r="18" class="node" id="1_4" style="fill: rgb(255, 255, 255); stroke: rgb(51, 51, 51);" cx="1369" cy="784"></circle><circle r="18" class="node" id="2_0" style="fill: rgb(255, 255, 255); stroke: rgb(51, 51, 51);" cx="1496" cy="644"></circle><circle r="18" class="node" id="2_1" style="fill: rgb(255, 255, 255); stroke: rgb(51, 51, 51);" cx="1496" cy="700"></circle><text class="text" dy=".35em" style="font-size: 12px;" x="1207" y="924"></text><text class="text" dy=".35em" style="font-size: 12px;" x="1334" y="924"></text><text class="text" dy=".35em" style="font-size: 12px;" x="1461" y="924"></text></g><defs><marker id="arrow" viewBox="0 -5 10 10" markerWidth="7" markerHeight="7" orient="auto" refX="62.4"><path d="M0,-5L10,0L0,5" style="stroke: rgb(80, 80, 80); fill: none;"></path></marker></defs></svg>