<?xml version="1.0" encoding="utf-8" standalone="no"?>
<!DOCTYPE svg PUBLIC "-//W3C//DTD SVG 1.1//EN"
  "http://www.w3.org/Graphics/SVG/1.1/DTD/svg11.dtd">
<svg xmlns:xlink="http://www.w3.org/1999/xlink" width="288pt" height="216pt" viewBox="0 0 288 216" xmlns="http://www.w3.org/2000/svg" version="1.1">
 <metadata>
  <rdf:RDF xmlns:dc="http://purl.org/dc/elements/1.1/" xmlns:cc="http://creativecommons.org/ns#" xmlns:rdf="http://www.w3.org/1999/02/22-rdf-syntax-ns#">
   <cc:Work>
    <dc:type rdf:resource="http://purl.org/dc/dcmitype/StillImage"/>
    <dc:date>2023-04-30T10:17:19.999087</dc:date>
    <dc:format>image/svg+xml</dc:format>
    <dc:creator>
     <cc:Agent>
      <dc:title>Matplotlib v3.7.1, https://matplotlib.org/</dc:title>
     </cc:Agent>
    </dc:creator>
   </cc:Work>
  </rdf:RDF>
 </metadata>
 <defs>
  <style type="text/css">*{stroke-linejoin: round; stroke-linecap: butt}</style>
 </defs>
 <g id="figure_1">
  <g id="patch_1">
   <path d="M 0 216 
L 288 216 
L 288 0 
L 0 0 
z
" style="fill: #ffffff"/>
  </g>
  <g id="axes_1">
   <g id="patch_2">
    <path d="M 59.157031 180.740125 
L 277.2 180.740125 
L 277.2 14.979141 
L 59.157031 14.979141 
z
" style="fill: #ffffff"/>
   </g>
   <g id="PolyCollection_1">
    <path d="M 69.068075 151.738611 
L 69.068075 151.738611 
L 71.070306 151.636017 
L 73.072538 151.525856 
L 75.074769 151.407583 
L 77.077 151.280616 
L 79.079231 151.144335 
L 81.081462 150.998077 
L 83.083693 150.841135 
L 85.085924 150.672758 
L 87.088155 150.492145 
L 89.090386 150.298442 
L 91.092618 150.090743 
L 93.094849 149.868087 
L 95.09708 149.629452 
L 97.099311 149.373756 
L 99.101542 149.099852 
L 101.103773 148.806529 
L 103.106004 148.492506 
L 105.108235 148.156436 
L 107.110467 147.796896 
L 109.112698 147.412393 
L 111.114929 147.001362 
L 113.11716 146.562161 
L 115.119391 146.093078 
L 117.121622 145.592327 
L 119.123853 145.058052 
L 121.126084 144.488329 
L 123.128315 143.881171 
L 125.130547 143.234533 
L 127.132778 142.546315 
L 129.135009 141.814375 
L 131.13724 141.036536 
L 133.139471 140.210597 
L 135.141702 139.334345 
L 137.143933 138.405574 
L 139.146164 137.422098 
L 141.148396 136.381774 
L 143.150627 135.282521 
L 145.152858 134.122345 
L 147.155089 132.899364 
L 149.15732 131.61184 
L 151.159551 130.258201 
L 153.161782 128.837081 
L 155.164013 127.347347 
L 157.166244 125.788133 
L 159.168476 124.158877 
L 161.170707 122.459352 
L 163.172938 120.689694 
L 165.175169 118.850442 
L 167.1774 116.942556 
L 169.179631 114.967448 
L 171.181862 112.926994 
L 173.184093 110.823558 
L 175.186325 108.659992 
L 177.188556 106.439639 
L 179.190787 104.166328 
L 181.193018 101.84436 
L 183.195249 99.478484 
L 185.19748 97.073864 
L 187.199711 94.636044 
L 189.201942 92.1709 
L 191.204173 89.684584 
L 193.206405 87.18347 
L 195.208636 84.674083 
L 197.210867 82.163037 
L 199.213098 79.656963 
L 201.215329 77.16244 
L 203.21756 74.685926 
L 205.219791 72.233691 
L 207.222022 69.811756 
L 209.224254 67.425838 
L 211.226485 65.081295 
L 213.228716 62.78309 
L 215.230947 60.53575 
L 217.233178 58.343341 
L 219.235409 56.209452 
L 221.23764 54.137182 
L 223.239871 52.129136 
L 225.242102 50.187434 
L 227.244334 48.313717 
L 229.246565 46.509169 
L 231.248796 44.774536 
L 233.251027 43.110152 
L 235.253258 41.515967 
L 237.255489 39.991584 
L 239.25772 38.536282 
L 241.259951 37.14906 
L 243.262183 35.828662 
L 245.264414 34.573617 
L 247.266645 33.382266 
L 249.268876 32.252794 
L 251.271107 31.183261 
L 253.273338 30.171626 
L 255.275569 29.215773 
L 257.2778 28.313537 
L 259.280031 27.462718 
L 261.282263 26.661105 
L 263.284494 25.906489 
L 265.286725 25.196681 
L 267.288956 24.529518 
L 267.288956 24.529518 
L 267.288956 15.903652 
L 265.286725 16.021889 
L 263.284494 16.155118 
L 261.282263 16.305205 
L 259.280031 16.474238 
L 257.2778 16.664552 
L 255.275569 16.878755 
L 253.273338 17.119754 
L 251.271107 17.390786 
L 249.268876 17.69545 
L 247.266645 18.037735 
L 245.264414 18.422055 
L 243.262183 18.853281 
L 241.259951 19.33677 
L 239.25772 19.878397 
L 237.255489 20.484574 
L 235.253258 21.162271 
L 233.251027 21.919026 
L 231.248796 22.762936 
L 229.246565 23.702645 
L 227.244334 24.747299 
L 225.242102 25.906489 
L 223.239871 27.190155 
L 221.23764 28.60846 
L 219.235409 30.171626 
L 217.233178 31.889722 
L 215.230947 33.772415 
L 213.228716 35.828662 
L 211.226485 38.066367 
L 209.224254 40.491994 
L 207.222022 43.110152 
L 205.219791 45.923165 
L 203.21756 48.930653 
L 201.215329 52.129136 
L 199.213098 55.51171 
L 197.210867 59.067809 
L 195.208636 62.78309 
L 193.206405 66.639473 
L 191.204173 70.615341 
L 189.201942 74.685926 
L 187.199711 78.82385 
L 185.19748 82.999827 
L 183.195249 87.18347 
L 181.193018 91.344169 
L 179.190787 95.451983 
L 177.188556 99.478484 
L 175.186325 103.39752 
L 173.184093 107.185839 
L 171.181862 110.823558 
L 169.179631 114.29445 
L 167.1774 117.586067 
L 165.175169 120.689694 
L 163.172938 123.600178 
L 161.170707 126.315632 
L 159.168476 128.837081 
L 157.166244 131.168045 
L 155.164013 133.314113 
L 153.161782 135.282521 
L 151.159551 137.081744 
L 149.15732 138.721135 
L 147.155089 140.210597 
L 145.152858 141.560304 
L 143.150627 142.780472 
L 141.148396 143.881171 
L 139.146164 144.87218 
L 137.143933 145.762876 
L 135.141702 146.562161 
L 133.139471 147.27841 
L 131.13724 147.919441 
L 129.135009 148.492506 
L 127.132778 149.004297 
L 125.130547 149.460953 
L 123.128315 149.868087 
L 121.126084 150.23081 
L 119.123853 150.55376 
L 117.121622 150.841135 
L 115.119391 151.096725 
L 113.11716 151.323942 
L 111.114929 151.525856 
L 109.112698 151.705222 
L 107.110467 151.864505 
L 105.108235 152.005917 
L 103.106004 152.13143 
L 101.103773 152.242807 
L 99.101542 152.341622 
L 97.099311 152.429275 
L 95.09708 152.507016 
L 93.094849 152.575956 
L 91.092618 152.637084 
L 89.090386 152.691279 
L 87.088155 152.739323 
L 85.085924 152.781911 
L 83.083693 152.819659 
L 81.081462 152.853116 
L 79.079231 152.882767 
L 77.077 152.909043 
L 75.074769 152.932329 
L 73.072538 152.952963 
L 71.070306 152.971246 
L 69.068075 152.987447 
z
" clip-path="url(#p36ad9285e4)" style="fill: #bf00bf; fill-opacity: 0.15"/>
   </g>
   <g id="PolyCollection_2">
    <path d="M 69.068075 129.909296 
L 69.068075 129.909296 
L 71.070306 129.674339 
L 73.072538 129.437494 
L 75.074769 129.198754 
L 77.077 128.958115 
L 79.079231 128.715571 
L 81.081462 128.471119 
L 83.083693 128.224753 
L 85.085924 127.97647 
L 87.088155 127.726265 
L 89.090386 127.474135 
L 91.092618 127.220076 
L 93.094849 126.964084 
L 95.09708 126.706158 
L 97.099311 126.446292 
L 99.101542 126.184486 
L 101.103773 125.920737 
L 103.106004 125.655043 
L 105.108235 125.387401 
L 107.110467 125.11781 
L 109.112698 124.846269 
L 111.114929 124.572776 
L 113.11716 124.297332 
L 115.119391 124.019935 
L 117.121622 123.740585 
L 119.123853 123.459282 
L 121.126084 123.176027 
L 123.128315 122.89082 
L 125.130547 122.603662 
L 127.132778 122.314554 
L 129.135009 122.023498 
L 131.13724 121.730496 
L 133.139471 121.435549 
L 135.141702 121.138661 
L 137.143933 120.839834 
L 139.146164 120.539071 
L 141.148396 120.236376 
L 143.150627 119.931752 
L 145.152858 119.625203 
L 147.155089 119.316735 
L 149.15732 119.006351 
L 151.159551 118.694057 
L 153.161782 118.379858 
L 155.164013 118.06376 
L 157.166244 117.74577 
L 159.168476 117.425893 
L 161.170707 117.104137 
L 163.172938 116.780509 
L 165.175169 116.455016 
L 167.1774 116.127667 
L 169.179631 115.798469 
L 171.181862 115.467432 
L 173.184093 115.134565 
L 175.186325 114.799876 
L 177.188556 114.463376 
L 179.190787 114.125075 
L 181.193018 113.784984 
L 183.195249 113.443113 
L 185.19748 113.099473 
L 187.199711 112.754077 
L 189.201942 112.406937 
L 191.204173 112.058064 
L 193.206405 111.707472 
L 195.208636 111.355174 
L 197.210867 111.001184 
L 199.213098 110.645515 
L 201.215329 110.288182 
L 203.21756 109.929199 
L 205.219791 109.568582 
L 207.222022 109.206346 
L 209.224254 108.842507 
L 211.226485 108.477082 
L 213.228716 108.110086 
L 215.230947 107.741537 
L 217.233178 107.371452 
L 219.235409 106.999849 
L 221.23764 106.626747 
L 223.239871 106.252162 
L 225.242102 105.876116 
L 227.244334 105.498625 
L 229.246565 105.119711 
L 231.248796 104.739393 
L 233.251027 104.357691 
L 235.253258 103.974627 
L 237.255489 103.59022 
L 239.25772 103.204492 
L 241.259951 102.817465 
L 243.262183 102.429162 
L 245.264414 102.039603 
L 247.266645 101.648812 
L 249.268876 101.256813 
L 251.271107 100.863627 
L 253.273338 100.46928 
L 255.275569 100.073794 
L 257.2778 99.677194 
L 259.280031 99.279504 
L 261.282263 98.880751 
L 263.284494 98.480957 
L 265.286725 98.08015 
L 267.288956 97.678354 
L 267.288956 97.678354 
L 267.288956 31.445135 
L 265.286725 32.3446 
L 263.284494 33.285806 
L 261.282263 34.269877 
L 259.280031 35.297876 
L 257.2778 36.370797 
L 255.275569 37.489547 
L 253.273338 38.654941 
L 251.271107 39.867682 
L 249.268876 41.128351 
L 247.266645 42.437392 
L 245.264414 43.795103 
L 243.262183 45.201615 
L 241.259951 46.656886 
L 239.25772 48.160683 
L 237.255489 49.712577 
L 235.253258 51.311926 
L 233.251027 52.95787 
L 231.248796 54.649322 
L 229.246565 56.384963 
L 227.244334 58.163236 
L 225.242102 59.982349 
L 223.239871 61.840273 
L 221.23764 63.734744 
L 219.235409 65.663273 
L 217.233178 67.623155 
L 215.230947 69.611478 
L 213.228716 71.625138 
L 211.226485 73.660859 
L 209.224254 75.715211 
L 207.222022 77.784632 
L 205.219791 79.865452 
L 203.21756 81.953916 
L 201.215329 84.046217 
L 199.213098 86.138519 
L 197.210867 88.226983 
L 195.208636 90.307803 
L 193.206405 92.377223 
L 191.204173 94.431576 
L 189.201942 96.467297 
L 187.199711 98.480957 
L 185.19748 100.46928 
L 183.195249 102.429162 
L 181.193018 104.357691 
L 179.190787 106.252162 
L 177.188556 108.110086 
L 175.186325 109.929199 
L 173.184093 111.707472 
L 171.181862 113.443113 
L 169.179631 115.134565 
L 167.1774 116.780509 
L 165.175169 118.379858 
L 163.172938 119.931752 
L 161.170707 121.435549 
L 159.168476 122.89082 
L 157.166244 124.297332 
L 155.164013 125.655043 
L 153.161782 126.964084 
L 151.159551 128.224753 
L 149.15732 129.437494 
L 147.155089 130.602888 
L 145.152858 131.721638 
L 143.150627 132.794559 
L 141.148396 133.822558 
L 139.146164 134.806629 
L 137.143933 135.747835 
L 135.141702 136.6473 
L 133.139471 137.506196 
L 131.13724 138.325737 
L 129.135009 139.107162 
L 127.132778 139.851733 
L 125.130547 140.560726 
L 123.128315 141.235419 
L 121.126084 141.877093 
L 119.123853 142.48702 
L 117.121622 143.066459 
L 115.119391 143.616656 
L 113.11716 144.138833 
L 111.114929 144.634191 
L 109.112698 145.103902 
L 107.110467 145.549111 
L 105.108235 145.970931 
L 103.106004 146.370443 
L 101.103773 146.748693 
L 99.101542 147.106695 
L 97.099311 147.445426 
L 95.09708 147.765828 
L 93.094849 148.068808 
L 91.092618 148.355236 
L 89.090386 148.625949 
L 87.088155 148.881749 
L 85.085924 149.123402 
L 83.083693 149.351642 
L 81.081462 149.567171 
L 79.079231 149.770659 
L 77.077 149.962743 
L 75.074769 150.144032 
L 73.072538 150.315105 
L 71.070306 150.476515 
L 69.068075 150.628784 
z
" clip-path="url(#p36ad9285e4)" style="fill: #00bfbf; fill-opacity: 0.15"/>
   </g>
   <g id="matplotlib.axis_1">
    <g id="xtick_1">
     <g id="line2d_1">
      <defs>
       <path id="mc93c0967cf" d="M 0 0 
L 0 3.5 
" style="stroke: #000000; stroke-width: 0.8"/>
      </defs>
      <g>
       <use xlink:href="#mc93c0967cf" x="85.586482" y="153.113294" style="stroke: #000000; stroke-width: 0.8"/>
      </g>
     </g>
     <g id="text_1">
      <!-- −5.0 -->
      <g transform="translate(72.230935 168.471576) scale(0.11 -0.11)">
       <defs>
        <path id="DejaVuSans-2212" d="M 678 2272 
L 4684 2272 
L 4684 1741 
L 678 1741 
L 678 2272 
z
" transform="scale(0.015625)"/>
        <path id="DejaVuSans-35" d="M 691 4666 
L 3169 4666 
L 3169 4134 
L 1269 4134 
L 1269 2991 
Q 1406 3038 1543 3061 
Q 1681 3084 1819 3084 
Q 2600 3084 3056 2656 
Q 3513 2228 3513 1497 
Q 3513 744 3044 326 
Q 2575 -91 1722 -91 
Q 1428 -91 1123 -41 
Q 819 9 494 109 
L 494 744 
Q 775 591 1075 516 
Q 1375 441 1709 441 
Q 2250 441 2565 725 
Q 2881 1009 2881 1497 
Q 2881 1984 2565 2268 
Q 2250 2553 1709 2553 
Q 1456 2553 1204 2497 
Q 953 2441 691 2322 
L 691 4666 
z
" transform="scale(0.015625)"/>
        <path id="DejaVuSans-2e" d="M 684 794 
L 1344 794 
L 1344 0 
L 684 0 
L 684 794 
z
" transform="scale(0.015625)"/>
        <path id="DejaVuSans-30" d="M 2034 4250 
Q 1547 4250 1301 3770 
Q 1056 3291 1056 2328 
Q 1056 1369 1301 889 
Q 1547 409 2034 409 
Q 2525 409 2770 889 
Q 3016 1369 3016 2328 
Q 3016 3291 2770 3770 
Q 2525 4250 2034 4250 
z
M 2034 4750 
Q 2819 4750 3233 4129 
Q 3647 3509 3647 2328 
Q 3647 1150 3233 529 
Q 2819 -91 2034 -91 
Q 1250 -91 836 529 
Q 422 1150 422 2328 
Q 422 3509 836 4129 
Q 1250 4750 2034 4750 
z
" transform="scale(0.015625)"/>
       </defs>
       <use xlink:href="#DejaVuSans-2212"/>
       <use xlink:href="#DejaVuSans-35" x="83.789062"/>
       <use xlink:href="#DejaVuSans-2e" x="147.412109"/>
       <use xlink:href="#DejaVuSans-30" x="179.199219"/>
      </g>
     </g>
    </g>
    <g id="xtick_2">
     <g id="line2d_2">
      <g>
       <use xlink:href="#mc93c0967cf" x="126.882499" y="153.113294" style="stroke: #000000; stroke-width: 0.8"/>
      </g>
     </g>
     <g id="text_2">
      <!-- −2.5 -->
      <g transform="translate(113.526952 168.471576) scale(0.11 -0.11)">
       <defs>
        <path id="DejaVuSans-32" d="M 1228 531 
L 3431 531 
L 3431 0 
L 469 0 
L 469 531 
Q 828 903 1448 1529 
Q 2069 2156 2228 2338 
Q 2531 2678 2651 2914 
Q 2772 3150 2772 3378 
Q 2772 3750 2511 3984 
Q 2250 4219 1831 4219 
Q 1534 4219 1204 4116 
Q 875 4013 500 3803 
L 500 4441 
Q 881 4594 1212 4672 
Q 1544 4750 1819 4750 
Q 2544 4750 2975 4387 
Q 3406 4025 3406 3419 
Q 3406 3131 3298 2873 
Q 3191 2616 2906 2266 
Q 2828 2175 2409 1742 
Q 1991 1309 1228 531 
z
" transform="scale(0.015625)"/>
       </defs>
       <use xlink:href="#DejaVuSans-2212"/>
       <use xlink:href="#DejaVuSans-32" x="83.789062"/>
       <use xlink:href="#DejaVuSans-2e" x="147.412109"/>
       <use xlink:href="#DejaVuSans-35" x="179.199219"/>
      </g>
     </g>
    </g>
    <g id="xtick_3">
     <g id="line2d_3">
      <g>
       <use xlink:href="#mc93c0967cf" x="168.178516" y="153.113294" style="stroke: #000000; stroke-width: 0.8"/>
      </g>
     </g>
     <g id="text_3">
      <!-- 0.0 -->
      <g transform="translate(159.431797 168.471576) scale(0.11 -0.11)">
       <use xlink:href="#DejaVuSans-30"/>
       <use xlink:href="#DejaVuSans-2e" x="63.623047"/>
       <use xlink:href="#DejaVuSans-30" x="95.410156"/>
      </g>
     </g>
    </g>
    <g id="xtick_4">
     <g id="line2d_4">
      <g>
       <use xlink:href="#mc93c0967cf" x="209.474532" y="153.113294" style="stroke: #000000; stroke-width: 0.8"/>
      </g>
     </g>
     <g id="text_4">
      <!-- 2.5 -->
      <g transform="translate(200.727814 168.471576) scale(0.11 -0.11)">
       <use xlink:href="#DejaVuSans-32"/>
       <use xlink:href="#DejaVuSans-2e" x="63.623047"/>
       <use xlink:href="#DejaVuSans-35" x="95.410156"/>
      </g>
     </g>
    </g>
    <g id="xtick_5">
     <g id="line2d_5">
      <g>
       <use xlink:href="#mc93c0967cf" x="250.770549" y="153.113294" style="stroke: #000000; stroke-width: 0.8"/>
      </g>
     </g>
     <g id="text_5">
      <!-- 5.0 -->
      <g transform="translate(242.02383 168.471576) scale(0.11 -0.11)">
       <use xlink:href="#DejaVuSans-35"/>
       <use xlink:href="#DejaVuSans-2e" x="63.623047"/>
       <use xlink:href="#DejaVuSans-30" x="95.410156"/>
      </g>
     </g>
    </g>
    <g id="text_6">
     <!-- z (Input) -->
     <g transform="translate(145.010625 183.117513) scale(0.11 -0.11)">
      <defs>
       <path id="DejaVuSans-7a" d="M 353 3500 
L 3084 3500 
L 3084 2975 
L 922 459 
L 3084 459 
L 3084 0 
L 275 0 
L 275 525 
L 2438 3041 
L 353 3041 
L 353 3500 
z
" transform="scale(0.015625)"/>
       <path id="DejaVuSans-20" transform="scale(0.015625)"/>
       <path id="DejaVuSans-28" d="M 1984 4856 
Q 1566 4138 1362 3434 
Q 1159 2731 1159 2009 
Q 1159 1288 1364 580 
Q 1569 -128 1984 -844 
L 1484 -844 
Q 1016 -109 783 600 
Q 550 1309 550 2009 
Q 550 2706 781 3412 
Q 1013 4119 1484 4856 
L 1984 4856 
z
" transform="scale(0.015625)"/>
       <path id="DejaVuSans-49" d="M 628 4666 
L 1259 4666 
L 1259 0 
L 628 0 
L 628 4666 
z
" transform="scale(0.015625)"/>
       <path id="DejaVuSans-6e" d="M 3513 2113 
L 3513 0 
L 2938 0 
L 2938 2094 
Q 2938 2591 2744 2837 
Q 2550 3084 2163 3084 
Q 1697 3084 1428 2787 
Q 1159 2491 1159 1978 
L 1159 0 
L 581 0 
L 581 3500 
L 1159 3500 
L 1159 2956 
Q 1366 3272 1645 3428 
Q 1925 3584 2291 3584 
Q 2894 3584 3203 3211 
Q 3513 2838 3513 2113 
z
" transform="scale(0.015625)"/>
       <path id="DejaVuSans-70" d="M 1159 525 
L 1159 -1331 
L 581 -1331 
L 581 3500 
L 1159 3500 
L 1159 2969 
Q 1341 3281 1617 3432 
Q 1894 3584 2278 3584 
Q 2916 3584 3314 3078 
Q 3713 2572 3713 1747 
Q 3713 922 3314 415 
Q 2916 -91 2278 -91 
Q 1894 -91 1617 61 
Q 1341 213 1159 525 
z
M 3116 1747 
Q 3116 2381 2855 2742 
Q 2594 3103 2138 3103 
Q 1681 3103 1420 2742 
Q 1159 2381 1159 1747 
Q 1159 1113 1420 752 
Q 1681 391 2138 391 
Q 2594 391 2855 752 
Q 3116 1113 3116 1747 
z
" transform="scale(0.015625)"/>
       <path id="DejaVuSans-75" d="M 544 1381 
L 544 3500 
L 1119 3500 
L 1119 1403 
Q 1119 906 1312 657 
Q 1506 409 1894 409 
Q 2359 409 2629 706 
Q 2900 1003 2900 1516 
L 2900 3500 
L 3475 3500 
L 3475 0 
L 2900 0 
L 2900 538 
Q 2691 219 2414 64 
Q 2138 -91 1772 -91 
Q 1169 -91 856 284 
Q 544 659 544 1381 
z
M 1991 3584 
L 1991 3584 
z
" transform="scale(0.015625)"/>
       <path id="DejaVuSans-74" d="M 1172 4494 
L 1172 3500 
L 2356 3500 
L 2356 3053 
L 1172 3053 
L 1172 1153 
Q 1172 725 1289 603 
Q 1406 481 1766 481 
L 2356 481 
L 2356 0 
L 1766 0 
Q 1100 0 847 248 
Q 594 497 594 1153 
L 594 3053 
L 172 3053 
L 172 3500 
L 594 3500 
L 594 4494 
L 1172 4494 
z
" transform="scale(0.015625)"/>
       <path id="DejaVuSans-29" d="M 513 4856 
L 1013 4856 
Q 1481 4119 1714 3412 
Q 1947 2706 1947 2009 
Q 1947 1309 1714 600 
Q 1481 -109 1013 -844 
L 513 -844 
Q 928 -128 1133 580 
Q 1338 1288 1338 2009 
Q 1338 2731 1133 3434 
Q 928 4138 513 4856 
z
" transform="scale(0.015625)"/>
      </defs>
      <use xlink:href="#DejaVuSans-7a"/>
      <use xlink:href="#DejaVuSans-20" x="52.490234"/>
      <use xlink:href="#DejaVuSans-28" x="84.277344"/>
      <use xlink:href="#DejaVuSans-49" x="123.291016"/>
      <use xlink:href="#DejaVuSans-6e" x="152.783203"/>
      <use xlink:href="#DejaVuSans-70" x="216.162109"/>
      <use xlink:href="#DejaVuSans-75" x="279.638672"/>
      <use xlink:href="#DejaVuSans-74" x="343.017578"/>
      <use xlink:href="#DejaVuSans-29" x="382.226562"/>
     </g>
    </g>
   </g>
   <g id="matplotlib.axis_2">
    <g id="ytick_1">
     <g id="line2d_6">
      <defs>
       <path id="mfae9952bb8" d="M 0 0 
L -3.5 0 
" style="stroke: #000000; stroke-width: 0.8"/>
      </defs>
      <g>
       <use xlink:href="#mfae9952bb8" x="59.157031" y="180.740125" style="stroke: #000000; stroke-width: 0.8"/>
      </g>
     </g>
     <g id="text_7">
      <!-- −0.2 -->
      <g transform="translate(25.445938 184.919266) scale(0.11 -0.11)">
       <use xlink:href="#DejaVuSans-2212"/>
       <use xlink:href="#DejaVuSans-30" x="83.789062"/>
       <use xlink:href="#DejaVuSans-2e" x="147.412109"/>
       <use xlink:href="#DejaVuSans-32" x="179.199219"/>
      </g>
     </g>
    </g>
    <g id="ytick_2">
     <g id="line2d_7">
      <g>
       <use xlink:href="#mfae9952bb8" x="59.157031" y="153.113294" style="stroke: #000000; stroke-width: 0.8"/>
      </g>
     </g>
     <g id="text_8">
      <!-- 0.0 -->
      <g transform="translate(34.663594 157.292435) scale(0.11 -0.11)">
       <use xlink:href="#DejaVuSans-30"/>
       <use xlink:href="#DejaVuSans-2e" x="63.623047"/>
       <use xlink:href="#DejaVuSans-30" x="95.410156"/>
      </g>
     </g>
    </g>
    <g id="ytick_3">
     <g id="line2d_8">
      <g>
       <use xlink:href="#mfae9952bb8" x="59.157031" y="125.486464" style="stroke: #000000; stroke-width: 0.8"/>
      </g>
     </g>
     <g id="text_9">
      <!-- 0.2 -->
      <g transform="translate(34.663594 129.665604) scale(0.11 -0.11)">
       <use xlink:href="#DejaVuSans-30"/>
       <use xlink:href="#DejaVuSans-2e" x="63.623047"/>
       <use xlink:href="#DejaVuSans-32" x="95.410156"/>
      </g>
     </g>
    </g>
    <g id="ytick_4">
     <g id="line2d_9">
      <g>
       <use xlink:href="#mfae9952bb8" x="59.157031" y="97.859633" style="stroke: #000000; stroke-width: 0.8"/>
      </g>
     </g>
     <g id="text_10">
      <!-- 0.4 -->
      <g transform="translate(34.663594 102.038773) scale(0.11 -0.11)">
       <defs>
        <path id="DejaVuSans-34" d="M 2419 4116 
L 825 1625 
L 2419 1625 
L 2419 4116 
z
M 2253 4666 
L 3047 4666 
L 3047 1625 
L 3713 1625 
L 3713 1100 
L 3047 1100 
L 3047 0 
L 2419 0 
L 2419 1100 
L 313 1100 
L 313 1709 
L 2253 4666 
z
" transform="scale(0.015625)"/>
       </defs>
       <use xlink:href="#DejaVuSans-30"/>
       <use xlink:href="#DejaVuSans-2e" x="63.623047"/>
       <use xlink:href="#DejaVuSans-34" x="95.410156"/>
      </g>
     </g>
    </g>
    <g id="ytick_5">
     <g id="line2d_10">
      <g>
       <use xlink:href="#mfae9952bb8" x="59.157031" y="70.232802" style="stroke: #000000; stroke-width: 0.8"/>
      </g>
     </g>
     <g id="text_11">
      <!-- 0.6 -->
      <g transform="translate(34.663594 74.411943) scale(0.11 -0.11)">
       <defs>
        <path id="DejaVuSans-36" d="M 2113 2584 
Q 1688 2584 1439 2293 
Q 1191 2003 1191 1497 
Q 1191 994 1439 701 
Q 1688 409 2113 409 
Q 2538 409 2786 701 
Q 3034 994 3034 1497 
Q 3034 2003 2786 2293 
Q 2538 2584 2113 2584 
z
M 3366 4563 
L 3366 3988 
Q 3128 4100 2886 4159 
Q 2644 4219 2406 4219 
Q 1781 4219 1451 3797 
Q 1122 3375 1075 2522 
Q 1259 2794 1537 2939 
Q 1816 3084 2150 3084 
Q 2853 3084 3261 2657 
Q 3669 2231 3669 1497 
Q 3669 778 3244 343 
Q 2819 -91 2113 -91 
Q 1303 -91 875 529 
Q 447 1150 447 2328 
Q 447 3434 972 4092 
Q 1497 4750 2381 4750 
Q 2619 4750 2861 4703 
Q 3103 4656 3366 4563 
z
" transform="scale(0.015625)"/>
       </defs>
       <use xlink:href="#DejaVuSans-30"/>
       <use xlink:href="#DejaVuSans-2e" x="63.623047"/>
       <use xlink:href="#DejaVuSans-36" x="95.410156"/>
      </g>
     </g>
    </g>
    <g id="ytick_6">
     <g id="line2d_11">
      <g>
       <use xlink:href="#mfae9952bb8" x="59.157031" y="42.605971" style="stroke: #000000; stroke-width: 0.8"/>
      </g>
     </g>
     <g id="text_12">
      <!-- 0.8 -->
      <g transform="translate(34.663594 46.785112) scale(0.11 -0.11)">
       <defs>
        <path id="DejaVuSans-38" d="M 2034 2216 
Q 1584 2216 1326 1975 
Q 1069 1734 1069 1313 
Q 1069 891 1326 650 
Q 1584 409 2034 409 
Q 2484 409 2743 651 
Q 3003 894 3003 1313 
Q 3003 1734 2745 1975 
Q 2488 2216 2034 2216 
z
M 1403 2484 
Q 997 2584 770 2862 
Q 544 3141 544 3541 
Q 544 4100 942 4425 
Q 1341 4750 2034 4750 
Q 2731 4750 3128 4425 
Q 3525 4100 3525 3541 
Q 3525 3141 3298 2862 
Q 3072 2584 2669 2484 
Q 3125 2378 3379 2068 
Q 3634 1759 3634 1313 
Q 3634 634 3220 271 
Q 2806 -91 2034 -91 
Q 1263 -91 848 271 
Q 434 634 434 1313 
Q 434 1759 690 2068 
Q 947 2378 1403 2484 
z
M 1172 3481 
Q 1172 3119 1398 2916 
Q 1625 2713 2034 2713 
Q 2441 2713 2670 2916 
Q 2900 3119 2900 3481 
Q 2900 3844 2670 4047 
Q 2441 4250 2034 4250 
Q 1625 4250 1398 4047 
Q 1172 3844 1172 3481 
z
" transform="scale(0.015625)"/>
       </defs>
       <use xlink:href="#DejaVuSans-30"/>
       <use xlink:href="#DejaVuSans-2e" x="63.623047"/>
       <use xlink:href="#DejaVuSans-38" x="95.410156"/>
      </g>
     </g>
    </g>
    <g id="ytick_7">
     <g id="line2d_12">
      <g>
       <use xlink:href="#mfae9952bb8" x="59.157031" y="14.979141" style="stroke: #000000; stroke-width: 0.8"/>
      </g>
     </g>
     <g id="text_13">
      <!-- 1.0 -->
      <g transform="translate(34.663594 19.158281) scale(0.11 -0.11)">
       <defs>
        <path id="DejaVuSans-31" d="M 794 531 
L 1825 531 
L 1825 4091 
L 703 3866 
L 703 4441 
L 1819 4666 
L 2450 4666 
L 2450 531 
L 3481 531 
L 3481 0 
L 794 0 
L 794 531 
z
" transform="scale(0.015625)"/>
       </defs>
       <use xlink:href="#DejaVuSans-31"/>
       <use xlink:href="#DejaVuSans-2e" x="63.623047"/>
       <use xlink:href="#DejaVuSans-30" x="95.410156"/>
      </g>
     </g>
    </g>
    <g id="text_14">
     <!-- f(z) (Activation) -->
     <g transform="translate(19.158281 140.549086) rotate(-90) scale(0.11 -0.11)">
      <defs>
       <path id="DejaVuSans-66" d="M 2375 4863 
L 2375 4384 
L 1825 4384 
Q 1516 4384 1395 4259 
Q 1275 4134 1275 3809 
L 1275 3500 
L 2222 3500 
L 2222 3053 
L 1275 3053 
L 1275 0 
L 697 0 
L 697 3053 
L 147 3053 
L 147 3500 
L 697 3500 
L 697 3744 
Q 697 4328 969 4595 
Q 1241 4863 1831 4863 
L 2375 4863 
z
" transform="scale(0.015625)"/>
       <path id="DejaVuSans-41" d="M 2188 4044 
L 1331 1722 
L 3047 1722 
L 2188 4044 
z
M 1831 4666 
L 2547 4666 
L 4325 0 
L 3669 0 
L 3244 1197 
L 1141 1197 
L 716 0 
L 50 0 
L 1831 4666 
z
" transform="scale(0.015625)"/>
       <path id="DejaVuSans-63" d="M 3122 3366 
L 3122 2828 
Q 2878 2963 2633 3030 
Q 2388 3097 2138 3097 
Q 1578 3097 1268 2742 
Q 959 2388 959 1747 
Q 959 1106 1268 751 
Q 1578 397 2138 397 
Q 2388 397 2633 464 
Q 2878 531 3122 666 
L 3122 134 
Q 2881 22 2623 -34 
Q 2366 -91 2075 -91 
Q 1284 -91 818 406 
Q 353 903 353 1747 
Q 353 2603 823 3093 
Q 1294 3584 2113 3584 
Q 2378 3584 2631 3529 
Q 2884 3475 3122 3366 
z
" transform="scale(0.015625)"/>
       <path id="DejaVuSans-69" d="M 603 3500 
L 1178 3500 
L 1178 0 
L 603 0 
L 603 3500 
z
M 603 4863 
L 1178 4863 
L 1178 4134 
L 603 4134 
L 603 4863 
z
" transform="scale(0.015625)"/>
       <path id="DejaVuSans-76" d="M 191 3500 
L 800 3500 
L 1894 563 
L 2988 3500 
L 3597 3500 
L 2284 0 
L 1503 0 
L 191 3500 
z
" transform="scale(0.015625)"/>
       <path id="DejaVuSans-61" d="M 2194 1759 
Q 1497 1759 1228 1600 
Q 959 1441 959 1056 
Q 959 750 1161 570 
Q 1363 391 1709 391 
Q 2188 391 2477 730 
Q 2766 1069 2766 1631 
L 2766 1759 
L 2194 1759 
z
M 3341 1997 
L 3341 0 
L 2766 0 
L 2766 531 
Q 2569 213 2275 61 
Q 1981 -91 1556 -91 
Q 1019 -91 701 211 
Q 384 513 384 1019 
Q 384 1609 779 1909 
Q 1175 2209 1959 2209 
L 2766 2209 
L 2766 2266 
Q 2766 2663 2505 2880 
Q 2244 3097 1772 3097 
Q 1472 3097 1187 3025 
Q 903 2953 641 2809 
L 641 3341 
Q 956 3463 1253 3523 
Q 1550 3584 1831 3584 
Q 2591 3584 2966 3190 
Q 3341 2797 3341 1997 
z
" transform="scale(0.015625)"/>
       <path id="DejaVuSans-6f" d="M 1959 3097 
Q 1497 3097 1228 2736 
Q 959 2375 959 1747 
Q 959 1119 1226 758 
Q 1494 397 1959 397 
Q 2419 397 2687 759 
Q 2956 1122 2956 1747 
Q 2956 2369 2687 2733 
Q 2419 3097 1959 3097 
z
M 1959 3584 
Q 2709 3584 3137 3096 
Q 3566 2609 3566 1747 
Q 3566 888 3137 398 
Q 2709 -91 1959 -91 
Q 1206 -91 779 398 
Q 353 888 353 1747 
Q 353 2609 779 3096 
Q 1206 3584 1959 3584 
z
" transform="scale(0.015625)"/>
      </defs>
      <use xlink:href="#DejaVuSans-66"/>
      <use xlink:href="#DejaVuSans-28" x="35.205078"/>
      <use xlink:href="#DejaVuSans-7a" x="74.21875"/>
      <use xlink:href="#DejaVuSans-29" x="126.708984"/>
      <use xlink:href="#DejaVuSans-20" x="165.722656"/>
      <use xlink:href="#DejaVuSans-28" x="197.509766"/>
      <use xlink:href="#DejaVuSans-41" x="236.523438"/>
      <use xlink:href="#DejaVuSans-63" x="303.181641"/>
      <use xlink:href="#DejaVuSans-74" x="358.162109"/>
      <use xlink:href="#DejaVuSans-69" x="397.371094"/>
      <use xlink:href="#DejaVuSans-76" x="425.154297"/>
      <use xlink:href="#DejaVuSans-61" x="484.333984"/>
      <use xlink:href="#DejaVuSans-74" x="545.613281"/>
      <use xlink:href="#DejaVuSans-69" x="584.822266"/>
      <use xlink:href="#DejaVuSans-6f" x="612.605469"/>
      <use xlink:href="#DejaVuSans-6e" x="673.787109"/>
      <use xlink:href="#DejaVuSans-29" x="737.166016"/>
     </g>
    </g>
   </g>
   <g id="line2d_13">
    <path d="M 69.068075 152.696348 
L 71.070306 152.654033 
L 73.072538 152.607439 
L 75.074769 152.556137 
L 77.077 152.499655 
L 79.079231 152.437476 
L 81.081462 152.36903 
L 83.083693 152.293693 
L 85.085924 152.210781 
L 87.088155 152.119542 
L 89.090386 152.019153 
L 91.092618 151.908711 
L 93.094849 151.78723 
L 95.09708 151.653628 
L 97.099311 151.506723 
L 99.101542 151.345224 
L 101.103773 151.167723 
L 103.106004 150.972681 
L 105.108235 150.758425 
L 107.110467 150.523132 
L 109.112698 150.264822 
L 111.114929 149.981348 
L 113.11716 149.67038 
L 115.119391 149.329402 
L 117.121622 148.955696 
L 119.123853 148.546337 
L 121.126084 148.098182 
L 123.128315 147.607861 
L 125.130547 147.071778 
L 127.132778 146.486103 
L 129.135009 145.846776 
L 131.13724 145.149507 
L 133.139471 144.38979 
L 135.141702 143.562917 
L 137.143933 142.663996 
L 139.146164 141.687982 
L 141.148396 140.629717 
L 143.150627 139.483975 
L 145.152858 138.245518 
L 147.155089 136.909174 
L 149.15732 135.469908 
L 151.159551 133.922925 
L 153.161782 132.263773 
L 155.164013 130.48846 
L 157.166244 128.593584 
L 159.168476 126.576467 
L 161.170707 124.435298 
L 163.172938 122.169269 
L 165.175169 119.778718 
L 167.1774 117.265249 
L 169.179631 114.631852 
L 171.181862 111.882982 
L 173.184093 109.024626 
L 175.186325 106.064321 
L 177.188556 103.01114 
L 179.190787 99.875631 
L 181.193018 96.669711 
L 183.195249 93.406509 
L 185.19748 90.100172 
L 187.199711 86.765635 
L 189.201942 83.418352 
L 191.204173 80.074016 
L 193.206405 76.748265 
L 195.208636 73.456391 
L 197.210867 70.213061 
L 199.213098 67.032068 
L 201.215329 63.926107 
L 203.21756 60.906596 
L 205.219791 57.983539 
L 207.222022 55.165441 
L 209.224254 52.459255 
L 211.226485 49.870389 
L 213.228716 47.402741 
L 215.230947 45.058768 
L 217.233178 42.839586 
L 219.235409 40.745088 
L 221.23764 38.774074 
L 223.239871 36.92439 
L 225.242102 35.19307 
L 227.244334 33.576477 
L 229.246565 32.070431 
L 231.248796 30.670337 
L 233.251027 29.3713 
L 235.253258 28.168223 
L 237.255489 27.055899 
L 239.25772 26.029088 
L 241.259951 25.082583 
L 243.262183 24.211264 
L 245.264414 23.410138 
L 247.266645 22.674381 
L 249.268876 21.999357 
L 251.271107 21.380639 
L 253.273338 20.814025 
L 255.275569 20.295539 
L 257.2778 19.82144 
L 259.280031 19.388215 
L 261.282263 18.992583 
L 263.284494 18.631482 
L 265.286725 18.302065 
L 267.288956 18.001691 
" clip-path="url(#p36ad9285e4)" style="fill: none; stroke: #bf00bf; stroke-opacity: 0.3; stroke-width: 1.5; stroke-linecap: square"/>
   </g>
   <g id="line2d_14">
    <path d="M 69.068075 145.194868 
L 71.070306 144.919021 
L 73.072538 144.634191 
L 75.074769 144.340128 
L 77.077 144.036581 
L 79.079231 143.723294 
L 81.081462 143.400008 
L 83.083693 143.066459 
L 85.085924 142.722384 
L 87.088155 142.367513 
L 89.090386 142.001578 
L 91.092618 141.624304 
L 93.094849 141.235419 
L 95.09708 140.834647 
L 97.099311 140.421712 
L 99.101542 139.996337 
L 101.103773 139.558246 
L 103.106004 139.107162 
L 105.108235 138.64281 
L 107.110467 138.164918 
L 109.112698 137.673214 
L 111.114929 137.167429 
L 113.11716 136.6473 
L 115.119391 136.112565 
L 117.121622 135.562969 
L 119.123853 134.998264 
L 121.126084 134.418205 
L 123.128315 133.822558 
L 125.130547 133.211095 
L 127.132778 132.583599 
L 129.135009 131.939861 
L 131.13724 131.279685 
L 133.139471 130.602888 
L 135.141702 129.909296 
L 137.143933 129.198754 
L 139.146164 128.471119 
L 141.148396 127.726265 
L 143.150627 126.964084 
L 145.152858 126.184486 
L 147.155089 125.387401 
L 149.15732 124.572776 
L 151.159551 123.740585 
L 153.161782 122.89082 
L 155.164013 122.023498 
L 157.166244 121.138661 
L 159.168476 120.236376 
L 161.170707 119.316735 
L 163.172938 118.379858 
L 165.175169 117.425893 
L 167.1774 116.455016 
L 169.179631 115.467432 
L 171.181862 114.463376 
L 173.184093 113.443113 
L 175.186325 112.406937 
L 177.188556 111.355174 
L 179.190787 110.288182 
L 181.193018 109.206346 
L 183.195249 108.110086 
L 185.19748 106.999849 
L 187.199711 105.876116 
L 189.201942 104.739393 
L 191.204173 103.59022 
L 193.206405 102.429162 
L 195.208636 101.256813 
L 197.210867 100.073794 
L 199.213098 98.880751 
L 201.215329 97.678354 
L 203.21756 96.467297 
L 205.219791 95.248295 
L 207.222022 94.022084 
L 209.224254 92.789415 
L 211.226485 91.55106 
L 213.228716 90.307803 
L 215.230947 89.06044 
L 217.233178 87.809781 
L 219.235409 86.556641 
L 221.23764 85.301844 
L 223.239871 84.046217 
L 225.242102 82.790591 
L 227.244334 81.535794 
L 229.246565 80.282654 
L 231.248796 79.031995 
L 233.251027 77.784632 
L 235.253258 76.541375 
L 237.255489 75.30302 
L 239.25772 74.070351 
L 241.259951 72.84414 
L 243.262183 71.625138 
L 245.264414 70.414081 
L 247.266645 69.211684 
L 249.268876 68.018641 
L 251.271107 66.835622 
L 253.273338 65.663273 
L 255.275569 64.502215 
L 257.2778 63.353042 
L 259.280031 62.216319 
L 261.282263 61.092586 
L 263.284494 59.982349 
L 265.286725 58.886089 
L 267.288956 57.804253 
" clip-path="url(#p36ad9285e4)" style="fill: none; stroke: #00bfbf; stroke-opacity: 0.3; stroke-width: 1.5; stroke-linecap: square"/>
   </g>
   <g id="patch_3">
    <path d="M 59.157031 180.740125 
L 59.157031 14.979141 
" style="fill: none; stroke: #000000; stroke-width: 0.8; stroke-linejoin: miter; stroke-linecap: square"/>
   </g>
   <g id="patch_4">
    <path d="M 277.2 180.740125 
L 277.2 14.979141 
" style="fill: none"/>
   </g>
   <g id="patch_5">
    <path d="M 59.157031 153.113294 
L 277.2 153.113294 
" style="fill: none; stroke: #000000; stroke-width: 0.8; stroke-linejoin: miter; stroke-linecap: square"/>
   </g>
   <g id="patch_6">
    <path d="M 59.157031 14.979141 
L 277.2 14.979141 
" style="fill: none"/>
   </g>
   <g id="text_15">
    <!-- $f(z) =  \dfrac{1}{1 + e^{-gz}}$ -->
    <g style="opacity: 0.75" transform="translate(129.843516 28.792556) scale(0.11 -0.11)">
     <defs>
      <path id="DejaVuSans-Oblique-66" d="M 3059 4863 
L 2969 4384 
L 2419 4384 
Q 2106 4384 1964 4261 
Q 1822 4138 1753 3809 
L 1691 3500 
L 2638 3500 
L 2553 3053 
L 1606 3053 
L 1013 0 
L 434 0 
L 1031 3053 
L 481 3053 
L 563 3500 
L 1113 3500 
L 1159 3744 
Q 1278 4363 1576 4613 
Q 1875 4863 2516 4863 
L 3059 4863 
z
" transform="scale(0.015625)"/>
      <path id="DejaVuSans-Oblique-7a" d="M 744 3500 
L 3475 3500 
L 3372 2975 
L 738 459 
L 2913 459 
L 2822 0 
L -19 0 
L 84 525 
L 2719 3041 
L 653 3041 
L 744 3500 
z
" transform="scale(0.015625)"/>
      <path id="DejaVuSans-3d" d="M 678 2906 
L 4684 2906 
L 4684 2381 
L 678 2381 
L 678 2906 
z
M 678 1631 
L 4684 1631 
L 4684 1100 
L 678 1100 
L 678 1631 
z
" transform="scale(0.015625)"/>
      <path id="DejaVuSans-2b" d="M 2944 4013 
L 2944 2272 
L 4684 2272 
L 4684 1741 
L 2944 1741 
L 2944 0 
L 2419 0 
L 2419 1741 
L 678 1741 
L 678 2272 
L 2419 2272 
L 2419 4013 
L 2944 4013 
z
" transform="scale(0.015625)"/>
      <path id="DejaVuSans-Oblique-65" d="M 3078 2063 
Q 3088 2113 3092 2166 
Q 3097 2219 3097 2272 
Q 3097 2653 2873 2875 
Q 2650 3097 2266 3097 
Q 1838 3097 1509 2826 
Q 1181 2556 1013 2059 
L 3078 2063 
z
M 3578 1613 
L 903 1613 
Q 884 1494 878 1425 
Q 872 1356 872 1306 
Q 872 872 1139 634 
Q 1406 397 1894 397 
Q 2269 397 2603 481 
Q 2938 566 3225 728 
L 3116 159 
Q 2806 34 2476 -28 
Q 2147 -91 1806 -91 
Q 1078 -91 686 257 
Q 294 606 294 1247 
Q 294 1794 489 2264 
Q 684 2734 1063 3103 
Q 1306 3334 1642 3459 
Q 1978 3584 2356 3584 
Q 2950 3584 3301 3228 
Q 3653 2872 3653 2272 
Q 3653 2128 3634 1964 
Q 3616 1800 3578 1613 
z
" transform="scale(0.015625)"/>
      <path id="DejaVuSans-Oblique-67" d="M 3816 3500 
L 3219 434 
Q 3047 -456 2561 -893 
Q 2075 -1331 1253 -1331 
Q 950 -1331 690 -1286 
Q 431 -1241 206 -1147 
L 313 -588 
Q 525 -725 762 -790 
Q 1000 -856 1269 -856 
Q 1816 -856 2167 -557 
Q 2519 -259 2631 300 
L 2681 563 
Q 2441 288 2122 144 
Q 1803 0 1434 0 
Q 903 0 598 351 
Q 294 703 294 1319 
Q 294 1803 478 2267 
Q 663 2731 997 3091 
Q 1219 3328 1514 3456 
Q 1809 3584 2131 3584 
Q 2484 3584 2746 3420 
Q 3009 3256 3138 2956 
L 3238 3500 
L 3816 3500 
z
M 2950 2216 
Q 2950 2641 2750 2872 
Q 2550 3103 2181 3103 
Q 1953 3103 1747 3012 
Q 1541 2922 1394 2759 
Q 1156 2491 1023 2127 
Q 891 1763 891 1375 
Q 891 944 1092 712 
Q 1294 481 1672 481 
Q 2219 481 2584 976 
Q 2950 1472 2950 2216 
z
" transform="scale(0.015625)"/>
     </defs>
     <use xlink:href="#DejaVuSans-Oblique-66" transform="translate(0 0.296875)"/>
     <use xlink:href="#DejaVuSans-28" transform="translate(35.205078 0.296875)"/>
     <use xlink:href="#DejaVuSans-Oblique-7a" transform="translate(74.21875 0.296875)"/>
     <use xlink:href="#DejaVuSans-29" transform="translate(126.708984 0.296875)"/>
     <use xlink:href="#DejaVuSans-3d" transform="translate(185.205078 0.296875)"/>
     <use xlink:href="#DejaVuSans-31" transform="translate(454.476562 44.09375)"/>
     <use xlink:href="#DejaVuSans-31" transform="translate(288.476562 -64.6375)"/>
     <use xlink:href="#DejaVuSans-2b" transform="translate(371.582031 -64.6375)"/>
     <use xlink:href="#DejaVuSans-Oblique-65" transform="translate(474.853516 -64.6375)"/>
     <use xlink:href="#DejaVuSans-2212" transform="translate(541.026849 -26.35625) scale(0.7)"/>
     <use xlink:href="#DejaVuSans-Oblique-67" transform="translate(599.679193 -26.35625) scale(0.7)"/>
     <use xlink:href="#DejaVuSans-Oblique-7a" transform="translate(644.112786 -26.35625) scale(0.7)"/>
     <path d="M 288.476562 19.09375 
L 288.476562 25.34375 
L 683.590326 25.34375 
L 683.590326 19.09375 
L 288.476562 19.09375 
z
"/>
    </g>
   </g>
   <g id="text_16">
    <!-- $z=\sum_{i=1}^{n}{w_ix_i+b}$ -->
    <g style="opacity: 0.75" transform="translate(96.806702 84.046217) scale(0.11 -0.11)">
     <defs>
      <path id="DejaVuSans-Oblique-6e" d="M 3566 2113 
L 3156 0 
L 2578 0 
L 2988 2091 
Q 3016 2238 3031 2350 
Q 3047 2463 3047 2528 
Q 3047 2791 2881 2937 
Q 2716 3084 2419 3084 
Q 1956 3084 1622 2776 
Q 1288 2469 1184 1941 
L 800 0 
L 225 0 
L 903 3500 
L 1478 3500 
L 1363 2950 
Q 1603 3253 1940 3418 
Q 2278 3584 2650 3584 
Q 3113 3584 3367 3334 
Q 3622 3084 3622 2631 
Q 3622 2519 3608 2391 
Q 3594 2263 3566 2113 
z
" transform="scale(0.015625)"/>
      <path id="DejaVuSansDisplay-2211" d="M 244 6509 
L 5803 6509 
L 5803 5656 
L 1566 5656 
L 4534 2488 
L 1469 -888 
L 5919 -888 
L 5919 -1738 
L 109 -1738 
L 109 -1078 
L 3316 2463 
L 244 5728 
L 244 6509 
z
" transform="scale(0.015625)"/>
      <path id="DejaVuSans-Oblique-69" d="M 1172 4863 
L 1747 4863 
L 1606 4134 
L 1031 4134 
L 1172 4863 
z
M 909 3500 
L 1484 3500 
L 800 0 
L 225 0 
L 909 3500 
z
" transform="scale(0.015625)"/>
      <path id="DejaVuSans-Oblique-77" d="M 544 3500 
L 1113 3500 
L 1259 684 
L 2566 3500 
L 3231 3500 
L 3425 684 
L 4666 3500 
L 5241 3500 
L 3641 0 
L 2969 0 
L 2797 2900 
L 1459 0 
L 781 0 
L 544 3500 
z
" transform="scale(0.015625)"/>
      <path id="DejaVuSans-Oblique-78" d="M 3841 3500 
L 2234 1784 
L 3219 0 
L 2559 0 
L 1819 1388 
L 531 0 
L -166 0 
L 1556 1844 
L 641 3500 
L 1300 3500 
L 1972 2234 
L 3144 3500 
L 3841 3500 
z
" transform="scale(0.015625)"/>
      <path id="DejaVuSans-Oblique-62" d="M 3169 2138 
Q 3169 2591 2961 2847 
Q 2753 3103 2388 3103 
Q 2122 3103 1889 2973 
Q 1656 2844 1484 2597 
Q 1303 2338 1198 1995 
Q 1094 1653 1094 1313 
Q 1094 881 1298 636 
Q 1503 391 1863 391 
Q 2134 391 2365 517 
Q 2597 644 2772 891 
Q 2950 1147 3059 1487 
Q 3169 1828 3169 2138 
z
M 1381 2969 
Q 1594 3256 1914 3420 
Q 2234 3584 2584 3584 
Q 3122 3584 3439 3221 
Q 3756 2859 3756 2241 
Q 3756 1734 3570 1259 
Q 3384 784 3041 416 
Q 2816 172 2522 40 
Q 2228 -91 1906 -91 
Q 1566 -91 1316 65 
Q 1066 222 909 531 
L 806 0 
L 231 0 
L 1178 4863 
L 1753 4863 
L 1381 2969 
z
" transform="scale(0.015625)"/>
     </defs>
     <use xlink:href="#DejaVuSans-Oblique-7a" transform="translate(0 0.346875)"/>
     <use xlink:href="#DejaVuSans-3d" transform="translate(71.972656 0.346875)"/>
     <use xlink:href="#DejaVuSans-Oblique-6e" transform="translate(228.244141 120.8) scale(0.7)"/>
     <use xlink:href="#DejaVuSansDisplay-2211" transform="translate(205.244141 0.346875)"/>
     <use xlink:href="#DejaVuSans-Oblique-69" transform="translate(175.244141 -98.748438) scale(0.7)"/>
     <use xlink:href="#DejaVuSans-3d" transform="translate(208.330078 -98.748438) scale(0.7)"/>
     <use xlink:href="#DejaVuSans-31" transform="translate(280.620117 -98.748438) scale(0.7)"/>
     <use xlink:href="#DejaVuSans-Oblique-77" transform="translate(325.15625 0.346875)"/>
     <use xlink:href="#DejaVuSans-Oblique-69" transform="translate(406.943359 -16.059375) scale(0.7)"/>
     <use xlink:href="#DejaVuSans-Oblique-78" transform="translate(429.125977 0.346875)"/>
     <use xlink:href="#DejaVuSans-Oblique-69" transform="translate(488.305664 -16.059375) scale(0.7)"/>
     <use xlink:href="#DejaVuSans-2b" transform="translate(529.970703 0.346875)"/>
     <use xlink:href="#DejaVuSans-Oblique-62" transform="translate(633.242188 0.346875)"/>
    </g>
   </g>
   <g id="text_17">
    <!-- g -->
    <g style="opacity: 0.75" transform="translate(227.456821 52.547992) scale(0.11 -0.11)">
     <defs>
      <path id="DejaVuSans-67" d="M 2906 1791 
Q 2906 2416 2648 2759 
Q 2391 3103 1925 3103 
Q 1463 3103 1205 2759 
Q 947 2416 947 1791 
Q 947 1169 1205 825 
Q 1463 481 1925 481 
Q 2391 481 2648 825 
Q 2906 1169 2906 1791 
z
M 3481 434 
Q 3481 -459 3084 -895 
Q 2688 -1331 1869 -1331 
Q 1566 -1331 1297 -1286 
Q 1028 -1241 775 -1147 
L 775 -588 
Q 1028 -725 1275 -790 
Q 1522 -856 1778 -856 
Q 2344 -856 2625 -561 
Q 2906 -266 2906 331 
L 2906 616 
Q 2728 306 2450 153 
Q 2172 0 1784 0 
Q 1141 0 747 490 
Q 353 981 353 1791 
Q 353 2603 747 3093 
Q 1141 3584 1784 3584 
Q 2172 3584 2450 3431 
Q 2728 3278 2906 2969 
L 2906 3500 
L 3481 3500 
L 3481 434 
z
" transform="scale(0.015625)"/>
     </defs>
     <use xlink:href="#DejaVuSans-67"/>
    </g>
   </g>
   <g id="patch_7">
    <path d="M 235.903983 44.746444 
Q 235.903983 37.768565 235.903983 31.908721 
" style="fill: none; stroke: #000000; stroke-linecap: round"/>
    <path d="M 233.903983 35.908721 
L 235.903983 31.908721 
L 237.903983 35.908721 
" style="fill: none; stroke: #000000; stroke-linecap: round"/>
   </g>
   <g id="patch_8">
    <path d="M 235.903983 55.660256 
Q 235.903983 62.638134 235.903983 68.497979 
" style="fill: none; stroke: #000000; stroke-linecap: round"/>
    <path d="M 237.903983 64.497979 
L 235.903983 68.497979 
L 233.903983 64.497979 
" style="fill: none; stroke: #000000; stroke-linecap: round"/>
   </g>
   <g id="legend_1">
    <g id="patch_9">
     <path d="M 200.132969 205.255902 
L 269.5 205.255902 
Q 271.7 205.255902 271.7 203.055902 
L 271.7 171.864027 
Q 271.7 169.664027 269.5 169.664027 
L 200.132969 169.664027 
Q 197.932969 169.664027 197.932969 171.864027 
L 197.932969 203.055902 
Q 197.932969 205.255902 200.132969 205.255902 
z
" style="fill: #ffffff; opacity: 0.8; stroke: #cccccc; stroke-linejoin: miter"/>
    </g>
    <g id="line2d_15">
     <path d="M 202.332969 178.572308 
L 213.332969 178.572308 
L 224.332969 178.572308 
" style="fill: none; stroke: #bf00bf; stroke-opacity: 0.3; stroke-width: 1.5; stroke-linecap: square"/>
    </g>
    <g id="text_18">
     <!-- young -->
     <g transform="translate(233.132969 182.422308) scale(0.11 -0.11)">
      <defs>
       <path id="DejaVuSans-79" d="M 2059 -325 
Q 1816 -950 1584 -1140 
Q 1353 -1331 966 -1331 
L 506 -1331 
L 506 -850 
L 844 -850 
Q 1081 -850 1212 -737 
Q 1344 -625 1503 -206 
L 1606 56 
L 191 3500 
L 800 3500 
L 1894 763 
L 2988 3500 
L 3597 3500 
L 2059 -325 
z
" transform="scale(0.015625)"/>
      </defs>
      <use xlink:href="#DejaVuSans-79"/>
      <use xlink:href="#DejaVuSans-6f" x="59.179688"/>
      <use xlink:href="#DejaVuSans-75" x="120.361328"/>
      <use xlink:href="#DejaVuSans-6e" x="183.740234"/>
      <use xlink:href="#DejaVuSans-67" x="247.119141"/>
     </g>
    </g>
    <g id="line2d_16">
     <path d="M 202.332969 194.718245 
L 213.332969 194.718245 
L 224.332969 194.718245 
" style="fill: none; stroke: #00bfbf; stroke-opacity: 0.3; stroke-width: 1.5; stroke-linecap: square"/>
    </g>
    <g id="text_19">
     <!-- old -->
     <g transform="translate(233.132969 198.568245) scale(0.11 -0.11)">
      <defs>
       <path id="DejaVuSans-6c" d="M 603 4863 
L 1178 4863 
L 1178 0 
L 603 0 
L 603 4863 
z
" transform="scale(0.015625)"/>
       <path id="DejaVuSans-64" d="M 2906 2969 
L 2906 4863 
L 3481 4863 
L 3481 0 
L 2906 0 
L 2906 525 
Q 2725 213 2448 61 
Q 2172 -91 1784 -91 
Q 1150 -91 751 415 
Q 353 922 353 1747 
Q 353 2572 751 3078 
Q 1150 3584 1784 3584 
Q 2172 3584 2448 3432 
Q 2725 3281 2906 2969 
z
M 947 1747 
Q 947 1113 1208 752 
Q 1469 391 1925 391 
Q 2381 391 2643 752 
Q 2906 1113 2906 1747 
Q 2906 2381 2643 2742 
Q 2381 3103 1925 3103 
Q 1469 3103 1208 2742 
Q 947 2381 947 1747 
z
" transform="scale(0.015625)"/>
      </defs>
      <use xlink:href="#DejaVuSans-6f"/>
      <use xlink:href="#DejaVuSans-6c" x="61.181641"/>
      <use xlink:href="#DejaVuSans-64" x="88.964844"/>
     </g>
    </g>
   </g>
  </g>
 </g>
 <defs>
  <clipPath id="p36ad9285e4">
   <rect x="59.157031" y="14.979141" width="218.042969" height="165.760984"/>
  </clipPath>
 </defs>
</svg>
