<?xml version="1.0" encoding="utf-8" standalone="no"?>
<!DOCTYPE svg PUBLIC "-//W3C//DTD SVG 1.1//EN"
  "http://www.w3.org/Graphics/SVG/1.1/DTD/svg11.dtd">
<svg xmlns:xlink="http://www.w3.org/1999/xlink" width="460.8pt" height="345.6pt" viewBox="0 0 460.8 345.6" xmlns="http://www.w3.org/2000/svg" version="1.1">
 <metadata>
  <rdf:RDF xmlns:dc="http://purl.org/dc/elements/1.1/" xmlns:cc="http://creativecommons.org/ns#" xmlns:rdf="http://www.w3.org/1999/02/22-rdf-syntax-ns#">
   <cc:Work>
    <dc:type rdf:resource="http://purl.org/dc/dcmitype/StillImage"/>
    <dc:date>2023-04-28T15:53:50.943049</dc:date>
    <dc:format>image/svg+xml</dc:format>
    <dc:creator>
     <cc:Agent>
      <dc:title>Matplotlib v3.7.1, https://matplotlib.org/</dc:title>
     </cc:Agent>
    </dc:creator>
   </cc:Work>
  </rdf:RDF>
 </metadata>
 <defs>
  <style type="text/css">*{stroke-linejoin: round; stroke-linecap: butt}</style>
 </defs>
 <g id="figure_1">
  <g id="patch_1">
   <path d="M 0 345.6 
L 460.8 345.6 
L 460.8 0 
L 0 0 
z
" style="fill: #ffffff"/>
  </g>
  <g id="axes_1">
   <g id="patch_2">
    <path d="M 55.760938 324.05495 
L 450 324.05495 
L 450 14.599219 
L 55.760938 14.599219 
z
" style="fill: #ffffff"/>
   </g>
   <g id="PolyCollection_1">
    <path d="M 73.680895 269.912626 
L 73.680895 269.912626 
L 77.301088 269.721097 
L 80.921282 269.51544 
L 84.541475 269.294638 
L 88.161669 269.057606 
L 91.781862 268.803185 
L 95.402055 268.530139 
L 99.022249 268.237148 
L 102.642442 267.922809 
L 106.262636 267.585625 
L 109.882829 267.224005 
L 113.503022 266.836258 
L 117.123216 266.420586 
L 120.743409 265.975083 
L 124.363603 265.497728 
L 127.983796 264.986383 
L 131.603989 264.438784 
L 135.224183 263.852542 
L 138.844376 263.225139 
L 142.46457 262.553921 
L 146.084763 261.836102 
L 149.704957 261.068756 
L 153.32515 260.248821 
L 156.945343 259.3731 
L 160.565537 258.438258 
L 164.18573 257.440831 
L 167.805924 256.377227 
L 171.426117 255.243737 
L 175.04631 254.03654 
L 178.666504 252.751721 
L 182.286697 251.385278 
L 185.906891 249.933147 
L 189.527084 248.391217 
L 193.147277 246.755361 
L 196.767471 245.021457 
L 200.387664 243.185427 
L 204.007858 241.243268 
L 207.628051 239.191095 
L 211.248245 237.025186 
L 214.868438 234.74203 
L 218.488631 232.338377 
L 222.108825 229.811297 
L 225.729018 227.158238 
L 229.349212 224.377084 
L 232.969405 221.46622 
L 236.589598 218.424597 
L 240.209792 215.251787 
L 243.829985 211.948051 
L 247.450179 208.514389 
L 251.070372 204.952597 
L 254.690565 201.265308 
L 258.310759 197.456028 
L 261.930952 193.529167 
L 265.551146 189.49005 
L 269.171339 185.344918 
L 272.791533 181.100922 
L 276.411726 176.766089 
L 280.031919 172.349284 
L 283.652113 167.860149 
L 287.272306 163.309033 
L 290.8925 158.706907 
L 294.512693 154.065256 
L 298.132886 149.395978 
L 301.75308 144.711255 
L 305.373273 140.023436 
L 308.993467 135.344899 
L 312.61366 130.687927 
L 316.233853 126.064574 
L 319.854047 121.486547 
L 323.47424 116.965088 
L 327.094434 112.510866 
L 330.714627 108.133888 
L 334.334821 103.843417 
L 337.955014 99.647904 
L 341.575207 95.554942 
L 345.195401 91.57123 
L 348.815594 87.702551 
L 352.435788 83.953772 
L 356.055981 80.328848 
L 359.676174 76.830846 
L 363.296368 73.461973 
L 366.916561 70.223623 
L 370.536755 67.116418 
L 374.156948 64.140268 
L 377.777141 61.294428 
L 381.397335 58.577555 
L 385.017528 55.987779 
L 388.637722 53.522757 
L 392.257915 51.17974 
L 395.878108 48.955631 
L 399.498302 46.847044 
L 403.118495 44.850354 
L 406.738689 42.961753 
L 410.358882 41.177292 
L 413.979076 39.492925 
L 417.599269 37.904549 
L 421.219462 36.408034 
L 424.839656 34.999258 
L 428.459849 33.674132 
L 432.080043 32.428619 
L 432.080043 32.428619 
L 432.080043 16.32517 
L 428.459849 16.545904 
L 424.839656 16.794627 
L 421.219462 17.074821 
L 417.599269 17.390385 
L 413.979076 17.745678 
L 410.358882 18.145569 
L 406.738689 18.595485 
L 403.118495 19.10147 
L 399.498302 19.670241 
L 395.878108 20.309245 
L 392.257915 21.026724 
L 388.637722 21.831771 
L 385.017528 22.734387 
L 381.397335 23.745538 
L 377.777141 24.877197 
L 374.156948 26.142377 
L 370.536755 27.555146 
L 366.916561 29.130625 
L 363.296368 30.884947 
L 359.676174 32.83519 
L 356.055981 34.999258 
L 352.435788 37.395708 
L 348.815594 40.043512 
L 345.195401 42.961753 
L 341.575207 46.169232 
L 337.955014 49.683992 
L 334.334821 53.522757 
L 330.714627 57.700281 
L 327.094434 62.228634 
L 323.47424 67.116418 
L 319.854047 72.367975 
L 316.233853 77.982591 
L 312.61366 83.953772 
L 308.993467 90.26863 
L 305.373273 96.907436 
L 301.75308 103.843417 
L 298.132886 111.042817 
L 294.512693 118.465284 
L 290.8925 126.064574 
L 287.272306 133.789578 
L 283.652113 141.585622 
L 280.031919 149.395978 
L 276.411726 157.163501 
L 272.791533 164.832293 
L 269.171339 172.349284 
L 265.551146 179.66565 
L 261.930952 186.737985 
L 258.310759 193.529167 
L 254.690565 200.008903 
L 251.070372 206.153953 
L 247.450179 211.948051 
L 243.829985 217.381572 
L 240.209792 222.450997 
L 236.589598 227.158238 
L 232.969405 231.509866 
L 229.349212 235.516316 
L 225.729018 239.191095 
L 222.108825 242.550027 
L 218.488631 245.610572 
L 214.868438 248.391217 
L 211.248245 250.910957 
L 207.628051 253.188864 
L 204.007858 255.243737 
L 200.387664 257.09383 
L 196.767471 258.756652 
L 193.147277 260.248821 
L 189.527084 261.585971 
L 185.906891 262.782698 
L 182.286697 263.852542 
L 178.666504 264.807993 
L 175.04631 265.660515 
L 171.426117 266.420586 
L 167.805924 267.097745 
L 164.18573 267.700654 
L 160.565537 268.237148 
L 156.945343 268.714303 
L 153.32515 269.13849 
L 149.704957 269.51544 
L 146.084763 269.850293 
L 142.46457 270.147657 
L 138.844376 270.411655 
L 135.224183 270.645973 
L 131.603989 270.853901 
L 127.983796 271.038375 
L 124.363603 271.202013 
L 120.743409 271.347146 
L 117.123216 271.475848 
L 113.503022 271.589967 
L 109.882829 271.691143 
L 106.262636 271.780836 
L 102.642442 271.860342 
L 99.022249 271.930814 
L 95.402055 271.993273 
L 91.781862 272.048627 
L 88.161669 272.097683 
L 84.541475 272.141154 
L 80.921282 272.179675 
L 77.301088 272.213809 
L 73.680895 272.244053 
z
" clip-path="url(#p8cebd83e7f)" style="fill: #bf00bf; fill-opacity: 0.15"/>
   </g>
   <g id="PolyCollection_2">
    <path d="M 73.680895 229.159934 
L 73.680895 229.159934 
L 77.301088 228.721298 
L 80.921282 228.279136 
L 84.541475 227.833437 
L 88.161669 227.384192 
L 91.781862 226.931393 
L 95.402055 226.47503 
L 99.022249 226.015095 
L 102.642442 225.55158 
L 106.262636 225.084478 
L 109.882829 224.613782 
L 113.503022 224.139484 
L 117.123216 223.661579 
L 120.743409 223.180061 
L 124.363603 222.694924 
L 127.983796 222.206164 
L 131.603989 221.713776 
L 135.224183 221.217756 
L 138.844376 220.718101 
L 142.46457 220.214807 
L 146.084763 219.707873 
L 149.704957 219.197296 
L 153.32515 218.683074 
L 156.945343 218.165208 
L 160.565537 217.643695 
L 164.18573 217.118537 
L 167.805924 216.589734 
L 171.426117 216.057286 
L 175.04631 215.521197 
L 178.666504 214.981468 
L 182.286697 214.438101 
L 185.906891 213.891102 
L 189.527084 213.340472 
L 193.147277 212.786218 
L 196.767471 212.228344 
L 200.387664 211.666856 
L 204.007858 211.10176 
L 207.628051 210.533064 
L 211.248245 209.960775 
L 214.868438 209.384901 
L 218.488631 208.805452 
L 222.108825 208.222437 
L 225.729018 207.635865 
L 229.349212 207.045749 
L 232.969405 206.452099 
L 236.589598 205.854928 
L 240.209792 205.254249 
L 243.829985 204.650074 
L 247.450179 204.042418 
L 251.070372 203.431297 
L 254.690565 202.816725 
L 258.310759 202.198719 
L 261.930952 201.577295 
L 265.551146 200.952472 
L 269.171339 200.324268 
L 272.791533 199.692701 
L 276.411726 199.057791 
L 280.031919 198.419559 
L 283.652113 197.778026 
L 287.272306 197.133213 
L 290.8925 196.485144 
L 294.512693 195.833841 
L 298.132886 195.179328 
L 301.75308 194.52163 
L 305.373273 193.860772 
L 308.993467 193.196781 
L 312.61366 192.529683 
L 316.233853 191.859506 
L 319.854047 191.186278 
L 323.47424 190.510027 
L 327.094434 189.830784 
L 330.714627 189.148578 
L 334.334821 188.463442 
L 337.955014 187.775405 
L 341.575207 187.084502 
L 345.195401 186.390764 
L 348.815594 185.694227 
L 352.435788 184.994923 
L 356.055981 184.292889 
L 359.676174 183.58816 
L 363.296368 182.880774 
L 366.916561 182.170766 
L 370.536755 181.458175 
L 374.156948 180.743039 
L 377.777141 180.025398 
L 381.397335 179.305291 
L 385.017528 178.582759 
L 388.637722 177.857843 
L 392.257915 177.130584 
L 395.878108 176.401025 
L 399.498302 175.669209 
L 403.118495 174.935179 
L 406.738689 174.19898 
L 410.358882 173.460655 
L 413.979076 172.720251 
L 417.599269 171.977813 
L 421.219462 171.233388 
L 424.839656 170.487022 
L 428.459849 169.738763 
L 432.080043 168.988658 
L 432.080043 168.988658 
L 432.080043 45.339242 
L 428.459849 47.018434 
L 424.839656 48.775552 
L 421.219462 50.612693 
L 417.599269 52.531843 
L 413.979076 54.534856 
L 410.358882 56.623428 
L 406.738689 58.799078 
L 403.118495 61.063118 
L 399.498302 63.416634 
L 395.878108 65.860457 
L 392.257915 68.395139 
L 388.637722 71.020927 
L 385.017528 73.737741 
L 381.397335 76.54515 
L 377.777141 79.442348 
L 374.156948 82.42814 
L 370.536755 85.500918 
L 366.916561 88.658655 
L 363.296368 91.898886 
L 359.676174 95.218707 
L 356.055981 98.614772 
L 352.435788 102.08329 
L 348.815594 105.620039 
L 345.195401 109.220371 
L 341.575207 112.879234 
L 337.955014 116.591192 
L 334.334821 120.350452 
L 330.714627 124.150898 
L 327.094434 127.986125 
L 323.47424 131.849484 
L 319.854047 135.734122 
L 316.233853 139.633033 
L 312.61366 143.539107 
L 308.993467 147.445181 
L 305.373273 151.344092 
L 301.75308 155.22873 
L 298.132886 159.092089 
L 294.512693 162.927316 
L 290.8925 166.727762 
L 287.272306 170.487022 
L 283.652113 174.19898 
L 280.031919 177.857843 
L 276.411726 181.458175 
L 272.791533 184.994923 
L 269.171339 188.463442 
L 265.551146 191.859506 
L 261.930952 195.179328 
L 258.310759 198.419559 
L 254.690565 201.577295 
L 251.070372 204.650074 
L 247.450179 207.635865 
L 243.829985 210.533064 
L 240.209792 213.340472 
L 236.589598 216.057286 
L 232.969405 218.683074 
L 229.349212 221.217756 
L 225.729018 223.661579 
L 222.108825 226.015095 
L 218.488631 228.279136 
L 214.868438 230.454785 
L 211.248245 232.543358 
L 207.628051 234.546371 
L 204.007858 236.465521 
L 200.387664 238.302662 
L 196.767471 240.05978 
L 193.147277 241.738972 
L 189.527084 243.342428 
L 185.906891 244.872411 
L 182.286697 246.331237 
L 178.666504 247.721262 
L 175.04631 249.044866 
L 171.426117 250.304437 
L 167.805924 251.502365 
L 164.18573 252.641024 
L 160.565537 253.722768 
L 156.945343 254.749918 
L 153.32515 255.72476 
L 149.704957 256.649533 
L 146.084763 257.526427 
L 142.46457 258.357578 
L 138.844376 259.145065 
L 135.224183 259.890905 
L 131.603989 260.597054 
L 127.983796 261.2654 
L 124.363603 261.89777 
L 120.743409 262.495922 
L 117.123216 263.061548 
L 113.503022 263.596275 
L 109.882829 264.101664 
L 106.262636 264.579211 
L 102.642442 265.030348 
L 99.022249 265.456445 
L 95.402055 265.858812 
L 91.781862 266.238698 
L 88.161669 266.597296 
L 84.541475 266.93574 
L 80.921282 267.255114 
L 77.301088 267.556446 
L 73.680895 267.840715 
z
" clip-path="url(#p8cebd83e7f)" style="fill: #00bfbf; fill-opacity: 0.15"/>
   </g>
   <g id="matplotlib.axis_1">
    <g id="xtick_1">
     <g id="line2d_1">
      <defs>
       <path id="m739cbd8f79" d="M 0 0 
L 0 3.5 
" style="stroke: #000000; stroke-width: 0.8"/>
      </defs>
      <g>
       <use xlink:href="#m739cbd8f79" x="73.680895" y="272.478995" style="stroke: #000000; stroke-width: 0.8"/>
      </g>
     </g>
     <g id="text_1">
      <!-- −6 -->
      <g transform="translate(66.309801 287.077432) scale(0.1 -0.1)">
       <defs>
        <path id="DejaVuSans-2212" d="M 678 2272 
L 4684 2272 
L 4684 1741 
L 678 1741 
L 678 2272 
z
" transform="scale(0.015625)"/>
        <path id="DejaVuSans-36" d="M 2113 2584 
Q 1688 2584 1439 2293 
Q 1191 2003 1191 1497 
Q 1191 994 1439 701 
Q 1688 409 2113 409 
Q 2538 409 2786 701 
Q 3034 994 3034 1497 
Q 3034 2003 2786 2293 
Q 2538 2584 2113 2584 
z
M 3366 4563 
L 3366 3988 
Q 3128 4100 2886 4159 
Q 2644 4219 2406 4219 
Q 1781 4219 1451 3797 
Q 1122 3375 1075 2522 
Q 1259 2794 1537 2939 
Q 1816 3084 2150 3084 
Q 2853 3084 3261 2657 
Q 3669 2231 3669 1497 
Q 3669 778 3244 343 
Q 2819 -91 2113 -91 
Q 1303 -91 875 529 
Q 447 1150 447 2328 
Q 447 3434 972 4092 
Q 1497 4750 2381 4750 
Q 2619 4750 2861 4703 
Q 3103 4656 3366 4563 
z
" transform="scale(0.015625)"/>
       </defs>
       <use xlink:href="#DejaVuSans-2212"/>
       <use xlink:href="#DejaVuSans-36" x="83.789062"/>
      </g>
     </g>
    </g>
    <g id="xtick_2">
     <g id="line2d_2">
      <g>
       <use xlink:href="#m739cbd8f79" x="133.414086" y="272.478995" style="stroke: #000000; stroke-width: 0.8"/>
      </g>
     </g>
     <g id="text_2">
      <!-- −4 -->
      <g transform="translate(126.042992 287.077432) scale(0.1 -0.1)">
       <defs>
        <path id="DejaVuSans-34" d="M 2419 4116 
L 825 1625 
L 2419 1625 
L 2419 4116 
z
M 2253 4666 
L 3047 4666 
L 3047 1625 
L 3713 1625 
L 3713 1100 
L 3047 1100 
L 3047 0 
L 2419 0 
L 2419 1100 
L 313 1100 
L 313 1709 
L 2253 4666 
z
" transform="scale(0.015625)"/>
       </defs>
       <use xlink:href="#DejaVuSans-2212"/>
       <use xlink:href="#DejaVuSans-34" x="83.789062"/>
      </g>
     </g>
    </g>
    <g id="xtick_3">
     <g id="line2d_3">
      <g>
       <use xlink:href="#m739cbd8f79" x="193.147277" y="272.478995" style="stroke: #000000; stroke-width: 0.8"/>
      </g>
     </g>
     <g id="text_3">
      <!-- −2 -->
      <g transform="translate(185.776184 287.077432) scale(0.1 -0.1)">
       <defs>
        <path id="DejaVuSans-32" d="M 1228 531 
L 3431 531 
L 3431 0 
L 469 0 
L 469 531 
Q 828 903 1448 1529 
Q 2069 2156 2228 2338 
Q 2531 2678 2651 2914 
Q 2772 3150 2772 3378 
Q 2772 3750 2511 3984 
Q 2250 4219 1831 4219 
Q 1534 4219 1204 4116 
Q 875 4013 500 3803 
L 500 4441 
Q 881 4594 1212 4672 
Q 1544 4750 1819 4750 
Q 2544 4750 2975 4387 
Q 3406 4025 3406 3419 
Q 3406 3131 3298 2873 
Q 3191 2616 2906 2266 
Q 2828 2175 2409 1742 
Q 1991 1309 1228 531 
z
" transform="scale(0.015625)"/>
       </defs>
       <use xlink:href="#DejaVuSans-2212"/>
       <use xlink:href="#DejaVuSans-32" x="83.789062"/>
      </g>
     </g>
    </g>
    <g id="xtick_4">
     <g id="line2d_4">
      <g>
       <use xlink:href="#m739cbd8f79" x="252.880469" y="272.478995" style="stroke: #000000; stroke-width: 0.8"/>
      </g>
     </g>
     <g id="text_4">
      <!-- 0 -->
      <g transform="translate(249.699219 287.077432) scale(0.1 -0.1)">
       <defs>
        <path id="DejaVuSans-30" d="M 2034 4250 
Q 1547 4250 1301 3770 
Q 1056 3291 1056 2328 
Q 1056 1369 1301 889 
Q 1547 409 2034 409 
Q 2525 409 2770 889 
Q 3016 1369 3016 2328 
Q 3016 3291 2770 3770 
Q 2525 4250 2034 4250 
z
M 2034 4750 
Q 2819 4750 3233 4129 
Q 3647 3509 3647 2328 
Q 3647 1150 3233 529 
Q 2819 -91 2034 -91 
Q 1250 -91 836 529 
Q 422 1150 422 2328 
Q 422 3509 836 4129 
Q 1250 4750 2034 4750 
z
" transform="scale(0.015625)"/>
       </defs>
       <use xlink:href="#DejaVuSans-30"/>
      </g>
     </g>
    </g>
    <g id="xtick_5">
     <g id="line2d_5">
      <g>
       <use xlink:href="#m739cbd8f79" x="312.61366" y="272.478995" style="stroke: #000000; stroke-width: 0.8"/>
      </g>
     </g>
     <g id="text_5">
      <!-- 2 -->
      <g transform="translate(309.43241 287.077432) scale(0.1 -0.1)">
       <use xlink:href="#DejaVuSans-32"/>
      </g>
     </g>
    </g>
    <g id="xtick_6">
     <g id="line2d_6">
      <g>
       <use xlink:href="#m739cbd8f79" x="372.346851" y="272.478995" style="stroke: #000000; stroke-width: 0.8"/>
      </g>
     </g>
     <g id="text_6">
      <!-- 4 -->
      <g transform="translate(369.165601 287.077432) scale(0.1 -0.1)">
       <use xlink:href="#DejaVuSans-34"/>
      </g>
     </g>
    </g>
    <g id="xtick_7">
     <g id="line2d_7">
      <g>
       <use xlink:href="#m739cbd8f79" x="432.080043" y="272.478995" style="stroke: #000000; stroke-width: 0.8"/>
      </g>
     </g>
     <g id="text_7">
      <!-- 6 -->
      <g transform="translate(428.898793 287.077432) scale(0.1 -0.1)">
       <use xlink:href="#DejaVuSans-36"/>
      </g>
     </g>
    </g>
    <g id="text_8">
     <!-- x (Input) -->
     <g transform="translate(231.483594 300.755557) scale(0.1 -0.1)">
      <defs>
       <path id="DejaVuSans-78" d="M 3513 3500 
L 2247 1797 
L 3578 0 
L 2900 0 
L 1881 1375 
L 863 0 
L 184 0 
L 1544 1831 
L 300 3500 
L 978 3500 
L 1906 2253 
L 2834 3500 
L 3513 3500 
z
" transform="scale(0.015625)"/>
       <path id="DejaVuSans-20" transform="scale(0.015625)"/>
       <path id="DejaVuSans-28" d="M 1984 4856 
Q 1566 4138 1362 3434 
Q 1159 2731 1159 2009 
Q 1159 1288 1364 580 
Q 1569 -128 1984 -844 
L 1484 -844 
Q 1016 -109 783 600 
Q 550 1309 550 2009 
Q 550 2706 781 3412 
Q 1013 4119 1484 4856 
L 1984 4856 
z
" transform="scale(0.015625)"/>
       <path id="DejaVuSans-49" d="M 628 4666 
L 1259 4666 
L 1259 0 
L 628 0 
L 628 4666 
z
" transform="scale(0.015625)"/>
       <path id="DejaVuSans-6e" d="M 3513 2113 
L 3513 0 
L 2938 0 
L 2938 2094 
Q 2938 2591 2744 2837 
Q 2550 3084 2163 3084 
Q 1697 3084 1428 2787 
Q 1159 2491 1159 1978 
L 1159 0 
L 581 0 
L 581 3500 
L 1159 3500 
L 1159 2956 
Q 1366 3272 1645 3428 
Q 1925 3584 2291 3584 
Q 2894 3584 3203 3211 
Q 3513 2838 3513 2113 
z
" transform="scale(0.015625)"/>
       <path id="DejaVuSans-70" d="M 1159 525 
L 1159 -1331 
L 581 -1331 
L 581 3500 
L 1159 3500 
L 1159 2969 
Q 1341 3281 1617 3432 
Q 1894 3584 2278 3584 
Q 2916 3584 3314 3078 
Q 3713 2572 3713 1747 
Q 3713 922 3314 415 
Q 2916 -91 2278 -91 
Q 1894 -91 1617 61 
Q 1341 213 1159 525 
z
M 3116 1747 
Q 3116 2381 2855 2742 
Q 2594 3103 2138 3103 
Q 1681 3103 1420 2742 
Q 1159 2381 1159 1747 
Q 1159 1113 1420 752 
Q 1681 391 2138 391 
Q 2594 391 2855 752 
Q 3116 1113 3116 1747 
z
" transform="scale(0.015625)"/>
       <path id="DejaVuSans-75" d="M 544 1381 
L 544 3500 
L 1119 3500 
L 1119 1403 
Q 1119 906 1312 657 
Q 1506 409 1894 409 
Q 2359 409 2629 706 
Q 2900 1003 2900 1516 
L 2900 3500 
L 3475 3500 
L 3475 0 
L 2900 0 
L 2900 538 
Q 2691 219 2414 64 
Q 2138 -91 1772 -91 
Q 1169 -91 856 284 
Q 544 659 544 1381 
z
M 1991 3584 
L 1991 3584 
z
" transform="scale(0.015625)"/>
       <path id="DejaVuSans-74" d="M 1172 4494 
L 1172 3500 
L 2356 3500 
L 2356 3053 
L 1172 3053 
L 1172 1153 
Q 1172 725 1289 603 
Q 1406 481 1766 481 
L 2356 481 
L 2356 0 
L 1766 0 
Q 1100 0 847 248 
Q 594 497 594 1153 
L 594 3053 
L 172 3053 
L 172 3500 
L 594 3500 
L 594 4494 
L 1172 4494 
z
" transform="scale(0.015625)"/>
       <path id="DejaVuSans-29" d="M 513 4856 
L 1013 4856 
Q 1481 4119 1714 3412 
Q 1947 2706 1947 2009 
Q 1947 1309 1714 600 
Q 1481 -109 1013 -844 
L 513 -844 
Q 928 -128 1133 580 
Q 1338 1288 1338 2009 
Q 1338 2731 1133 3434 
Q 928 4138 513 4856 
z
" transform="scale(0.015625)"/>
      </defs>
      <use xlink:href="#DejaVuSans-78"/>
      <use xlink:href="#DejaVuSans-20" x="59.179688"/>
      <use xlink:href="#DejaVuSans-28" x="90.966797"/>
      <use xlink:href="#DejaVuSans-49" x="129.980469"/>
      <use xlink:href="#DejaVuSans-6e" x="159.472656"/>
      <use xlink:href="#DejaVuSans-70" x="222.851562"/>
      <use xlink:href="#DejaVuSans-75" x="286.328125"/>
      <use xlink:href="#DejaVuSans-74" x="349.707031"/>
      <use xlink:href="#DejaVuSans-29" x="388.916016"/>
     </g>
    </g>
   </g>
   <g id="matplotlib.axis_2">
    <g id="ytick_1">
     <g id="line2d_8">
      <defs>
       <path id="me0889442a5" d="M 0 0 
L -3.5 0 
" style="stroke: #000000; stroke-width: 0.8"/>
      </defs>
      <g>
       <use xlink:href="#me0889442a5" x="55.760938" y="324.05495" style="stroke: #000000; stroke-width: 0.8"/>
      </g>
     </g>
     <g id="text_9">
      <!-- −0.2 -->
      <g transform="translate(24.478125 327.854169) scale(0.1 -0.1)">
       <defs>
        <path id="DejaVuSans-2e" d="M 684 794 
L 1344 794 
L 1344 0 
L 684 0 
L 684 794 
z
" transform="scale(0.015625)"/>
       </defs>
       <use xlink:href="#DejaVuSans-2212"/>
       <use xlink:href="#DejaVuSans-30" x="83.789062"/>
       <use xlink:href="#DejaVuSans-2e" x="147.412109"/>
       <use xlink:href="#DejaVuSans-32" x="179.199219"/>
      </g>
     </g>
    </g>
    <g id="ytick_2">
     <g id="line2d_9">
      <g>
       <use xlink:href="#me0889442a5" x="55.760938" y="272.478995" style="stroke: #000000; stroke-width: 0.8"/>
      </g>
     </g>
     <g id="text_10">
      <!-- 0.0 -->
      <g transform="translate(32.857813 276.278214) scale(0.1 -0.1)">
       <use xlink:href="#DejaVuSans-30"/>
       <use xlink:href="#DejaVuSans-2e" x="63.623047"/>
       <use xlink:href="#DejaVuSans-30" x="95.410156"/>
      </g>
     </g>
    </g>
    <g id="ytick_3">
     <g id="line2d_10">
      <g>
       <use xlink:href="#me0889442a5" x="55.760938" y="220.90304" style="stroke: #000000; stroke-width: 0.8"/>
      </g>
     </g>
     <g id="text_11">
      <!-- 0.2 -->
      <g transform="translate(32.857813 224.702258) scale(0.1 -0.1)">
       <use xlink:href="#DejaVuSans-30"/>
       <use xlink:href="#DejaVuSans-2e" x="63.623047"/>
       <use xlink:href="#DejaVuSans-32" x="95.410156"/>
      </g>
     </g>
    </g>
    <g id="ytick_4">
     <g id="line2d_11">
      <g>
       <use xlink:href="#me0889442a5" x="55.760938" y="169.327084" style="stroke: #000000; stroke-width: 0.8"/>
      </g>
     </g>
     <g id="text_12">
      <!-- 0.4 -->
      <g transform="translate(32.857813 173.126303) scale(0.1 -0.1)">
       <use xlink:href="#DejaVuSans-30"/>
       <use xlink:href="#DejaVuSans-2e" x="63.623047"/>
       <use xlink:href="#DejaVuSans-34" x="95.410156"/>
      </g>
     </g>
    </g>
    <g id="ytick_5">
     <g id="line2d_12">
      <g>
       <use xlink:href="#me0889442a5" x="55.760938" y="117.751129" style="stroke: #000000; stroke-width: 0.8"/>
      </g>
     </g>
     <g id="text_13">
      <!-- 0.6 -->
      <g transform="translate(32.857813 121.550348) scale(0.1 -0.1)">
       <use xlink:href="#DejaVuSans-30"/>
       <use xlink:href="#DejaVuSans-2e" x="63.623047"/>
       <use xlink:href="#DejaVuSans-36" x="95.410156"/>
      </g>
     </g>
    </g>
    <g id="ytick_6">
     <g id="line2d_13">
      <g>
       <use xlink:href="#me0889442a5" x="55.760938" y="66.175174" style="stroke: #000000; stroke-width: 0.8"/>
      </g>
     </g>
     <g id="text_14">
      <!-- 0.8 -->
      <g transform="translate(32.857813 69.974393) scale(0.1 -0.1)">
       <defs>
        <path id="DejaVuSans-38" d="M 2034 2216 
Q 1584 2216 1326 1975 
Q 1069 1734 1069 1313 
Q 1069 891 1326 650 
Q 1584 409 2034 409 
Q 2484 409 2743 651 
Q 3003 894 3003 1313 
Q 3003 1734 2745 1975 
Q 2488 2216 2034 2216 
z
M 1403 2484 
Q 997 2584 770 2862 
Q 544 3141 544 3541 
Q 544 4100 942 4425 
Q 1341 4750 2034 4750 
Q 2731 4750 3128 4425 
Q 3525 4100 3525 3541 
Q 3525 3141 3298 2862 
Q 3072 2584 2669 2484 
Q 3125 2378 3379 2068 
Q 3634 1759 3634 1313 
Q 3634 634 3220 271 
Q 2806 -91 2034 -91 
Q 1263 -91 848 271 
Q 434 634 434 1313 
Q 434 1759 690 2068 
Q 947 2378 1403 2484 
z
M 1172 3481 
Q 1172 3119 1398 2916 
Q 1625 2713 2034 2713 
Q 2441 2713 2670 2916 
Q 2900 3119 2900 3481 
Q 2900 3844 2670 4047 
Q 2441 4250 2034 4250 
Q 1625 4250 1398 4047 
Q 1172 3844 1172 3481 
z
" transform="scale(0.015625)"/>
       </defs>
       <use xlink:href="#DejaVuSans-30"/>
       <use xlink:href="#DejaVuSans-2e" x="63.623047"/>
       <use xlink:href="#DejaVuSans-38" x="95.410156"/>
      </g>
     </g>
    </g>
    <g id="ytick_7">
     <g id="line2d_14">
      <g>
       <use xlink:href="#me0889442a5" x="55.760938" y="14.599219" style="stroke: #000000; stroke-width: 0.8"/>
      </g>
     </g>
     <g id="text_15">
      <!-- 1.0 -->
      <g transform="translate(32.857813 18.398438) scale(0.1 -0.1)">
       <defs>
        <path id="DejaVuSans-31" d="M 794 531 
L 1825 531 
L 1825 4091 
L 703 3866 
L 703 4441 
L 1819 4666 
L 2450 4666 
L 2450 531 
L 3481 531 
L 3481 0 
L 794 0 
L 794 531 
z
" transform="scale(0.015625)"/>
       </defs>
       <use xlink:href="#DejaVuSans-31"/>
       <use xlink:href="#DejaVuSans-2e" x="63.623047"/>
       <use xlink:href="#DejaVuSans-30" x="95.410156"/>
      </g>
     </g>
    </g>
    <g id="text_16">
     <!-- f(x) (Activation) -->
     <g transform="translate(18.398438 208.470834) rotate(-90) scale(0.1 -0.1)">
      <defs>
       <path id="DejaVuSans-66" d="M 2375 4863 
L 2375 4384 
L 1825 4384 
Q 1516 4384 1395 4259 
Q 1275 4134 1275 3809 
L 1275 3500 
L 2222 3500 
L 2222 3053 
L 1275 3053 
L 1275 0 
L 697 0 
L 697 3053 
L 147 3053 
L 147 3500 
L 697 3500 
L 697 3744 
Q 697 4328 969 4595 
Q 1241 4863 1831 4863 
L 2375 4863 
z
" transform="scale(0.015625)"/>
       <path id="DejaVuSans-41" d="M 2188 4044 
L 1331 1722 
L 3047 1722 
L 2188 4044 
z
M 1831 4666 
L 2547 4666 
L 4325 0 
L 3669 0 
L 3244 1197 
L 1141 1197 
L 716 0 
L 50 0 
L 1831 4666 
z
" transform="scale(0.015625)"/>
       <path id="DejaVuSans-63" d="M 3122 3366 
L 3122 2828 
Q 2878 2963 2633 3030 
Q 2388 3097 2138 3097 
Q 1578 3097 1268 2742 
Q 959 2388 959 1747 
Q 959 1106 1268 751 
Q 1578 397 2138 397 
Q 2388 397 2633 464 
Q 2878 531 3122 666 
L 3122 134 
Q 2881 22 2623 -34 
Q 2366 -91 2075 -91 
Q 1284 -91 818 406 
Q 353 903 353 1747 
Q 353 2603 823 3093 
Q 1294 3584 2113 3584 
Q 2378 3584 2631 3529 
Q 2884 3475 3122 3366 
z
" transform="scale(0.015625)"/>
       <path id="DejaVuSans-69" d="M 603 3500 
L 1178 3500 
L 1178 0 
L 603 0 
L 603 3500 
z
M 603 4863 
L 1178 4863 
L 1178 4134 
L 603 4134 
L 603 4863 
z
" transform="scale(0.015625)"/>
       <path id="DejaVuSans-76" d="M 191 3500 
L 800 3500 
L 1894 563 
L 2988 3500 
L 3597 3500 
L 2284 0 
L 1503 0 
L 191 3500 
z
" transform="scale(0.015625)"/>
       <path id="DejaVuSans-61" d="M 2194 1759 
Q 1497 1759 1228 1600 
Q 959 1441 959 1056 
Q 959 750 1161 570 
Q 1363 391 1709 391 
Q 2188 391 2477 730 
Q 2766 1069 2766 1631 
L 2766 1759 
L 2194 1759 
z
M 3341 1997 
L 3341 0 
L 2766 0 
L 2766 531 
Q 2569 213 2275 61 
Q 1981 -91 1556 -91 
Q 1019 -91 701 211 
Q 384 513 384 1019 
Q 384 1609 779 1909 
Q 1175 2209 1959 2209 
L 2766 2209 
L 2766 2266 
Q 2766 2663 2505 2880 
Q 2244 3097 1772 3097 
Q 1472 3097 1187 3025 
Q 903 2953 641 2809 
L 641 3341 
Q 956 3463 1253 3523 
Q 1550 3584 1831 3584 
Q 2591 3584 2966 3190 
Q 3341 2797 3341 1997 
z
" transform="scale(0.015625)"/>
       <path id="DejaVuSans-6f" d="M 1959 3097 
Q 1497 3097 1228 2736 
Q 959 2375 959 1747 
Q 959 1119 1226 758 
Q 1494 397 1959 397 
Q 2419 397 2687 759 
Q 2956 1122 2956 1747 
Q 2956 2369 2687 2733 
Q 2419 3097 1959 3097 
z
M 1959 3584 
Q 2709 3584 3137 3096 
Q 3566 2609 3566 1747 
Q 3566 888 3137 398 
Q 2709 -91 1959 -91 
Q 1206 -91 779 398 
Q 353 888 353 1747 
Q 353 2609 779 3096 
Q 1206 3584 1959 3584 
z
" transform="scale(0.015625)"/>
      </defs>
      <use xlink:href="#DejaVuSans-66"/>
      <use xlink:href="#DejaVuSans-28" x="35.205078"/>
      <use xlink:href="#DejaVuSans-78" x="74.21875"/>
      <use xlink:href="#DejaVuSans-29" x="133.398438"/>
      <use xlink:href="#DejaVuSans-20" x="172.412109"/>
      <use xlink:href="#DejaVuSans-28" x="204.199219"/>
      <use xlink:href="#DejaVuSans-41" x="243.212891"/>
      <use xlink:href="#DejaVuSans-63" x="309.871094"/>
      <use xlink:href="#DejaVuSans-74" x="364.851562"/>
      <use xlink:href="#DejaVuSans-69" x="404.060547"/>
      <use xlink:href="#DejaVuSans-76" x="431.84375"/>
      <use xlink:href="#DejaVuSans-61" x="491.023438"/>
      <use xlink:href="#DejaVuSans-74" x="552.302734"/>
      <use xlink:href="#DejaVuSans-69" x="591.511719"/>
      <use xlink:href="#DejaVuSans-6f" x="619.294922"/>
      <use xlink:href="#DejaVuSans-6e" x="680.476562"/>
      <use xlink:href="#DejaVuSans-29" x="743.855469"/>
     </g>
    </g>
   </g>
   <g id="line2d_15">
    <path d="M 73.680895 271.700606 
L 77.301088 271.621609 
L 80.921282 271.534624 
L 84.541475 271.438849 
L 88.161669 271.333405 
L 91.781862 271.217323 
L 95.402055 271.089543 
L 99.022249 270.948899 
L 102.642442 270.794112 
L 106.262636 270.62378 
L 109.882829 270.436365 
L 113.503022 270.230184 
L 117.123216 270.003393 
L 120.743409 269.753973 
L 124.363603 269.47972 
L 127.983796 269.178222 
L 131.603989 268.846848 
L 135.224183 268.482729 
L 138.844376 268.082738 
L 142.46457 267.643475 
L 146.084763 267.161242 
L 149.704957 266.632029 
L 153.32515 266.051489 
L 156.945343 265.414924 
L 160.565537 264.717261 
L 164.18573 263.953038 
L 167.805924 263.116385 
L 171.426117 262.201016 
L 175.04631 261.200214 
L 178.666504 260.10683 
L 182.286697 258.913283 
L 185.906891 257.611566 
L 189.527084 256.193267 
L 193.147277 254.649594 
L 196.767471 252.971417 
L 200.387664 251.149317 
L 204.007858 249.173665 
L 207.628051 247.034702 
L 211.248245 244.722654 
L 214.868438 242.227859 
L 218.488631 239.540924 
L 222.108825 236.652894 
L 225.729018 233.555457 
L 229.349212 230.241162 
L 232.969405 226.703658 
L 236.589598 222.937945 
L 240.209792 218.940641 
L 243.829985 214.710239 
L 247.450179 210.247368 
L 251.070372 205.555026 
L 254.690565 200.638791 
L 258.310759 195.506984 
L 261.930952 190.170778 
L 265.551146 184.644245 
L 269.171339 178.944325 
L 272.791533 173.09071 
L 276.411726 167.105644 
L 280.031919 161.01364 
L 283.652113 154.841109 
L 287.272306 148.615931 
L 290.8925 142.366958 
L 294.512693 136.123487 
L 298.132886 129.914712 
L 301.75308 123.76918 
L 305.373273 117.714275 
L 308.993467 111.775746 
L 312.61366 105.977291 
L 316.233853 100.340228 
L 319.854047 94.883236 
L 323.47424 89.622186 
L 327.094434 84.570063 
L 330.714627 79.736964 
L 334.334821 75.130163 
L 337.955014 70.754248 
L 341.575207 66.611304 
L 345.195401 62.70113 
L 348.815594 59.021485 
L 352.435788 55.568348 
L 356.055981 52.336184 
L 359.676174 49.318199 
L 363.296368 46.506592 
L 366.916561 43.892787 
L 370.536755 41.467641 
L 374.156948 39.221641 
L 377.777141 37.145067 
L 381.397335 35.228135 
L 385.017528 33.461126 
L 388.637722 31.834477 
L 392.257915 30.338872 
L 395.878108 28.965303 
L 399.498302 27.705114 
L 403.118495 26.550043 
L 406.738689 25.492243 
L 410.358882 24.524293 
L 413.979076 23.639206 
L 417.599269 22.830428 
L 421.219462 22.091831 
L 424.839656 21.417698 
L 428.459849 20.802717 
L 432.080043 20.241956 
" clip-path="url(#p8cebd83e7f)" style="fill: none; stroke: #bf00bf; stroke-opacity: 0.3; stroke-width: 1.5; stroke-linecap: square"/>
   </g>
   <g id="line2d_16">
    <path d="M 73.680895 257.696249 
L 77.301088 257.181277 
L 80.921282 256.649533 
L 84.541475 256.100554 
L 88.161669 255.533868 
L 91.781862 254.948999 
L 95.402055 254.345462 
L 99.022249 253.722768 
L 102.642442 253.08042 
L 106.262636 252.41792 
L 109.882829 251.734762 
L 113.503022 251.030438 
L 117.123216 250.304437 
L 120.743409 249.556244 
L 124.363603 248.785344 
L 127.983796 247.99122 
L 131.603989 247.173357 
L 135.224183 246.331237 
L 138.844376 245.464349 
L 142.46457 244.572182 
L 146.084763 243.65423 
L 149.704957 242.709991 
L 153.32515 241.738972 
L 156.945343 240.740687 
L 160.565537 239.714659 
L 164.18573 238.660422 
L 167.805924 237.577522 
L 171.426117 236.465521 
L 175.04631 235.323994 
L 178.666504 234.152534 
L 182.286697 232.950753 
L 185.906891 231.718285 
L 189.527084 230.454785 
L 193.147277 229.159934 
L 196.767471 227.833437 
L 200.387664 226.47503 
L 204.007858 225.084478 
L 207.628051 223.661579 
L 211.248245 222.206164 
L 214.868438 220.718101 
L 218.488631 219.197296 
L 222.108825 217.643695 
L 225.729018 216.057286 
L 229.349212 214.438101 
L 232.969405 212.786218 
L 236.589598 211.10176 
L 240.209792 209.384901 
L 243.829985 207.635865 
L 247.450179 205.854928 
L 251.070372 204.042418 
L 254.690565 202.198719 
L 258.310759 200.324268 
L 261.930952 198.419559 
L 265.551146 196.485144 
L 269.171339 194.52163 
L 272.791533 192.529683 
L 276.411726 190.510027 
L 280.031919 188.463442 
L 283.652113 186.390764 
L 287.272306 184.292889 
L 290.8925 182.170766 
L 294.512693 180.025398 
L 298.132886 177.857843 
L 301.75308 175.669209 
L 305.373273 173.460655 
L 308.993467 171.233388 
L 312.61366 168.988658 
L 316.233853 166.727762 
L 319.854047 164.452033 
L 323.47424 162.162844 
L 327.094434 159.861601 
L 330.714627 157.549741 
L 334.334821 155.22873 
L 337.955014 152.900055 
L 341.575207 150.565225 
L 345.195401 148.225764 
L 348.815594 145.88321 
L 352.435788 143.539107 
L 356.055981 141.195003 
L 359.676174 138.852449 
L 363.296368 136.512989 
L 366.916561 134.178159 
L 370.536755 131.849484 
L 374.156948 129.528472 
L 377.777141 127.216613 
L 381.397335 124.91537 
L 385.017528 122.626181 
L 388.637722 120.350452 
L 392.257915 118.089555 
L 395.878108 115.844826 
L 399.498302 113.617558 
L 403.118495 111.409005 
L 406.738689 109.220371 
L 410.358882 107.052816 
L 413.979076 104.907448 
L 417.599269 102.785324 
L 421.219462 100.687449 
L 424.839656 98.614772 
L 428.459849 96.568186 
L 432.080043 94.54853 
" clip-path="url(#p8cebd83e7f)" style="fill: none; stroke: #00bfbf; stroke-opacity: 0.3; stroke-width: 1.5; stroke-linecap: square"/>
   </g>
   <g id="patch_3">
    <path d="M 55.760938 324.05495 
L 55.760938 14.599219 
" style="fill: none; stroke: #000000; stroke-width: 0.8; stroke-linejoin: miter; stroke-linecap: square"/>
   </g>
   <g id="patch_4">
    <path d="M 450 324.05495 
L 450 14.599219 
" style="fill: none"/>
   </g>
   <g id="patch_5">
    <path d="M 55.760938 272.478995 
L 450 272.478995 
" style="fill: none; stroke: #000000; stroke-width: 0.8; stroke-linejoin: miter; stroke-linecap: square"/>
   </g>
   <g id="patch_6">
    <path d="M 55.760938 14.599219 
L 450 14.599219 
" style="fill: none"/>
   </g>
   <g id="text_17">
    <!-- $f(z) =  \dfrac{1}{1 + e^{-gz}}$ -->
    <g style="opacity: 0.75" transform="translate(218.030469 40.387196) scale(0.1 -0.1)">
     <defs>
      <path id="DejaVuSans-Oblique-66" d="M 3059 4863 
L 2969 4384 
L 2419 4384 
Q 2106 4384 1964 4261 
Q 1822 4138 1753 3809 
L 1691 3500 
L 2638 3500 
L 2553 3053 
L 1606 3053 
L 1013 0 
L 434 0 
L 1031 3053 
L 481 3053 
L 563 3500 
L 1113 3500 
L 1159 3744 
Q 1278 4363 1576 4613 
Q 1875 4863 2516 4863 
L 3059 4863 
z
" transform="scale(0.015625)"/>
      <path id="DejaVuSans-Oblique-7a" d="M 744 3500 
L 3475 3500 
L 3372 2975 
L 738 459 
L 2913 459 
L 2822 0 
L -19 0 
L 84 525 
L 2719 3041 
L 653 3041 
L 744 3500 
z
" transform="scale(0.015625)"/>
      <path id="DejaVuSans-3d" d="M 678 2906 
L 4684 2906 
L 4684 2381 
L 678 2381 
L 678 2906 
z
M 678 1631 
L 4684 1631 
L 4684 1100 
L 678 1100 
L 678 1631 
z
" transform="scale(0.015625)"/>
      <path id="DejaVuSans-2b" d="M 2944 4013 
L 2944 2272 
L 4684 2272 
L 4684 1741 
L 2944 1741 
L 2944 0 
L 2419 0 
L 2419 1741 
L 678 1741 
L 678 2272 
L 2419 2272 
L 2419 4013 
L 2944 4013 
z
" transform="scale(0.015625)"/>
      <path id="DejaVuSans-Oblique-65" d="M 3078 2063 
Q 3088 2113 3092 2166 
Q 3097 2219 3097 2272 
Q 3097 2653 2873 2875 
Q 2650 3097 2266 3097 
Q 1838 3097 1509 2826 
Q 1181 2556 1013 2059 
L 3078 2063 
z
M 3578 1613 
L 903 1613 
Q 884 1494 878 1425 
Q 872 1356 872 1306 
Q 872 872 1139 634 
Q 1406 397 1894 397 
Q 2269 397 2603 481 
Q 2938 566 3225 728 
L 3116 159 
Q 2806 34 2476 -28 
Q 2147 -91 1806 -91 
Q 1078 -91 686 257 
Q 294 606 294 1247 
Q 294 1794 489 2264 
Q 684 2734 1063 3103 
Q 1306 3334 1642 3459 
Q 1978 3584 2356 3584 
Q 2950 3584 3301 3228 
Q 3653 2872 3653 2272 
Q 3653 2128 3634 1964 
Q 3616 1800 3578 1613 
z
" transform="scale(0.015625)"/>
      <path id="DejaVuSans-Oblique-67" d="M 3816 3500 
L 3219 434 
Q 3047 -456 2561 -893 
Q 2075 -1331 1253 -1331 
Q 950 -1331 690 -1286 
Q 431 -1241 206 -1147 
L 313 -588 
Q 525 -725 762 -790 
Q 1000 -856 1269 -856 
Q 1816 -856 2167 -557 
Q 2519 -259 2631 300 
L 2681 563 
Q 2441 288 2122 144 
Q 1803 0 1434 0 
Q 903 0 598 351 
Q 294 703 294 1319 
Q 294 1803 478 2267 
Q 663 2731 997 3091 
Q 1219 3328 1514 3456 
Q 1809 3584 2131 3584 
Q 2484 3584 2746 3420 
Q 3009 3256 3138 2956 
L 3238 3500 
L 3816 3500 
z
M 2950 2216 
Q 2950 2641 2750 2872 
Q 2550 3103 2181 3103 
Q 1953 3103 1747 3012 
Q 1541 2922 1394 2759 
Q 1156 2491 1023 2127 
Q 891 1763 891 1375 
Q 891 944 1092 712 
Q 1294 481 1672 481 
Q 2219 481 2584 976 
Q 2950 1472 2950 2216 
z
" transform="scale(0.015625)"/>
     </defs>
     <use xlink:href="#DejaVuSans-Oblique-66" transform="translate(0 0.296875)"/>
     <use xlink:href="#DejaVuSans-28" transform="translate(35.205078 0.296875)"/>
     <use xlink:href="#DejaVuSans-Oblique-7a" transform="translate(74.21875 0.296875)"/>
     <use xlink:href="#DejaVuSans-29" transform="translate(126.708984 0.296875)"/>
     <use xlink:href="#DejaVuSans-3d" transform="translate(185.205078 0.296875)"/>
     <use xlink:href="#DejaVuSans-31" transform="translate(454.476562 44.09375)"/>
     <use xlink:href="#DejaVuSans-31" transform="translate(288.476562 -64.6375)"/>
     <use xlink:href="#DejaVuSans-2b" transform="translate(371.582031 -64.6375)"/>
     <use xlink:href="#DejaVuSans-Oblique-65" transform="translate(474.853516 -64.6375)"/>
     <use xlink:href="#DejaVuSans-2212" transform="translate(541.026849 -26.35625) scale(0.7)"/>
     <use xlink:href="#DejaVuSans-Oblique-67" transform="translate(599.679193 -26.35625) scale(0.7)"/>
     <use xlink:href="#DejaVuSans-Oblique-7a" transform="translate(644.112786 -26.35625) scale(0.7)"/>
     <path d="M 288.476562 19.09375 
L 288.476562 25.34375 
L 683.590326 25.34375 
L 683.590326 19.09375 
L 288.476562 19.09375 
z
"/>
    </g>
   </g>
   <g id="text_18">
    <!-- g -->
    <g style="opacity: 0.75" transform="translate(363.199313 81.828538) scale(0.1 -0.1)">
     <defs>
      <path id="DejaVuSans-67" d="M 2906 1791 
Q 2906 2416 2648 2759 
Q 2391 3103 1925 3103 
Q 1463 3103 1205 2759 
Q 947 2416 947 1791 
Q 947 1169 1205 825 
Q 1463 481 1925 481 
Q 2391 481 2648 825 
Q 2906 1169 2906 1791 
z
M 3481 434 
Q 3481 -459 3084 -895 
Q 2688 -1331 1869 -1331 
Q 1566 -1331 1297 -1286 
Q 1028 -1241 775 -1147 
L 775 -588 
Q 1028 -725 1275 -790 
Q 1522 -856 1778 -856 
Q 2344 -856 2625 -561 
Q 2906 -266 2906 331 
L 2906 616 
Q 2728 306 2450 153 
Q 2172 0 1784 0 
Q 1141 0 747 490 
Q 353 981 353 1791 
Q 353 2603 747 3093 
Q 1141 3584 1784 3584 
Q 2172 3584 2450 3431 
Q 2728 3278 2906 2969 
L 2906 3500 
L 3481 3500 
L 3481 434 
z
" transform="scale(0.015625)"/>
     </defs>
     <use xlink:href="#DejaVuSans-67"/>
    </g>
   </g>
   <g id="patch_7">
    <path d="M 372.346851 77.067069 
Q 372.346851 68.751194 372.346851 61.553352 
" style="fill: none; stroke: #000000; stroke-linecap: round"/>
    <path d="M 370.346851 65.553352 
L 372.346851 61.553352 
L 374.346851 65.553352 
" style="fill: none; stroke: #000000; stroke-linecap: round"/>
   </g>
   <g id="patch_8">
    <path d="M 372.346851 81.071257 
Q 372.346851 89.387132 372.346851 96.584973 
" style="fill: none; stroke: #000000; stroke-linecap: round"/>
    <path d="M 374.346851 92.584973 
L 372.346851 96.584973 
L 370.346851 92.584973 
" style="fill: none; stroke: #000000; stroke-linecap: round"/>
   </g>
   <g id="legend_1">
    <g id="patch_9">
     <path d="M 379.939062 330.465627 
L 443 330.465627 
Q 445 330.465627 445 328.465627 
L 445 300.109377 
Q 445 298.109377 443 298.109377 
L 379.939062 298.109377 
Q 377.939062 298.109377 377.939062 300.109377 
L 377.939062 328.465627 
Q 377.939062 330.465627 379.939062 330.465627 
z
" style="fill: #ffffff; opacity: 0.8; stroke: #cccccc; stroke-linejoin: miter"/>
    </g>
    <g id="line2d_17">
     <path d="M 381.939062 306.207814 
L 391.939062 306.207814 
L 401.939062 306.207814 
" style="fill: none; stroke: #bf00bf; stroke-opacity: 0.3; stroke-width: 1.5; stroke-linecap: square"/>
    </g>
    <g id="text_19">
     <!-- young -->
     <g transform="translate(409.939062 309.707814) scale(0.1 -0.1)">
      <defs>
       <path id="DejaVuSans-79" d="M 2059 -325 
Q 1816 -950 1584 -1140 
Q 1353 -1331 966 -1331 
L 506 -1331 
L 506 -850 
L 844 -850 
Q 1081 -850 1212 -737 
Q 1344 -625 1503 -206 
L 1606 56 
L 191 3500 
L 800 3500 
L 1894 763 
L 2988 3500 
L 3597 3500 
L 2059 -325 
z
" transform="scale(0.015625)"/>
      </defs>
      <use xlink:href="#DejaVuSans-79"/>
      <use xlink:href="#DejaVuSans-6f" x="59.179688"/>
      <use xlink:href="#DejaVuSans-75" x="120.361328"/>
      <use xlink:href="#DejaVuSans-6e" x="183.740234"/>
      <use xlink:href="#DejaVuSans-67" x="247.119141"/>
     </g>
    </g>
    <g id="line2d_18">
     <path d="M 381.939062 320.885939 
L 391.939062 320.885939 
L 401.939062 320.885939 
" style="fill: none; stroke: #00bfbf; stroke-opacity: 0.3; stroke-width: 1.5; stroke-linecap: square"/>
    </g>
    <g id="text_20">
     <!-- old -->
     <g transform="translate(409.939062 324.385939) scale(0.1 -0.1)">
      <defs>
       <path id="DejaVuSans-6c" d="M 603 4863 
L 1178 4863 
L 1178 0 
L 603 0 
L 603 4863 
z
" transform="scale(0.015625)"/>
       <path id="DejaVuSans-64" d="M 2906 2969 
L 2906 4863 
L 3481 4863 
L 3481 0 
L 2906 0 
L 2906 525 
Q 2725 213 2448 61 
Q 2172 -91 1784 -91 
Q 1150 -91 751 415 
Q 353 922 353 1747 
Q 353 2572 751 3078 
Q 1150 3584 1784 3584 
Q 2172 3584 2448 3432 
Q 2725 3281 2906 2969 
z
M 947 1747 
Q 947 1113 1208 752 
Q 1469 391 1925 391 
Q 2381 391 2643 752 
Q 2906 1113 2906 1747 
Q 2906 2381 2643 2742 
Q 2381 3103 1925 3103 
Q 1469 3103 1208 2742 
Q 947 2381 947 1747 
z
" transform="scale(0.015625)"/>
      </defs>
      <use xlink:href="#DejaVuSans-6f"/>
      <use xlink:href="#DejaVuSans-6c" x="61.181641"/>
      <use xlink:href="#DejaVuSans-64" x="88.964844"/>
     </g>
    </g>
   </g>
  </g>
 </g>
 <defs>
  <clipPath id="p8cebd83e7f">
   <rect x="55.760938" y="14.599219" width="394.239062" height="309.455731"/>
  </clipPath>
 </defs>
</svg>
