<?xml version="1.0" encoding="UTF-8" standalone="no"?>
<!-- Created with Inkscape (http://www.inkscape.org/) -->

<svg
   width="140mm"
   height="90mm"
   viewBox="0 0 140 90"
   version="1.1"
   id="svg5"
   xml:space="preserve"
   inkscape:version="1.2.2 (1:1.2.2+202212051552+b0a8486541)"
   sodipodi:docname="drawing.svg"
   xmlns:inkscape="http://www.inkscape.org/namespaces/inkscape"
   xmlns:sodipodi="http://sodipodi.sourceforge.net/DTD/sodipodi-0.dtd"
   xmlns:xlink="http://www.w3.org/1999/xlink"
   xmlns="http://www.w3.org/2000/svg"
   xmlns:svg="http://www.w3.org/2000/svg"><sodipodi:namedview
     id="namedview7"
     pagecolor="#ffffff"
     bordercolor="#666666"
     borderopacity="1.0"
     inkscape:showpageshadow="2"
     inkscape:pageopacity="0.0"
     inkscape:pagecheckerboard="0"
     inkscape:deskcolor="#d1d1d1"
     inkscape:document-units="mm"
     showgrid="false"
     inkscape:zoom="0.77504209"
     inkscape:cx="-149.02417"
     inkscape:cy="256.76025"
     inkscape:window-width="1860"
     inkscape:window-height="1011"
     inkscape:window-x="1920"
     inkscape:window-y="32"
     inkscape:window-maximized="1"
     inkscape:current-layer="figure_1" /><defs
     id="defs2"><style
       type="text/css"
       id="style11">*{stroke-linejoin: round; stroke-linecap: butt}</style><path
       id="m739cbd8f79"
       d="M 0 0  L 0 3.5  "
       style="stroke: #000000; stroke-width: 0.8" /><path
       id="DejaVuSans-2212"
       d="M 678 2272  L 4684 2272  L 4684 1741  L 678 1741  L 678 2272  z "
       transform="scale(0.015625)" /><path
       id="DejaVuSans-36"
       d="M 2113 2584  Q 1688 2584 1439 2293  Q 1191 2003 1191 1497  Q 1191 994 1439 701  Q 1688 409 2113 409  Q 2538 409 2786 701  Q 3034 994 3034 1497  Q 3034 2003 2786 2293  Q 2538 2584 2113 2584  z M 3366 4563  L 3366 3988  Q 3128 4100 2886 4159  Q 2644 4219 2406 4219  Q 1781 4219 1451 3797  Q 1122 3375 1075 2522  Q 1259 2794 1537 2939  Q 1816 3084 2150 3084  Q 2853 3084 3261 2657  Q 3669 2231 3669 1497  Q 3669 778 3244 343  Q 2819 -91 2113 -91  Q 1303 -91 875 529  Q 447 1150 447 2328  Q 447 3434 972 4092  Q 1497 4750 2381 4750  Q 2619 4750 2861 4703  Q 3103 4656 3366 4563  z "
       transform="scale(0.015625)" /><path
       id="DejaVuSans-34"
       d="M 2419 4116  L 825 1625  L 2419 1625  L 2419 4116  z M 2253 4666  L 3047 4666  L 3047 1625  L 3713 1625  L 3713 1100  L 3047 1100  L 3047 0  L 2419 0  L 2419 1100  L 313 1100  L 313 1709  L 2253 4666  z "
       transform="scale(0.015625)" /><path
       id="DejaVuSans-32"
       d="M 1228 531  L 3431 531  L 3431 0  L 469 0  L 469 531  Q 828 903 1448 1529  Q 2069 2156 2228 2338  Q 2531 2678 2651 2914  Q 2772 3150 2772 3378  Q 2772 3750 2511 3984  Q 2250 4219 1831 4219  Q 1534 4219 1204 4116  Q 875 4013 500 3803  L 500 4441  Q 881 4594 1212 4672  Q 1544 4750 1819 4750  Q 2544 4750 2975 4387  Q 3406 4025 3406 3419  Q 3406 3131 3298 2873  Q 3191 2616 2906 2266  Q 2828 2175 2409 1742  Q 1991 1309 1228 531  z "
       transform="scale(0.015625)" /><path
       id="DejaVuSans-30"
       d="M 2034 4250  Q 1547 4250 1301 3770  Q 1056 3291 1056 2328  Q 1056 1369 1301 889  Q 1547 409 2034 409  Q 2525 409 2770 889  Q 3016 1369 3016 2328  Q 3016 3291 2770 3770  Q 2525 4250 2034 4250  z M 2034 4750  Q 2819 4750 3233 4129  Q 3647 3509 3647 2328  Q 3647 1150 3233 529  Q 2819 -91 2034 -91  Q 1250 -91 836 529  Q 422 1150 422 2328  Q 422 3509 836 4129  Q 1250 4750 2034 4750  z "
       transform="scale(0.015625)" /><path
       id="DejaVuSans-78"
       d="M 3513 3500  L 2247 1797  L 3578 0  L 2900 0  L 1881 1375  L 863 0  L 184 0  L 1544 1831  L 300 3500  L 978 3500  L 1906 2253  L 2834 3500  L 3513 3500  z "
       transform="scale(0.015625)" /><path
       id="DejaVuSans-20"
       transform="scale(0.015625)" /><path
       id="DejaVuSans-28"
       d="M 1984 4856  Q 1566 4138 1362 3434  Q 1159 2731 1159 2009  Q 1159 1288 1364 580  Q 1569 -128 1984 -844  L 1484 -844  Q 1016 -109 783 600  Q 550 1309 550 2009  Q 550 2706 781 3412  Q 1013 4119 1484 4856  L 1984 4856  z "
       transform="scale(0.015625)" /><path
       id="DejaVuSans-49"
       d="M 628 4666  L 1259 4666  L 1259 0  L 628 0  L 628 4666  z "
       transform="scale(0.015625)" /><path
       id="DejaVuSans-6e"
       d="M 3513 2113  L 3513 0  L 2938 0  L 2938 2094  Q 2938 2591 2744 2837  Q 2550 3084 2163 3084  Q 1697 3084 1428 2787  Q 1159 2491 1159 1978  L 1159 0  L 581 0  L 581 3500  L 1159 3500  L 1159 2956  Q 1366 3272 1645 3428  Q 1925 3584 2291 3584  Q 2894 3584 3203 3211  Q 3513 2838 3513 2113  z "
       transform="scale(0.015625)" /><path
       id="DejaVuSans-70"
       d="M 1159 525  L 1159 -1331  L 581 -1331  L 581 3500  L 1159 3500  L 1159 2969  Q 1341 3281 1617 3432  Q 1894 3584 2278 3584  Q 2916 3584 3314 3078  Q 3713 2572 3713 1747  Q 3713 922 3314 415  Q 2916 -91 2278 -91  Q 1894 -91 1617 61  Q 1341 213 1159 525  z M 3116 1747  Q 3116 2381 2855 2742  Q 2594 3103 2138 3103  Q 1681 3103 1420 2742  Q 1159 2381 1159 1747  Q 1159 1113 1420 752  Q 1681 391 2138 391  Q 2594 391 2855 752  Q 3116 1113 3116 1747  z "
       transform="scale(0.015625)" /><path
       id="DejaVuSans-75"
       d="M 544 1381  L 544 3500  L 1119 3500  L 1119 1403  Q 1119 906 1312 657  Q 1506 409 1894 409  Q 2359 409 2629 706  Q 2900 1003 2900 1516  L 2900 3500  L 3475 3500  L 3475 0  L 2900 0  L 2900 538  Q 2691 219 2414 64  Q 2138 -91 1772 -91  Q 1169 -91 856 284  Q 544 659 544 1381  z M 1991 3584  L 1991 3584  z "
       transform="scale(0.015625)" /><path
       id="DejaVuSans-74"
       d="M 1172 4494  L 1172 3500  L 2356 3500  L 2356 3053  L 1172 3053  L 1172 1153  Q 1172 725 1289 603  Q 1406 481 1766 481  L 2356 481  L 2356 0  L 1766 0  Q 1100 0 847 248  Q 594 497 594 1153  L 594 3053  L 172 3053  L 172 3500  L 594 3500  L 594 4494  L 1172 4494  z "
       transform="scale(0.015625)" /><path
       id="DejaVuSans-29"
       d="M 513 4856  L 1013 4856  Q 1481 4119 1714 3412  Q 1947 2706 1947 2009  Q 1947 1309 1714 600  Q 1481 -109 1013 -844  L 513 -844  Q 928 -128 1133 580  Q 1338 1288 1338 2009  Q 1338 2731 1133 3434  Q 928 4138 513 4856  z "
       transform="scale(0.015625)" /><path
       id="me0889442a5"
       d="M 0 0  L -3.5 0  "
       style="stroke: #000000; stroke-width: 0.8" /><path
       id="DejaVuSans-2e"
       d="M 684 794  L 1344 794  L 1344 0  L 684 0  L 684 794  z "
       transform="scale(0.015625)" /><path
       id="DejaVuSans-38"
       d="M 2034 2216  Q 1584 2216 1326 1975  Q 1069 1734 1069 1313  Q 1069 891 1326 650  Q 1584 409 2034 409  Q 2484 409 2743 651  Q 3003 894 3003 1313  Q 3003 1734 2745 1975  Q 2488 2216 2034 2216  z M 1403 2484  Q 997 2584 770 2862  Q 544 3141 544 3541  Q 544 4100 942 4425  Q 1341 4750 2034 4750  Q 2731 4750 3128 4425  Q 3525 4100 3525 3541  Q 3525 3141 3298 2862  Q 3072 2584 2669 2484  Q 3125 2378 3379 2068  Q 3634 1759 3634 1313  Q 3634 634 3220 271  Q 2806 -91 2034 -91  Q 1263 -91 848 271  Q 434 634 434 1313  Q 434 1759 690 2068  Q 947 2378 1403 2484  z M 1172 3481  Q 1172 3119 1398 2916  Q 1625 2713 2034 2713  Q 2441 2713 2670 2916  Q 2900 3119 2900 3481  Q 2900 3844 2670 4047  Q 2441 4250 2034 4250  Q 1625 4250 1398 4047  Q 1172 3844 1172 3481  z "
       transform="scale(0.015625)" /><path
       id="DejaVuSans-31"
       d="M 794 531  L 1825 531  L 1825 4091  L 703 3866  L 703 4441  L 1819 4666  L 2450 4666  L 2450 531  L 3481 531  L 3481 0  L 794 0  L 794 531  z "
       transform="scale(0.015625)" /><path
       id="DejaVuSans-66"
       d="M 2375 4863  L 2375 4384  L 1825 4384  Q 1516 4384 1395 4259  Q 1275 4134 1275 3809  L 1275 3500  L 2222 3500  L 2222 3053  L 1275 3053  L 1275 0  L 697 0  L 697 3053  L 147 3053  L 147 3500  L 697 3500  L 697 3744  Q 697 4328 969 4595  Q 1241 4863 1831 4863  L 2375 4863  z "
       transform="scale(0.015625)" /><path
       id="DejaVuSans-41"
       d="M 2188 4044  L 1331 1722  L 3047 1722  L 2188 4044  z M 1831 4666  L 2547 4666  L 4325 0  L 3669 0  L 3244 1197  L 1141 1197  L 716 0  L 50 0  L 1831 4666  z "
       transform="scale(0.015625)" /><path
       id="DejaVuSans-63"
       d="M 3122 3366  L 3122 2828  Q 2878 2963 2633 3030  Q 2388 3097 2138 3097  Q 1578 3097 1268 2742  Q 959 2388 959 1747  Q 959 1106 1268 751  Q 1578 397 2138 397  Q 2388 397 2633 464  Q 2878 531 3122 666  L 3122 134  Q 2881 22 2623 -34  Q 2366 -91 2075 -91  Q 1284 -91 818 406  Q 353 903 353 1747  Q 353 2603 823 3093  Q 1294 3584 2113 3584  Q 2378 3584 2631 3529  Q 2884 3475 3122 3366  z "
       transform="scale(0.015625)" /><path
       id="DejaVuSans-69"
       d="M 603 3500  L 1178 3500  L 1178 0  L 603 0  L 603 3500  z M 603 4863  L 1178 4863  L 1178 4134  L 603 4134  L 603 4863  z "
       transform="scale(0.015625)" /><path
       id="DejaVuSans-76"
       d="M 191 3500  L 800 3500  L 1894 563  L 2988 3500  L 3597 3500  L 2284 0  L 1503 0  L 191 3500  z "
       transform="scale(0.015625)" /><path
       id="DejaVuSans-61"
       d="M 2194 1759  Q 1497 1759 1228 1600  Q 959 1441 959 1056  Q 959 750 1161 570  Q 1363 391 1709 391  Q 2188 391 2477 730  Q 2766 1069 2766 1631  L 2766 1759  L 2194 1759  z M 3341 1997  L 3341 0  L 2766 0  L 2766 531  Q 2569 213 2275 61  Q 1981 -91 1556 -91  Q 1019 -91 701 211  Q 384 513 384 1019  Q 384 1609 779 1909  Q 1175 2209 1959 2209  L 2766 2209  L 2766 2266  Q 2766 2663 2505 2880  Q 2244 3097 1772 3097  Q 1472 3097 1187 3025  Q 903 2953 641 2809  L 641 3341  Q 956 3463 1253 3523  Q 1550 3584 1831 3584  Q 2591 3584 2966 3190  Q 3341 2797 3341 1997  z "
       transform="scale(0.015625)" /><path
       id="DejaVuSans-6f"
       d="M 1959 3097  Q 1497 3097 1228 2736  Q 959 2375 959 1747  Q 959 1119 1226 758  Q 1494 397 1959 397  Q 2419 397 2687 759  Q 2956 1122 2956 1747  Q 2956 2369 2687 2733  Q 2419 3097 1959 3097  z M 1959 3584  Q 2709 3584 3137 3096  Q 3566 2609 3566 1747  Q 3566 888 3137 398  Q 2709 -91 1959 -91  Q 1206 -91 779 398  Q 353 888 353 1747  Q 353 2609 779 3096  Q 1206 3584 1959 3584  z "
       transform="scale(0.015625)" /><path
       id="DejaVuSans-Oblique-66"
       d="M 3059 4863  L 2969 4384  L 2419 4384  Q 2106 4384 1964 4261  Q 1822 4138 1753 3809  L 1691 3500  L 2638 3500  L 2553 3053  L 1606 3053  L 1013 0  L 434 0  L 1031 3053  L 481 3053  L 563 3500  L 1113 3500  L 1159 3744  Q 1278 4363 1576 4613  Q 1875 4863 2516 4863  L 3059 4863  z "
       transform="scale(0.015625)" /><path
       id="DejaVuSans-Oblique-7a"
       d="M 744 3500  L 3475 3500  L 3372 2975  L 738 459  L 2913 459  L 2822 0  L -19 0  L 84 525  L 2719 3041  L 653 3041  L 744 3500  z "
       transform="scale(0.015625)" /><path
       id="DejaVuSans-3d"
       d="M 678 2906  L 4684 2906  L 4684 2381  L 678 2381  L 678 2906  z M 678 1631  L 4684 1631  L 4684 1100  L 678 1100  L 678 1631  z "
       transform="scale(0.015625)" /><path
       id="DejaVuSans-2b"
       d="M 2944 4013  L 2944 2272  L 4684 2272  L 4684 1741  L 2944 1741  L 2944 0  L 2419 0  L 2419 1741  L 678 1741  L 678 2272  L 2419 2272  L 2419 4013  L 2944 4013  z "
       transform="scale(0.015625)" /><path
       id="DejaVuSans-Oblique-65"
       d="M 3078 2063  Q 3088 2113 3092 2166  Q 3097 2219 3097 2272  Q 3097 2653 2873 2875  Q 2650 3097 2266 3097  Q 1838 3097 1509 2826  Q 1181 2556 1013 2059  L 3078 2063  z M 3578 1613  L 903 1613  Q 884 1494 878 1425  Q 872 1356 872 1306  Q 872 872 1139 634  Q 1406 397 1894 397  Q 2269 397 2603 481  Q 2938 566 3225 728  L 3116 159  Q 2806 34 2476 -28  Q 2147 -91 1806 -91  Q 1078 -91 686 257  Q 294 606 294 1247  Q 294 1794 489 2264  Q 684 2734 1063 3103  Q 1306 3334 1642 3459  Q 1978 3584 2356 3584  Q 2950 3584 3301 3228  Q 3653 2872 3653 2272  Q 3653 2128 3634 1964  Q 3616 1800 3578 1613  z "
       transform="scale(0.015625)" /><path
       id="DejaVuSans-Oblique-67"
       d="M 3816 3500  L 3219 434  Q 3047 -456 2561 -893  Q 2075 -1331 1253 -1331  Q 950 -1331 690 -1286  Q 431 -1241 206 -1147  L 313 -588  Q 525 -725 762 -790  Q 1000 -856 1269 -856  Q 1816 -856 2167 -557  Q 2519 -259 2631 300  L 2681 563  Q 2441 288 2122 144  Q 1803 0 1434 0  Q 903 0 598 351  Q 294 703 294 1319  Q 294 1803 478 2267  Q 663 2731 997 3091  Q 1219 3328 1514 3456  Q 1809 3584 2131 3584  Q 2484 3584 2746 3420  Q 3009 3256 3138 2956  L 3238 3500  L 3816 3500  z M 2950 2216  Q 2950 2641 2750 2872  Q 2550 3103 2181 3103  Q 1953 3103 1747 3012  Q 1541 2922 1394 2759  Q 1156 2491 1023 2127  Q 891 1763 891 1375  Q 891 944 1092 712  Q 1294 481 1672 481  Q 2219 481 2584 976  Q 2950 1472 2950 2216  z "
       transform="scale(0.015625)" /><path
       id="DejaVuSans-67"
       d="M 2906 1791  Q 2906 2416 2648 2759  Q 2391 3103 1925 3103  Q 1463 3103 1205 2759  Q 947 2416 947 1791  Q 947 1169 1205 825  Q 1463 481 1925 481  Q 2391 481 2648 825  Q 2906 1169 2906 1791  z M 3481 434  Q 3481 -459 3084 -895  Q 2688 -1331 1869 -1331  Q 1566 -1331 1297 -1286  Q 1028 -1241 775 -1147  L 775 -588  Q 1028 -725 1275 -790  Q 1522 -856 1778 -856  Q 2344 -856 2625 -561  Q 2906 -266 2906 331  L 2906 616  Q 2728 306 2450 153  Q 2172 0 1784 0  Q 1141 0 747 490  Q 353 981 353 1791  Q 353 2603 747 3093  Q 1141 3584 1784 3584  Q 2172 3584 2450 3431  Q 2728 3278 2906 2969  L 2906 3500  L 3481 3500  L 3481 434  z "
       transform="scale(0.015625)" /><path
       id="DejaVuSans-79"
       d="M 2059 -325  Q 1816 -950 1584 -1140  Q 1353 -1331 966 -1331  L 506 -1331  L 506 -850  L 844 -850  Q 1081 -850 1212 -737  Q 1344 -625 1503 -206  L 1606 56  L 191 3500  L 800 3500  L 1894 763  L 2988 3500  L 3597 3500  L 2059 -325  z "
       transform="scale(0.015625)" /><path
       id="DejaVuSans-6c"
       d="M 603 4863  L 1178 4863  L 1178 0  L 603 0  L 603 4863  z "
       transform="scale(0.015625)" /><path
       id="DejaVuSans-64"
       d="M 2906 2969  L 2906 4863  L 3481 4863  L 3481 0  L 2906 0  L 2906 525  Q 2725 213 2448 61  Q 2172 -91 1784 -91  Q 1150 -91 751 415  Q 353 922 353 1747  Q 353 2572 751 3078  Q 1150 3584 1784 3584  Q 2172 3584 2448 3432  Q 2725 3281 2906 2969  z M 947 1747  Q 947 1113 1208 752  Q 1469 391 1925 391  Q 2381 391 2643 752  Q 2906 1113 2906 1747  Q 2906 2381 2643 2742  Q 2381 3103 1925 3103  Q 1469 3103 1208 2742  Q 947 2381 947 1747  z "
       transform="scale(0.015625)" /><clipPath
       id="p8cebd83e7f"><rect
         x="55.760938"
         y="14.599219"
         width="394.239062"
         height="309.455731"
         id="rect439" /></clipPath><marker
       id="arrow"
       viewBox="0 -5 10 10"
       markerWidth="7"
       markerHeight="7"
       orient="auto"
       refX="62.4"><path
         d="M0,-5L10,0L0,5"
         style="stroke: rgb(80, 80, 80); fill: none;"
         id="path1068" /></marker><marker
       id="arrow-2"
       viewBox="0 -5 10 10"
       markerWidth="7"
       markerHeight="7"
       orient="auto"
       refX="68"><path
         d="M0,-5L10,0L0,5"
         style="stroke: rgb(80, 80, 80); fill: none;"
         id="path6947" /></marker><style
       type="text/css"
       id="style9207">*{stroke-linejoin: round; stroke-linecap: butt}</style><path
       id="DejaVuSans-Oblique-7a-6"
       d="M 744 3500  L 3475 3500  L 3372 2975  L 738 459  L 2913 459  L 2822 0  L -19 0  L 84 525  L 2719 3041  L 653 3041  L 744 3500  z "
       transform="scale(0.015625)" /><path
       id="DejaVuSans-3d-6"
       d="M 678 2906  L 4684 2906  L 4684 2381  L 678 2381  L 678 2906  z M 678 1631  L 4684 1631  L 4684 1100  L 678 1100  L 678 1631  z "
       transform="scale(0.015625)" /><path
       id="DejaVuSans-Oblique-6e"
       d="M 3566 2113  L 3156 0  L 2578 0  L 2988 2091  Q 3016 2238 3031 2350  Q 3047 2463 3047 2528  Q 3047 2791 2881 2937  Q 2716 3084 2419 3084  Q 1956 3084 1622 2776  Q 1288 2469 1184 1941  L 800 0  L 225 0  L 903 3500  L 1478 3500  L 1363 2950  Q 1603 3253 1940 3418  Q 2278 3584 2650 3584  Q 3113 3584 3367 3334  Q 3622 3084 3622 2631  Q 3622 2519 3608 2391  Q 3594 2263 3566 2113  z "
       transform="scale(0.015625)" /><path
       id="DejaVuSansDisplay-2211"
       d="M 244 6509  L 5803 6509  L 5803 5656  L 1566 5656  L 4534 2488  L 1469 -888  L 5919 -888  L 5919 -1738  L 109 -1738  L 109 -1078  L 3316 2463  L 244 5728  L 244 6509  z "
       transform="scale(0.015625)" /><path
       id="DejaVuSans-Oblique-69"
       d="M 1172 4863  L 1747 4863  L 1606 4134  L 1031 4134  L 1172 4863  z M 909 3500  L 1484 3500  L 800 0  L 225 0  L 909 3500  z "
       transform="scale(0.015625)" /><path
       id="DejaVuSans-31-4"
       d="M 794 531  L 1825 531  L 1825 4091  L 703 3866  L 703 4441  L 1819 4666  L 2450 4666  L 2450 531  L 3481 531  L 3481 0  L 794 0  L 794 531  z "
       transform="scale(0.015625)" /><path
       id="DejaVuSans-Oblique-77"
       d="M 544 3500  L 1113 3500  L 1259 684  L 2566 3500  L 3231 3500  L 3425 684  L 4666 3500  L 5241 3500  L 3641 0  L 2969 0  L 2797 2900  L 1459 0  L 781 0  L 544 3500  z "
       transform="scale(0.015625)" /><path
       id="DejaVuSans-Oblique-78"
       d="M 3841 3500  L 2234 1784  L 3219 0  L 2559 0  L 1819 1388  L 531 0  L -166 0  L 1556 1844  L 641 3500  L 1300 3500  L 1972 2234  L 3144 3500  L 3841 3500  z "
       transform="scale(0.015625)" /><path
       id="DejaVuSans-2b-9"
       d="M 2944 4013  L 2944 2272  L 4684 2272  L 4684 1741  L 2944 1741  L 2944 0  L 2419 0  L 2419 1741  L 678 1741  L 678 2272  L 2419 2272  L 2419 4013  L 2944 4013  z "
       transform="scale(0.015625)" /><path
       id="DejaVuSans-Oblique-62"
       d="M 3169 2138  Q 3169 2591 2961 2847  Q 2753 3103 2388 3103  Q 2122 3103 1889 2973  Q 1656 2844 1484 2597  Q 1303 2338 1198 1995  Q 1094 1653 1094 1313  Q 1094 881 1298 636  Q 1503 391 1863 391  Q 2134 391 2365 517  Q 2597 644 2772 891  Q 2950 1147 3059 1487  Q 3169 1828 3169 2138  z M 1381 2969  Q 1594 3256 1914 3420  Q 2234 3584 2584 3584  Q 3122 3584 3439 3221  Q 3756 2859 3756 2241  Q 3756 1734 3570 1259  Q 3384 784 3041 416  Q 2816 172 2522 40  Q 2228 -91 1906 -91  Q 1566 -91 1316 65  Q 1066 222 909 531  L 806 0  L 231 0  L 1178 4863  L 1753 4863  L 1381 2969  z "
       transform="scale(0.015625)" /><clipPath
       id="p9fb2d14fe7"><rect
         x="10.8"
         y="10.8"
         width="439.2"
         height="324"
         id="rect9277" /></clipPath></defs><g
     inkscape:label="Layer 1"
     inkscape:groupmode="layer"
     id="layer1"><g
       id="figure_1"
       transform="matrix(0.13269262,0,0,0.13269262,3.1123655,40.852983)"><g
         id="patch_1"><path
           d="M 0,345.6 H 460.8 V 0 H 0 Z"
           style="fill:#ffffff"
           id="path15" /></g><g
         id="axes_1"
         transform="translate(0,-3.9546614)"><g
           id="patch_2"><path
             d="M 55.760938,324.05495 H 450 V 14.599219 H 55.760938 Z"
             style="fill:#ffffff"
             id="path18" /></g><g
           id="PolyCollection_1"><path
             d="m 73.680895,269.91263 v 0 l 3.620193,-0.19153 3.620194,-0.20566 3.620193,-0.2208 3.620194,-0.23703 3.620193,-0.25443 3.620193,-0.27304 3.620194,-0.29299 3.620191,-0.31434 3.6202,-0.33719 3.62019,-0.36162 3.62019,-0.38774 3.6202,-0.41567 3.62019,-0.44551 3.62019,-0.47735 3.6202,-0.51135 3.62019,-0.5476 3.62019,-0.58624 3.6202,-0.6274 3.62019,-0.67122 3.62019,-0.71782 3.6202,-0.76734 3.62019,-0.81994 3.62019,-0.87572 3.6202,-0.93484 3.62019,-0.99743 3.62019,-1.0636 3.6202,-1.13349 3.62019,-1.2072 3.62019,-1.28482 3.6202,-1.36644 3.62019,-1.45213 3.62019,-1.54193 3.6202,-1.63586 3.62019,-1.7339 3.62019,-1.83603 3.6202,-1.94216 3.62019,-2.05218 3.62019,-2.1659 3.6202,-2.28316 3.62019,-2.40365 3.62019,-2.52708 3.6202,-2.65306 3.62019,-2.78116 3.62019,-2.91086 3.6202,-3.04162 3.62019,-3.17281 3.62019,-3.30374 3.6202,-3.43366 3.62019,-3.56179 3.62019,-3.68729 3.6202,-3.80928 3.62019,-3.92686 3.6202,-4.03912 3.62019,-4.14513 3.62019,-4.244 3.6202,-4.33483 3.62019,-4.41681 3.62019,-4.48913 3.6202,-4.55112 3.62019,-4.60212 3.62019,-4.64165 3.6202,-4.66928 3.62019,-4.68473 3.62019,-4.68781 3.6202,-4.67854 3.62019,-4.65697 3.62019,-4.62336 3.6202,-4.57802 3.62019,-4.52146 3.62019,-4.45422 3.6202,-4.37698 3.62019,-4.29047 3.62019,-4.195516 3.6202,-4.092962 3.62019,-3.983712 3.62019,-3.868679 3.6202,-3.748779 3.62019,-3.624924 3.62019,-3.498002 3.6202,-3.368873 3.62019,-3.23835 3.6202,-3.107205 3.62019,-2.97615 3.62019,-2.84584 3.62019,-2.716873 3.6202,-2.589776 3.62019,-2.465022 3.6202,-2.343017 3.62019,-2.224109 3.62019,-2.108587 3.62019,-1.99669 3.6202,-1.888601 3.62019,-1.784461 3.6202,-1.684367 3.62019,-1.588376 3.62019,-1.496515 3.6202,-1.408776 3.62019,-1.325126 3.62019,-1.245513 v 0 -16.103449 l -3.62019,0.220734 -3.62019,0.248723 -3.6202,0.280194 -3.62019,0.315564 -3.62019,0.355293 -3.6202,0.399891 -3.62019,0.449916 -3.6202,0.505985 -3.62019,0.568771 -3.62019,0.639004 -3.62019,0.717479 -3.6202,0.805047 -3.62019,0.902616 -3.6202,1.011151 -3.62019,1.131659 -3.62019,1.26518 -3.62019,1.412769 -3.6202,1.575479 -3.62019,1.754322 -3.6202,1.950243 -3.62019,2.164068 -3.62019,2.39645 -3.6202,2.647804 -3.62019,2.918241 -3.62019,3.207479 -3.6202,3.51476 -3.62019,3.838765 -3.62019,4.177524 -3.6202,4.528353 -3.62019,4.887784 -3.62019,5.251557 -3.6202,5.614616 -3.62019,5.971181 -3.62019,6.314858 -3.6202,6.638806 -3.62019,6.935984 -3.62019,7.1994 -3.6202,7.42246 -3.62019,7.59929 -3.62019,7.72501 -3.6202,7.79604 -3.62019,7.81036 -3.62019,7.76752 -3.6202,7.66879 -3.62019,7.51699 -3.62019,7.31637 -3.6202,7.07233 -3.62019,6.79119 -3.6202,6.47973 -3.62019,6.14505 -3.62019,5.7941 -3.6202,5.43352 -3.62019,5.06943 -3.62019,4.70724 -3.6202,4.35163 -3.62019,4.00645 -3.62019,3.67477 -3.6202,3.35894 -3.62019,3.06054 -3.62019,2.78065 -3.6202,2.51974 -3.62019,2.2779 -3.62019,2.05488 -3.6202,1.85009 -3.62019,1.66282 -3.62019,1.49217 -3.6202,1.33715 -3.62019,1.19673 -3.62019,1.06984 -3.6202,0.95545 -3.62019,0.85252 -3.62019,0.76008 -3.6202,0.67715 -3.62019,0.60291 -3.62019,0.5365 -3.6202,0.47715 -3.62019,0.42419 -3.62019,0.37695 -3.6202,0.33485 -3.62019,0.29737 -3.62019,0.26399 -3.6202,0.23432 -3.62019,0.20793 -3.62019,0.18447 -3.6202,0.16364 -3.62019,0.14514 -3.62019,0.1287 -3.6202,0.11412 -3.62019,0.10117 -3.62019,0.0897 -3.6202,0.0795 -3.620191,0.0705 -3.620194,0.0625 -3.620193,0.0554 -3.620193,0.0491 -3.620194,0.0435 -3.620193,0.0385 -3.620194,0.0341 -3.620193,0.0302 z"
             clip-path="url(#p8cebd83e7f)"
             style="fill:#bf00bf;fill-opacity:0.15"
             id="path21" /></g><g
           id="PolyCollection_2"><path
             d="m 73.680895,229.15993 v 0 l 3.620193,-0.43863 3.620194,-0.44216 3.620193,-0.4457 3.620194,-0.44925 3.620193,-0.4528 3.620193,-0.45636 3.620194,-0.45994 3.620191,-0.46351 3.6202,-0.4671 3.62019,-0.4707 3.62019,-0.4743 3.6202,-0.4779 3.62019,-0.48152 3.62019,-0.48514 3.6202,-0.48876 3.62019,-0.49238 3.62019,-0.49602 3.6202,-0.49966 3.62019,-0.50329 3.62019,-0.50694 3.6202,-0.51057 3.62019,-0.51423 3.62019,-0.51786 3.6202,-0.52152 3.62019,-0.52515 3.62019,-0.52881 3.6202,-0.53244 3.62019,-0.53609 3.62019,-0.53973 3.6202,-0.54337 3.62019,-0.547 3.62019,-0.55063 3.6202,-0.55425 3.62019,-0.55788 3.62019,-0.56148 3.6202,-0.5651 3.62019,-0.5687 3.62019,-0.57229 3.6202,-0.57587 3.62019,-0.57945 3.62019,-0.58301 3.6202,-0.58658 3.62019,-0.59011 3.62019,-0.59365 3.6202,-0.59717 3.62019,-0.60068 3.62019,-0.60418 3.6202,-0.60765 3.62019,-0.61112 3.62019,-0.61458 3.6202,-0.618 3.62019,-0.62143 3.6202,-0.62482 3.62019,-0.6282 3.62019,-0.63157 3.6202,-0.63491 3.62019,-0.63823 3.62019,-0.64153 3.6202,-0.64482 3.62019,-0.64807 3.62019,-0.6513 3.6202,-0.65451 3.62019,-0.6577 3.62019,-0.66086 3.6202,-0.66399 3.62019,-0.6671 3.62019,-0.67017 3.6202,-0.67323 3.62019,-0.67625 3.62019,-0.67925 3.6202,-0.6822 3.62019,-0.68514 3.62019,-0.68804 3.6202,-0.6909 3.62019,-0.69374 3.62019,-0.69653 3.6202,-0.69931 3.62019,-0.70203 3.62019,-0.70473 3.6202,-0.70739 3.62019,-0.71 3.6202,-0.7126 3.62019,-0.71513 3.62019,-0.71764 3.62019,-0.72011 3.6202,-0.72253 3.62019,-0.72492 3.6202,-0.72726 3.62019,-0.72956 3.62019,-0.73181 3.62019,-0.73403 3.6202,-0.7362 3.62019,-0.73833 3.6202,-0.7404 3.62019,-0.74244 3.62019,-0.74442 3.6202,-0.74637 3.62019,-0.74826 3.62019,-0.7501 v 0 -123.649418 l -3.62019,1.679192 -3.62019,1.757118 -3.6202,1.837141 -3.62019,1.91915 -3.62019,2.003013 -3.6202,2.088572 -3.62019,2.17565 -3.6202,2.26404 -3.62019,2.353516 -3.62019,2.443823 -3.62019,2.534682 -3.6202,2.625788 -3.62019,2.716814 -3.6202,2.807409 -3.62019,2.897198 -3.62019,2.985792 -3.62019,3.072778 -3.6202,3.157737 -3.62019,3.240231 -3.6202,3.319821 -3.62019,3.396065 -3.62019,3.468518 -3.6202,3.53675 -3.62019,3.60033 -3.62019,3.65886 -3.6202,3.71196 -3.62019,3.75926 -3.62019,3.80045 -3.6202,3.83523 -3.62019,3.86335 -3.62019,3.88464 -3.6202,3.89891 -3.62019,3.90608 -3.62019,3.90607 -3.6202,3.89891 -3.62019,3.88464 -3.62019,3.86336 -3.6202,3.83523 -3.62019,3.80044 -3.62019,3.75926 -3.6202,3.71196 -3.62019,3.65886 -3.62019,3.60033 -3.6202,3.53675 -3.62019,3.46852 -3.62019,3.39607 -3.6202,3.31982 -3.62019,3.24023 -3.6202,3.15773 -3.62019,3.07278 -3.62019,2.98579 -3.6202,2.8972 -3.62019,2.80741 -3.62019,2.71682 -3.6202,2.62578 -3.62019,2.53469 -3.62019,2.44382 -3.6202,2.35351 -3.62019,2.26405 -3.62019,2.17564 -3.6202,2.08858 -3.62019,2.00301 -3.62019,1.91915 -3.6202,1.83714 -3.62019,1.75712 -3.62019,1.67919 -3.6202,1.60346 -3.62019,1.52998 -3.62019,1.45883 -3.6202,1.39002 -3.62019,1.32361 -3.62019,1.25957 -3.6202,1.19792 -3.62019,1.13866 -3.62019,1.08175 -3.6202,1.02715 -3.62019,0.97484 -3.62019,0.92477 -3.6202,0.8769 -3.62019,0.83115 -3.62019,0.78748 -3.6202,0.74584 -3.62019,0.70615 -3.62019,0.66835 -3.6202,0.63237 -3.62019,0.59815 -3.62019,0.56563 -3.6202,0.53472 -3.62019,0.50539 -3.62019,0.47755 -3.6202,0.45114 -3.620191,0.42609 -3.620194,0.40237 -3.620193,0.37989 -3.620193,0.3586 -3.620194,0.33844 -3.620193,0.31937 -3.620194,0.30134 -3.620193,0.28426 z"
             clip-path="url(#p8cebd83e7f)"
             style="fill:#00bfbf;fill-opacity:0.15"
             id="path24" /></g><g
           id="matplotlib.axis_1"><g
             id="xtick_1"><g
               id="line2d_1"><defs
                 id="defs28"><path
                   id="path495"
                   d="M 0,0 V 3.5"
                   style="stroke:#000000;stroke-width:0.8" /></defs><g
                 id="g32"><use
                   xlink:href="#m739cbd8f79"
                   x="73.680893"
                   y="272.479"
                   style="stroke:#000000;stroke-width:0.8"
                   id="use30" /></g></g><g
               id="text_1"><!-- −6 --><g
                 transform="matrix(0.1,0,0,-0.1,66.309801,287.07743)"
                 id="g43"><defs
                   id="defs37"><path
                     id="path501"
                     d="M 678,2272 H 4684 V 1741 H 678 Z"
                     transform="scale(0.015625)" /><path
                     id="path503"
                     d="m 2113,2584 q -425,0 -674,-291 -248,-290 -248,-796 0,-503 248,-796 249,-292 674,-292 425,0 673,292 248,293 248,796 0,506 -248,796 -248,291 -673,291 z m 1253,1979 v -575 q -238,112 -480,171 -242,60 -480,60 -625,0 -955,-422 -329,-422 -376,-1275 184,272 462,417 279,145 613,145 703,0 1111,-427 408,-426 408,-1160 0,-719 -425,-1154 -425,-434 -1131,-434 -810,0 -1238,620 -428,621 -428,1799 0,1106 525,1764 525,658 1409,658 238,0 480,-47 242,-47 505,-140 z"
                     transform="scale(0.015625)" /></defs><use
                   xlink:href="#DejaVuSans-2212"
                   id="use39" /><use
                   xlink:href="#DejaVuSans-36"
                   x="83.789062"
                   id="use41" /></g></g></g><g
             id="xtick_2"><g
               id="line2d_2"><g
                 id="g49"><use
                   xlink:href="#m739cbd8f79"
                   x="133.41409"
                   y="272.479"
                   style="stroke:#000000;stroke-width:0.8"
                   id="use47" /></g></g><g
               id="text_2"><!-- −4 --><g
                 transform="matrix(0.1,0,0,-0.1,126.04299,287.07743)"
                 id="g59"><defs
                   id="defs53"><path
                     id="path514"
                     d="M 2419,4116 825,1625 h 1594 z m -166,550 h 794 V 1625 h 666 V 1100 H 3047 V 0 H 2419 V 1100 H 313 v 609 z"
                     transform="scale(0.015625)" /></defs><use
                   xlink:href="#DejaVuSans-2212"
                   id="use55" /><use
                   xlink:href="#DejaVuSans-34"
                   x="83.789062"
                   id="use57" /></g></g></g><g
             id="xtick_3"><g
               id="line2d_3"><g
                 id="g65"><use
                   xlink:href="#m739cbd8f79"
                   x="193.14728"
                   y="272.479"
                   style="stroke:#000000;stroke-width:0.8"
                   id="use63" /></g></g><g
               id="text_3"><!-- −2 --><g
                 transform="matrix(0.1,0,0,-0.1,185.77618,287.07743)"
                 id="g75"><defs
                   id="defs69"><path
                     id="path525"
                     d="M 1228,531 H 3431 V 0 H 469 v 531 q 359,372 979,998 621,627 780,809 303,340 423,576 121,236 121,464 0,372 -261,606 -261,235 -680,235 -297,0 -627,-103 -329,-103 -704,-313 v 638 q 381,153 712,231 332,78 607,78 725,0 1156,-363 431,-362 431,-968 0,-288 -108,-546 -107,-257 -392,-607 -78,-91 -497,-524 Q 1991,1309 1228,531 Z"
                     transform="scale(0.015625)" /></defs><use
                   xlink:href="#DejaVuSans-2212"
                   id="use71" /><use
                   xlink:href="#DejaVuSans-32"
                   x="83.789062"
                   id="use73" /></g></g></g><g
             id="xtick_4"><g
               id="line2d_4"><g
                 id="g81"><use
                   xlink:href="#m739cbd8f79"
                   x="252.88046"
                   y="272.479"
                   style="stroke:#000000;stroke-width:0.8"
                   id="use79" /></g></g><g
               id="text_4"><!-- 0 --><g
                 transform="matrix(0.1,0,0,-0.1,249.69922,287.07743)"
                 id="g89"><defs
                   id="defs85"><path
                     id="path536"
                     d="m 2034,4250 q -487,0 -733,-480 -245,-479 -245,-1442 0,-959 245,-1439 246,-480 733,-480 491,0 736,480 246,480 246,1439 0,963 -246,1442 -245,480 -736,480 z m 0,500 q 785,0 1199,-621 414,-620 414,-1801 0,-1178 -414,-1799 -414,-620 -1199,-620 -784,0 -1198,620 -414,621 -414,1799 0,1181 414,1801 414,621 1198,621 z"
                     transform="scale(0.015625)" /></defs><use
                   xlink:href="#DejaVuSans-30"
                   id="use87" /></g></g></g><g
             id="xtick_5"><g
               id="line2d_5"><g
                 id="g95"><use
                   xlink:href="#m739cbd8f79"
                   x="312.61365"
                   y="272.479"
                   style="stroke:#000000;stroke-width:0.8"
                   id="use93" /></g></g><g
               id="text_5"><!-- 2 --><g
                 transform="matrix(0.1,0,0,-0.1,309.43241,287.07743)"
                 id="g100"><use
                   xlink:href="#DejaVuSans-32"
                   id="use98" /></g></g></g><g
             id="xtick_6"><g
               id="line2d_6"><g
                 id="g106"><use
                   xlink:href="#m739cbd8f79"
                   x="372.34686"
                   y="272.479"
                   style="stroke:#000000;stroke-width:0.8"
                   id="use104" /></g></g><g
               id="text_6"><!-- 4 --><g
                 transform="matrix(0.1,0,0,-0.1,369.1656,287.07743)"
                 id="g111"><use
                   xlink:href="#DejaVuSans-34"
                   id="use109" /></g></g></g><g
             id="xtick_7"><g
               id="line2d_7"><g
                 id="g117"><use
                   xlink:href="#m739cbd8f79"
                   x="432.08005"
                   y="272.479"
                   style="stroke:#000000;stroke-width:0.8"
                   id="use115" /></g></g><g
               id="text_7"><!-- 6 --><g
                 transform="matrix(0.1,0,0,-0.1,428.89879,287.07743)"
                 id="g122"><use
                   xlink:href="#DejaVuSans-36"
                   id="use120" /></g></g></g><g
             id="text_8"><!-- x (Input) --><g
               transform="matrix(0.1,0,0,-0.1,231.48359,300.75556)"
               id="g155"><defs
                 id="defs135"><path
                   id="path564"
                   d="M 3513,3500 2247,1797 3578,0 H 2900 L 1881,1375 863,0 H 184 L 1544,1831 300,3500 h 678 l 928,-1247 928,1247 z"
                   transform="scale(0.015625)" /><path
                   id="path566"
                   transform="scale(0.015625)"
                   d="" /><path
                   id="path568"
                   d="m 1984,4856 q -418,-718 -622,-1422 -203,-703 -203,-1425 0,-721 205,-1429 205,-708 620,-1424 h -500 q -468,735 -701,1444 -233,709 -233,1409 0,697 231,1403 232,707 703,1444 z"
                   transform="scale(0.015625)" /><path
                   id="path570"
                   d="m 628,4666 h 631 V 0 H 628 Z"
                   transform="scale(0.015625)" /><path
                   id="path572"
                   d="M 3513,2113 V 0 h -575 v 2094 q 0,497 -194,743 -194,247 -581,247 -466,0 -735,-297 -269,-296 -269,-809 V 0 H 581 v 3500 h 578 v -544 q 207,316 486,472 280,156 646,156 603,0 912,-373 310,-373 310,-1098 z"
                   transform="scale(0.015625)" /><path
                   id="path574"
                   d="M 1159,525 V -1331 H 581 v 4831 h 578 v -531 q 182,312 458,463 277,152 661,152 638,0 1036,-506 399,-506 399,-1331 0,-825 -399,-1332 -398,-506 -1036,-506 -384,0 -661,152 -276,152 -458,464 z m 1957,1222 q 0,634 -261,995 -261,361 -717,361 -457,0 -718,-361 -261,-361 -261,-995 0,-634 261,-995 261,-361 718,-361 456,0 717,361 261,361 261,995 z"
                   transform="scale(0.015625)" /><path
                   id="path576"
                   d="m 544,1381 v 2119 h 575 V 1403 q 0,-497 193,-746 194,-248 582,-248 465,0 735,297 271,297 271,810 v 1984 h 575 V 0 H 2900 V 538 Q 2691,219 2414,64 2138,-91 1772,-91 1169,-91 856,284 544,659 544,1381 Z m 1447,2203 z"
                   transform="scale(0.015625)" /><path
                   id="path578"
                   d="M 1172,4494 V 3500 H 2356 V 3053 H 1172 V 1153 q 0,-428 117,-550 117,-122 477,-122 h 590 V 0 H 1766 Q 1100,0 847,248 594,497 594,1153 V 3053 H 172 v 447 h 422 v 994 z"
                   transform="scale(0.015625)" /><path
                   id="path580"
                   d="m 513,4856 h 500 q 468,-737 701,-1444 233,-706 233,-1403 0,-700 -233,-1409 -233,-709 -701,-1444 H 513 q 415,716 620,1424 205,708 205,1429 0,722 -205,1425 -205,704 -620,1422 z"
                   transform="scale(0.015625)" /></defs><use
                 xlink:href="#DejaVuSans-78"
                 id="use137" /><use
                 xlink:href="#DejaVuSans-20"
                 x="59.179688"
                 id="use139" /><use
                 xlink:href="#DejaVuSans-28"
                 x="90.966797"
                 id="use141" /><use
                 xlink:href="#DejaVuSans-49"
                 x="129.98047"
                 id="use143" /><use
                 xlink:href="#DejaVuSans-6e"
                 x="159.47266"
                 id="use145" /><use
                 xlink:href="#DejaVuSans-70"
                 x="222.85156"
                 id="use147" /><use
                 xlink:href="#DejaVuSans-75"
                 x="286.32812"
                 id="use149" /><use
                 xlink:href="#DejaVuSans-74"
                 x="349.70703"
                 id="use151" /><use
                 xlink:href="#DejaVuSans-29"
                 x="388.91602"
                 id="use153" /></g></g></g><g
           id="matplotlib.axis_2"><g
             id="ytick_1"><g
               id="line2d_8"><defs
                 id="defs160"><path
                   id="path595"
                   d="M 0,0 H -3.5"
                   style="stroke:#000000;stroke-width:0.8" /></defs><g
                 id="g164"><use
                   xlink:href="#me0889442a5"
                   x="55.760937"
                   y="324.05496"
                   style="stroke:#000000;stroke-width:0.8"
                   id="use162" /></g></g><g
               id="text_9"><!-- −0.2 --><g
                 transform="matrix(0.1,0,0,-0.1,24.478125,327.85417)"
                 id="g178"><defs
                   id="defs168"><path
                     id="path601"
                     d="m 684,794 h 660 V 0 H 684 Z"
                     transform="scale(0.015625)" /></defs><use
                   xlink:href="#DejaVuSans-2212"
                   id="use170" /><use
                   xlink:href="#DejaVuSans-30"
                   x="83.789062"
                   id="use172" /><use
                   xlink:href="#DejaVuSans-2e"
                   x="147.41211"
                   id="use174" /><use
                   xlink:href="#DejaVuSans-32"
                   x="179.19922"
                   id="use176" /></g></g></g><g
             id="ytick_2"><g
               id="line2d_9"><g
                 id="g184"><use
                   xlink:href="#me0889442a5"
                   x="55.760937"
                   y="272.479"
                   style="stroke:#000000;stroke-width:0.8"
                   id="use182" /></g></g><g
               id="text_10"><!-- 0.0 --><g
                 transform="matrix(0.1,0,0,-0.1,32.857813,276.27821)"
                 id="g193"><use
                   xlink:href="#DejaVuSans-30"
                   id="use187" /><use
                   xlink:href="#DejaVuSans-2e"
                   x="63.623047"
                   id="use189" /><use
                   xlink:href="#DejaVuSans-30"
                   x="95.410156"
                   id="use191" /></g></g></g><g
             id="ytick_3"><g
               id="line2d_10"><g
                 id="g199"><use
                   xlink:href="#me0889442a5"
                   x="55.760937"
                   y="220.90305"
                   style="stroke:#000000;stroke-width:0.8"
                   id="use197" /></g></g><g
               id="text_11"><!-- 0.2 --><g
                 transform="matrix(0.1,0,0,-0.1,32.857813,224.70226)"
                 id="g208"><use
                   xlink:href="#DejaVuSans-30"
                   id="use202" /><use
                   xlink:href="#DejaVuSans-2e"
                   x="63.623047"
                   id="use204" /><use
                   xlink:href="#DejaVuSans-32"
                   x="95.410156"
                   id="use206" /></g></g></g><g
             id="ytick_4"><g
               id="line2d_11"><g
                 id="g214"><use
                   xlink:href="#me0889442a5"
                   x="55.760937"
                   y="169.32709"
                   style="stroke:#000000;stroke-width:0.8"
                   id="use212" /></g></g><g
               id="text_12"><!-- 0.4 --><g
                 transform="matrix(0.1,0,0,-0.1,32.857813,173.1263)"
                 id="g223"><use
                   xlink:href="#DejaVuSans-30"
                   id="use217" /><use
                   xlink:href="#DejaVuSans-2e"
                   x="63.623047"
                   id="use219" /><use
                   xlink:href="#DejaVuSans-34"
                   x="95.410156"
                   id="use221" /></g></g></g><g
             id="ytick_5"><g
               id="line2d_12"><g
                 id="g229"><use
                   xlink:href="#me0889442a5"
                   x="55.760937"
                   y="117.75113"
                   style="stroke:#000000;stroke-width:0.8"
                   id="use227" /></g></g><g
               id="text_13"><!-- 0.6 --><g
                 transform="matrix(0.1,0,0,-0.1,32.857813,121.55035)"
                 id="g238"><use
                   xlink:href="#DejaVuSans-30"
                   id="use232" /><use
                   xlink:href="#DejaVuSans-2e"
                   x="63.623047"
                   id="use234" /><use
                   xlink:href="#DejaVuSans-36"
                   x="95.410156"
                   id="use236" /></g></g></g><g
             id="ytick_6"><g
               id="line2d_13"><g
                 id="g244"><use
                   xlink:href="#me0889442a5"
                   x="55.760937"
                   y="66.175171"
                   style="stroke:#000000;stroke-width:0.8"
                   id="use242" /></g></g><g
               id="text_14"><!-- 0.8 --><g
                 transform="matrix(0.1,0,0,-0.1,32.857813,69.974393)"
                 id="g256"><defs
                   id="defs248"><path
                     id="path650"
                     d="m 2034,2216 q -450,0 -708,-241 -257,-241 -257,-662 0,-422 257,-663 258,-241 708,-241 450,0 709,242 260,243 260,662 0,421 -258,662 -257,241 -711,241 z m -631,268 q -406,100 -633,378 -226,279 -226,679 0,559 398,884 399,325 1092,325 697,0 1094,-325 397,-325 397,-884 0,-400 -227,-679 -226,-278 -629,-378 456,-106 710,-416 255,-309 255,-755 Q 3634,634 3220,271 2806,-91 2034,-91 1263,-91 848,271 434,634 434,1313 q 0,446 256,755 257,310 713,416 z m -231,997 q 0,-362 226,-565 227,-203 636,-203 407,0 636,203 230,203 230,565 0,363 -230,566 -229,203 -636,203 -409,0 -636,-203 -226,-203 -226,-566 z"
                     transform="scale(0.015625)" /></defs><use
                   xlink:href="#DejaVuSans-30"
                   id="use250" /><use
                   xlink:href="#DejaVuSans-2e"
                   x="63.623047"
                   id="use252" /><use
                   xlink:href="#DejaVuSans-38"
                   x="95.410156"
                   id="use254" /></g></g></g><g
             id="ytick_7"><g
               id="line2d_14"><g
                 id="g262"><use
                   xlink:href="#me0889442a5"
                   x="55.760937"
                   y="14.599219"
                   style="stroke:#000000;stroke-width:0.8"
                   id="use260" /></g></g><g
               id="text_15"><!-- 1.0 --><g
                 transform="matrix(0.1,0,0,-0.1,32.857813,18.398438)"
                 id="g274"><defs
                   id="defs266"><path
                     id="path662"
                     d="M 794,531 H 1825 V 4091 L 703,3866 v 575 l 1116,225 h 631 V 531 H 3481 V 0 H 794 Z"
                     transform="scale(0.015625)" /></defs><use
                   xlink:href="#DejaVuSans-31"
                   id="use268" /><use
                   xlink:href="#DejaVuSans-2e"
                   x="63.623047"
                   id="use270" /><use
                   xlink:href="#DejaVuSans-30"
                   x="95.410156"
                   id="use272" /></g></g></g><g
             id="text_16"><!-- f(x) (Activation) --><g
               transform="matrix(0,-0.1,-0.1,0,18.398438,208.47083)"
               id="g321"><defs
                 id="defs285"><path
                   id="path671"
                   d="m 2375,4863 v -479 h -550 q -309,0 -430,-125 -120,-125 -120,-450 v -309 h 947 V 3053 H 1275 V 0 H 697 V 3053 H 147 v 447 h 550 v 244 q 0,584 272,851 272,268 862,268 z"
                   transform="scale(0.015625)" /><path
                   id="path673"
                   d="M 2188,4044 1331,1722 h 1716 z m -357,622 h 716 L 4325,0 H 3669 L 3244,1197 H 1141 L 716,0 H 50 Z"
                   transform="scale(0.015625)" /><path
                   id="path675"
                   d="m 3122,3366 v -538 q -244,135 -489,202 -245,67 -495,67 -560,0 -870,-355 -309,-354 -309,-995 0,-641 309,-996 310,-354 870,-354 250,0 495,67 245,67 489,202 V 134 Q 2881,22 2623,-34 2366,-91 2075,-91 1284,-91 818,406 353,903 353,1747 q 0,856 470,1346 471,491 1290,491 265,0 518,-55 253,-54 491,-163 z"
                   transform="scale(0.015625)" /><path
                   id="path677"
                   d="m 603,3500 h 575 V 0 H 603 Z m 0,1363 h 575 V 4134 H 603 Z"
                   transform="scale(0.015625)" /><path
                   id="path679"
                   d="M 191,3500 H 800 L 1894,563 2988,3500 h 609 L 2284,0 h -781 z"
                   transform="scale(0.015625)" /><path
                   id="path681"
                   d="m 2194,1759 q -697,0 -966,-159 -269,-159 -269,-544 0,-306 202,-486 202,-179 548,-179 479,0 768,339 289,339 289,901 v 128 z m 1147,238 V 0 H 2766 V 531 Q 2569,213 2275,61 1981,-91 1556,-91 q -537,0 -855,302 -317,302 -317,808 0,590 395,890 396,300 1180,300 h 807 v 57 q 0,397 -261,614 -261,217 -733,217 -300,0 -585,-72 -284,-72 -546,-216 v 532 q 315,122 612,182 297,61 578,61 760,0 1135,-394 375,-393 375,-1193 z"
                   transform="scale(0.015625)" /><path
                   id="path683"
                   d="m 1959,3097 q -462,0 -731,-361 -269,-361 -269,-989 0,-628 267,-989 268,-361 733,-361 460,0 728,362 269,363 269,988 0,622 -269,986 -268,364 -728,364 z m 0,487 q 750,0 1178,-488 429,-487 429,-1349 Q 3566,888 3137,398 2709,-91 1959,-91 1206,-91 779,398 353,888 353,1747 q 0,862 426,1349 427,488 1180,488 z"
                   transform="scale(0.015625)" /></defs><use
                 xlink:href="#DejaVuSans-66"
                 id="use287" /><use
                 xlink:href="#DejaVuSans-28"
                 x="35.205078"
                 id="use289" /><use
                 xlink:href="#DejaVuSans-78"
                 x="74.21875"
                 id="use291" /><use
                 xlink:href="#DejaVuSans-29"
                 x="133.39844"
                 id="use293" /><use
                 xlink:href="#DejaVuSans-20"
                 x="172.41211"
                 id="use295" /><use
                 xlink:href="#DejaVuSans-28"
                 x="204.19922"
                 id="use297" /><use
                 xlink:href="#DejaVuSans-41"
                 x="243.21289"
                 id="use299" /><use
                 xlink:href="#DejaVuSans-63"
                 x="309.87109"
                 id="use301" /><use
                 xlink:href="#DejaVuSans-74"
                 x="364.85156"
                 id="use303" /><use
                 xlink:href="#DejaVuSans-69"
                 x="404.06055"
                 id="use305" /><use
                 xlink:href="#DejaVuSans-76"
                 x="431.84375"
                 id="use307" /><use
                 xlink:href="#DejaVuSans-61"
                 x="491.02344"
                 id="use309" /><use
                 xlink:href="#DejaVuSans-74"
                 x="552.30273"
                 id="use311" /><use
                 xlink:href="#DejaVuSans-69"
                 x="591.51172"
                 id="use313" /><use
                 xlink:href="#DejaVuSans-6f"
                 x="619.29492"
                 id="use315" /><use
                 xlink:href="#DejaVuSans-6e"
                 x="680.47656"
                 id="use317" /><use
                 xlink:href="#DejaVuSans-29"
                 x="743.85547"
                 id="use319" /></g></g></g><g
           id="line2d_15"><path
             d="m 73.680895,271.70061 3.620193,-0.079 3.620194,-0.087 3.620193,-0.0958 3.620194,-0.10544 3.620193,-0.11609 3.620193,-0.12778 3.620194,-0.14064 3.620191,-0.15479 3.6202,-0.17033 3.62019,-0.18741 3.62019,-0.20619 3.6202,-0.22679 3.62019,-0.24942 3.62019,-0.27425 3.6202,-0.3015 3.62019,-0.33137 3.62019,-0.36412 3.6202,-0.39999 3.62019,-0.43926 3.62019,-0.48224 3.6202,-0.52921 3.62019,-0.58054 3.62019,-0.63657 3.6202,-0.69766 3.62019,-0.76422 3.62019,-0.83666 3.6202,-0.91536 3.62019,-1.00081 3.62019,-1.09338 3.6202,-1.19355 3.62019,-1.30171 3.62019,-1.4183 3.6202,-1.54368 3.62019,-1.67817 3.62019,-1.8221 3.6202,-1.97566 3.62019,-2.13896 3.62019,-2.31205 3.6202,-2.49479 3.62019,-2.68694 3.62019,-2.88803 3.6202,-3.09743 3.62019,-3.3143 3.62019,-3.5375 3.6202,-3.76571 3.62019,-3.99731 3.62019,-4.2304 3.6202,-4.46287 3.62019,-4.69234 3.62019,-4.91624 3.6202,-5.13181 3.62019,-5.3362 3.6202,-5.52654 3.62019,-5.69992 3.62019,-5.85361 3.6202,-5.98507 3.62019,-6.092 3.62019,-6.17253 3.6202,-6.22518 3.62019,-6.24897 3.62019,-6.24347 3.6202,-6.20878 3.62019,-6.14553 3.62019,-6.0549 3.6202,-5.93853 3.62019,-5.79846 3.62019,-5.63706 3.6202,-5.456994 3.62019,-5.26105 3.62019,-5.052123 3.6202,-4.833099 3.62019,-4.606801 3.62019,-4.375915 3.6202,-4.142944 3.62019,-3.910174 3.62019,-3.679645 3.6202,-3.453137 3.62019,-3.232164 3.62019,-3.017985 3.6202,-2.811607 3.62019,-2.613805 3.6202,-2.425146 3.62019,-2.246 3.62019,-2.076574 3.62019,-1.916932 3.6202,-1.767009 3.62019,-1.626649 3.6202,-1.495605 3.62019,-1.373569 3.62019,-1.260189 3.62019,-1.155071 3.6202,-1.0578 3.62019,-0.96795 3.6202,-0.885087 3.62019,-0.808778 3.62019,-0.738597 3.6202,-0.674133 3.62019,-0.614981 3.62019,-0.560761"
             clip-path="url(#p8cebd83e7f)"
             style="fill:none;stroke:#bf00bf;stroke-width:1.5;stroke-linecap:square;stroke-opacity:0.3"
             id="path325" /></g><g
           id="line2d_16"><path
             d="m 73.680895,257.69625 3.620193,-0.51497 3.620194,-0.53175 3.620193,-0.54898 3.620194,-0.56668 3.620193,-0.58487 3.620193,-0.60354 3.620194,-0.62269 3.620191,-0.64235 3.6202,-0.6625 3.62019,-0.68316 3.62019,-0.70432 3.6202,-0.726 3.62019,-0.7482 3.62019,-0.7709 3.6202,-0.79412 3.62019,-0.81786 3.62019,-0.84212 3.6202,-0.86689 3.62019,-0.89217 3.62019,-0.91795 3.6202,-0.94424 3.62019,-0.97102 3.62019,-0.99828 3.6202,-1.02603 3.62019,-1.05424 3.62019,-1.0829 3.6202,-1.112 3.62019,-1.14153 3.62019,-1.17146 3.6202,-1.20178 3.62019,-1.23247 3.62019,-1.2635 3.6202,-1.29485 3.62019,-1.32649 3.62019,-1.35841 3.6202,-1.39055 3.62019,-1.4229 3.62019,-1.45542 3.6202,-1.48806 3.62019,-1.5208 3.62019,-1.55361 3.6202,-1.5864 3.62019,-1.61919 3.62019,-1.65188 3.6202,-1.68446 3.62019,-1.71686 3.62019,-1.74904 3.6202,-1.78093 3.62019,-1.81251 3.62019,-1.8437 3.6202,-1.87445 3.62019,-1.90471 3.6202,-1.93442 3.62019,-1.96351 3.62019,-1.99195 3.6202,-2.01965 3.62019,-2.04659 3.62019,-2.07268 3.6202,-2.09787 3.62019,-2.12212 3.62019,-2.14537 3.6202,-2.16756 3.62019,-2.18863 3.62019,-2.20856 3.6202,-2.22726 3.62019,-2.24473 3.62019,-2.2609 3.6202,-2.27573 3.62019,-2.28919 3.62019,-2.30124 3.6202,-2.31186 3.62019,-2.32101 3.62019,-2.32868 3.6202,-2.33483 3.62019,-2.33946 3.62019,-2.34255 3.6202,-2.3441 3.62019,-2.34411 3.62019,-2.34255 3.6202,-2.33946 3.62019,-2.33483 3.6202,-2.32868 3.62019,-2.32101 3.62019,-2.31186 3.62019,-2.30124 3.6202,-2.28919 3.62019,-2.27573 3.6202,-2.26089 3.62019,-2.24473 3.62019,-2.22727 3.62019,-2.20856 3.6202,-2.18863 3.62019,-2.16755 3.6202,-2.14537 3.62019,-2.12213 3.62019,-2.09787 3.6202,-2.072678 3.62019,-2.046586 3.62019,-2.019656"
             clip-path="url(#p8cebd83e7f)"
             style="fill:none;stroke:#00bfbf;stroke-width:1.5;stroke-linecap:square;stroke-opacity:0.3"
             id="path328" /></g><g
           id="patch_3"><path
             d="M 55.760938,324.05495 V 14.599219"
             style="fill:none;stroke:#000000;stroke-width:0.8;stroke-linecap:square;stroke-linejoin:miter"
             id="path331" /></g><g
           id="patch_4"
           transform="matrix(0.46657873,0,0,0.46657873,317.15526,189.60335)"><path
             d="M 450,324.05495 V 14.599219"
             style="fill:none"
             id="path334" /></g><g
           id="patch_5"><path
             d="M 55.760938,272.47899 H 450"
             style="fill:none;stroke:#000000;stroke-width:0.8;stroke-linecap:square;stroke-linejoin:miter"
             id="path337" /></g><g
           id="patch_6"><path
             d="M 55.760938,14.599219 H 450"
             style="fill:none"
             id="path340" /></g><g
           id="text_17"
           transform="matrix(1.2795615,0,0,1.2795615,-89.78492,-255.2726)"><!-- $f(z) =  \dfrac{1}{1 + e^{-gz}}$ --><g
             style="opacity:0.75"
             transform="matrix(0.1,0,0,-0.1,218.03047,40.387196)"
             id="g377"><defs
               id="defs349"><path
                 id="path718"
                 d="m 3059,4863 -90,-479 h -550 q -313,0 -455,-123 -142,-123 -211,-452 l -62,-309 h 947 l -85,-447 H 1606 L 1013,0 H 434 l 597,3053 H 481 l 82,447 h 550 l 46,244 q 119,619 417,869 299,250 940,250 z"
                 transform="scale(0.015625)" /><path
                 id="path720"
                 d="M 744,3500 H 3475 L 3372,2975 738,459 H 2913 L 2822,0 H -19 L 84,525 2719,3041 H 653 Z"
                 transform="scale(0.015625)" /><path
                 id="path722"
                 d="M 678,2906 H 4684 V 2381 H 678 Z m 0,-1275 H 4684 V 1100 H 678 Z"
                 transform="scale(0.015625)" /><path
                 id="path724"
                 d="M 2944,4013 V 2272 H 4684 V 1741 H 2944 V 0 H 2419 V 1741 H 678 v 531 h 1741 v 1741 z"
                 transform="scale(0.015625)" /><path
                 id="path726"
                 d="m 3078,2063 q 10,50 14,103 5,53 5,106 0,381 -224,603 -223,222 -607,222 -428,0 -757,-271 -328,-270 -496,-767 z m 500,-450 H 903 q -19,-119 -25,-188 -6,-69 -6,-119 0,-434 267,-672 267,-237 755,-237 375,0 709,84 335,85 622,247 L 3116,159 Q 2806,34 2476,-28 2147,-91 1806,-91 1078,-91 686,257 294,606 294,1247 q 0,547 195,1017 195,470 574,839 243,231 579,356 336,125 714,125 594,0 945,-356 352,-356 352,-956 0,-144 -19,-308 -18,-164 -56,-351 z"
                 transform="scale(0.015625)" /><path
                 id="path728"
                 d="M 3816,3500 3219,434 q -172,-890 -658,-1327 -486,-438 -1308,-438 -303,0 -563,45 -259,45 -484,139 l 107,559 q 212,-137 449,-202 238,-66 507,-66 547,0 898,299 352,298 464,857 l 50,263 Q 2441,288 2122,144 1803,0 1434,0 903,0 598,351 294,703 294,1319 q 0,484 184,948 185,464 519,824 222,237 517,365 295,128 617,128 353,0 615,-164 263,-164 392,-464 l 100,544 z M 2950,2216 q 0,425 -200,656 -200,231 -569,231 -228,0 -434,-91 -206,-90 -353,-253 -238,-268 -371,-632 -132,-364 -132,-752 0,-431 201,-663 202,-231 580,-231 547,0 912,495 366,496 366,1240 z"
                 transform="scale(0.015625)" /></defs><use
               xlink:href="#DejaVuSans-Oblique-66"
               transform="translate(0,0.296875)"
               id="use351" /><use
               xlink:href="#DejaVuSans-28"
               transform="translate(35.205078,0.296875)"
               id="use353" /><use
               xlink:href="#DejaVuSans-Oblique-7a"
               transform="translate(74.21875,0.296875)"
               id="use355" /><use
               xlink:href="#DejaVuSans-29"
               transform="translate(126.70898,0.296875)"
               id="use357" /><use
               xlink:href="#DejaVuSans-3d"
               transform="translate(185.20508,0.296875)"
               id="use359" /><use
               xlink:href="#DejaVuSans-31"
               transform="translate(454.47656,44.09375)"
               id="use361" /><use
               xlink:href="#DejaVuSans-31"
               transform="translate(288.47656,-64.6375)"
               id="use363" /><use
               xlink:href="#DejaVuSans-2b"
               transform="translate(371.58203,-64.6375)"
               id="use365" /><use
               xlink:href="#DejaVuSans-Oblique-65"
               transform="translate(474.85352,-64.6375)"
               id="use367" /><use
               xlink:href="#DejaVuSans-2212"
               transform="matrix(0.7,0,0,0.7,541.02685,-26.35625)"
               id="use369" /><use
               xlink:href="#DejaVuSans-Oblique-67"
               transform="matrix(0.7,0,0,0.7,599.67919,-26.35625)"
               id="use371" /><use
               xlink:href="#DejaVuSans-Oblique-7a"
               transform="matrix(0.7,0,0,0.7,644.11279,-26.35625)"
               id="use373" /><path
               d="m 288.47656,19.09375 v 6.25 h 395.11377 v -6.25 z"
               id="path375" /></g></g><g
           id="text_18"><!-- g --><g
             style="opacity:0.75"
             transform="matrix(0.1,0,0,-0.1,363.19931,81.828538)"
             id="g385"><defs
               id="defs381"><path
                 id="path746"
                 d="m 2906,1791 q 0,625 -258,968 -257,344 -723,344 -462,0 -720,-344 -258,-343 -258,-968 0,-622 258,-966 258,-344 720,-344 466,0 723,344 258,344 258,966 z M 3481,434 q 0,-893 -397,-1329 -396,-436 -1215,-436 -303,0 -572,45 -269,45 -522,139 v 559 q 253,-137 500,-202 247,-66 503,-66 566,0 847,295 281,295 281,892 V 616 Q 2728,306 2450,153 2172,0 1784,0 1141,0 747,490 353,981 353,1791 q 0,812 394,1302 394,491 1037,491 388,0 666,-153 278,-153 456,-462 v 531 h 575 z"
                 transform="scale(0.015625)" /></defs><use
               xlink:href="#DejaVuSans-67"
               id="use383" /></g></g><g
           id="patch_7"><path
             d="m 372.34685,77.067069 q 0,-8.315875 0,-15.513717"
             style="fill:none;stroke:#000000;stroke-linecap:round"
             id="path388" /><path
             d="m 370.34685,65.553352 2,-4 2,4"
             style="fill:none;stroke:#000000;stroke-linecap:round"
             id="path390" /></g><g
           id="patch_8"><path
             d="m 372.34685,81.071257 q 0,8.315875 0,15.513716"
             style="fill:none;stroke:#000000;stroke-linecap:round"
             id="path393" /><path
             d="m 374.34685,92.584973 -2,4 -2,-4"
             style="fill:none;stroke:#000000;stroke-linecap:round"
             id="path395" /></g><g
           id="legend_1"><g
             id="patch_9"><path
               d="M 379.93906,330.46563 H 443 q 2,0 2,-2 v -28.35625 q 0,-2 -2,-2 h -63.06094 q -2,0 -2,2 v 28.35625 q 0,2 2,2 z"
               style="opacity:0.8;fill:#ffffff;stroke:#cccccc;stroke-linejoin:miter"
               id="path398" /></g><g
             id="line2d_17"><path
               d="m 381.93906,306.20781 h 10 10"
               style="fill:none;stroke:#bf00bf;stroke-width:1.5;stroke-linecap:square;stroke-opacity:0.3"
               id="path401" /></g><g
             id="text_19"><!-- young --><g
               transform="matrix(0.1,0,0,-0.1,409.93906,309.70781)"
               id="g417"><defs
                 id="defs405"><path
                   id="path762"
                   d="m 2059,-325 q -243,-625 -475,-815 -231,-191 -618,-191 H 506 v 481 h 338 q 237,0 368,113 132,112 291,531 L 1606,56 191,3500 H 800 L 1894,763 2988,3500 h 609 z"
                   transform="scale(0.015625)" /></defs><use
                 xlink:href="#DejaVuSans-79"
                 id="use407" /><use
                 xlink:href="#DejaVuSans-6f"
                 x="59.179688"
                 id="use409" /><use
                 xlink:href="#DejaVuSans-75"
                 x="120.36133"
                 id="use411" /><use
                 xlink:href="#DejaVuSans-6e"
                 x="183.74023"
                 id="use413" /><use
                 xlink:href="#DejaVuSans-67"
                 x="247.11914"
                 id="use415" /></g></g><g
             id="line2d_18"><path
               d="m 381.93906,320.88594 h 10 10"
               style="fill:none;stroke:#00bfbf;stroke-width:1.5;stroke-linecap:square;stroke-opacity:0.3"
               id="path420" /></g><g
             id="text_20"><!-- old --><g
               transform="matrix(0.1,0,0,-0.1,409.93906,324.38594)"
               id="g433"><defs
                 id="defs425"><path
                   id="path774"
                   d="m 603,4863 h 575 V 0 H 603 Z"
                   transform="scale(0.015625)" /><path
                   id="path776"
                   d="m 2906,2969 v 1894 h 575 V 0 H 2906 V 525 Q 2725,213 2448,61 2172,-91 1784,-91 1150,-91 751,415 353,922 353,1747 q 0,825 398,1331 399,506 1033,506 388,0 664,-152 277,-151 458,-463 z M 947,1747 q 0,-634 261,-995 261,-361 717,-361 456,0 718,361 263,361 263,995 0,634 -263,995 -262,361 -718,361 -456,0 -717,-361 -261,-361 -261,-995 z"
                   transform="scale(0.015625)" /></defs><use
                 xlink:href="#DejaVuSans-6f"
                 id="use427" /><use
                 xlink:href="#DejaVuSans-6c"
                 x="61.181641"
                 id="use429" /><use
                 xlink:href="#DejaVuSans-64"
                 x="88.964844"
                 id="use431" /></g></g></g><g
           id="g1066"
           transform="matrix(0.46776259,0,0,0.47147588,135.47743,-462.00018)"><path
             class="link"
             style="stroke:#000000;stroke-width:1.52154px;stroke-opacity:1"
             d="m 1229.3756,394.12224 185.2685,116.43319"
             id="path945" /><path
             class="link"
             style="stroke:#000000;stroke-width:1.52154px;stroke-opacity:1"
             d="m 1229.3756,394.12224 185.2685,194.05532"
             id="path947" /><path
             class="link"
             style="stroke:#000000;stroke-width:1.52154px;stroke-opacity:1"
             d="m 1229.3756,394.12224 185.2685,271.67745"
             id="path949" /><path
             class="link"
             style="stroke:#000000;stroke-width:1.52154px;stroke-opacity:1"
             d="m 1229.3756,394.12224 185.2685,349.29957"
             id="path951" /><path
             class="link"
             style="stroke:#000000;stroke-width:1.52154px;stroke-opacity:1"
             d="m 1229.3756,394.12224 185.2685,426.9217"
             id="path953" /><path
             class="link"
             style="stroke:#000000;stroke-width:1.52154px;stroke-opacity:1"
             d="m 1229.3756,471.74436 185.2685,38.81107"
             id="path955" /><path
             class="link"
             style="stroke:#000000;stroke-width:1.52154px;stroke-opacity:1"
             d="m 1229.3756,471.74436 185.2685,116.4332"
             id="path957" /><path
             class="link"
             style="stroke:#000000;stroke-width:1.52154px;stroke-opacity:1"
             d="m 1229.3756,471.74436 185.2685,194.05533"
             id="path959" /><path
             class="link"
             style="stroke:#000000;stroke-width:1.52154px;stroke-opacity:1"
             d="m 1229.3756,471.74436 185.2685,271.67745"
             id="path961" /><path
             class="link"
             style="stroke:#000000;stroke-width:1.52154px;stroke-opacity:1"
             d="m 1229.3756,471.74436 185.2685,349.29958"
             id="path963" /><path
             class="link"
             style="stroke:#000000;stroke-width:1.52154px;stroke-opacity:1"
             d="m 1229.3756,549.36649 185.2685,-38.81106"
             id="path965" /><path
             class="link"
             style="stroke:#000000;stroke-width:1.52154px;stroke-opacity:1"
             d="m 1229.3756,549.36649 185.2685,38.81107"
             id="path967" /><path
             class="link"
             style="stroke:#000000;stroke-width:1.52154px;stroke-opacity:1"
             d="m 1229.3756,549.36649 185.2685,116.4332"
             id="path969" /><path
             class="link"
             style="stroke:#000000;stroke-width:1.52154px;stroke-opacity:1"
             d="m 1229.3756,549.36649 185.2685,194.05532"
             id="path971" /><path
             class="link"
             style="stroke:#000000;stroke-width:1.52154px;stroke-opacity:1"
             d="m 1229.3756,549.36649 185.2685,271.67745"
             id="path973" /><path
             class="link"
             style="stroke:#000000;stroke-width:1.52154px;stroke-opacity:1"
             d="M 1229.3756,626.98861 1414.6441,510.55543"
             id="path975" /><path
             class="link"
             style="stroke:#000000;stroke-width:1.52154px;stroke-opacity:1"
             d="m 1229.3756,626.98861 185.2685,-38.81105"
             id="path977" /><path
             class="link"
             style="stroke:#000000;stroke-width:1.52154px;stroke-opacity:1"
             d="m 1229.3756,626.98861 185.2685,38.81108"
             id="path979" /><path
             class="link"
             style="stroke:#000000;stroke-width:1.52154px;stroke-opacity:1"
             d="m 1229.3756,626.98861 185.2685,116.4332"
             id="path981" /><path
             class="link"
             style="stroke:#000000;stroke-width:1.52154px;stroke-opacity:1"
             d="m 1229.3756,626.98861 185.2685,194.05533"
             id="path983" /><path
             class="link"
             style="stroke:#000000;stroke-width:1.52154px;stroke-opacity:1"
             d="M 1229.3756,704.61075 1414.6441,510.55543"
             id="path985" /><path
             class="link"
             style="stroke:#000000;stroke-width:1.52154px;stroke-opacity:1"
             d="M 1229.3756,704.61075 1414.6441,588.17756"
             id="path987" /><path
             class="link"
             style="stroke:#000000;stroke-width:1.52154px;stroke-opacity:1"
             d="m 1229.3756,704.61075 185.2685,-38.81106"
             id="path989" /><path
             class="link"
             style="stroke:#000000;stroke-width:1.52154px;stroke-opacity:1"
             d="m 1229.3756,704.61075 185.2685,38.81106"
             id="path991" /><path
             class="link"
             style="stroke:#000000;stroke-width:1.52154px;stroke-opacity:1"
             d="m 1229.3756,704.61075 185.2685,116.43319"
             id="path993" /><path
             class="link"
             style="stroke:#000000;stroke-width:1.52154px;stroke-opacity:1"
             d="M 1229.3756,782.23287 1414.6441,510.55543"
             id="path995" /><path
             class="link"
             style="stroke:#000000;stroke-width:1.52154px;stroke-opacity:1"
             d="M 1229.3756,782.23287 1414.6441,588.17756"
             id="path997" /><path
             class="link"
             style="stroke:#000000;stroke-width:1.52154px;stroke-opacity:1"
             d="M 1229.3756,782.23287 1414.6441,665.79969"
             id="path999" /><path
             class="link"
             style="stroke:#000000;stroke-width:1.52154px;stroke-opacity:1"
             d="m 1229.3756,782.23287 185.2685,-38.81106"
             id="path1001" /><path
             class="link"
             style="stroke:#000000;stroke-width:1.52154px;stroke-opacity:1"
             d="m 1229.3756,782.23287 185.2685,38.81107"
             id="path1003" /><path
             class="link"
             style="stroke:#000000;stroke-width:1.52154px;stroke-opacity:1"
             d="m 1414.6441,510.55543 185.2685,116.43318"
             id="path1005" /><path
             class="link"
             style="stroke:#000000;stroke-width:1.52154px;stroke-opacity:1"
             d="m 1414.6441,510.55543 185.2685,194.05532"
             id="path1007" /><path
             class="link"
             style="stroke:#000000;stroke-width:1.52154px;stroke-opacity:1"
             d="m 1414.6441,588.17756 185.2685,38.81105"
             id="path1009" /><path
             class="link"
             style="stroke:#000000;stroke-width:1.52154px;stroke-opacity:1"
             d="m 1414.6441,588.17756 185.2685,116.43319"
             id="path1011" /><path
             class="link"
             style="stroke:#000000;stroke-width:1.52154px;stroke-opacity:1"
             d="m 1414.6441,665.79969 185.2685,-38.81108"
             id="path1013" /><path
             class="link"
             style="stroke:#000000;stroke-width:1.52154px;stroke-opacity:1"
             d="m 1414.6441,665.79969 185.2685,38.81106"
             id="path1015" /><path
             class="link"
             style="stroke:#000000;stroke-width:1.52154px;stroke-opacity:1"
             d="m 1414.6441,743.42181 185.2685,-116.4332"
             id="path1017" /><path
             class="link"
             style="stroke:#000000;stroke-width:1.52154px;stroke-opacity:1"
             d="m 1414.6441,743.42181 185.2685,-38.81106"
             id="path1019" /><path
             class="link"
             style="stroke:#000000;stroke-width:1.52154px;stroke-opacity:1"
             d="M 1414.6441,821.04394 1599.9126,626.98861"
             id="path1021" /><path
             class="link"
             style="stroke:#000000;stroke-width:1.52154px;stroke-opacity:1"
             d="M 1414.6441,821.04394 1599.9126,704.61075"
             id="path1023" /><path
             class="link"
             style="stroke:#000000;stroke-width:1.52154px;stroke-opacity:1"
             d="M 1229.3756,859.855 1414.6441,510.55543"
             id="path1025" /><path
             class="link"
             style="stroke:#000000;stroke-width:1.52154px;stroke-opacity:1"
             d="M 1229.3756,859.855 1414.6441,588.17756"
             id="path1027" /><path
             class="link"
             style="stroke:#000000;stroke-width:1.52154px;stroke-opacity:1"
             d="M 1229.3756,859.855 1414.6441,665.79969"
             id="path1029" /><path
             class="link"
             style="stroke:#000000;stroke-width:1.52154px;stroke-opacity:1"
             d="M 1229.3756,859.855 1414.6441,743.42181"
             id="path1031" /><path
             class="link"
             style="stroke:#000000;stroke-width:1.52154px;stroke-opacity:1"
             d="m 1229.3756,859.855 185.2685,-38.81106"
             id="path1033" /><path
             class="link"
             style="stroke:#000000;stroke-width:1.52154px;stroke-opacity:1"
             d="M 1229.3756,937.47712 1414.6441,510.55543"
             id="path1035" /><path
             class="link"
             style="stroke:#000000;stroke-width:1.52154px;stroke-opacity:1"
             d="M 1229.3756,937.47712 1414.6441,588.17756"
             id="path1037" /><path
             class="link"
             style="stroke:#000000;stroke-width:1.52154px;stroke-opacity:1"
             d="M 1229.3756,937.47712 1414.6441,665.79969"
             id="path1039" /><path
             class="link"
             style="stroke:#000000;stroke-width:1.52154px;stroke-opacity:1"
             d="M 1229.3756,937.47712 1414.6441,743.42181"
             id="path1041" /><path
             class="link"
             style="stroke:#000000;stroke-width:1.52154px;stroke-opacity:1"
             d="M 1229.3756,937.47712 1414.6441,821.04394"
             id="path1043" /><ellipse
             class="node"
             id="0_0"
             style="fill:#ffffff;stroke:#333333;stroke-width:1.42199"
             cx="1229.3757"
             cy="394.12225"
             rx="26.25853"
             ry="24.94997" /><ellipse
             class="node"
             id="0_1"
             style="fill:#ffffff;stroke:#333333;stroke-width:1.42199"
             cx="1229.3757"
             cy="471.74435"
             rx="26.25853"
             ry="24.94997" /><ellipse
             class="node"
             id="0_2"
             style="fill:#ffffff;stroke:#333333;stroke-width:1.42199"
             cx="1229.3757"
             cy="549.36652"
             rx="26.25853"
             ry="24.94997" /><ellipse
             class="node"
             id="0_3"
             style="fill:#ffffff;stroke:#333333;stroke-width:1.42199"
             cx="1229.3757"
             cy="626.98865"
             rx="26.25853"
             ry="24.94997" /><ellipse
             class="node"
             id="0_4"
             style="fill:#ffffff;stroke:#333333;stroke-width:1.42199"
             cx="1229.3757"
             cy="704.61078"
             rx="26.25853"
             ry="24.94997" /><ellipse
             class="node"
             id="0_5"
             style="fill:#ffffff;stroke:#333333;stroke-width:1.42199"
             cx="1229.3757"
             cy="782.23285"
             rx="26.25853"
             ry="24.94997" /><ellipse
             class="node"
             id="0_6"
             style="fill:#ffffff;stroke:#333333;stroke-width:1.42199"
             cx="1229.3757"
             cy="859.85504"
             rx="26.25853"
             ry="24.94997" /><ellipse
             class="node"
             id="0_7"
             style="fill:#ffffff;stroke:#333333;stroke-width:1.42199"
             cx="1229.3757"
             cy="937.47711"
             rx="26.25853"
             ry="24.94997" /><ellipse
             class="node"
             id="1_0"
             style="fill:#ffffff;stroke:#333333;stroke-width:1.42199"
             cx="1414.644"
             cy="510.55545"
             rx="26.25853"
             ry="24.94997" /><ellipse
             class="node"
             id="1_1"
             style="fill:#ffffff;stroke:#333333;stroke-width:1.42199"
             cx="1414.644"
             cy="588.17755"
             rx="26.25853"
             ry="24.94997" /><ellipse
             class="node"
             id="1_2"
             style="fill:#ffffff;stroke:#333333;stroke-width:1.42199"
             cx="1414.644"
             cy="665.79968"
             rx="26.25853"
             ry="24.94997" /><ellipse
             class="node"
             id="1_3"
             style="fill:#ffffff;stroke:#333333;stroke-width:1.42199"
             cx="1414.644"
             cy="743.42188"
             rx="26.25853"
             ry="24.94997" /><ellipse
             class="node"
             id="1_4"
             style="fill:#ffffff;stroke:#333333;stroke-width:1.42199"
             cx="1414.644"
             cy="821.04395"
             rx="26.25853"
             ry="24.94997" /><ellipse
             class="node"
             id="2_0"
             style="fill:#ffffff;stroke:#333333;stroke-width:1.42199"
             cx="1599.9126"
             cy="626.98865"
             rx="26.25853"
             ry="24.94997" /><ellipse
             class="node"
             id="2_1"
             style="fill:#ffffff;stroke:#333333;stroke-width:1.42199"
             cx="1599.9126"
             cy="704.61078"
             rx="26.25853"
             ry="24.94997" /><text
             class="text"
             dy="0.34999999em"
             style="font-size:12px"
             x="1207"
             y="924"
             id="text1060" /><text
             class="text"
             dy="0.34999999em"
             style="font-size:12px"
             x="1334"
             y="924"
             id="text1062" /><text
             class="text"
             dy="0.34999999em"
             style="font-size:12px"
             x="1461"
             y="924"
             id="text1064" /><circle
             r="35.800106"
             class="node"
             id="1_0-9"
             style="fill:#ffffff;stroke:#333333;stroke-width:1.98889;stroke-linecap:butt;stroke-linejoin:round"
             cx="993.0921"
             cy="1108.5308" /><circle
             r="35.800106"
             class="node"
             id="1_1-1"
             style="fill:#ffffff;stroke:#333333;stroke-width:1.98889;stroke-linecap:butt;stroke-linejoin:round"
             cx="993.0921"
             cy="1219.9088" /><circle
             r="35.800106"
             class="node"
             id="1_2-2"
             style="fill:#ffffff;stroke:#333333;stroke-width:1.98889;stroke-linecap:butt;stroke-linejoin:round"
             cx="993.0921"
             cy="1331.287" /><circle
             r="35.800106"
             class="node"
             id="1_3-7"
             style="fill:#ffffff;stroke:#333333;stroke-width:1.98889;stroke-linecap:butt;stroke-linejoin:round"
             cx="993.0921"
             cy="1442.665" /><circle
             r="35.800106"
             class="node"
             id="1_4-0"
             style="fill:#ffffff;stroke:#333333;stroke-width:1.98889;stroke-linecap:butt;stroke-linejoin:round"
             cx="993.0921"
             cy="1554.0432" /><circle
             r="35.800106"
             class="node"
             id="1_0-9-8"
             style="fill:#ffffff;stroke:#333333;stroke-width:1.98889;stroke-linecap:butt;stroke-linejoin:round"
             cx="1111.9719"
             cy="1109.2517" /><circle
             r="35.800106"
             class="node"
             id="1_1-1-7"
             style="fill:#ffffff;stroke:#333333;stroke-width:1.98889;stroke-linecap:butt;stroke-linejoin:round"
             cx="1111.9719"
             cy="1220.6298" /><circle
             r="35.800106"
             class="node"
             id="1_2-2-9"
             style="fill:#ffffff;stroke:#333333;stroke-width:1.98889;stroke-linecap:butt;stroke-linejoin:round"
             cx="1111.9719"
             cy="1332.0079" /><circle
             r="35.800106"
             class="node"
             id="1_3-7-2"
             style="fill:#ffffff;stroke:#333333;stroke-width:1.98889;stroke-linecap:butt;stroke-linejoin:round"
             cx="1111.9719"
             cy="1443.386" /><circle
             r="35.800106"
             class="node"
             id="1_4-0-0"
             style="fill:#ffffff;stroke:#333333;stroke-width:1.98889;stroke-linecap:butt;stroke-linejoin:round"
             cx="1111.9719"
             cy="1554.7642" /><circle
             r="35.800106"
             class="node"
             id="1_0-9-2"
             style="fill:#ffffff;stroke:#333333;stroke-width:1.98889;stroke-linecap:butt;stroke-linejoin:round"
             cx="1224.7306"
             cy="1101.4792" /><circle
             r="35.800106"
             class="node"
             id="1_1-1-3"
             style="fill:#ffffff;stroke:#333333;stroke-width:1.98889;stroke-linecap:butt;stroke-linejoin:round"
             cx="1224.7306"
             cy="1212.8573" /><circle
             r="35.800106"
             class="node"
             id="1_2-2-7"
             style="fill:#ffffff;stroke:#333333;stroke-width:1.98889;stroke-linecap:butt;stroke-linejoin:round"
             cx="1224.7306"
             cy="1324.2355" /><circle
             r="35.800106"
             class="node"
             id="1_3-7-5"
             style="fill:#ffffff;stroke:#333333;stroke-width:1.98889;stroke-linecap:butt;stroke-linejoin:round"
             cx="1224.7306"
             cy="1435.6136" /><circle
             r="35.800106"
             class="node"
             id="1_4-0-9"
             style="fill:#ffffff;stroke:#333333;stroke-width:1.98889;stroke-linecap:butt;stroke-linejoin:round"
             cx="1224.7306"
             cy="1546.9918" /><circle
             r="35.800106"
             class="node"
             id="1_0-9-2-2"
             style="fill:#ffffff;stroke:#333333;stroke-width:1.98889;stroke-linecap:butt;stroke-linejoin:round"
             cx="1329.9873"
             cy="1104.2638" /><circle
             r="35.800106"
             class="node"
             id="1_1-1-3-2"
             style="fill:#ffffff;stroke:#333333;stroke-width:1.98889;stroke-linecap:butt;stroke-linejoin:round"
             cx="1329.9873"
             cy="1215.6418" /><circle
             r="35.800106"
             class="node"
             id="1_2-2-7-8"
             style="fill:#ffffff;stroke:#333333;stroke-width:1.98889;stroke-linecap:butt;stroke-linejoin:round"
             cx="1329.9873"
             cy="1327.02" /><circle
             r="35.800106"
             class="node"
             id="1_3-7-5-9"
             style="fill:#ffffff;stroke:#333333;stroke-width:1.98889;stroke-linecap:butt;stroke-linejoin:round"
             cx="1329.9873"
             cy="1438.3982" /><circle
             r="35.800106"
             class="node"
             id="1_4-0-9-7"
             style="fill:#ffffff;stroke:#333333;stroke-width:1.98889;stroke-linecap:butt;stroke-linejoin:round"
             cx="1329.9873"
             cy="1549.7764" /><circle
             r="35.800106"
             class="node"
             id="1_0-9-3"
             style="fill:#ffffff;stroke:#333333;stroke-width:1.98889;stroke-linecap:butt;stroke-linejoin:round"
             cx="1470.3007"
             cy="1113.0957" /><circle
             r="35.800106"
             class="node"
             id="1_1-1-6"
             style="fill:#ffffff;stroke:#333333;stroke-width:1.98889;stroke-linecap:butt;stroke-linejoin:round"
             cx="1470.3007"
             cy="1224.4738" /><circle
             r="35.800106"
             class="node"
             id="1_2-2-1"
             style="fill:#ffffff;stroke:#333333;stroke-width:1.98889;stroke-linecap:butt;stroke-linejoin:round"
             cx="1470.3007"
             cy="1335.8519" /><circle
             r="35.800106"
             class="node"
             id="1_3-7-29"
             style="fill:#ffffff;stroke:#333333;stroke-width:1.98889;stroke-linecap:butt;stroke-linejoin:round"
             cx="1470.3007"
             cy="1447.23" /><circle
             r="35.800106"
             class="node"
             id="1_4-0-3"
             style="fill:#ffffff;stroke:#333333;stroke-width:1.98889;stroke-linecap:butt;stroke-linejoin:round"
             cx="1470.3007"
             cy="1558.6082" /><circle
             r="35.800106"
             class="node"
             id="1_0-9-8-1"
             style="fill:#ffffff;stroke:#333333;stroke-width:1.98889;stroke-linecap:butt;stroke-linejoin:round"
             cx="1589.1805"
             cy="1113.8167" /><circle
             r="35.800106"
             class="node"
             id="1_1-1-7-9"
             style="fill:#ffffff;stroke:#333333;stroke-width:1.98889;stroke-linecap:butt;stroke-linejoin:round"
             cx="1589.1805"
             cy="1225.1947" /><circle
             r="35.800106"
             class="node"
             id="1_2-2-9-4"
             style="fill:#ffffff;stroke:#333333;stroke-width:1.98889;stroke-linecap:butt;stroke-linejoin:round"
             cx="1589.1805"
             cy="1336.5729" /><circle
             r="35.800106"
             class="node"
             id="1_3-7-2-7"
             style="fill:#ffffff;stroke:#333333;stroke-width:1.98889;stroke-linecap:butt;stroke-linejoin:round"
             cx="1589.1805"
             cy="1447.9509" /><circle
             r="35.800106"
             class="node"
             id="1_4-0-0-8"
             style="fill:#ffffff;stroke:#333333;stroke-width:1.98889;stroke-linecap:butt;stroke-linejoin:round"
             cx="1589.1805"
             cy="1559.3291" /><circle
             r="35.800106"
             class="node"
             id="1_0-9-2-4"
             style="fill:#ffffff;stroke:#333333;stroke-width:1.98889;stroke-linecap:butt;stroke-linejoin:round"
             cx="1701.9392"
             cy="1106.0442" /><circle
             r="35.800106"
             class="node"
             id="1_1-1-3-5"
             style="fill:#ffffff;stroke:#333333;stroke-width:1.98889;stroke-linecap:butt;stroke-linejoin:round"
             cx="1701.9392"
             cy="1217.4222" /><circle
             r="35.800106"
             class="node"
             id="1_2-2-7-0"
             style="fill:#ffffff;stroke:#333333;stroke-width:1.98889;stroke-linecap:butt;stroke-linejoin:round"
             cx="1701.9392"
             cy="1328.8004" /><circle
             r="35.800106"
             class="node"
             id="1_3-7-5-3"
             style="fill:#ffffff;stroke:#333333;stroke-width:1.98889;stroke-linecap:butt;stroke-linejoin:round"
             cx="1701.9392"
             cy="1440.1786" /><circle
             r="35.800106"
             class="node"
             id="1_4-0-9-6"
             style="fill:#ffffff;stroke:#333333;stroke-width:1.98889;stroke-linecap:butt;stroke-linejoin:round"
             cx="1701.9392"
             cy="1551.5568" /><circle
             r="35.800106"
             class="node"
             id="1_0-9-2-2-1"
             style="fill:#ffffff;stroke:#333333;stroke-width:1.98889;stroke-linecap:butt;stroke-linejoin:round"
             cx="1807.1959"
             cy="1108.8287" /><circle
             r="35.800106"
             class="node"
             id="1_1-1-3-2-0"
             style="fill:#ffffff;stroke:#333333;stroke-width:1.98889;stroke-linecap:butt;stroke-linejoin:round"
             cx="1807.1959"
             cy="1220.2068" /><circle
             r="35.800106"
             class="node"
             id="1_2-2-7-8-6"
             style="fill:#ffffff;stroke:#333333;stroke-width:1.98889;stroke-linecap:butt;stroke-linejoin:round"
             cx="1807.1959"
             cy="1331.585" /><circle
             r="35.800106"
             class="node"
             id="1_3-7-5-9-3"
             style="fill:#ffffff;stroke:#333333;stroke-width:1.98889;stroke-linecap:butt;stroke-linejoin:round"
             cx="1807.1959"
             cy="1442.9631" /><circle
             r="35.800106"
             class="node"
             id="1_4-0-9-7-2"
             style="fill:#ffffff;stroke:#333333;stroke-width:1.98889;stroke-linecap:butt;stroke-linejoin:round"
             cx="1807.1959"
             cy="1554.3413" /><rect
             style="fill:none;fill-opacity:0.14902;stroke-width:4.24593"
             id="rect2628"
             width="78.285378"
             height="491.87427"
             x="1369.1294"
             y="408.87933" /><rect
             style="fill:none;fill-opacity:0.14902;stroke:none;stroke-width:4.25262;stroke-dasharray:none"
             id="rect3474"
             width="116.03989"
             height="490.50174"
             x="1355.7511"
             y="410.74051" /><rect
             style="fill:none;fill-opacity:0.14902;stroke:#333333;stroke-width:4.2526;stroke-dasharray:none;stroke-opacity:1"
             id="rect4952"
             width="101.23079"
             height="485.98599"
             x="1361.3284"
             y="408.4295" /></g><path
           style="fill:none;stroke:#d04bd7;stroke-width:1.99396px;stroke-linecap:butt;stroke-linejoin:miter;stroke-opacity:1"
           d="m 628.45597,25.353254 c -0.08,281.204286 0.43701,292.201316 0.43701,292.201316 v 0"
           id="path5087" /><path
           style="fill:none;stroke:#d04bd7;stroke-width:1.99396px;stroke-linecap:butt;stroke-linejoin:miter;stroke-opacity:1"
           d="m 681.98437,24.727117 c -0.08,281.204293 0.43701,292.201323 0.43701,292.201323 v 0"
           id="path5087-1" /><path
           style="fill:none;stroke:#d04bd7;stroke-width:1.99396px;stroke-linecap:butt;stroke-linejoin:miter;stroke-opacity:1"
           d="m 735.69944,30.785795 c -0.08,281.204285 0.43701,292.201315 0.43701,292.201315 v 0"
           id="path5087-5" /><path
           style="fill:none;stroke:#ccf2f2;stroke-width:1.99396px;stroke-linecap:butt;stroke-linejoin:miter;stroke-opacity:1"
           d="m 850.1519,22.959912 c -0.08,281.204288 0.43701,292.201318 0.43701,292.201318 v 0"
           id="path5087-54" /><path
           style="fill:#000000;stroke:#050106;stroke-width:2.22318317;stroke-linecap:butt;stroke-linejoin:miter;stroke-opacity:1;stroke-dasharray:none"
           d="m 789.39388,-10.814437 c -0.0788,354.444547 0.43019,368.305787 0.43019,368.305787 v 0"
           id="path5087-54-5" /><path
           style="fill:none;stroke:#ccf2f2;stroke-width:1.77628px;stroke-linecap:butt;stroke-linejoin:miter;stroke-opacity:1"
           d="m 903.70366,38.285406 c -0.0712,250.506584 0.38923,260.303134 0.38923,260.303134 v 0"
           id="path5087-1-7" /><path
           style="fill:none;stroke:#ccf2f2;stroke-width:1.99396px;stroke-linecap:butt;stroke-linejoin:miter;stroke-opacity:1"
           d="m 957.39537,28.392452 c -0.08,281.204288 0.43701,292.201318 0.43701,292.201318 v 0"
           id="path5087-5-6" /><g
           id="figure_1-8"
           transform="matrix(0.4233979,0,0,0.45028863,246.43558,282.54238)"
           style="display:inline"><g
             id="patch_1-4" /><g
             id="axes_1-3"
             transform="translate(71.276452,-1027.9774)"><g
               id="matplotlib.axis_1-4" /><g
               id="matplotlib.axis_2-9" /><g
               id="line2d_1-2"><path
                 d="m 30.763636,312.85502 4.033058,-0.0794 4.033058,-0.0878 4.033058,-0.097 4.033058,-0.10725 4.033058,-0.11857 4.033057,-0.13106 4.033058,-0.14486 4.033058,-0.16009 4.033058,-0.17691 4.033058,-0.19547 4.033058,-0.21595 4.033058,-0.23854 4.033057,-0.26346 4.033058,-0.29092 4.033058,-0.32118 4.033058,-0.35453 4.033058,-0.39122 4.03306,-0.43162 4.03306,-0.47605 4.03305,-0.52487 4.03306,-0.57851 4.03306,-0.63738 4.03306,-0.70194 4.03305,-0.77269 4.03306,-0.85011 4.03306,-0.93477 4.03306,-1.02722 4.03306,-1.12803 4.03305,-1.2378 4.03306,-1.35715 4.03306,-1.48664 4.03306,-1.62687 4.03305,-1.7784 4.03306,-1.94173 4.03306,-2.11732 4.03306,-2.30552 4.03306,-2.50659 4.03305,-2.72063 4.03306,-2.94761 4.03306,-3.18722 4.03306,-3.439 4.03306,-3.70215 4.03305,-3.97561 4.03306,-4.25796 4.03306,-4.54741 4.03306,-4.84183 4.03305,-5.13867 4.03306,-5.43507 4.03306,-5.72774 4.03306,-6.01316 4.03306,-6.28753 4.03305,-6.54692 4.03306,-6.78731 4.03306,-7.00475 4.03306,-7.19547 4.03306,-7.35602 4.03305,-7.48335 4.03306,-7.57501 4.03306,-7.62917 4.03306,-7.64474 4.03305,-7.6214 4.03306,-7.55964 4.03306,-7.46067 4.03306,-7.32647 4.03306,-7.15964 4.03305,-6.96328 4.03306,-6.74094 4.03306,-6.49643 4.03306,-6.233736 4.03306,-5.956835 4.03305,-5.669668 4.03306,-5.375975 4.03306,-5.079248 4.03306,-4.782662 4.03305,-4.489048 4.03306,-4.200855 4.03306,-3.92016 4.03306,-3.64866 4.03306,-3.387704 4.03305,-3.138306 4.03306,-2.901184 4.03306,-2.676788 4.03306,-2.465338 4.03306,-2.266857 4.03305,-2.081202 4.03306,-1.908098 4.03306,-1.747165 4.03306,-1.597939 4.03305,-1.459899 4.03306,-1.332484 4.03306,-1.215107 4.03306,-1.107171 4.03306,-1.008077 4.03305,-0.917234 4.03306,-0.834066 4.03306,-0.758016 4.03306,-0.688552 4.03306,-0.625166 4.03305,-0.567378"
                 clip-path="url(#p9fb2d14fe7)"
                 style="fill:none;stroke:#000000;stroke-width:1.5;stroke-linecap:square"
                 id="path9219" /></g><g
               id="patch_3-0"><path
                 d="M 30.763636,334.8 V 10.8"
                 style="fill:none;stroke:#000000;stroke-width:0.8;stroke-linecap:square;stroke-linejoin:miter"
                 id="path9222" /></g><g
               id="patch_4-6"><path
                 d="M 450,334.8 V 10.8"
                 style="fill:none"
                 id="path9225" /></g><g
               id="patch_5-8"><path
                 d="M 10.8,313.60374 H 450"
                 style="fill:none;stroke:#000000;stroke-width:0.8;stroke-linecap:square;stroke-linejoin:miter"
                 id="path9228" /></g><g
               id="patch_6-9"><path
                 d="M 10.8,10.8 H 450"
                 style="fill:none"
                 id="path9231" /></g></g></g><g
           id="text_1-2"
           transform="matrix(2.1482261,0,0,2.1482261,70.542296,-152.52792)"
           inkscape:transform-center-x="0.45501963"
           inkscape:transform-center-y="-0.2202588"
           style="display:inline"><!-- $z=\sum_{i=1}^{n}{w_ix_i+b}$ --><g
             style="opacity:0.75"
             transform="matrix(0.1,0,0,-0.1,195.55,41.080374)"
             id="g9272"><defs
               id="defs9244"><path
                 id="path9315"
                 d="M 744,3500 H 3475 L 3372,2975 738,459 H 2913 L 2822,0 H -19 L 84,525 2719,3041 H 653 Z"
                 transform="scale(0.015625)" /><path
                 id="path9317"
                 d="M 678,2906 H 4684 V 2381 H 678 Z m 0,-1275 H 4684 V 1100 H 678 Z"
                 transform="scale(0.015625)" /><path
                 id="path9319"
                 d="M 3566,2113 3156,0 h -578 l 410,2091 q 28,147 43,259 16,113 16,178 0,263 -166,409 -165,147 -462,147 -463,0 -797,-308 -334,-307 -438,-835 L 800,0 H 225 l 678,3500 h 575 l -115,-550 q 240,303 577,468 338,166 710,166 463,0 717,-250 255,-250 255,-703 0,-112 -14,-240 -14,-128 -42,-278 z"
                 transform="scale(0.015625)" /><path
                 id="path9321"
                 d="M 244,6509 H 5803 V 5656 H 1566 L 4534,2488 1469,-888 h 4450 v -850 H 109 v 660 L 3316,2463 244,5728 Z"
                 transform="scale(0.015625)" /><path
                 id="path9323"
                 d="m 1172,4863 h 575 L 1606,4134 H 1031 Z M 909,3500 h 575 L 800,0 H 225 Z"
                 transform="scale(0.015625)" /><path
                 id="path9325"
                 d="M 794,531 H 1825 V 4091 L 703,3866 v 575 l 1116,225 h 631 V 531 H 3481 V 0 H 794 Z"
                 transform="scale(0.015625)" /><path
                 id="path9327"
                 d="m 544,3500 h 569 L 1259,684 2566,3500 h 665 L 3425,684 4666,3500 h 575 L 3641,0 H 2969 L 2797,2900 1459,0 H 781 Z"
                 transform="scale(0.015625)" /><path
                 id="path9329"
                 d="M 3841,3500 2234,1784 3219,0 H 2559 L 1819,1388 531,0 H -166 L 1556,1844 641,3500 h 659 l 672,-1266 1172,1266 z"
                 transform="scale(0.015625)" /><path
                 id="path9331"
                 d="M 2944,4013 V 2272 H 4684 V 1741 H 2944 V 0 H 2419 V 1741 H 678 v 531 h 1741 v 1741 z"
                 transform="scale(0.015625)" /><path
                 id="path9333"
                 d="m 3169,2138 q 0,453 -208,709 -208,256 -573,256 -266,0 -499,-130 -233,-129 -405,-376 -181,-259 -286,-602 -104,-342 -104,-682 0,-432 204,-677 205,-245 565,-245 271,0 502,126 232,127 407,374 178,256 287,596 110,341 110,651 z m -1788,831 q 213,287 533,451 320,164 670,164 538,0 855,-363 317,-362 317,-980 0,-507 -186,-982 Q 3384,784 3041,416 2816,172 2522,40 2228,-91 1906,-91 1566,-91 1316,65 1066,222 909,531 L 806,0 H 231 l 947,4863 h 575 z"
                 transform="scale(0.015625)" /></defs><use
               xlink:href="#DejaVuSans-Oblique-7a-6"
               transform="translate(0,0.346875)"
               id="use9246" /><use
               xlink:href="#DejaVuSans-3d-6"
               transform="translate(71.972656,0.346875)"
               id="use9248" /><use
               xlink:href="#DejaVuSans-Oblique-6e"
               transform="matrix(0.7,0,0,0.7,228.24414,120.8)"
               id="use9250" /><use
               xlink:href="#DejaVuSansDisplay-2211"
               transform="translate(205.24414,0.346875)"
               id="use9252" /><use
               xlink:href="#DejaVuSans-Oblique-69"
               transform="matrix(0.7,0,0,0.7,175.24414,-98.748438)"
               id="use9254" /><use
               xlink:href="#DejaVuSans-3d-6"
               transform="matrix(0.7,0,0,0.7,208.33008,-98.748438)"
               id="use9256" /><use
               xlink:href="#DejaVuSans-31-4"
               transform="matrix(0.7,0,0,0.7,280.62012,-98.748438)"
               id="use9258" /><use
               xlink:href="#DejaVuSans-Oblique-77"
               transform="translate(325.15625,0.346875)"
               id="use9260" /><use
               xlink:href="#DejaVuSans-Oblique-69"
               transform="matrix(0.7,0,0,0.7,406.94336,-16.059375)"
               id="use9262" /><use
               xlink:href="#DejaVuSans-Oblique-78"
               transform="translate(429.12598,0.346875)"
               id="use9264" /><use
               xlink:href="#DejaVuSans-Oblique-69"
               transform="matrix(0.7,0,0,0.7,488.30566,-16.059375)"
               id="use9266" /><use
               xlink:href="#DejaVuSans-2b-9"
               transform="translate(529.9707,0.346875)"
               id="use9268" /><use
               xlink:href="#DejaVuSans-Oblique-62"
               transform="translate(633.24219,0.346875)"
               id="use9270" /></g></g></g><g
         id="g6945"
         transform="matrix(1.4276285,0,0,1.4276285,-1791.9267,-1111.3018)"><path
           class="link"
           style="stroke:#333333;stroke-width:0.771293px;stroke-opacity:1"
           d="m 1287.682,624.39104 55.3447,60.05488"
           id="path6925" /><path
           class="link"
           style="stroke:#333333;stroke-width:0.771293px;stroke-opacity:1"
           d="m 1287.682,654.41848 55.3447,30.02744"
           id="path6927" /><path
           class="link"
           style="stroke:#333333;stroke-width:0.771293px;stroke-opacity:1"
           d="m 1287.682,684.44592 h 55.3447"
           id="path6929" /><path
           class="link"
           style="stroke:#333333;stroke-width:0.771293px;stroke-linecap:butt;stroke-linejoin:round;stroke-opacity:1"
           d="m 1360.1284,684.43327 h 55.3447"
           id="path6929-5" /><path
           class="link"
           style="stroke:#333333;stroke-width:0.771293px;stroke-opacity:1"
           d="m 1287.682,744.50081 55.3447,-60.05489"
           id="path6933" /><text
           class="text"
           dy="0.34999999em"
           style="font-size:12px"
           x="1256"
           y="827.5"
           id="text6936" /><text
           class="text"
           dy="0.34999999em"
           style="font-size:12px"
           x="1350"
           y="827.5"
           id="text6938" /><circle
           r="27.764563"
           class="node"
           id="1_0-5"
           style="fill:#ffffff;stroke:#333333;stroke-width:1.38823"
           cx="1353.2024"
           cy="683.4162" /></g><path
         style="fill:#000000;stroke:#d04bd7;stroke-width:0.478201px;stroke-linecap:butt;stroke-linejoin:miter;stroke-opacity:1"
         d="m 139.70338,-176.58063 c -0.017,76.31196 0.0926,79.296289 0.0926,79.296289 v 0"
         id="path5087-54-5-4" /></g></g></svg>
