<?xml version="1.0" encoding="UTF-8" standalone="no"?>
<!-- Created with Inkscape (http://www.inkscape.org/) -->

<svg
   width="160mm"
   height="90mm"
   viewBox="0 0 160 90"
   version="1.1"
   id="svg4446"
   inkscape:version="1.1.2 (0a00cf5339, 2022-02-04)"
   sodipodi:docname="drawing.svg"
   xmlns:inkscape="http://www.inkscape.org/namespaces/inkscape"
   xmlns:sodipodi="http://sodipodi.sourceforge.net/DTD/sodipodi-0.dtd"
   xmlns:xlink="http://www.w3.org/1999/xlink"
   xmlns="http://www.w3.org/2000/svg"
   xmlns:svg="http://www.w3.org/2000/svg">
  <sodipodi:namedview
     id="namedview4448"
     pagecolor="#ffffff"
     bordercolor="#666666"
     borderopacity="1.0"
     inkscape:pageshadow="2"
     inkscape:pageopacity="0.0"
     inkscape:pagecheckerboard="0"
     inkscape:document-units="mm"
     showgrid="false"
     width="160mm"
     inkscape:zoom="3.0823513"
     inkscape:cx="244.45624"
     inkscape:cy="118.09167"
     inkscape:window-width="1860"
     inkscape:window-height="1011"
     inkscape:window-x="1920"
     inkscape:window-y="32"
     inkscape:window-maximized="1"
     inkscape:current-layer="legend_1" />
  <defs
     id="defs4443">
    <style
       type="text/css"
       id="style4509">*{stroke-linejoin: round; stroke-linecap: butt}</style>
    <path
       id="C0_0_36ee1d848f"
       d="M 0 2.537961  C 0.673075 2.537961 1.318674 2.270546 1.79461 1.79461  C 2.270546 1.318674 2.537961 0.673075 2.537961 -0  C 2.537961 -0.673075 2.270546 -1.318674 1.79461 -1.79461  C 1.318674 -2.270546 0.673075 -2.537961 0 -2.537961  C -0.673075 -2.537961 -1.318674 -2.270546 -1.79461 -1.79461  C -2.270546 -1.318674 -2.537961 -0.673075 -2.537961 0  C -2.537961 0.673075 -2.270546 1.318674 -1.79461 1.79461  C -1.318674 2.270546 -0.673075 2.537961 0 2.537961  z " />
    <path
       id="ma78d8a9460"
       d="M 0 0  L 0 3.5  "
       style="stroke: #000000; stroke-width: 0.8" />
    <path
       id="m4d2c33549c"
       d="M 0 0  L -3.5 0  "
       style="stroke: #000000; stroke-width: 0.8" />
    <path
       id="mf8f8777932"
       d="M 0 1.25  C 0.331504 1.25 0.649475 1.118292 0.883883 0.883883  C 1.118292 0.649475 1.25 0.331504 1.25 0  C 1.25 -0.331504 1.118292 -0.649475 0.883883 -0.883883  C 0.649475 -1.118292 0.331504 -1.25 0 -1.25  C -0.331504 -1.25 -0.649475 -1.118292 -0.883883 -0.883883  C -1.118292 -0.649475 -1.25 -0.331504 -1.25 0  C -1.25 0.331504 -1.118292 0.649475 -0.883883 0.883883  C -0.649475 1.118292 -0.331504 1.25 0 1.25  z " />
    <path
       id="C1_0_9b08d9d40d"
       d="M 0 2.537961  C 0.673075 2.537961 1.318674 2.270546 1.79461 1.79461  C 2.270546 1.318674 2.537961 0.673075 2.537961 -0  C 2.537961 -0.673075 2.270546 -1.318674 1.79461 -1.79461  C 1.318674 -2.270546 0.673075 -2.537961 0 -2.537961  C -0.673075 -2.537961 -1.318674 -2.270546 -1.79461 -1.79461  C -2.270546 -1.318674 -2.537961 -0.673075 -2.537961 0  C -2.537961 0.673075 -2.270546 1.318674 -1.79461 1.79461  C -1.318674 2.270546 -0.673075 2.537961 0 2.537961  z " />
    <clipPath
       id="p62c52b39ba">
      <rect
         x="46.20125"
         y="13.68"
         width="147.564656"
         height="83.432335"
         id="rect6263" />
    </clipPath>
    <clipPath
       id="p5051baf26a">
      <rect
         x="233.937156"
         y="13.68"
         width="147.564656"
         height="83.432335"
         id="rect6266" />
    </clipPath>
    <clipPath
       id="p5e5bae29bf">
      <rect
         x="46.20125"
         y="145.353404"
         width="147.564656"
         height="83.432335"
         id="rect6269" />
    </clipPath>
    <clipPath
       id="p969685bbfb">
      <rect
         x="46.20125"
         y="277.026809"
         width="84.98602"
         height="83.432335"
         id="rect6272" />
    </clipPath>
    <clipPath
       id="pf3f8f1983f">
      <rect
         x="171.35852"
         y="277.026809"
         width="84.98602"
         height="83.432335"
         id="rect6275" />
    </clipPath>
    <clipPath
       id="p5fd32686a3">
      <rect
         x="296.515791"
         y="277.026809"
         width="84.98602"
         height="83.432335"
         id="rect6278" />
    </clipPath>
  </defs>
  <g
     inkscape:label="Layer 1"
     inkscape:groupmode="layer"
     id="layer1">
    <g
       id="patch_8"
       transform="matrix(0.35277778,0,0,0.35277778,4.8508673,-45.553298)">
      <path
         d="M 46.20125,228.78574 H 193.76591 V 145.3534 H 46.20125 Z"
         style="fill:#ffffff"
         id="path5771" />
    </g>
    <g
       id="matplotlib.axis_5"
       transform="matrix(0.35277778,0,0,0.35277778,4.8508673,-45.553298)">
      <g
         id="xtick_13">
        <g
           id="line2d_37">
          <g
             id="g5776">
            <use
               xlink:href="#ma78d8a9460"
               x="69.184715"
               y="228.78574"
               style="stroke:#000000;stroke-width:0.8"
               id="use5774"
               width="100%"
               height="100%" />
          </g>
        </g>
        <g
           id="text_37">
          <text
             style="font-style:normal;font-variant:normal;font-weight:normal;font-stretch:normal;font-size:7px;line-height:normal;font-family:'DejaVu Sans', 'Bitstream Vera Sans', 'Computer Modern Sans Serif', 'Lucida Grande', Verdana, Geneva, Lucid, Arial, Helvetica, 'Avant Garde', sans-serif;text-anchor:middle"
             x="69.184715"
             y="241.10464"
             id="text5779">0.0</text>
        </g>
      </g>
      <g
         id="xtick_14">
        <g
           id="line2d_38">
          <g
             id="g5785">
            <use
               xlink:href="#ma78d8a9460"
               x="101.73668"
               y="228.78574"
               style="stroke:#000000;stroke-width:0.8"
               id="use5783"
               width="100%"
               height="100%" />
          </g>
        </g>
        <g
           id="text_38">
          <text
             style="font-style:normal;font-variant:normal;font-weight:normal;font-stretch:normal;font-size:7px;line-height:normal;font-family:'DejaVu Sans', 'Bitstream Vera Sans', 'Computer Modern Sans Serif', 'Lucida Grande', Verdana, Geneva, Lucid, Arial, Helvetica, 'Avant Garde', sans-serif;text-anchor:middle"
             x="101.73668"
             y="241.10464"
             id="text5788">0.2</text>
        </g>
      </g>
      <g
         id="xtick_15">
        <g
           id="line2d_39">
          <g
             id="g5794">
            <use
               xlink:href="#ma78d8a9460"
               x="134.28864"
               y="228.78574"
               style="stroke:#000000;stroke-width:0.8"
               id="use5792"
               width="100%"
               height="100%" />
          </g>
        </g>
        <g
           id="text_39">
          <text
             style="font-style:normal;font-variant:normal;font-weight:normal;font-stretch:normal;font-size:7px;line-height:normal;font-family:'DejaVu Sans', 'Bitstream Vera Sans', 'Computer Modern Sans Serif', 'Lucida Grande', Verdana, Geneva, Lucid, Arial, Helvetica, 'Avant Garde', sans-serif;text-anchor:middle"
             x="134.28864"
             y="241.10464"
             id="text5797">0.4</text>
        </g>
      </g>
      <g
         id="xtick_16">
        <g
           id="line2d_40">
          <g
             id="g5803">
            <use
               xlink:href="#ma78d8a9460"
               x="166.84061"
               y="228.78574"
               style="stroke:#000000;stroke-width:0.8"
               id="use5801"
               width="100%"
               height="100%" />
          </g>
        </g>
        <g
           id="text_40">
          <text
             style="font-style:normal;font-variant:normal;font-weight:normal;font-stretch:normal;font-size:7px;line-height:normal;font-family:'DejaVu Sans', 'Bitstream Vera Sans', 'Computer Modern Sans Serif', 'Lucida Grande', Verdana, Geneva, Lucid, Arial, Helvetica, 'Avant Garde', sans-serif;text-anchor:middle"
             x="166.84061"
             y="241.10464"
             id="text5806">0.6</text>
        </g>
      </g>
      <g
         id="text_41">
        <text
           style="font-style:normal;font-variant:normal;font-weight:700;font-stretch:normal;font-size:7px;line-height:normal;font-family:'DejaVu Sans', 'Bitstream Vera Sans', 'Computer Modern Sans Serif', 'Lucida Grande', Verdana, Geneva, Lucid, Arial, Helvetica, 'Avant Garde', sans-serif;text-anchor:middle"
           x="119.98358"
           y="251.87933"
           id="text5810">Time [s]</text>
      </g>
    </g>
    <g
       id="matplotlib.axis_6"
       transform="matrix(0.35277778,0,0,0.35277778,4.8508673,-45.553298)">
      <g
         id="ytick_11">
        <g
           id="line2d_41">
          <g
             id="g5816">
            <use
               xlink:href="#m4d2c33549c"
               x="46.201248"
               y="228.78574"
               style="stroke:#000000;stroke-width:0.8"
               id="use5814"
               width="100%"
               height="100%" />
          </g>
        </g>
        <g
           id="text_42">
          <text
             style="font-style:normal;font-variant:normal;font-weight:normal;font-stretch:normal;font-size:7px;line-height:normal;font-family:'DejaVu Sans', 'Bitstream Vera Sans', 'Computer Modern Sans Serif', 'Lucida Grande', Verdana, Geneva, Lucid, Arial, Helvetica, 'Avant Garde', sans-serif;text-anchor:end"
             x="39.201248"
             y="231.44519"
             id="text5819">0.4</text>
        </g>
      </g>
      <g
         id="ytick_12">
        <g
           id="line2d_42">
          <g
             id="g5825">
            <use
               xlink:href="#m4d2c33549c"
               x="46.201248"
               y="204.94792"
               style="stroke:#000000;stroke-width:0.8"
               id="use5823"
               width="100%"
               height="100%" />
          </g>
        </g>
        <g
           id="text_43">
          <text
             style="font-style:normal;font-variant:normal;font-weight:normal;font-stretch:normal;font-size:7px;line-height:normal;font-family:'DejaVu Sans', 'Bitstream Vera Sans', 'Computer Modern Sans Serif', 'Lucida Grande', Verdana, Geneva, Lucid, Arial, Helvetica, 'Avant Garde', sans-serif;text-anchor:end"
             x="39.201248"
             y="207.60738"
             id="text5828">0.5</text>
        </g>
      </g>
      <g
         id="ytick_13">
        <g
           id="line2d_43">
          <g
             id="g5834">
            <use
               xlink:href="#m4d2c33549c"
               x="46.201248"
               y="181.11012"
               style="stroke:#000000;stroke-width:0.8"
               id="use5832"
               width="100%"
               height="100%" />
          </g>
        </g>
        <g
           id="text_44">
          <text
             style="font-style:normal;font-variant:normal;font-weight:normal;font-stretch:normal;font-size:7px;line-height:normal;font-family:'DejaVu Sans', 'Bitstream Vera Sans', 'Computer Modern Sans Serif', 'Lucida Grande', Verdana, Geneva, Lucid, Arial, Helvetica, 'Avant Garde', sans-serif;text-anchor:end"
             x="39.201248"
             y="183.76958"
             id="text5837">0.6</text>
        </g>
      </g>
      <g
         id="ytick_14">
        <g
           id="line2d_44">
          <g
             id="g5843">
            <use
               xlink:href="#m4d2c33549c"
               x="46.201248"
               y="157.27231"
               style="stroke:#000000;stroke-width:0.8"
               id="use5841"
               width="100%"
               height="100%" />
          </g>
        </g>
        <g
           id="text_45">
          <text
             style="font-style:normal;font-variant:normal;font-weight:normal;font-stretch:normal;font-size:7px;line-height:normal;font-family:'DejaVu Sans', 'Bitstream Vera Sans', 'Computer Modern Sans Serif', 'Lucida Grande', Verdana, Geneva, Lucid, Arial, Helvetica, 'Avant Garde', sans-serif;text-anchor:end"
             x="39.201248"
             y="159.93176"
             id="text5846">0.7</text>
        </g>
      </g>
      <g
         id="text_46">
        <text
           style="font-style:normal;font-variant:normal;font-weight:700;font-stretch:normal;font-size:7px;line-height:normal;font-family:'DejaVu Sans', 'Bitstream Vera Sans', 'Computer Modern Sans Serif', 'Lucida Grande', Verdana, Geneva, Lucid, Arial, Helvetica, 'Avant Garde', sans-serif;text-anchor:middle"
           x="22.613281"
           y="187.06956"
           transform="rotate(-90,22.613281,187.06957)"
           id="text5850">Performance [AUC]</text>
      </g>
    </g>
    <g
       id="line2d_45"
       transform="matrix(0.35277778,0,0,0.35277778,4.8508673,-45.553298)">
      <path
         d="m 52.908734,208.2585 0.635781,-0.44193 0.63578,-0.80644 1.271561,-0.70786 0.635781,-0.47262 0.63578,-0.89829 0.635781,-0.68936 0.63578,-0.33997 1.271561,-1.1956 1.907342,-0.68651 0.63578,0.41913 1.907342,0.28911 0.63578,-0.37774 0.635781,-0.12618 1.271561,1.07207 1.271561,1.25847 0.63578,0.44545 0.635781,0.15758 1.271561,-0.99705 0.635781,-0.34239 0.63578,-0.028 0.635781,0.33015 1.271561,1.16533 0.63578,0.76505 1.907342,0.0695 0.63578,-0.43115 0.635781,-0.24001 0.63578,-0.41698 0.635781,-0.20567 0.63578,-0.52832 0.635781,0.2027 1.271561,1.15164 0.63578,0.40786 0.635781,-0.6883 0.63578,-0.8685 0.635781,-0.57182 0.63578,-0.0109 0.635781,-0.21886 0.63578,0.081 0.635781,-0.2858 0.63578,0.0234 0.635781,-0.36613 0.63578,-0.0359 0.635781,0.10108 1.907341,-0.32441 0.635781,-0.27273 0.63578,-0.10903 0.635781,-0.37573 0.63578,-0.14026 0.635781,-0.45347 0.63578,-0.0201 0.635781,-0.29774 0.63578,-0.0878 0.635781,-0.53585 1.271561,-1.57831 1.271561,-2.22643 1.907339,-2.89137 1.27156,-2.0883 1.27156,-1.76545 0.63579,-0.51046 0.63577,-0.0932 0.63579,0.0385 0.63578,-0.18262 0.63578,-0.30216 0.63578,-0.15017 0.63578,-0.03 0.63578,0.23384 1.90734,-0.93361 0.63578,0.36248 0.63578,0.12824 0.63578,-0.1865 0.63578,-0.95326 0.63578,-0.7304 1.27156,-0.52462 1.27156,-0.47402 1.27156,0.15304 0.63579,0.24841 0.63578,-0.0258 1.27156,-0.46016 0.63578,-0.0845 0.63578,0.47071 0.63578,-0.0556 1.27156,0.551 0.63578,0.73336 1.27156,1.00888 0.63578,-0.0697 0.63578,-0.64835 0.63578,-0.0646 0.63578,-0.48648 0.63578,0.34652 0.63579,0.20954 1.27156,0.0705 0.63578,0.36354 0.63578,0.20811 1.27156,1.28622 0.63578,-0.22262 0.63578,-0.44273 1.27156,0.34731 1.27156,0.46021 0.63578,-0.1596 0.63578,0.15409 0.63578,-0.26896 0.63578,-0.45958 0.63578,0.16996 1.27156,-0.30686 0.63578,-0.5295 0.63578,-0.67821 1.90735,-0.96884 1.90734,0.93378 0.63578,0.79281 0.63578,1.12402 1.27156,1.05344 1.27156,1.57529 0.63578,0.40219 0.63578,-0.18491 0.63578,0.064 1.27156,0.96327 0.63578,0.26424 0.63578,-0.22349 0.63578,0.21486 0.63579,0.0656 0.63578,0.75514 0.63578,0.9374 0.63578,0.40008 0.63578,0.1156 0.63578,-0.28425 3.1789,-2.20028 0.63578,-0.054 0.63578,0.25902 0.63578,0.12305 0.63578,-0.20594 0.63578,-0.0459 0.63578,0.0658 0.63578,-0.0882 0.63578,0.1324 0.63578,-0.0236 0.63579,-0.29126 1.90734,-1.39775 1.27156,-0.55899 1.27156,0.66301 1.27156,0.59134 0.63578,0.48544 1.90734,0.84358 0.63578,0.8129 0.63578,0.57939 0.63578,0.15896 1.27156,-0.24913 0.63579,-0.24309 0.63578,0.44458 0.63578,0.70336 0.63578,0.92309 0.63578,0.26415 1.27156,0.85833 0.63578,0.16918 0.63578,0.41498 1.27156,-0.49253 0.63578,0.56538 v 0"
         clip-path="url(#p5e5bae29bf)"
         style="fill:none;stroke:#fc03dd;stroke-linecap:square"
         id="path5854" />
    </g>
    <g
       id="line2d_46"
       transform="matrix(0.35277778,0,0,0.35277778,4.8508673,-45.553298)">
      <path
         d="m 52.908734,204.35938 0.635781,0.72853 0.63578,0.0534 0.635781,-0.78319 0.63578,-0.42437 0.635781,0.21591 0.63578,-0.20561 0.635781,0.005 0.63578,-0.18627 0.635781,0.13675 1.271561,1.76226 0.63578,0.36447 0.635781,0.1605 0.63578,-0.0621 0.635781,0.37173 1.271561,-0.35755 0.63578,0.12199 0.635781,-0.44568 0.63578,-0.26061 0.635781,-0.43862 1.271561,0.19679 1.271561,-0.26173 0.635781,-0.60426 0.63578,-0.88169 0.635781,-0.49037 0.63578,-0.88585 1.271561,-0.79111 0.635781,-0.57603 0.63578,-0.29577 0.635781,-0.59683 0.63578,0.0828 1.271561,1.28546 0.635781,0.58333 0.63578,-0.008 0.635781,0.50633 0.63578,0.70943 1.271561,0.36491 0.635781,-0.34903 0.63578,-0.74327 1.271561,-1.08434 0.635781,-0.11271 1.271561,-2.31799 1.271561,-1.34254 2.543122,-1.83004 0.63578,-1.63566 0.635781,-0.72999 2.543122,-5.22752 0.63578,-0.73945 1.271561,-3.47216 1.907342,-4.19567 1.271561,-1.2806 1.271561,-0.81951 1.271561,-1.76163 1.271558,-2.66052 0.63578,-0.89843 0.63578,-0.60418 0.63578,-1.08131 0.63579,-0.82408 0.63577,-0.61569 1.27157,-0.91679 0.63578,-0.83536 0.63578,-1.08675 0.63578,-0.8172 0.63578,-0.50975 0.63578,0.36195 0.63578,0.61414 0.63578,0.90809 0.63578,1.15744 0.63578,0.80103 0.63578,0.59401 0.63578,0.42417 0.63578,0.92142 0.63578,1.12998 1.27156,1.10708 1.27156,0.30789 0.63578,0.4569 0.63579,0.86171 0.63578,0.28378 0.63578,0.90394 0.63578,1.67446 1.27156,2.42285 0.63578,1.49253 0.63578,1.16098 0.63578,0.39076 1.27156,0.28306 0.63578,0.80076 0.63578,1.03783 1.27156,1.09527 0.63578,0.0998 0.63578,-0.31207 1.27156,-1.30208 0.63579,0.43218 1.90734,2.15573 0.63578,0.14019 1.27156,0.69469 1.90734,1.47797 0.63578,-0.10296 0.63578,0.034 0.63578,0.24037 1.27156,-0.79704 1.27156,-1.67945 0.63578,-0.12286 1.27156,0.25999 1.27157,1.50653 0.63578,-0.65477 1.27156,-0.89947 1.27156,1.26069 0.63578,0.37499 0.63578,-0.29518 0.63578,0.002 0.63578,0.34464 0.63578,0.66397 0.63578,-0.29695 0.63578,-0.42872 0.63578,-0.68695 0.63578,0.13315 0.63578,-0.0604 1.27156,0.5653 0.63578,0.16625 0.63579,-0.22116 0.63578,-0.0446 0.63578,-0.59529 1.27156,0.0692 1.27156,-0.41257 0.63578,0.0839 0.63578,-0.0769 0.63578,0.24493 0.63578,0.63813 1.27156,2.29549 0.63578,0.46641 1.27156,0.0633 0.63578,-0.29373 0.63578,-0.0174 0.63578,-0.55129 0.63578,-0.77527 0.63579,-0.20568 0.63578,0.36498 0.63578,-0.16171 0.63578,0.73612 1.27156,2.38214 0.63578,0.30384 0.63578,0.46415 0.63578,0.0328 0.63578,0.15408 1.27156,1.16751 0.63578,0.3299 0.63578,0.58449 1.27156,2.20477 0.63578,0.4694 0.63578,-0.16236 1.27157,-1.05939 0.63578,-0.39287 0.63578,0.0686 1.27156,-0.60658 0.63578,-0.51609 0.63578,-0.21909 0.63578,-0.34871 2.54312,1.62083 v 0"
         clip-path="url(#p5e5bae29bf)"
         style="fill:none;stroke:#ca03ca;stroke-linecap:square"
         id="path5857" />
    </g>
    <g
       id="line2d_47"
       transform="matrix(0.35277778,0,0,0.35277778,4.8508673,-45.553298)">
      <path
         d="m 52.908734,209.54693 1.271561,-0.88714 0.635781,0.131 1.271561,-1.18396 0.63578,0.0306 0.635781,0.2432 0.63578,-0.43871 0.635781,-0.59006 0.63578,-0.30919 0.635781,0.005 1.271561,1.22924 0.63578,-0.0939 1.271561,-0.70246 0.635781,-1.32579 0.63578,-0.70082 0.635781,-0.21469 0.63578,0.64422 1.271561,-0.29497 0.635781,0.23209 1.271561,-1.22717 0.635781,-0.33237 0.63578,0.22339 0.635781,0.79357 0.63578,0.014 1.271561,-0.77955 0.635781,-0.2141 0.63578,-0.53912 1.271561,-0.36742 1.907342,1.92527 0.63578,0.37094 0.635781,-0.38408 0.63578,-0.82674 0.635781,-0.28368 0.63578,-0.70058 0.635781,-0.24991 0.63578,-1.11837 1.907342,-4.52011 0.63578,-1.18455 1.271561,-0.46845 0.635781,-0.4692 1.271561,-2.17997 1.907341,-0.81111 1.271561,-2.46308 0.635781,-1.05066 0.63578,-0.78665 0.635781,-1.6764 1.907341,-5.68854 0.635781,-1.48927 1.271561,-3.80266 0.63578,-1.55473 0.635781,-0.50991 0.63578,0.14275 0.635781,0.59245 0.63578,0.75818 0.635781,0.26136 0.635778,-0.22103 0.63578,-0.48176 0.63578,-0.79497 0.63578,-0.51196 0.63578,-0.15765 1.27156,0.14348 0.63579,0.23416 0.63578,0.49599 0.63578,0.0283 1.27156,1.06477 0.63578,1.35239 0.63578,1.63854 0.63578,1.23731 0.63578,0.95768 0.63578,1.16935 0.63578,0.62787 0.63578,-0.0111 0.63578,0.57808 0.63578,0.81288 1.27156,0.0363 0.63578,-0.65619 1.27156,-0.43883 0.63578,-0.21149 0.63579,-1.01794 1.27156,-1.3397 0.63578,-0.18798 0.63578,-0.0159 0.63578,0.29136 0.63578,0.45701 1.27156,1.19619 0.63578,0.2222 1.27156,-0.81622 0.63578,0.23083 0.63578,0.53593 0.63578,-0.32587 0.63578,-0.11804 1.27157,-1.13101 0.63577,-0.27487 0.63579,0.58759 0.63578,1.08119 0.63578,0.70668 1.27156,0.89538 0.63578,0.0708 0.63578,0.52853 0.63578,0.067 0.63578,0.25822 0.63578,0.60256 0.63578,0.26802 0.63578,0.40613 0.63578,0.56464 0.63578,0.136 0.63578,-0.28418 0.63578,0.0522 0.63578,0.19235 0.63578,0.46111 1.27156,1.84217 0.63579,0.13241 0.63578,-0.60245 2.54312,-0.49516 0.63578,0.0542 1.27156,1.77276 1.27156,-0.50183 1.27156,-0.003 0.63578,-0.10986 0.63578,0.0759 0.63578,-0.3223 0.63578,-0.18144 0.63578,0.14313 0.63578,-0.2602 0.63578,-0.12877 0.63579,-0.50096 0.63578,-0.21261 1.27156,-1.44687 0.63578,-0.0159 0.63578,0.58003 1.27156,0.81877 0.63578,-0.13228 0.63578,0.005 0.63578,-0.18318 1.27156,1.02605 0.63578,0.69964 1.90734,1.23361 1.27156,0.3233 0.63578,-0.1502 1.90735,0.71777 0.63578,0.11408 0.63578,-0.12016 0.63578,-0.5527 0.63578,-0.24673 0.63578,-0.61316 0.63578,0.003 0.63578,0.77661 1.27156,0.26528 2.54312,0.79964 1.27156,-0.87746 1.27157,-0.85278 0.63578,-0.0341 0.63578,0.23518 0.63578,0.37975 1.27156,0.36299 0.63578,0.37534 0.63578,1.14474 0.63578,0.52751 0.63578,0.0365 1.27156,-0.27444 v 0"
         clip-path="url(#p5e5bae29bf)"
         style="fill:none;stroke:#7e56df;stroke-linecap:square"
         id="path5860" />
    </g>
    <g
       id="line2d_48"
       transform="matrix(0.35277778,0,0,0.35277778,4.8508673,-45.553298)">
      <path
         d="m 52.908734,205.52529 0.635781,-0.5481 0.63578,-0.26591 0.635781,0.26065 0.63578,0.13766 0.635781,-0.21595 1.271561,-0.72411 2.543122,-2.66662 1.271561,0.14776 1.271561,-1.00633 0.63578,-0.14122 0.635781,0.61828 0.63578,1.1603 0.635781,0.65641 1.271561,1.74416 0.63578,0.17644 0.635781,-0.30733 0.63578,0.59176 0.635781,0.79457 0.635781,0.16152 0.63578,-0.58863 0.635781,-0.8009 0.63578,-0.37504 0.635781,0.36105 0.63578,0.58663 0.635781,1.1839 0.63578,0.0238 0.635781,-0.86226 0.63578,-1.23687 0.635781,-0.76035 0.63578,-0.38541 0.635781,-0.65842 0.63578,-0.97008 1.271561,-2.46058 0.635781,-0.34068 1.907341,0.19625 0.635781,0.0311 0.63578,-0.10904 0.635781,-0.77919 0.63578,-0.4427 0.635781,-0.27487 1.271561,-1.79007 0.63578,-1.00896 1.271561,-2.98136 0.635781,-0.70824 0.63578,-0.28188 0.635781,-0.54006 0.63578,-0.0584 0.635781,-0.21558 0.63578,0.41978 0.635781,-0.54135 0.63578,-0.68853 1.271561,-2.98411 3.178903,-10.99257 0.63578,-1.82224 1.271561,-2.963 0.635781,-0.86598 0.635778,-0.19962 1.27156,-0.90886 1.27156,-1.75816 0.63579,-0.48018 1.27156,0.4473 1.27156,-0.82396 0.63578,0.19018 1.27156,1.42508 0.63578,0.784 1.27156,1.0283 1.27156,0.92411 1.27156,2.65913 1.27156,1.64974 1.90734,1.37189 1.27156,-0.29047 0.63579,-0.18544 1.27156,2.12423 0.63578,0.92725 0.63578,0.45113 0.63578,0.0642 1.27156,-0.0695 0.63578,-0.0412 0.63578,0.29708 0.63578,-0.0172 0.63578,-0.32651 0.63578,-0.52943 0.63578,0.41064 1.27156,2.59908 0.63578,0.77104 0.63579,0.27949 1.27156,0.27026 0.63578,0.94595 0.63578,0.25518 0.63578,-0.20089 0.63578,0.20787 1.27156,0.023 0.63578,-0.4713 0.63578,0.13622 0.63578,0.99793 1.27156,2.56142 0.63578,0.17354 1.27156,-0.78902 0.63578,0.43708 0.63578,0.0603 0.63578,0.4491 0.63578,0.23061 0.63578,-0.14611 0.63579,-0.76636 0.63578,-0.17818 0.63578,0.24446 0.63578,0.5157 1.27156,1.66186 0.63578,1.20827 1.27156,2.77959 0.63578,0.34123 1.27156,-0.80738 1.27156,0.51453 0.63578,0.29738 1.27156,-0.0899 0.63578,-0.13328 2.54313,0.53106 1.27156,0.92416 1.27156,2.01344 0.63578,1.4916 0.63578,0.17377 0.63578,-0.36007 0.63578,0.5608 0.63578,0.0997 0.63578,-0.16668 1.27156,-1.85395 0.63578,-0.027 0.63578,0.38061 0.63578,-0.11812 0.63578,0.41527 1.90735,2.49999 0.63578,1.16632 0.63578,0.22482 0.63578,-0.54366 0.63578,-0.25242 0.63578,-0.5336 0.63578,-0.25 0.63578,-0.89706 1.27156,-2.63602 1.27156,-1.00341 1.27156,0.60596 0.63578,-0.35447 0.63578,0.42583 0.63578,0.0174 1.27156,0.5487 0.63579,0.0539 0.63578,-0.47 0.63578,-1.17216 0.63578,-0.71718 0.63578,-0.21325 0.63578,0.13769 0.63578,-0.19045 0.63578,0.003 0.63578,0.35101 1.90734,1.45013 v 0"
         clip-path="url(#p5e5bae29bf)"
         style="fill:none;stroke:#024bf5;stroke-linecap:square"
         id="path5863" />
    </g>
    <g
       id="line2d_49"
       transform="matrix(0.35277778,0,0,0.35277778,4.8508673,-45.553298)">
      <path
         d="m 52.908734,206.06901 0.635781,0.12383 1.907341,-0.90577 0.635781,-0.6394 0.63578,-0.31821 1.271561,-2.02189 1.271561,-1.10259 1.271561,-0.33684 0.635781,0.32229 1.271561,0.48169 0.63578,0.39879 0.635781,-0.37106 0.63578,-0.0659 0.635781,-0.84083 0.63578,-0.63691 0.635781,-1.23127 0.63578,-0.006 0.635781,0.70572 0.63578,0.53215 0.635781,0.32575 0.635781,0.0653 0.63578,0.19647 0.635781,0.8532 0.63578,0.33501 0.635781,0.83162 0.63578,0.17413 0.635781,0.58484 1.907341,0.0728 0.635781,-0.48937 0.63578,-0.91905 1.271561,-0.25947 0.635781,0.008 0.63578,0.19364 0.635781,0.001 0.63578,0.53151 1.271561,-0.11057 1.907342,-0.5703 1.271561,-2.25618 1.271561,-0.88227 1.271561,-0.16882 0.63578,0.24186 0.635781,-1.43734 1.907341,-2.36123 0.635781,-0.15248 1.907341,-1.54926 0.635781,0.30701 0.63578,-0.1551 0.635781,-0.31379 1.271561,-1.43061 0.63578,-0.94274 0.635781,-1.59161 0.63578,-1.15155 0.635781,-0.32597 0.63578,-1.27129 0.635781,-0.92252 0.635778,-0.41641 0.63578,-0.13644 0.63578,0.49525 0.63578,-0.0603 0.63578,0.14996 0.63579,-0.14937 0.63577,-0.31897 0.63579,0.36178 0.63578,0.51922 0.63578,0.97083 0.63578,0.72566 0.63578,0.13448 0.63578,-0.46742 1.27156,-1.60698 0.63578,-1.09805 1.90734,-2.75182 0.63578,-0.26903 1.27156,-2.07463 0.63578,-0.17849 0.63578,0.34294 1.27156,1.94857 0.63578,0.21288 1.27157,-1.32819 0.63578,-1.15426 0.63578,-0.50281 0.63578,0.0579 1.27156,-1.88511 0.63578,-0.66292 0.63578,-0.0143 1.27156,-0.37965 0.63578,-0.43426 3.1789,-1.07049 0.63579,-0.7042 0.63577,-0.46963 0.63579,-0.64999 0.63578,-0.45787 0.63578,0.0204 0.63578,-0.29264 0.63578,-0.0557 0.63578,-0.36046 0.63578,0.0676 1.90734,1.71078 0.63578,0.85936 0.63578,-0.29231 0.63578,-0.58655 0.63578,-0.22281 0.63578,0.2062 0.63578,0.60626 0.63578,0.88065 0.63578,0.10786 0.63578,-0.24125 1.27157,-0.18705 0.63578,0.35893 0.63578,0.19381 0.63578,-0.23353 1.27156,0.62667 0.63578,0.75477 0.63578,1.02126 0.63578,0.46074 0.63578,0.71122 1.27156,0.4994 1.27156,2.43989 0.63578,0.76571 1.27156,-0.40042 0.63578,-0.69814 0.63578,-0.41402 0.63578,0.78116 0.63579,1.07933 0.63578,0.39097 0.63578,-0.0851 1.27156,-1.31707 0.63578,-0.73101 0.63578,-0.0945 0.63578,0.52849 1.27156,-0.34321 0.63578,-0.9915 0.63578,-0.1134 0.63578,0.29716 0.63578,-0.31749 0.63578,-0.10332 1.27156,0.3663 0.63578,-0.13326 0.63578,0.15974 0.63578,0.48981 1.27157,0.48563 0.63578,-0.89586 1.90734,-1.22988 0.63578,0.12463 0.63578,0.53365 1.27156,0.52221 0.63578,-7.7e-4 0.63578,-0.18063 0.63578,0.011 0.63578,-0.37047 0.63578,-0.20896 0.63578,0.15545 0.63578,0.44575 0.63578,0.23077 1.27157,0.95693 0.63578,0.24642 0.63578,0.0576 0.63578,-0.29028 0.63578,-0.14837 0.63578,0.0852 1.27156,1.63164 0.63578,1.60242 0.63578,1.18141 0.63578,0.77012 0.63578,0.20719 v 0"
         clip-path="url(#p5e5bae29bf)"
         style="fill:none;stroke:#0893c4;stroke-linecap:square"
         id="path5866" />
    </g>
    <g
       id="line2d_50"
       transform="matrix(0.35277778,0,0,0.35277778,4.8508673,-45.553298)">
      <path
         d="m 52.908734,206.52021 0.635781,0.36568 0.63578,-0.23912 0.635781,-0.61634 1.271561,-1.98957 0.63578,-0.48901 0.635781,0.5419 0.63578,0.85544 0.635781,0.31526 0.63578,-0.43514 3.178903,-3.8465 0.63578,0.13515 0.635781,-0.0833 0.63578,-0.51135 0.635781,-0.0225 1.271561,-1.386 0.63578,-0.0939 1.907342,0.74127 0.635781,0.45021 1.271561,0.41519 0.63578,-0.25758 0.635781,-0.40098 1.271561,0.97881 0.63578,-0.53481 0.635781,-0.38244 1.271561,0.43026 0.63578,0.0145 0.635781,-0.40896 0.63578,0.25488 0.635781,0.94267 0.63578,0.29261 0.635781,0.55718 0.63578,0.21761 0.635781,-0.40058 0.63578,-0.0971 0.635781,0.16983 1.271561,-0.8623 1.907341,-0.70145 0.635781,0.17451 0.63578,-0.86319 0.635781,-1.10334 0.63578,-1.67443 0.635781,-0.33761 0.63578,0.26157 0.635781,0.43159 1.271561,-1.38001 0.63578,-1.30787 1.271561,-0.98687 1.907342,-2.09044 0.63578,-1.14042 0.635781,-0.019 1.907341,-1.96806 1.271561,-2.99347 0.635781,-0.92256 1.271558,0.73816 0.63578,-0.89718 0.63578,-0.14881 0.63578,-0.32825 0.63579,-0.90544 0.63577,-0.20195 0.63579,-0.004 0.63578,-0.4301 0.63578,-0.66038 0.63578,-0.44316 0.63578,-1.14756 1.27156,-1.52167 1.27156,-2.02547 0.63578,-0.0412 0.63578,-0.30992 0.63578,0.42225 0.63578,0.0409 1.90734,-2.31665 0.63578,-0.3583 0.63578,0.0763 0.63578,0.5041 0.63578,0.18027 0.63579,0.78966 0.63578,0.1946 0.63578,-0.0361 0.63578,-0.6298 0.63578,0.0745 3.1789,1.86067 1.27156,0.12575 0.63578,0.0237 0.63578,0.16447 0.63578,0.29635 1.27156,1.35253 0.63579,0.46389 0.63577,1.01313 0.63579,0.77697 1.90734,-0.94605 0.63578,-0.0907 0.63578,0.0942 0.63578,0.44673 0.63578,-0.2821 0.63578,0.3372 0.63578,0.005 0.63578,0.27432 0.63578,-0.42006 0.63578,-0.005 0.63578,-0.16593 1.90734,-0.0531 1.27156,-0.33083 0.63578,0.21475 0.63579,0.5019 0.63578,0.15818 0.63578,-0.23424 0.63578,0.0795 1.27156,0.51894 0.63578,0.28438 1.27156,0.28278 0.63578,-0.23385 0.63578,-0.57749 0.63578,-0.30238 0.63578,0.70258 0.63578,0.95342 1.27156,2.7344 0.63578,0.35923 1.27156,0.10961 0.63578,-0.68032 1.27157,-0.21646 0.63578,0.27569 1.27156,2.17653 0.63578,0.30388 0.63578,0.11803 0.63578,-0.0278 1.27156,-0.75998 0.63578,0.19084 0.63578,0.0198 1.27156,0.54543 0.63578,-0.19615 0.63578,0.92099 1.90734,3.84366 0.63578,0.47776 0.63579,-0.59923 0.63578,-0.77443 0.63578,-0.18529 0.63578,0.2021 0.63578,0.43854 0.63578,0.25933 0.63578,0.38835 0.63578,0.0246 0.63578,0.14622 1.27156,0.50755 0.63578,-0.3318 0.63578,-0.53331 0.63578,-0.82235 1.27156,-0.75729 0.63578,-0.81077 0.63578,-0.37453 0.63578,-0.13542 0.63579,0.23256 1.27156,1.48407 0.63578,0.42658 0.63578,-0.009 0.63578,-0.60041 1.27156,-2.1263 0.63578,-0.27925 0.63578,0.19496 0.63578,0.36784 0.63578,0.15542 v 0"
         clip-path="url(#p5e5bae29bf)"
         style="fill:none;stroke:#03d3be;stroke-linecap:square"
         id="path5869" />
    </g>
    <g
       id="line2d_51"
       transform="matrix(0.35277778,0,0,0.35277778,4.8508673,-45.553298)" />
    <g
       id="line2d_52"
       transform="matrix(0.35277778,0,0,0.35277778,4.8508673,-45.553298)" />
    <g
       id="line2d_53"
       transform="matrix(0.35277778,0,0,0.35277778,4.8508673,-45.553298)" />
    <g
       id="line2d_54"
       transform="matrix(0.35277778,0,0,0.35277778,4.8508673,-45.553298)" />
    <g
       id="line2d_55"
       transform="matrix(0.35277778,0,0,0.35277778,4.8508673,-45.553298)" />
    <g
       id="line2d_56"
       transform="matrix(0.35277778,0,0,0.35277778,4.8508673,-45.553298)" />
    <g
       id="line2d_57"
       transform="matrix(0.35277778,0,0,0.35277778,4.8508673,-45.553298)">
      <path
         d="M 69.184715,228.78574 V 145.3534"
         clip-path="url(#p5e5bae29bf)"
         style="fill:none;stroke:#000000;stroke-width:1.5;stroke-linecap:square"
         id="path5878" />
    </g>
    <g
       id="line2d_58"
       transform="matrix(0.35277778,0,0,0.35277778,4.8508673,-45.553298)">
      <path
         d="M 46.20125,177.94414 H 193.76591"
         clip-path="url(#p5e5bae29bf)"
         style="fill:none;stroke:#000000;stroke-width:1.5;stroke-dasharray:9.6, 2.4, 1.5, 2.4;stroke-dashoffset:0;stroke-opacity:0.5"
         id="path5881" />
    </g>
    <g
       id="line2d_59"
       transform="matrix(0.35277778,0,0,0.35277778,4.8508673,-45.553298)">
      <path
         d="M 46.20125,204.94793 H 193.76591"
         clip-path="url(#p5e5bae29bf)"
         style="fill:none;stroke:#000000;stroke-width:1.5;stroke-linecap:square;stroke-opacity:0.5"
         id="path5884" />
    </g>
    <g
       id="patch_9"
       transform="matrix(0.35277778,0,0,0.35277778,4.8508673,-45.553298)">
      <path
         d="M 46.20125,228.78574 V 145.3534"
         style="fill:none;stroke:#000000;stroke-width:0.8;stroke-linecap:square;stroke-linejoin:miter"
         id="path5887" />
    </g>
    <g
       id="patch_10"
       transform="matrix(0.35277778,0,0,0.35277778,4.8508673,-45.553298)">
      <path
         d="M 46.20125,228.78574 H 193.76591"
         style="fill:none;stroke:#000000;stroke-width:0.8;stroke-linecap:square;stroke-linejoin:miter"
         id="path5890" />
    </g>
    <g
       id="legend_1"
       transform="matrix(0.35277778,0,0,0.35277778,-62.178964,-9.0407756)">
      <g
         id="line2d_60">
        <path
           d="m 236.95707,175.38039 h 5.25 5.25"
           style="fill:none;stroke:#fc03dd;stroke-width:1.5;stroke-linecap:square"
           id="path5893" />
      </g>
      <g
         id="text_47">
        <text
           style="font-style:normal;font-variant:normal;font-weight:normal;font-stretch:normal;font-size:7px;line-height:normal;font-family:'DejaVu Sans', 'Bitstream Vera Sans', 'Computer Modern Sans Serif', 'Lucida Grande', Verdana, Geneva, Lucid, Arial, Helvetica, 'Avant Garde', sans-serif;text-anchor:start"
           x="253.05707"
           y="177.8304"
           id="text5896">Children</text>
      </g>
      <g
         id="line2d_61">
        <path
           d="m 236.95707,185.65508 h 5.25 5.25"
           style="fill:none;stroke:#ca03ca;stroke-width:1.5;stroke-linecap:square"
           id="path5899" />
      </g>
      <g
         id="text_48">
        <text
           style="font-style:normal;font-variant:normal;font-weight:normal;font-stretch:normal;font-size:7px;line-height:normal;font-family:'DejaVu Sans', 'Bitstream Vera Sans', 'Computer Modern Sans Serif', 'Lucida Grande', Verdana, Geneva, Lucid, Arial, Helvetica, 'Avant Garde', sans-serif;text-anchor:start"
           x="253.05707"
           y="188.10509"
           id="text5902">Young</text>
      </g>
      <g
         id="line2d_62">
        <path
           d="m 236.95707,195.92977 h 5.25 5.25"
           style="fill:none;stroke:#7e56df;stroke-width:1.5;stroke-linecap:square"
           id="path5905" />
      </g>
      <g
         id="text_49">
        <text
           style="font-style:normal;font-variant:normal;font-weight:normal;font-stretch:normal;font-size:7px;line-height:normal;font-family:'DejaVu Sans', 'Bitstream Vera Sans', 'Computer Modern Sans Serif', 'Lucida Grande', Verdana, Geneva, Lucid, Arial, Helvetica, 'Avant Garde', sans-serif;text-anchor:start"
           x="253.05707"
           y="198.37978"
           id="text5908">Early-ma</text>
      </g>
      <g
         id="line2d_63">
        <path
           d="m 236.95707,206.20446 h 5.25 5.25"
           style="fill:none;stroke:#024bf5;stroke-width:1.5;stroke-linecap:square"
           id="path5911" />
      </g>
      <g
         id="text_50">
        <text
           style="font-style:normal;font-variant:normal;font-weight:normal;font-stretch:normal;font-size:7px;line-height:normal;font-family:'DejaVu Sans', 'Bitstream Vera Sans', 'Computer Modern Sans Serif', 'Lucida Grande', Verdana, Geneva, Lucid, Arial, Helvetica, 'Avant Garde', sans-serif;text-anchor:start"
           x="253.05707"
           y="208.65445"
           id="text5914">Late-ma</text>
      </g>
      <g
         id="line2d_64">
        <path
           d="m 298.13051,175.38039 h 5.25 5.25"
           style="fill:none;stroke:#0893c4;stroke-width:1.5;stroke-linecap:square"
           id="path5917" />
      </g>
      <g
         id="text_51">
        <text
           style="font-style:normal;font-variant:normal;font-weight:normal;font-stretch:normal;font-size:7px;line-height:normal;font-family:'DejaVu Sans', 'Bitstream Vera Sans', 'Computer Modern Sans Serif', 'Lucida Grande', Verdana, Geneva, Lucid, Arial, Helvetica, 'Avant Garde', sans-serif;text-anchor:start"
           x="314.2305"
           y="177.8304"
           id="text5920">Old &lt;75</text>
      </g>
      <g
         id="line2d_65">
        <path
           d="m 298.13051,185.65508 h 5.25 5.25"
           style="fill:none;stroke:#03d3be;stroke-width:1.5;stroke-linecap:square"
           id="path5923" />
      </g>
      <g
         id="text_52">
        <text
           style="font-style:normal;font-variant:normal;font-weight:normal;font-stretch:normal;font-size:7px;line-height:normal;font-family:'DejaVu Sans', 'Bitstream Vera Sans', 'Computer Modern Sans Serif', 'Lucida Grande', Verdana, Geneva, Lucid, Arial, Helvetica, 'Avant Garde', sans-serif;text-anchor:start"
           x="314.2305"
           y="188.10509"
           id="text5926">Old &gt;75</text>
      </g>
      <g
         id="line2d_66">
        <path
           d="m 298.13051,195.92977 h 5.25 5.25"
           style="fill:none;stroke:#000000;stroke-width:1.5;stroke-linecap:square"
           id="path5929" />
      </g>
      <g
         id="text_53">
        <text
           style="font-style:normal;font-variant:normal;font-weight:normal;font-stretch:normal;font-size:7px;line-height:normal;font-family:'DejaVu Sans', 'Bitstream Vera Sans', 'Computer Modern Sans Serif', 'Lucida Grande', Verdana, Geneva, Lucid, Arial, Helvetica, 'Avant Garde', sans-serif;text-anchor:start"
           x="314.2305"
           y="198.37978"
           id="text5932">Stimulus onset</text>
      </g>
      <g
         id="line2d_67"
         transform="translate(-0.75)">
        <path
           d="m 298.13051,206.20446 h 5.25 5.25"
           style="fill:none;stroke:#000000;stroke-width:1.5;stroke-dasharray:9.6, 2.4, 1.5, 2.4;stroke-dashoffset:0;stroke-opacity:0.5"
           id="path5935" />
      </g>
      <g
         id="line2d_67-3"
         transform="matrix(0.51283802,0,0,1,154.98785,0)"
         style="stroke-linecap:butt;stroke-linejoin:round">
        <path
           d="m 298.13051,206.20446 h 5.25 5.25"
           style="fill:none;stroke:#000000;stroke-width:1.5;stroke-dasharray:9.6, 2.4, 1.5, 2.4;stroke-dashoffset:0;stroke-opacity:0.5"
           id="path5935-6" />
      </g>
      <g
         id="text_54">
        <text
           style="font-style:normal;font-variant:normal;font-weight:normal;font-stretch:normal;font-size:7px;line-height:normal;font-family:'DejaVu Sans', 'Bitstream Vera Sans', 'Computer Modern Sans Serif', 'Lucida Grande', Verdana, Geneva, Lucid, Arial, Helvetica, 'Avant Garde', sans-serif;text-anchor:start"
           x="314.2305"
           y="208.65445"
           id="text5938">Chancel level</text>
      </g>
    </g>
  </g>
</svg>
