<?xml version="1.0" encoding="UTF-8" standalone="no"?>
<!-- Created with Inkscape (http://www.inkscape.org/) -->

<svg
   width="160mm"
   height="90mm"
   viewBox="0 0 160 90"
   version="1.1"
   id="svg5"
   inkscape:version="1.2.2 (1:1.2.2+202212051552+b0a8486541)"
   sodipodi:docname="ml_forms.svg"
   xmlns:inkscape="http://www.inkscape.org/namespaces/inkscape"
   xmlns:sodipodi="http://sodipodi.sourceforge.net/DTD/sodipodi-0.dtd"
   xmlns="http://www.w3.org/2000/svg"
   xmlns:svg="http://www.w3.org/2000/svg">
  <sodipodi:namedview
     id="namedview7"
     pagecolor="#ffffff"
     bordercolor="#666666"
     borderopacity="1.0"
     inkscape:showpageshadow="2"
     inkscape:pageopacity="0.0"
     inkscape:pagecheckerboard="0"
     inkscape:deskcolor="#d1d1d1"
     inkscape:document-units="mm"
     showgrid="false"
     inkscape:connector-spacing="3"
     inkscape:zoom="1.096075"
     inkscape:cx="265.0366"
     inkscape:cy="119.51737"
     inkscape:window-width="1860"
     inkscape:window-height="1011"
     inkscape:window-x="1920"
     inkscape:window-y="32"
     inkscape:window-maximized="1"
     inkscape:current-layer="layer1" />
  <defs
     id="defs2">
    <marker
       style="overflow:visible"
       id="TriangleStart"
       refX="0"
       refY="0"
       orient="auto-start-reverse"
       inkscape:stockid="TriangleStart"
       markerWidth="5.3244081"
       markerHeight="6.155385"
       viewBox="0 0 5.3244081 6.1553851"
       inkscape:isstock="true"
       inkscape:collect="always"
       preserveAspectRatio="xMidYMid">
      <path
         transform="scale(0.5)"
         style="fill:context-stroke;fill-rule:evenodd;stroke:context-stroke;stroke-width:1pt"
         d="M 5.77,0 -2.88,5 V -5 Z"
         id="path135" />
    </marker>
    <clipPath
       clipPathUnits="userSpaceOnUse"
       id="clipPath8985">
      <path
         d="M 300,127.5 H 542.25 V 372 H 300 Z"
         clip-rule="evenodd"
         id="path8983" />
    </clipPath>
    <clipPath
       clipPathUnits="userSpaceOnUse"
       id="clipPath8995">
      <path
         d="M 0,0 H 72.761 V 72.764 H 0 Z"
         id="path8993" />
    </clipPath>
    <clipPath
       clipPathUnits="userSpaceOnUse"
       id="clipPath9253">
      <path
         d="M 621,225 H 740.25 V 345 H 621 Z"
         clip-rule="evenodd"
         id="path9251" />
    </clipPath>
    <clipPath
       clipPathUnits="userSpaceOnUse"
       id="clipPath9263">
      <path
         d="M 0,0 H 72.761 V 72.764 H 0 Z"
         id="path9261" />
    </clipPath>
  </defs>
  <g
     inkscape:label="Layer 1"
     inkscape:groupmode="layer"
     id="layer1">
    <ellipse
       style="fill:none;stroke:#000000;stroke-width:0.161732;stroke-linejoin:bevel"
       id="path1013"
       cx="71.523918"
       cy="23.600836"
       rx="11.20555"
       ry="6.119751" />
    <text
       xml:space="preserve"
       style="font-style:normal;font-weight:normal;font-size:2.82222px;line-height:1.25;font-family:sans-serif;fill:#000000;fill-opacity:1;stroke:none;stroke-width:0.264583"
       x="65.118065"
       y="23.568035"
       id="text1069"><tspan
         sodipodi:role="line"
         id="tspan1067"
         style="font-style:normal;font-variant:normal;font-weight:bold;font-stretch:normal;font-size:2.82222px;font-family:sans-serif;-inkscape-font-specification:'sans-serif Bold';stroke-width:0.264583"
         x="65.118065"
         y="23.568035">Machine</tspan><tspan
         sodipodi:role="line"
         style="font-style:normal;font-variant:normal;font-weight:bold;font-stretch:normal;font-size:2.82222px;font-family:sans-serif;-inkscape-font-specification:'sans-serif Bold';stroke-width:0.264583"
         x="65.118065"
         y="27.09581"
         id="tspan1071">learning</tspan></text>
    <ellipse
       style="fill:none;stroke:#000000;stroke-width:0.160911;stroke-linejoin:bevel"
       id="path1013-3"
       cx="36.846893"
       cy="11.232004"
       rx="13.09934"
       ry="5.182014" />
    <text
       xml:space="preserve"
       style="font-style:normal;font-weight:normal;font-size:2.82222px;line-height:1.25;font-family:sans-serif;fill:#000000;fill-opacity:1;stroke:none;stroke-width:0.264583"
       x="36.742165"
       y="11.184855"
       id="text1069-6"><tspan
         sodipodi:role="line"
         style="font-style:normal;font-variant:normal;font-weight:normal;font-stretch:normal;font-size:2.82222px;font-family:sans-serif;-inkscape-font-specification:sans-serif;text-align:center;text-anchor:middle;stroke-width:0.264583"
         x="36.742165"
         y="11.184855"
         id="tspan1071-5">Reinforcement</tspan><tspan
         sodipodi:role="line"
         style="font-style:normal;font-variant:normal;font-weight:normal;font-stretch:normal;font-size:2.82222px;font-family:sans-serif;-inkscape-font-specification:sans-serif;text-align:center;text-anchor:middle;stroke-width:0.264583"
         x="36.742165"
         y="14.712631"
         id="tspan1224">learning</tspan></text>
    <path
       id="path1013-3-5"
       style="fill:none;stroke:#000000;stroke-width:0.160911;stroke-linejoin:bevel"
       d="M 71.480883,39.90526 A 13.09934,5.182014 0 0 0 58.381424,45.087372 13.09934,5.182014 0 0 0 71.480883,50.269485 13.09934,5.182014 0 0 0 84.580342,45.087372 13.09934,5.182014 0 0 0 71.480883,39.90526 Z" />
    <text
       xml:space="preserve"
       style="font-style:normal;font-weight:normal;font-size:2.82222px;line-height:1.25;font-family:sans-serif;fill:#000000;fill-opacity:1;stroke:none;stroke-width:0.264583"
       x="71.666245"
       y="43.861385"
       id="text1069-6-6"><tspan
         sodipodi:role="line"
         style="font-style:normal;font-variant:normal;font-weight:normal;font-stretch:normal;font-size:2.82222px;font-family:sans-serif;-inkscape-font-specification:sans-serif;text-align:center;text-anchor:middle;stroke-width:0.264583"
         x="71.666245"
         y="43.861385"
         id="tspan1071-5-2">Supervised</tspan><tspan
         sodipodi:role="line"
         style="font-style:normal;font-variant:normal;font-weight:normal;font-stretch:normal;font-size:2.82222px;font-family:sans-serif;-inkscape-font-specification:sans-serif;text-align:center;text-anchor:middle;stroke-width:0.264583"
         x="71.666245"
         y="47.38916"
         id="tspan1224-9">learning</tspan></text>
    <path
       id="path1013-3-5-1"
       style="fill:none;stroke:#000000;stroke-width:0.160911;stroke-linejoin:bevel"
       d="M 106.08863,6.9195605 A 13.09934,5.182014 0 0 0 92.989172,12.101673 13.09934,5.182014 0 0 0 106.08863,17.283786 13.09934,5.182014 0 0 0 119.18809,12.101673 13.09934,5.182014 0 0 0 106.08863,6.9195605 Z" />
    <path
       id="text1069-6-6-2"
       style="font-style:normal;font-weight:normal;font-size:2.82222px;line-height:1.25;font-family:sans-serif;fill:#000000;fill-opacity:1;stroke:none;stroke-width:0.264583"
       d="m 110.09459,8.9726645 v 0.320911 h 0.25373 v -0.320911 z m 5.00641,0 v 0.835091 c -0.0533,-0.091869 -0.12081,-0.160024 -0.20257,-0.204122 -0.0808,-0.045015 -0.17806,-0.067696 -0.29197,-0.067696 -0.1865,0 -0.33871,0.074415 -0.45631,0.223242 -0.11667,0.148828 -0.17518,0.3445105 -0.17518,0.5870455 0,0.242534 0.0585,0.438216 0.17518,0.587044 0.1176,0.148828 0.26981,0.223242 0.45631,0.223242 0.11391,0 0.21112,-0.02205 0.29197,-0.06615 0.0818,-0.04502 0.14929,-0.113286 0.20257,-0.205155 v 0.23151 h 0.25373 V 8.9726645 Z m -18.498612,0.086817 v 1.2841595 c 0,0.268258 0.06615,0.47083 0.198438,0.607715 0.13321,0.136885 0.329638,0.205155 0.589628,0.205155 0.25907,0 0.454752,-0.06827 0.587044,-0.205155 0.13321,-0.136885 0.199988,-0.339457 0.199988,-0.607715 V 9.0594815 h -0.280087 v 1.2495365 c 0,0.220485 -0.03996,0.379592 -0.119889,0.476973 -0.07993,0.09646 -0.20883,0.144694 -0.387056,0.144694 -0.179145,0 -0.308681,-0.04823 -0.388607,-0.144694 -0.07993,-0.09738 -0.119889,-0.256488 -0.119889,-0.476973 V 9.0594815 Z m 2.830318,0.476456 c -0.107487,0 -0.202572,0.023312 -0.285254,0.069247 -0.08176,0.045934 -0.15279,0.114951 -0.213423,0.207739 V 9.5731445 H 98.678747 V 11.11672 h 0.255282 v -0.872298 c 0,-0.150665 0.03933,-0.2698085 0.118339,-0.3570845 0.07901,-0.087276 0.187126,-0.130741 0.324011,-0.130741 0.113918,0 0.199356,0.03646 0.256315,0.109037 0.05696,0.072576 0.08527,0.1815575 0.08527,0.3276285 v 0.923458 h 0.253731 v -0.931726 c 0,-0.2131365 -0.04548,-0.3743675 -0.136425,-0.4836915 -0.09095,-0.110243 -0.225253,-0.165365 -0.40256,-0.165365 z m 1.535304,0 c -0.18925,0 -0.33532,0.039849 -0.43821,0.118856 -0.1029,0.079007 -0.15452,0.190744 -0.15452,0.335897 0,0.1194305 0.0351,0.2137685 0.10491,0.2826705 0.0698,0.06798 0.18293,0.118339 0.34003,0.151412 l 0.0884,0.02067 c 0.1571,0.03399 0.25844,0.06971 0.30438,0.106454 0.0469,0.03675 0.0703,0.08923 0.0703,0.15813 0,0.07441 -0.0318,0.132292 -0.0961,0.173633 -0.0643,0.04042 -0.15652,0.06098 -0.27595,0.06098 -0.0891,0 -0.1788,-0.01229 -0.26975,-0.03617 -0.0909,-0.0248 -0.18328,-0.06138 -0.27699,-0.11007 v 0.261999 c 0.0992,0.03215 0.19304,0.0557 0.28216,0.07131 0.09,0.01654 0.17673,0.0248 0.25941,0.0248 0.19844,0 0.35416,-0.04146 0.46716,-0.125057 0.11391,-0.0836 0.17053,-0.197232 0.17053,-0.340547 0,-0.125861 -0.038,-0.223702 -0.11421,-0.293523 -0.0753,-0.07074 -0.20286,-0.125229 -0.38292,-0.163814 l -0.0868,-0.01964 c -0.13596,-0.03032 -0.2268,-0.06201 -0.27181,-0.09509 -0.045,-0.03399 -0.0672,-0.08021 -0.0672,-0.1390095 0,-0.07717 0.0311,-0.135048 0.0935,-0.173633 0.0634,-0.038585 0.15784,-0.057878 0.2837,-0.057878 0.0827,0 0.16261,0.00901 0.23978,0.027389 0.0772,0.018374 0.15159,0.045935 0.22325,0.082682 v -0.239778 c -0.0698,-0.027561 -0.14573,-0.048232 -0.22841,-0.062012 -0.0827,-0.013781 -0.17088,-0.020671 -0.26459,-0.020671 z m 3.50677,0 c -0.113,0 -0.21021,0.022681 -0.29198,0.067696 -0.0808,0.044098 -0.14773,0.112253 -0.20102,0.204122 v -0.234611 h -0.25528 v 2.1306205 h 0.25528 V 10.88521 c 0.0533,0.09187 0.12018,0.16014 0.20102,0.205155 0.0818,0.0441 0.17898,0.06615 0.29198,0.06615 0.18741,0 0.33962,-0.07441 0.4563,-0.223242 0.11759,-0.148828 0.17621,-0.34451 0.17621,-0.587044 0,-0.242535 -0.0586,-0.4382175 -0.17621,-0.5870455 -0.11668,-0.148827 -0.26889,-0.223242 -0.4563,-0.223242 z m 1.69912,0 c -0.23151,0 -0.41554,0.074415 -0.55242,0.223242 -0.13597,0.14791 -0.20413,0.3483575 -0.20413,0.6009975 0,0.244372 0.0717,0.438045 0.21498,0.58136 0.14423,0.143316 0.3398,0.214974 0.58601,0.214974 0.0983,0 0.19488,-0.0098 0.29042,-0.02997 0.0955,-0.02021 0.18914,-0.04978 0.28009,-0.08837 v -0.239778 c -0.09,0.04777 -0.18099,0.0836 -0.27286,0.107486 -0.091,0.02389 -0.18528,0.03566 -0.28267,0.03566 -0.16812,0 -0.29966,-0.04547 -0.39429,-0.136426 -0.0937,-0.09187 -0.14607,-0.224907 -0.15709,-0.399458 h 1.16582 v -0.124024 c 0,-0.229672 -0.0606,-0.4109435 -0.1819,-0.5441535 -0.12035,-0.134128 -0.28434,-0.201538 -0.49196,-0.201538 z m 1.85518,0 c -0.12219,0 -0.22617,0.023312 -0.31161,0.069247 -0.0854,0.045016 -0.15497,0.114033 -0.20825,0.207739 v -0.239779 h -0.25477 V 11.11672 h 0.25477 v -0.81287 c 0,-0.174551 0.0385,-0.3082215 0.11472,-0.4010095 0.0772,-0.093706 0.18741,-0.14056 0.33073,-0.14056 0.0404,0 0.077,0.00413 0.11007,0.012402 0.034,0.00735 0.065,0.019121 0.0935,0.035657 l -0.001,-0.260449 c -0.0257,-0.00459 -0.0491,-0.00798 -0.0703,-0.00982 -0.0211,-0.00276 -0.0404,-0.00413 -0.0579,-0.00413 z m 3.34037,0 c -0.18925,0 -0.33533,0.039849 -0.43822,0.118856 -0.10289,0.079007 -0.15451,0.190744 -0.15451,0.335897 0,0.1194305 0.0351,0.2137685 0.1049,0.2826705 0.0698,0.06798 0.18293,0.118339 0.34003,0.151412 l 0.0884,0.02067 c 0.15709,0.03399 0.25844,0.06971 0.30437,0.106454 0.0469,0.03675 0.0703,0.08923 0.0703,0.15813 0,0.07441 -0.0318,0.132292 -0.0961,0.173633 -0.0643,0.04042 -0.15652,0.06098 -0.27595,0.06098 -0.0891,0 -0.1788,-0.01229 -0.26975,-0.03617 -0.091,-0.0248 -0.18328,-0.06138 -0.27699,-0.11007 v 0.261999 c 0.0992,0.03215 0.19304,0.0557 0.28216,0.07131 0.09,0.01654 0.17673,0.0248 0.25941,0.0248 0.19844,0 0.35416,-0.04146 0.46716,-0.125057 0.11392,-0.0836 0.17053,-0.197232 0.17053,-0.340547 0,-0.125861 -0.038,-0.223702 -0.1142,-0.293523 -0.0753,-0.07074 -0.20286,-0.125229 -0.38293,-0.163814 l -0.0868,-0.01964 c -0.13597,-0.03032 -0.22681,-0.06201 -0.27182,-0.09509 -0.045,-0.03399 -0.0672,-0.08021 -0.0672,-0.1390095 0,-0.07717 0.0311,-0.135048 0.0935,-0.173633 0.0634,-0.038585 0.15785,-0.057878 0.28371,-0.057878 0.0827,0 0.16261,0.00901 0.23978,0.027389 0.0772,0.018374 0.15158,0.045935 0.22324,0.082682 v -0.239778 c -0.0698,-0.027561 -0.14573,-0.048232 -0.22841,-0.062012 -0.0827,-0.013781 -0.17088,-0.020671 -0.26458,-0.020671 z m 1.62574,0 c -0.23151,0 -0.41554,0.074415 -0.55243,0.223242 -0.13596,0.14791 -0.20412,0.3483575 -0.20412,0.6009975 0,0.244372 0.0717,0.438045 0.21498,0.58136 0.14423,0.143316 0.3398,0.214974 0.58601,0.214974 0.0983,0 0.19488,-0.0098 0.29042,-0.02997 0.0955,-0.02021 0.18914,-0.04978 0.28009,-0.08837 v -0.239778 c -0.09,0.04777 -0.18099,0.0836 -0.27286,0.107486 -0.091,0.02389 -0.18529,0.03566 -0.28267,0.03566 -0.16812,0 -0.29966,-0.04547 -0.39429,-0.136426 -0.0937,-0.09187 -0.14607,-0.224907 -0.15709,-0.399458 h 1.16582 v -0.124024 c 0,-0.229672 -0.0606,-0.4109435 -0.1819,-0.5441535 -0.12035,-0.134128 -0.28434,-0.201538 -0.49196,-0.201538 z m -11.07375,0.037207 v 0.9343105 c 0,0.212218 0.0461,0.373449 0.13798,0.483692 0.0919,0.110242 0.22628,0.165364 0.40359,0.165364 0.10749,0 0.20183,-0.02216 0.28267,-0.06718 0.0818,-0.04594 0.15342,-0.1161 0.21498,-0.209806 v 0.237194 h 0.25321 V 9.5731445 h -0.25321 v 0.8753995 c 0,0.150665 -0.04,0.269292 -0.11989,0.356567 -0.079,0.08728 -0.18713,0.131259 -0.32401,0.131259 -0.11392,0 -0.19936,-0.03646 -0.25632,-0.109038 -0.057,-0.07349 -0.0853,-0.183107 -0.0853,-0.329179 V 9.5731445 Z m 6.32106,0 0.57878,1.5435755 h 0.34468 l 0.57878,-1.5435755 h -0.26872 l -0.48266,1.2955285 -0.48214,-1.2955285 z m 1.85209,0 V 11.11672 h 0.25373 V 9.5731445 Z m -5.68183,0.175183 c 0.13413,0 0.2395,0.053112 0.31575,0.159681 0.0772,0.1056495 0.11575,0.2517225 0.11575,0.4382165 0,0.186494 -0.0386,0.333198 -0.11575,0.439766 -0.0763,0.10565 -0.18162,0.158647 -0.31575,0.158647 -0.13413,0 -0.2396,-0.053 -0.31677,-0.158647 -0.0763,-0.106568 -0.11421,-0.253272 -0.11421,-0.439766 0,-0.186494 0.038,-0.332567 0.11421,-0.4382165 0.0772,-0.106569 0.18264,-0.159681 0.31677,-0.159681 z m 10.25571,0 c 0.13413,0 0.23961,0.053112 0.31678,0.159681 0.0772,0.1056495 0.11575,0.2517225 0.11575,0.4382165 0,0.186494 -0.0386,0.333198 -0.11575,0.439766 -0.0772,0.10565 -0.18265,0.158647 -0.31678,0.158647 -0.13413,0 -0.24012,-0.053 -0.31729,-0.158647 -0.0763,-0.106568 -0.11421,-0.253272 -0.11421,-0.439766 0,-0.186494 0.0379,-0.332567 0.11421,-0.4382165 0.0772,-0.106569 0.18316,-0.159681 0.31729,-0.159681 z m -8.49147,0.00258 c 0.12494,0 0.2249,0.041342 0.30024,0.124024 0.0763,0.082682 0.11547,0.1935575 0.1173,0.3322795 l -0.90434,0.0015 c 0.0129,-0.145153 0.0617,-0.2580375 0.14625,-0.3379635 0.0854,-0.079927 0.19907,-0.11989 0.34055,-0.11989 z m 6.82129,0 c 0.12494,0 0.2249,0.041342 0.30024,0.124024 0.0763,0.082682 0.11546,0.1935575 0.1173,0.3322795 l -0.90434,0.0015 c 0.0129,-0.145153 0.0617,-0.2580375 0.14625,-0.3379635 0.0854,-0.079927 0.19907,-0.11989 0.34055,-0.11989 z m -12.50518,2.7491865 v 2.144572 h 0.25373 v -2.144572 z m 7.14943,0 v 0.321428 h 0.25322 v -0.321428 z m -5.71903,0.56379 c -0.23151,0 -0.41554,0.07442 -0.55242,0.223242 -0.13597,0.14791 -0.20412,0.348358 -0.20412,0.600997 0,0.244372 0.0717,0.438045 0.21497,0.58136 0.14424,0.143316 0.33929,0.214974 0.58549,0.214974 0.0983,0 0.1954,-0.01028 0.29094,-0.03049 0.0956,-0.02021 0.18862,-0.04927 0.27957,-0.08785 v -0.239778 c -0.09,0.04777 -0.18098,0.0836 -0.27285,0.107487 -0.091,0.02388 -0.18477,0.03566 -0.28215,0.03566 -0.16812,0 -0.29967,-0.04548 -0.39429,-0.136426 -0.0937,-0.09187 -0.14608,-0.224907 -0.1571,-0.399458 h 1.16582 v -0.124024 c 0,-0.229672 -0.0606,-0.411459 -0.1819,-0.544669 -0.12035,-0.134129 -0.28434,-0.201022 -0.49196,-0.201022 z m 1.63142,0 c -0.0827,0 -0.16748,0.009 -0.25476,0.02739 -0.0873,0.01745 -0.17748,0.04427 -0.27027,0.0801 v 0.234095 c 0.0772,-0.04226 0.15773,-0.07395 0.24133,-0.09508 0.0836,-0.02113 0.16967,-0.03152 0.25787,-0.03152 0.13872,0 0.24621,0.03233 0.32246,0.09663 0.0772,0.06339 0.11575,0.153077 0.11575,0.269751 v 0.0248 h -0.35553 c -0.23059,0 -0.40423,0.0441 -0.5209,0.132292 -0.11575,0.08819 -0.17363,0.219108 -0.17363,0.39274 0,0.148828 0.0462,0.267972 0.13901,0.357085 0.0937,0.08819 0.21974,0.132291 0.37775,0.132291 0.12494,0 0.23042,-0.02205 0.31678,-0.06615 0.0864,-0.04502 0.15865,-0.114549 0.21652,-0.208256 v 0.234611 h 0.25322 v -0.880566 c 0,-0.235185 -0.0551,-0.410828 -0.16537,-0.526583 -0.11024,-0.115755 -0.27698,-0.173633 -0.50023,-0.173633 z m 1.95286,0 c -0.12219,0 -0.22617,0.0228 -0.31161,0.06873 -0.0854,0.04502 -0.15446,0.11455 -0.20774,0.208256 v -0.239779 h -0.25528 v 1.543575 h 0.25528 v -0.813387 c 0,-0.174551 0.038,-0.308221 0.1142,-0.401009 0.0772,-0.09371 0.18742,-0.14056 0.33073,-0.14056 0.0404,0 0.077,0.0041 0.11007,0.0124 0.034,0.0073 0.0656,0.01964 0.094,0.03617 l -0.002,-0.260449 c -0.0257,-0.0046 -0.0492,-0.008 -0.0703,-0.0098 -0.0211,-0.0028 -0.0404,-0.0041 -0.0579,-0.0041 z m 1.08985,0 c -0.10748,0 -0.20257,0.0228 -0.28525,0.06873 -0.0818,0.04593 -0.15279,0.115468 -0.21342,0.208256 v -0.239779 h -0.25477 v 1.543575 h 0.25477 v -0.872298 c 0,-0.150665 0.0393,-0.269808 0.11833,-0.357084 0.079,-0.08728 0.18713,-0.130741 0.32402,-0.130741 0.11391,0 0.19935,0.03594 0.25631,0.10852 0.057,0.07258 0.0853,0.182074 0.0853,0.328146 v 0.923457 h 0.25373 v -0.931726 c 0,-0.213136 -0.0455,-0.374367 -0.13643,-0.483691 -0.091,-0.110243 -0.22525,-0.165365 -0.40256,-0.165365 z m 2.57297,0 c -0.10748,0 -0.20257,0.0228 -0.28525,0.06873 -0.0818,0.04593 -0.15279,0.115468 -0.21342,0.208256 v -0.239779 h -0.25529 v 1.543575 h 0.25529 v -0.872298 c 0,-0.150665 0.0393,-0.269808 0.11833,-0.357084 0.079,-0.08728 0.18713,-0.130741 0.32402,-0.130741 0.11391,0 0.19935,0.03594 0.25631,0.10852 0.057,0.07258 0.0853,0.182074 0.0853,0.328146 v 0.923457 h 0.25373 v -0.931726 c 0,-0.213136 -0.0455,-0.374367 -0.13643,-0.483691 -0.091,-0.110243 -0.22525,-0.165365 -0.40256,-0.165365 z m 1.56528,0 c -0.18925,0 -0.34158,0.07229 -0.45733,0.216525 -0.11576,0.144234 -0.17364,0.335782 -0.17364,0.574641 0,0.237941 0.0579,0.428858 0.17364,0.573092 0.11575,0.144235 0.26808,0.216524 0.45733,0.216524 0.11392,0 0.21176,-0.02268 0.29352,-0.0677 0.0818,-0.04502 0.14918,-0.113171 0.20154,-0.204122 v 0.125574 c 0,0.17547 -0.0413,0.306384 -0.12402,0.392741 -0.0827,0.08728 -0.20734,0.130741 -0.37362,0.130741 -0.0753,0 -0.14912,-0.0096 -0.22169,-0.02894 -0.0726,-0.01929 -0.14625,-0.04898 -0.22066,-0.0894 v 0.246497 c 0.0744,0.02756 0.15095,0.04812 0.22996,0.06098 0.079,0.01378 0.16307,0.02067 0.25218,0.02067 0.2407,0 0.41973,-0.06465 0.5364,-0.19327 0.11667,-0.127698 0.17467,-0.322749 0.17467,-0.585494 v -1.351856 h -0.25322 v 0.234095 c -0.0524,-0.09095 -0.11977,-0.15859 -0.20154,-0.203606 -0.0818,-0.04501 -0.1796,-0.0677 -0.29352,-0.0677 z m -3.09335,0.03721 v 1.543575 h 0.25322 v -1.543575 z m 3.15536,0.175183 c 0.13689,0 0.243,0.05036 0.31833,0.151412 0.0763,0.101056 0.11472,0.243626 0.11472,0.427364 0,0.18282 -0.0385,0.324758 -0.11472,0.425814 -0.0753,0.101056 -0.18144,0.151412 -0.31833,0.151412 -0.13596,0 -0.24207,-0.05036 -0.31832,-0.151412 -0.0753,-0.101056 -0.11266,-0.242994 -0.11266,-0.425814 0,-0.183738 0.0373,-0.326308 0.11266,-0.427364 0.0763,-0.101056 0.18236,-0.151412 0.31832,-0.151412 z m -8.87181,0.0026 c 0.12495,0 0.22543,0.04134 0.30076,0.124024 0.0763,0.08268 0.11495,0.193557 0.11679,0.332279 l -0.90382,0.001 c 0.0129,-0.145153 0.0617,-0.257521 0.14624,-0.337447 0.0854,-0.07993 0.19856,-0.11989 0.34003,-0.11989 z m 1.78904,0.589628 h 0.25218 v 0.05684 c 0,0.165365 -0.0427,0.297772 -0.12815,0.397909 -0.0845,0.09922 -0.19741,0.148828 -0.33797,0.148828 -0.10197,0 -0.18265,-0.02618 -0.24236,-0.07855 -0.0588,-0.05328 -0.0884,-0.124942 -0.0884,-0.214974 0,-0.112999 0.0399,-0.192925 0.11886,-0.239779 0.079,-0.04685 0.22094,-0.07028 0.42581,-0.07028 z" />
    <path
       style="fill:none;fill-rule:evenodd;stroke:#000000;stroke-width:0.264583px;stroke-linecap:butt;stroke-linejoin:miter;stroke-opacity:1"
       d="M 96.063051,15.437034 81.093526,20.417171"
       id="path1540"
       inkscape:connector-type="polyline"
       inkscape:connector-curvature="0"
       inkscape:connection-start="#path1013-3-5-1"
       inkscape:connection-end="#path1013" />
    <path
       style="fill:none;fill-rule:evenodd;stroke:#000000;stroke-width:0.264583px;stroke-linecap:butt;stroke-linejoin:miter;stroke-opacity:1"
       d="M 46.575452,14.702051 62.142138,20.25448"
       id="path1542"
       inkscape:connector-type="polyline"
       inkscape:connector-curvature="0"
       inkscape:connection-end="#path1013"
       inkscape:connection-start="#path1013-3" />
    <rect
       style="fill:none;stroke:#000000;stroke-width:0.215477;stroke-linejoin:bevel"
       id="rect1722"
       width="20.008377"
       height="3.9444306"
       x="90.714447"
       y="23.484104" />
    <rect
       style="fill:none;stroke:#000000;stroke-width:0.203529;stroke-linejoin:bevel"
       id="rect1722-7"
       width="17.797295"
       height="3.9563775"
       x="134.17575"
       y="22.952549" />
    <rect
       style="fill:none;stroke:#000000;stroke-width:0.190235;stroke-linejoin:bevel"
       id="rect1722-9"
       width="15.496093"
       height="3.9696722"
       x="43.672237"
       y="56.693863" />
    <rect
       style="fill:none;stroke:#000000;stroke-width:0.312326;stroke-linejoin:bevel"
       id="rect1722-2"
       width="23.703604"
       height="6.9951749"
       x="86.44664"
       y="53.546291" />
    <text
       xml:space="preserve"
       style="font-style:normal;font-weight:normal;font-size:2.11667px;line-height:1.25;font-family:sans-serif;fill:#000000;fill-opacity:1;stroke:none;stroke-width:0.264583"
       x="44.278606"
       y="59.37439"
       id="text1811"><tspan
         sodipodi:role="line"
         id="tspan1809"
         style="font-size:2.11667px;stroke-width:0.264583"
         x="44.278606"
         y="59.37439">Clustering</tspan></text>
    <text
       xml:space="preserve"
       style="font-style:normal;font-weight:normal;font-size:2.11667px;line-height:1.25;font-family:sans-serif;fill:#000000;fill-opacity:1;stroke:none;stroke-width:0.264583"
       x="96.334885"
       y="56.262928"
       id="text1815"><tspan
         sodipodi:role="line"
         id="tspan1813"
         style="font-size:2.11667px;text-align:center;text-anchor:middle;stroke-width:0.264583"
         x="96.334885"
         y="56.262928">Dimensionality</tspan><tspan
         sodipodi:role="line"
         style="font-size:2.11667px;text-align:center;text-anchor:middle;stroke-width:0.264583"
         x="96.334885"
         y="58.908768"
         id="tspan1817">reduction</tspan></text>
    <text
       xml:space="preserve"
       style="font-style:normal;font-weight:normal;font-size:2.11667px;line-height:1.25;font-family:sans-serif;fill:#000000;fill-opacity:1;stroke:none;stroke-width:0.264583"
       x="108.67566"
       y="25.486603"
       id="text1821"><tspan
         sodipodi:role="line"
         id="tspan1819"
         style="font-size:2.11667px;stroke-width:0.264583"
         x="108.67566"
         y="25.486603">Classification</tspan></text>
    <path
       style="fill:none;fill-rule:evenodd;stroke:#000000;stroke-width:0.264583px;stroke-linecap:butt;stroke-linejoin:miter;stroke-opacity:1"
       d="M 64.875697,49.562475 54.349873,56.693863"
       id="path1831"
       inkscape:connector-type="polyline"
       inkscape:connector-curvature="0"
       inkscape:connection-end="#rect1722-9"
       inkscape:connection-start="#path1013-3-5" />
    <path
       style="fill:none;fill-rule:evenodd;stroke:#000000;stroke-width:0.264583px;stroke-linecap:butt;stroke-linejoin:miter;stroke-opacity:1"
       d="m 106.08863,12.101673 v 0"
       id="path1835"
       inkscape:connector-type="polyline"
       inkscape:connector-curvature="0"
       inkscape:connection-start="#path1013-3-5-1"
       inkscape:connection-end="#path1013-3-5-1" />
    <text
       xml:space="preserve"
       style="font-style:normal;font-weight:normal;font-size:2.11667px;line-height:1.25;font-family:sans-serif;fill:#000000;fill-opacity:1;stroke:none;stroke-width:0.264583"
       x="136.65651"
       y="25.514683"
       id="text3202"><tspan
         sodipodi:role="line"
         id="tspan3200"
         style="font-size:2.11667px;stroke-width:0.264583"
         x="136.65651"
         y="25.514683">Regression</tspan></text>
    <text
       xml:space="preserve"
       style="font-style:normal;font-weight:normal;font-size:1.78654px;line-height:1.25;font-family:sans-serif;fill:#000000;fill-opacity:1;stroke:none;stroke-width:0.223316"
       x="30.416285"
       y="22.31435"
       id="text3202-7"><tspan
         sodipodi:role="line"
         id="tspan3200-5"
         style="font-size:1.78654px;stroke-width:0.223316"
         x="30.416285"
         y="22.31435">Environment</tspan></text>
    <text
       xml:space="preserve"
       style="font-style:normal;font-weight:normal;font-size:1.78654px;line-height:1.25;font-family:sans-serif;fill:#000000;fill-opacity:1;stroke:none;stroke-width:0.223316"
       x="33.556679"
       y="46.116577"
       id="text3202-7-3"><tspan
         sodipodi:role="line"
         style="font-size:1.78654px;stroke-width:0.223316"
         x="33.556679"
         y="46.116577"
         id="tspan9735">Agent</tspan></text>
    <text
       xml:space="preserve"
       style="font-style:normal;font-weight:normal;font-size:1.78654px;line-height:1.25;font-family:sans-serif;fill:#000000;fill-opacity:1;stroke:none;stroke-width:0.223316"
       x="-13.088968"
       y="39.220341"
       id="text3202-7-2"
       transform="rotate(-54.466722)"><tspan
         sodipodi:role="line"
         id="tspan3200-5-2"
         style="font-size:1.78654px;stroke-width:0.223316"
         x="-13.088968"
         y="39.220341">Reward</tspan></text>
    <text
       xml:space="preserve"
       style="font-style:normal;font-weight:normal;font-size:1.78654px;line-height:1.25;font-family:sans-serif;fill:#000000;fill-opacity:1;stroke:none;stroke-width:0.223316"
       x="-19.975134"
       y="42.372406"
       id="text3202-7-2-8"
       transform="rotate(-66.033618)"><tspan
         sodipodi:role="line"
         id="tspan3200-5-2-9"
         style="font-size:1.78654px;stroke-width:0.223316"
         x="-19.975134"
         y="42.372406">State</tspan></text>
    <text
       xml:space="preserve"
       style="font-style:normal;font-weight:normal;font-size:1.78654px;line-height:1.25;font-family:sans-serif;fill:#000000;fill-opacity:1;stroke:none;stroke-width:0.223316"
       x="46.886101"
       y="-25.152971"
       id="text3202-7-2-8-1"
       transform="rotate(62.078947)"><tspan
         sodipodi:role="line"
         style="font-size:1.78654px;stroke-width:0.223316"
         x="46.886101"
         y="-25.152971"
         id="tspan9774">Action</tspan></text>
    <g
       id="g8979"
       transform="matrix(0.02947115,0,0,-0.02947115,23.8407,47.978324)">
      <g
         id="g8981"
         clip-path="url(#clipPath8985)">
        <g
           id="g8987"
           transform="matrix(3.3646,-1.88e-7,-3.77e-7,3.3958,300,127.5)">
          <g
             id="g8989"
             transform="scale(0.98955,0.9895)">
            <g
               id="g8991"
               clip-path="url(#clipPath8995)">
              <path
                 d="m 48.712,18.367 h -24.75 c -3.107,0 -5.625,-2.518 -5.625,-5.625 0,-3.1066 2.518,-5.6251 5.625,-5.6251 h 24.75 c 3.106,0 5.625,2.5185 5.625,5.6251 0,3.107 -2.519,5.625 -5.625,5.625 z m -23.25,-7.875 c -1.243,0 -2.25,1.007 -2.25,2.25 0,1.243 1.007,2.25 2.25,2.25 1.242,0 2.25,-1.007 2.25,-2.25 0,-1.243 -1.008,-2.25 -2.25,-2.25 z m 10.875,0 c -1.243,0 -2.25,1.007 -2.25,2.25 0,1.243 1.007,2.25 2.25,2.25 1.242,0 2.25,-1.007 2.25,-2.25 0,-1.243 -1.008,-2.25 -2.25,-2.25 z m 10.875,0 c -1.243,0 -2.25,1.007 -2.25,2.25 0,1.243 1.007,2.25 2.25,2.25 1.242,0 2.25,-1.007 2.25,-2.25 0,-1.243 -1.008,-2.25 -2.25,-2.25 z"
                 style="fill:#000000;fill-opacity:1;fill-rule:nonzero;stroke:none"
                 id="path8997" />
              <path
                 d="m 41.519,51.367 c 0,-0.621 -0.503,-1.125 -1.125,-1.125 -0.621,0 -1.125,0.504 -1.125,1.125 0,0.621 0.504,1.125 1.125,1.125 0.622,0 1.125,-0.504 1.125,-1.125 z"
                 style="fill:#000000;fill-opacity:1;fill-rule:nonzero;stroke:none"
                 id="path8999" />
              <path
                 d="m 42.854,58.867 h -4.957 v 3.412 c 1.435,0.829 1.926,2.664 1.098,4.099 -0.829,1.434 -2.663,1.926 -4.098,1.098 -1.435,-0.829 -1.927,-2.664 -1.098,-4.098 0.263,-0.457 0.642,-0.835 1.098,-1.099 v -3.412 h -4.958 c -1.816,-0.004 -3.288,-1.476 -3.292,-3.293 v -8.415 c 0.004,-1.816 1.476,-3.288 3.292,-3.292 h 12.915 c 1.817,0.004 3.289,1.476 3.293,3.292 v 8.415 c -0.004,1.817 -1.476,3.289 -3.293,3.293 z m -10.207,-9.75 c -1.243,0 -2.25,1.007 -2.25,2.25 0,1.243 1.007,2.25 2.25,2.25 1.242,0 2.25,-1.007 2.25,-2.25 0,-1.243 -1.008,-2.25 -2.25,-2.25 z m 7.5,0 c -1.243,0 -2.25,1.007 -2.25,2.25 0,1.243 1.007,2.25 2.25,2.25 1.242,0 2.25,-1.007 2.25,-2.25 0,-1.243 -1.008,-2.25 -2.25,-2.25 z"
                 style="fill:#000000;fill-opacity:1;fill-rule:nonzero;stroke:none"
                 id="path9001" />
              <path
                 d="m 34.019,51.367 c 0,-0.621 -0.503,-1.125 -1.125,-1.125 -0.621,0 -1.125,0.504 -1.125,1.125 0,0.621 0.504,1.125 1.125,1.125 0.622,0 1.125,-0.504 1.125,-1.125 z"
                 style="fill:#000000;fill-opacity:1;fill-rule:nonzero;stroke:none"
                 id="path9003" />
              <path
                 d="m 55.897,28.252 v 6.247 c 0,1.86 -1.508,3.368 -3.368,3.368 h -4.132 v 3.75 h -24 v -4.5 h -5.633 c -0.203,0 -0.367,0.164 -0.367,0.367 v 6.218 c 2.578,0.761 4.051,3.469 3.289,6.047 -0.204,0.691 -0.559,1.328 -1.039,1.865 l -2.25,-1.995 c 0.314,-0.342 0.493,-0.787 0.502,-1.252 -0.005,-1.036 -0.849,-1.87 -1.885,-1.865 -1.035,0.006 -1.87,0.85 -1.865,1.885 0.003,0.448 0.165,0.879 0.458,1.217 l -2.25,1.973 c -1.768,-2.031 -1.555,-5.11 0.476,-6.878 0.46,-0.4 0.99,-0.71 1.564,-0.915 v -6.3 c 0,-1.859 1.507,-3.367 3.367,-3.367 h 5.633 v -13.5 h 24 v 14.25 h 4.132 c 0.203,0 0.368,-0.165 0.368,-0.368 v -6.247 c -2.562,-0.829 -3.967,-3.577 -3.138,-6.139 0.207,-0.641 0.545,-1.232 0.993,-1.736 l 2.25,1.995 c -0.311,0.34 -0.482,0.784 -0.48,1.245 0.001,1.035 0.841,1.874 1.876,1.873 1.036,-10e-4 1.875,-0.841 1.874,-1.876 -10e-4,-0.454 -0.166,-0.893 -0.465,-1.235 l 2.25,-1.972 c 1.774,2.019 1.576,5.095 -0.443,6.869 -0.5,0.439 -1.084,0.771 -1.717,0.976 z m -10.5,2.865 H 43.312 C 43.239,31.104 43.17,31.076 43.109,31.034 l -2.295,-2.347 -1.747,4.14 -3.263,-6.75 -2.287,8.79 -1.763,-3.75 h -3.607 v 1.5 h 2.655 l 3.12,6.637 2.31,-8.835 2.932,6 2.16,-5.115 0.75,0.75 c 0.33,0.334 0.77,0.534 1.238,0.563 h 2.085 z"
                 style="fill:#000000;fill-opacity:1;fill-rule:nonzero;stroke:none"
                 id="path9005" />
            </g>
          </g>
        </g>
      </g>
    </g>
    <g
       id="g9247"
       transform="matrix(0.05372482,0,0,-0.05372482,-0.3815058,42.126977)">
      <g
         id="g9249"
         clip-path="url(#clipPath9253)">
        <g
           id="g9255"
           transform="matrix(1.6562,-1.88e-7,-7.54e-7,1.6667,621,225)">
          <g
             id="g9257"
             transform="scale(0.98955,0.9895)">
            <g
               id="g9259"
               clip-path="url(#clipPath9263)">
              <path
                 d="m 36.397,64.867 c -15.75,0 -28.5002,-12.75 -28.5002,-28.5 0,-15.75 12.7502,-28.5001 28.5002,-28.5001 15.75,0 28.5,12.7501 28.5,28.5001 0,15.75 -12.75,28.5 -28.5,28.5 z m 0,-54 c -14.025,0 -25.5,11.475 -25.5,25.5 0,0.375 0,0.675 0,1.05 l 1.05,1.35 c 0.3,0.375 0.75,0.6 1.2,0.6 h 2.55 c 0.3,0 0.525,-0.15 0.675,-0.45 l 2.7,-5.4 c 0.075,-0.15 0.15,-0.225 0.225,-0.3 l 0.9,-0.6 c 0.525,-0.3 1.2,0 1.2,0.6 v 2.475 c 0,0.375 0.15,0.75 0.45,1.05 l 1.95,1.95 c 0.3,0.3 0.825,0.3 1.125,-0.075 l 2.25,-2.85 c 0.15,-0.15 0.375,-0.3 0.6,-0.3 h 0.525 c 0.375,0 0.75,-0.15 1.05,-0.45 l 0.6,-0.6 c 0.3,-0.3 0.675,-0.45 1.05,-0.45 h 0.15 c 0.45,0 0.75,0.3 0.75,0.75 v 1.8 c 0,0.3 -0.15,0.525 -0.45,0.675 l -0.675,0.3 c -0.225,0.15 -0.45,0.375 -0.45,0.675 v 1.2 c 0,0.45 0.3,0.75 0.75,0.75 h 1.875 c 0.225,0 0.45,0.15 0.6,0.3 l 1.05,1.575 c 0.15,0.225 0.225,0.525 0.225,0.825 v 1.575 c 0,0.15 0,0.225 -0.075,0.375 l -0.525,2.25 c -0.075,0.375 0.075,0.675 0.375,0.825 l 0.375,0.15 c 0.375,0.15 0.75,0.075 0.975,-0.225 0,0 0.675,-1.425 1.125,-1.725 0.15,-0.075 0.6,-0.15 0.75,0 0.45,0.45 0.3,1.95 0.15,2.925 -0.075,0.525 0.15,1.05 0.6,1.425 l 1.95,1.5 c 0.225,0.15 0.3,0.375 0.3,0.6 v 0.375 c 0,0.45 0.3,0.75 0.75,0.75 0.45,0 0.75,0.3 0.75,0.75 v 0.15 c 0,0.375 -0.225,0.675 -0.6,0.75 l -1.35,0.3 c -0.525,0.15 -0.75,0.75 -0.45,1.2 l 0.9,1.2 c 0.45,0.6 1.125,0.9 1.8,0.9 h 2.325 c 0.6,0 1.125,0.375 1.35,0.9 9.225,-3.9 15.6,-12.9 15.6,-23.4 0,-14.025 -11.475,-25.5 -25.5,-25.5 z"
                 style="fill:#000000;fill-opacity:1;fill-rule:nonzero;stroke:none"
                 id="path9265" />
              <path
                 d="m 49.222,21.067 c -0.075,0.15 -0.15,0.375 -0.3,0.525 l -2.925,4.425 c -0.375,0.6 -1.35,0.375 -1.35,-0.375 v -0.525 c 0,-0.45 -0.3,-0.75 -0.75,-0.75 h -0.3 c -0.3,0 -0.525,0.15 -0.675,0.45 l -0.6,1.275 c -0.3,0.525 -1.05,0.525 -1.35,0 l -0.6,-0.675 c -0.15,-0.15 -0.375,-0.225 -0.525,-0.225 h -0.525 c -0.375,0 -0.75,-0.15 -1.05,-0.45 l -3,-2.4 c -0.6,-0.525 -0.75,-1.425 -0.3,-2.025 l 1.95,-3.225 c 0.525,-0.825 1.65,-0.975 2.325,-0.3 l 1.425,1.425 c 0.525,0.525 1.425,0.6 2.025,0.075 l 2.475,-2.025 c 0.15,-0.075 0.3,-0.15 0.45,-0.15 h 2.025 c 0.45,0 0.75,0.3 0.75,0.75 v 1.05 c 0,0.3 0.15,0.525 0.45,0.675 l 0.525,0.225 c 0.3,0.15 0.525,0.525 0.375,0.9 z"
                 style="fill:#000000;fill-opacity:1;fill-rule:nonzero;stroke:none"
                 id="path9267" />
              <path
                 d="m 40.897,31.117 1.875,-2.475 c 0.225,-0.3 0.6,-0.375 0.9,-0.225 l 0.975,0.45 1.275,-0.45 c 0.45,-0.15 0.975,0.225 0.975,0.675 v 0 c 0,0.3 -0.15,0.525 -0.375,0.675 l -3.225,1.95 c -0.075,0.15 -0.225,0.15 -0.375,0.15 h -2.025 z"
                 style="fill:#000000;fill-opacity:1;fill-rule:nonzero;stroke:none"
                 id="path9269" />
              <path
                 d="m 35.122,30.517 0.45,1.65 c 0.075,0.225 0,0.525 -0.225,0.675 -0.225,0.225 -0.675,0.3 -0.975,0.075 l -1.5,-1.125 c -0.45,-0.3 -0.375,-1.05 0.15,-1.275 l 1.05,-0.525 c 0.45,-0.15 0.9,0.075 1.05,0.525 z"
                 style="fill:#000000;fill-opacity:1;fill-rule:nonzero;stroke:none"
                 id="path9271" />
              <path
                 d="m 27.922,32.242 c -0.3,0.225 -0.675,0.15 -0.975,-0.075 l -0.3,-0.3 4.425,-3.675 c 0.075,-0.075 0.15,-0.075 0.225,-0.15 l 1.65,-0.525 c 0.3,-0.075 0.6,0 0.75,0.15 l 0.45,0.45 c -3.15,0.9 -6.225,4.125 -6.225,4.125 z"
                 style="fill:#000000;fill-opacity:1;fill-rule:nonzero;stroke:none"
                 id="path9273" />
              <path
                 d="m 38.647,43.867 c 2.025,1.35 4.35,2.925 3.75,5.25 -0.075,0.15 -0.675,0.15 -0.75,0 -0.3,-1.35 -0.6,-2.475 -3.75,-4.5 -0.15,-0.15 0.45,-0.9 0.75,-0.75 z"
                 style="fill:#000000;fill-opacity:1;fill-rule:nonzero;stroke:none"
                 id="path9275" />
            </g>
          </g>
        </g>
      </g>
    </g>
    <path
       style="fill:none;stroke:#000000;stroke-width:0.190538px;stroke-linecap:butt;stroke-linejoin:miter;stroke-opacity:1"
       d="m 32.251474,27.221531 c 0,0 -10.734578,13.886937 0.77768,14.303682"
       id="path9580" />
    <path
       style="fill:none;stroke:#000000;stroke-width:0.234799px;stroke-linecap:butt;stroke-linejoin:miter;stroke-opacity:1;marker-end:url(#TriangleStart)"
       d="m 31.921922,26.876192 c 0,0 -15.88529,14.250226 1.150828,14.677873"
       id="path9580-9" />
    <path
       style="fill:none;stroke:#000000;stroke-width:0.209695px;stroke-linecap:butt;stroke-linejoin:miter;stroke-opacity:1;marker-start:url(#TriangleStart)"
       d="m 40.14581,26.93251 c 0,0 12.655617,14.26648 -0.916851,14.694616"
       id="path9580-9-7" />
    <path
       style="fill:none;fill-rule:evenodd;stroke:#000000;stroke-width:0.264583px;stroke-linecap:butt;stroke-linejoin:miter;stroke-opacity:1"
       d="m 71.511661,29.720546 -0.0204,10.184739"
       id="path10726"
       inkscape:connector-type="polyline"
       inkscape:connector-curvature="0"
       inkscape:connection-start="#path1013"
       inkscape:connection-end="#path1013-3-5" />
    <path
       style="fill:none;fill-rule:evenodd;stroke:#000000;stroke-width:0.264583px;stroke-linecap:butt;stroke-linejoin:miter;stroke-opacity:1"
       d="m 71.481059,45.087451 18.972553,8.45884"
       id="path10728"
       inkscape:connector-type="polyline"
       inkscape:connector-curvature="0"
       inkscape:connection-start="#path1013-3-5"
       inkscape:connection-end="#rect1722-2" />
  </g>
</svg>
