<?xml version="1.0" encoding="UTF-8" standalone="no"?>
<!-- Created with Inkscape (http://www.inkscape.org/) -->

<svg
   width="126mm"
   height="55mm"
   viewBox="0 0 126 55.000001"
   version="1.1"
   id="svg1911"
   inkscape:version="1.1.2 (0a00cf5339, 2022-02-04)"
   sodipodi:docname="paradigma_2.svg"
   xmlns:inkscape="http://www.inkscape.org/namespaces/inkscape"
   xmlns:sodipodi="http://sodipodi.sourceforge.net/DTD/sodipodi-0.dtd"
   xmlns="http://www.w3.org/2000/svg"
   xmlns:svg="http://www.w3.org/2000/svg"
   xmlns:rdf="http://www.w3.org/1999/02/22-rdf-syntax-ns#"
   xmlns:cc="http://creativecommons.org/ns#"
   xmlns:dc="http://purl.org/dc/elements/1.1/">
  <metadata
     id="metadata168">
    <rdf:RDF>
      <cc:Work
         rdf:about="">
        <dc:format>image/svg+xml</dc:format>
        <dc:type
           rdf:resource="http://purl.org/dc/dcmitype/StillImage" />
        <dc:title />
      </cc:Work>
    </rdf:RDF>
  </metadata>
  <sodipodi:namedview
     id="namedview1913"
     pagecolor="#ffffff"
     bordercolor="#666666"
     borderopacity="1.0"
     inkscape:showpageshadow="2"
     inkscape:pageopacity="0.0"
     inkscape:pagecheckerboard="0"
     inkscape:deskcolor="#d1d1d1"
     inkscape:document-units="mm"
     showgrid="false"
     inkscape:zoom="1.5500842"
     inkscape:cx="38.385012"
     inkscape:cy="174.18409"
     inkscape:window-width="1920"
     inkscape:window-height="1043"
     inkscape:window-x="0"
     inkscape:window-y="0"
     inkscape:window-maximized="1"
     inkscape:current-layer="layer1"
     inkscape:pageshadow="2" />
  <defs
     id="defs1908">
    <clipPath
       clipPathUnits="userSpaceOnUse"
       id="clipPath1854">
      <path
         d="M 1.4838e-5,0 H 995.76001 V 398.28 H 1.4838e-5 Z"
         id="path1852"
         inkscape:connector-curvature="0"
         style="clip-rule:evenodd" />
    </clipPath>
    <clipPath
       clipPathUnits="userSpaceOnUse"
       id="clipPath1866">
      <path
         d="M 1.4838e-5,0 H 995.76001 V 398.28 H 1.4838e-5 Z"
         id="path1864"
         inkscape:connector-curvature="0"
         style="clip-rule:evenodd" />
    </clipPath>
    <clipPath
       clipPathUnits="userSpaceOnUse"
       id="clipPath1958">
      <path
         d="M 1.4838e-5,0 H 995.76001 V 398.28 H 1.4838e-5 Z"
         id="path1956"
         inkscape:connector-curvature="0"
         style="clip-rule:evenodd" />
    </clipPath>
    <clipPath
       clipPathUnits="userSpaceOnUse"
       id="clipPath1970">
      <path
         d="M 1.4838e-5,0 H 995.76001 V 398.28 H 1.4838e-5 Z"
         id="path1968"
         inkscape:connector-curvature="0"
         style="clip-rule:evenodd" />
    </clipPath>
    <clipPath
       clipPathUnits="userSpaceOnUse"
       id="clipPath1982">
      <path
         d="M -3.0518e-5,398.28 H 995.76 V 1.5259e-4 L -1.5259e-5,6.1035e-5"
         id="path1980"
         inkscape:connector-curvature="0"
         style="clip-rule:evenodd" />
    </clipPath>
    <clipPath
       clipPathUnits="userSpaceOnUse"
       id="clipPath1992">
      <path
         d="M -3.0518e-5,398.28 H 995.76 V 1.5259e-4 L -1.5259e-5,6.1035e-5"
         id="path1990"
         inkscape:connector-curvature="0"
         style="clip-rule:evenodd" />
    </clipPath>
    <clipPath
       clipPathUnits="userSpaceOnUse"
       id="clipPath2002">
      <path
         d="M -3.0518e-5,398.28 H 995.76 V 1.8311e-4 L -3.0518e-5,3.0518e-5"
         id="path2000"
         inkscape:connector-curvature="0"
         style="clip-rule:evenodd" />
    </clipPath>
    <clipPath
       clipPathUnits="userSpaceOnUse"
       id="clipPath2012">
      <path
         d="M -3.0518e-5,398.28 H 995.76 V 1.8311e-4 L -3.0518e-5,3.0518e-5"
         id="path2010"
         inkscape:connector-curvature="0"
         style="clip-rule:evenodd" />
    </clipPath>
    <clipPath
       clipPathUnits="userSpaceOnUse"
       id="clipPath2022">
      <path
         d="M -3.0518e-5,398.28 H 995.76 V 1.8311e-4 L -6.1035e-5,6.1035e-5"
         id="path2020"
         inkscape:connector-curvature="0"
         style="clip-rule:evenodd" />
    </clipPath>
    <clipPath
       clipPathUnits="userSpaceOnUse"
       id="clipPath2032">
      <path
         d="M -3.0518e-5,398.28 H 995.76 V 1.8311e-4 L -6.1035e-5,6.1035e-5"
         id="path2030"
         inkscape:connector-curvature="0"
         style="clip-rule:evenodd" />
    </clipPath>
    <clipPath
       clipPathUnits="userSpaceOnUse"
       id="clipPath2042">
      <path
         d="M -1.5259e-5,398.28 H 995.76 V 1.2207e-4 L -3.0518e-5,6.1035e-5"
         id="path2040"
         inkscape:connector-curvature="0"
         style="clip-rule:evenodd" />
    </clipPath>
    <clipPath
       clipPathUnits="userSpaceOnUse"
       id="clipPath2052">
      <path
         d="M -1.5259e-5,398.28 H 995.76 V 1.2207e-4 L -3.0518e-5,6.1035e-5"
         id="path2050"
         inkscape:connector-curvature="0"
         style="clip-rule:evenodd" />
    </clipPath>
    <clipPath
       clipPathUnits="userSpaceOnUse"
       id="clipPath2062">
      <path
         d="M -3.0518e-5,398.28 H 995.76 V 1.5259e-4 L -3.0518e-5,6.1035e-5"
         id="path2060"
         inkscape:connector-curvature="0"
         style="clip-rule:evenodd" />
    </clipPath>
    <clipPath
       clipPathUnits="userSpaceOnUse"
       id="clipPath2072">
      <path
         d="M -3.0518e-5,398.28 H 995.76 V 1.5259e-4 L -3.0518e-5,6.1035e-5"
         id="path2070"
         inkscape:connector-curvature="0"
         style="clip-rule:evenodd" />
    </clipPath>
    <clipPath
       clipPathUnits="userSpaceOnUse"
       id="clipPath2082">
      <path
         d="M 1.4838e-5,0 H 995.76001 V 398.28 H 1.4838e-5 Z"
         id="path2080"
         inkscape:connector-curvature="0"
         style="clip-rule:evenodd" />
    </clipPath>
    <clipPath
       clipPathUnits="userSpaceOnUse"
       id="clipPath2094">
      <path
         d="M 1.4838e-5,0 H 995.76001 V 398.28 H 1.4838e-5 Z"
         id="path2092"
         inkscape:connector-curvature="0"
         style="clip-rule:evenodd" />
    </clipPath>
    <clipPath
       clipPathUnits="userSpaceOnUse"
       id="clipPath2108">
      <path
         d="M 1.4838e-5,0 H 995.76001 V 398.28 H 1.4838e-5 Z"
         id="path2106"
         inkscape:connector-curvature="0"
         style="clip-rule:evenodd" />
    </clipPath>
    <clipPath
       clipPathUnits="userSpaceOnUse"
       id="clipPath2120">
      <path
         d="M 1.4838e-5,0 H 995.76001 V 398.28 H 1.4838e-5 Z"
         id="path2118"
         inkscape:connector-curvature="0"
         style="clip-rule:evenodd" />
    </clipPath>
    <clipPath
       clipPathUnits="userSpaceOnUse"
       id="clipPath2134">
      <path
         d="M 1.4838e-5,0 H 995.76001 V 398.28 H 1.4838e-5 Z"
         id="path2132"
         inkscape:connector-curvature="0"
         style="clip-rule:evenodd" />
    </clipPath>
    <clipPath
       clipPathUnits="userSpaceOnUse"
       id="clipPath2146">
      <path
         d="M 1.4838e-5,0 H 995.76001 V 398.28 H 1.4838e-5 Z"
         id="path2144"
         inkscape:connector-curvature="0"
         style="clip-rule:evenodd" />
    </clipPath>
    <clipPath
       clipPathUnits="userSpaceOnUse"
       id="clipPath2160">
      <path
         d="M 1.4838e-5,0 H 995.76001 V 398.28 H 1.4838e-5 Z"
         id="path2158"
         inkscape:connector-curvature="0"
         style="clip-rule:evenodd" />
    </clipPath>
    <clipPath
       clipPathUnits="userSpaceOnUse"
       id="clipPath2172">
      <path
         d="M 1.4838e-5,0 H 995.76001 V 398.28 H 1.4838e-5 Z"
         id="path2170"
         inkscape:connector-curvature="0"
         style="clip-rule:evenodd" />
    </clipPath>
    <clipPath
       clipPathUnits="userSpaceOnUse"
       id="clipPath2186">
      <path
         d="M 1.4838e-5,0 H 995.76001 V 398.28 H 1.4838e-5 Z"
         id="path2184"
         inkscape:connector-curvature="0"
         style="clip-rule:evenodd" />
    </clipPath>
    <clipPath
       clipPathUnits="userSpaceOnUse"
       id="clipPath2198">
      <path
         d="M 1.4838e-5,0 H 995.76001 V 398.28 H 1.4838e-5 Z"
         id="path2196"
         inkscape:connector-curvature="0"
         style="clip-rule:evenodd" />
    </clipPath>
    <clipPath
       clipPathUnits="userSpaceOnUse"
       id="clipPath2212">
      <path
         d="M 1.4838e-5,0 H 995.76001 V 398.28 H 1.4838e-5 Z"
         id="path2210"
         inkscape:connector-curvature="0"
         style="clip-rule:evenodd" />
    </clipPath>
    <clipPath
       clipPathUnits="userSpaceOnUse"
       id="clipPath2224">
      <path
         d="M 1.4838e-5,0 H 995.76001 V 398.28 H 1.4838e-5 Z"
         id="path2222"
         inkscape:connector-curvature="0"
         style="clip-rule:evenodd" />
    </clipPath>
    <clipPath
       clipPathUnits="userSpaceOnUse"
       id="clipPath2238">
      <path
         d="M 1.4838e-5,0 H 995.76001 V 398.28 H 1.4838e-5 Z"
         id="path2236"
         inkscape:connector-curvature="0"
         style="clip-rule:evenodd" />
    </clipPath>
    <clipPath
       clipPathUnits="userSpaceOnUse"
       id="clipPath2250">
      <path
         d="M 1.4838e-5,0 H 995.76001 V 398.28 H 1.4838e-5 Z"
         id="path2248"
         inkscape:connector-curvature="0"
         style="clip-rule:evenodd" />
    </clipPath>
  </defs>
  <g
     inkscape:label="Layer 1"
     inkscape:groupmode="layer"
     id="layer1"
     transform="translate(-1.8997079,-2.238386)"
     style="display:inline">
    <g
       id="g2114"
       transform="matrix(0.59897231,0,0,-0.59897231,-24.303923,174.04457)"
       style="fill:#000000">
      <g
         id="g2116"
         clip-path="url(#clipPath2120)"
         style="fill:#000000" />
    </g>
    <path
       inkscape:connector-curvature="0"
       id="path1778"
       style="fill:none;stroke:#ffffff;stroke-width:0.45399699;stroke-linecap:butt;stroke-linejoin:miter;stroke-miterlimit:10;stroke-dasharray:none;stroke-opacity:1"
       d="M 54.753217,15.421673 H 69.517174 V 4.0899271 H 54.753217 Z" />
    <rect
       transform="rotate(-45)"
       y="61.743473"
       x="42.083355"
       height="0.84611183"
       width="0.84611183"
       id="rect3908"
       style="fill:#000000;stroke:#000000;stroke-width:0.0739363;stroke-linecap:square" />
    <rect
       transform="rotate(-45)"
       y="61.789707"
       x="43.535255"
       height="0.84611183"
       width="0.84611183"
       id="rect3908-2"
       style="fill:#000000;stroke:#000000;stroke-width:0.0739363;stroke-linecap:square" />
    <rect
       transform="rotate(-45)"
       y="61.839161"
       x="45.006519"
       height="0.84611183"
       width="0.84611183"
       id="rect3908-0"
       style="fill:#000000;stroke:#000000;stroke-width:0.0739363;stroke-linecap:square" />
    <text
       id="text4230"
       y="7.0896745"
       x="93.693596"
       style="font-style:normal;font-weight:normal;font-size:2.9413px;line-height:1.25;font-family:sans-serif;fill:#000000;fill-opacity:1;stroke:none;stroke-width:0.200543"
       xml:space="preserve"><tspan
         y="7.0896745"
         x="93.693596"
         style="font-size:2.9413px;stroke-width:0.200543"
         id="tspan4228"
         sodipodi:role="line">Stimulus types</tspan></text>
    <path
       d="M 55.239234,16.186338 70.002696,16.307246 70.095496,4.97588 55.332034,4.8549722 Z"
       style="fill:#000000;fill-opacity:1;fill-rule:evenodd;stroke:none;stroke-width:0.45399675"
       id="path1776"
       inkscape:connector-curvature="0" />
    <path
       d="m 64.49393,10.405383 c 0.0055,-0.6764317 0.618373,-1.2207663 1.371981,-1.2145945 0.753609,0.00617 1.357445,0.5604705 1.351906,1.2369025 -0.0055,0.676431 -0.618373,1.220766 -1.371983,1.214594 -0.753608,-0.0062 -1.357444,-0.56047 -1.351904,-1.236902 z"
       style="fill:#ff0000;fill-opacity:1;fill-rule:evenodd;stroke:none;stroke-width:0.45399675"
       id="path1780"
       inkscape:connector-curvature="0" />
    <path
       d="m 64.49393,10.405383 c 0.0055,-0.6764317 0.618373,-1.2207663 1.371981,-1.2145945 0.753609,0.00617 1.357445,0.5604705 1.351906,1.2369025 -0.0055,0.676431 -0.618373,1.220766 -1.371983,1.214594 -0.753608,-0.0062 -1.357444,-0.56047 -1.351904,-1.236902 z"
       style="fill:none;stroke:#000000;stroke-width:0.45399675;stroke-linecap:butt;stroke-linejoin:miter;stroke-miterlimit:10;stroke-dasharray:none;stroke-opacity:1"
       id="path1782"
       inkscape:connector-curvature="0" />
    <path
       d="m 61.585642,12.94219 c 0.0055,-0.676432 0.618373,-1.220767 1.371982,-1.214595 0.753608,0.0062 1.357443,0.560471 1.351903,1.236903 -0.0055,0.676432 -0.618372,1.220767 -1.37198,1.214595 -0.753609,-0.0062 -1.357445,-0.560471 -1.351905,-1.236903 z"
       style="fill:#ff0000;fill-opacity:1;fill-rule:evenodd;stroke:none;stroke-width:0.45399675"
       id="path1784"
       inkscape:connector-curvature="0" />
    <path
       d="m 61.585642,12.94219 c 0.0055,-0.676432 0.618373,-1.220767 1.371982,-1.214595 0.753608,0.0062 1.357443,0.560471 1.351903,1.236903 -0.0055,0.676432 -0.618372,1.220767 -1.37198,1.214595 -0.753609,-0.0062 -1.357445,-0.560471 -1.351905,-1.236903 z"
       style="fill:none;stroke:#000000;stroke-width:0.45399675;stroke-linecap:butt;stroke-linejoin:miter;stroke-miterlimit:10;stroke-dasharray:none;stroke-opacity:1"
       id="path1786"
       inkscape:connector-curvature="0" />
    <path
       d="m 58.773769,10.358537 c 0.0055,-0.6764319 0.618373,-1.2207665 1.371982,-1.2145947 0.753609,0.00617 1.357444,0.5604705 1.351904,1.2369027 -0.0055,0.676431 -0.618372,1.220766 -1.37198,1.214594 -0.75361,-0.0062 -1.357446,-0.560471 -1.351906,-1.236902 z"
       style="fill:#ff0000;fill-opacity:1;fill-rule:evenodd;stroke:none;stroke-width:0.45399675"
       id="path1788"
       inkscape:connector-curvature="0" />
    <path
       d="m 58.773769,10.358537 c 0.0055,-0.6764319 0.618373,-1.2207665 1.371982,-1.2145947 0.753609,0.00617 1.357444,0.5604705 1.351904,1.2369027 -0.0055,0.676431 -0.618372,1.220766 -1.37198,1.214594 -0.75361,-0.0062 -1.357446,-0.560471 -1.351906,-1.236902 z"
       style="fill:none;stroke:#000000;stroke-width:0.45399675;stroke-linecap:butt;stroke-linejoin:miter;stroke-miterlimit:10;stroke-dasharray:none;stroke-opacity:1"
       id="path1790"
       inkscape:connector-curvature="0" />
    <path
       d="m 61.606611,10.381737 c 0.0055,-0.6764319 0.618373,-1.2207665 1.371982,-1.2145947 0.753608,0.00617 1.357443,0.5604705 1.351904,1.2369027 -0.0055,0.676431 -0.618373,1.220766 -1.371981,1.214594 -0.753609,-0.0062 -1.357445,-0.56047 -1.351905,-1.236902 z"
       style="fill:#00b050;fill-opacity:1;fill-rule:evenodd;stroke:none;stroke-width:0.45399675"
       id="path1792"
       inkscape:connector-curvature="0" />
    <path
       d="m 61.606611,10.381737 c 0.0055,-0.6764319 0.618373,-1.2207665 1.371982,-1.2145947 0.753608,0.00617 1.357443,0.5604705 1.351904,1.2369027 -0.0055,0.676431 -0.618373,1.220766 -1.371981,1.214594 -0.753609,-0.0062 -1.357445,-0.56047 -1.351905,-1.236902 z"
       style="fill:none;stroke:#000000;stroke-width:0.45399675;stroke-linecap:butt;stroke-linejoin:miter;stroke-miterlimit:10;stroke-dasharray:none;stroke-opacity:1"
       id="path1794"
       inkscape:connector-curvature="0" />
    <path
       d="m 61.626911,7.9030013 c 0.0057,-0.6900519 0.618596,-1.2480058 1.372205,-1.241834 0.753608,0.00617 1.357332,0.5740898 1.351681,1.2641418 -0.0057,0.6900511 -0.618596,1.248005 -1.372204,1.2418332 -0.753609,-0.00617 -1.357333,-0.5740898 -1.351682,-1.264141 z"
       style="fill:#ff0000;fill-opacity:1;fill-rule:evenodd;stroke:none;stroke-width:0.45399675"
       id="path1796"
       inkscape:connector-curvature="0" />
    <path
       d="m 61.626911,7.9030013 c 0.0057,-0.6900519 0.618596,-1.2480058 1.372205,-1.241834 0.753608,0.00617 1.357332,0.5740898 1.351681,1.2641418 -0.0057,0.6900511 -0.618596,1.248005 -1.372204,1.2418332 -0.753609,-0.00617 -1.357333,-0.5740898 -1.351682,-1.264141 z"
       style="fill:none;stroke:#000000;stroke-width:0.45399675;stroke-linecap:butt;stroke-linejoin:miter;stroke-miterlimit:10;stroke-dasharray:none;stroke-opacity:1"
       id="path1798"
       inkscape:connector-curvature="0" />
    <path
       d="m 47.093539,22.648737 14.708986,0.120462 0.0928,-11.331366 -14.708986,-0.120462 z"
       style="fill:#000001;fill-opacity:1;fill-rule:evenodd;stroke:none;stroke-width:0.45399675"
       id="path1800"
       inkscape:connector-curvature="0" />
    <path
       d="m 47.093539,22.648737 14.708986,0.120462 0.0928,-11.331366 -14.708986,-0.120462 z"
       style="fill:none;stroke:#ffffff;stroke-width:0.45399675;stroke-linecap:butt;stroke-linejoin:miter;stroke-miterlimit:10;stroke-dasharray:none;stroke-opacity:1"
       id="path1802"
       inkscape:connector-curvature="0" />
    <path
       d="M 39.055456,29.004291 53.76444,29.124752 53.85724,17.793386 39.148255,17.672924 Z"
       style="fill:#000000;fill-opacity:1;fill-rule:evenodd;stroke:none;stroke-width:0.45399675"
       id="path1804"
       inkscape:connector-curvature="0" />
    <path
       d="M 39.055456,29.004291 53.76444,29.124752 53.85724,17.793386 39.148255,17.672924 Z"
       style="fill:none;stroke:#ffffff;stroke-width:0.45399675;stroke-linecap:butt;stroke-linejoin:miter;stroke-miterlimit:10;stroke-dasharray:none;stroke-opacity:1"
       id="path1806"
       inkscape:connector-curvature="0" />
    <path
       d="m 45.096673,23.110757 1.030536,0.0084 0.0084,-1.030537 0.662813,0.0054 -0.0084,1.030538 1.030537,0.0084 -0.005,0.608334 -1.030537,-0.0084 -0.0084,1.030536 -0.662812,-0.0054 0.0084,-1.030536 -1.030536,-0.0084 z"
       style="fill:#ffffff;fill-opacity:1;fill-rule:evenodd;stroke:none;stroke-width:0.45399675"
       id="path1808"
       inkscape:connector-curvature="0" />
    <path
       d="m 31.12221,35.255191 14.763462,0.120907 0.0928,-11.331366 -14.763462,-0.120907 z"
       style="fill:#000000;fill-opacity:1;fill-rule:evenodd;stroke:none;stroke-width:0.45399675"
       id="path1810"
       inkscape:connector-curvature="0" />
    <path
       d="m 31.12221,35.255191 14.763462,0.120907 0.0928,-11.331366 -14.763462,-0.120907 z"
       style="fill:none;stroke:#ffffff;stroke-width:0.45399675;stroke-linecap:butt;stroke-linejoin:miter;stroke-miterlimit:10;stroke-dasharray:none;stroke-opacity:1"
       id="path1812"
       inkscape:connector-curvature="0" />
    <path
       d="m 23.143449,41.585599 14.708985,0.120462 0.0928,-11.331366 -14.708985,-0.120462 z"
       style="fill:#000000;fill-opacity:1;fill-rule:evenodd;stroke:none;stroke-width:0.45399675"
       id="path1814"
       inkscape:connector-curvature="0" />
    <path
       d="m 23.143449,41.585599 14.708985,0.120462 0.0928,-11.331366 -14.708985,-0.120462 z"
       style="fill:none;stroke:#ffffff;stroke-width:0.45399675;stroke-linecap:butt;stroke-linejoin:miter;stroke-miterlimit:10;stroke-dasharray:none;stroke-opacity:1"
       id="path1816"
       inkscape:connector-curvature="0" />
    <path
       d="m 32.398145,35.804643 c 0.0055,-0.67643 0.619736,-1.220754 1.371982,-1.214594 0.753609,0.0062 1.357445,0.560471 1.351905,1.236902 -0.0055,0.676432 -0.618373,1.220766 -1.371982,1.214595 -0.752246,-0.0062 -1.357445,-0.560471 -1.351905,-1.236903 z"
       style="fill:#ff0000;fill-opacity:1;fill-rule:evenodd;stroke:none;stroke-width:0.45399675"
       id="path1818"
       inkscape:connector-curvature="0" />
    <path
       d="m 32.398145,35.804643 c 0.0055,-0.67643 0.619736,-1.220754 1.371982,-1.214594 0.753609,0.0062 1.357445,0.560471 1.351905,1.236902 -0.0055,0.676432 -0.618373,1.220766 -1.371982,1.214595 -0.752246,-0.0062 -1.357445,-0.560471 -1.351905,-1.236903 z"
       style="fill:none;stroke:#000000;stroke-width:0.45399675;stroke-linecap:butt;stroke-linejoin:miter;stroke-miterlimit:10;stroke-dasharray:none;stroke-opacity:1"
       id="path1820"
       inkscape:connector-curvature="0" />
    <path
       d="m 29.489857,38.34145 c 0.0055,-0.676431 0.619735,-1.220755 1.371982,-1.214595 0.752246,0.0062 1.357443,0.560472 1.351904,1.236903 -0.0055,0.676432 -0.619735,1.220756 -1.371981,1.214595 -0.752247,-0.0062 -1.357445,-0.560471 -1.351905,-1.236903 z"
       style="fill:#ff0000;fill-opacity:1;fill-rule:evenodd;stroke:none;stroke-width:0.45399675"
       id="path1822"
       inkscape:connector-curvature="0" />
    <path
       d="m 29.489857,38.34145 c 0.0055,-0.676431 0.619735,-1.220755 1.371982,-1.214595 0.752246,0.0062 1.357443,0.560472 1.351904,1.236903 -0.0055,0.676432 -0.619735,1.220756 -1.371981,1.214595 -0.752247,-0.0062 -1.357445,-0.560471 -1.351905,-1.236903 z"
       style="fill:none;stroke:#000000;stroke-width:0.45399675;stroke-linecap:butt;stroke-linejoin:miter;stroke-miterlimit:10;stroke-dasharray:none;stroke-opacity:1"
       id="path1824"
       inkscape:connector-curvature="0" />
    <path
       d="m 26.677984,35.757797 c 0.0055,-0.67643 0.619735,-1.220755 1.371983,-1.214594 0.752245,0.0062 1.357443,0.560471 1.351904,1.236902 -0.0055,0.676432 -0.619736,1.220755 -1.371981,1.214594 -0.752247,-0.0062 -1.357445,-0.56047 -1.351906,-1.236902 z"
       style="fill:#ff0000;fill-opacity:1;fill-rule:evenodd;stroke:none;stroke-width:0.45399675"
       id="path1826"
       inkscape:connector-curvature="0" />
    <path
       d="m 26.677984,35.757797 c 0.0055,-0.67643 0.619735,-1.220755 1.371983,-1.214594 0.752245,0.0062 1.357443,0.560471 1.351904,1.236902 -0.0055,0.676432 -0.619736,1.220755 -1.371981,1.214594 -0.752247,-0.0062 -1.357445,-0.56047 -1.351906,-1.236902 z"
       style="fill:none;stroke:#000000;stroke-width:0.45399675;stroke-linecap:butt;stroke-linejoin:miter;stroke-miterlimit:10;stroke-dasharray:none;stroke-opacity:1"
       id="path1828"
       inkscape:connector-curvature="0" />
    <path
       d="m 29.510826,35.780997 c 0.0055,-0.67643 0.619735,-1.220755 1.371982,-1.214594 0.752246,0.0062 1.357444,0.560471 1.351904,1.236902 -0.0055,0.676432 -0.619735,1.220755 -1.371981,1.214594 -0.752247,-0.0062 -1.357444,-0.56047 -1.351905,-1.236902 z"
       style="fill:#ff0000;fill-opacity:1;fill-rule:evenodd;stroke:none;stroke-width:0.45399675"
       id="path1830"
       inkscape:connector-curvature="0" />
    <path
       d="m 29.510826,35.780997 c 0.0055,-0.67643 0.619735,-1.220755 1.371982,-1.214594 0.752246,0.0062 1.357444,0.560471 1.351904,1.236902 -0.0055,0.676432 -0.619735,1.220755 -1.371981,1.214594 -0.752247,-0.0062 -1.357444,-0.56047 -1.351905,-1.236902 z"
       style="fill:none;stroke:#000000;stroke-width:0.45399675;stroke-linecap:butt;stroke-linejoin:miter;stroke-miterlimit:10;stroke-dasharray:none;stroke-opacity:1"
       id="path1832"
       inkscape:connector-curvature="0" />
    <path
       d="m 29.531126,33.302261 c 0.0057,-0.69005 0.619958,-1.247994 1.372205,-1.241834 0.752247,0.0062 1.357332,0.574092 1.351681,1.264142 -0.0057,0.690051 -0.619958,1.247995 -1.372204,1.241834 -0.752247,-0.0062 -1.357333,-0.574091 -1.351682,-1.264142 z"
       style="fill:#ff0000;fill-opacity:1;fill-rule:evenodd;stroke:none;stroke-width:0.45399675"
       id="path1834"
       inkscape:connector-curvature="0" />
    <path
       d="m 29.531126,33.302261 c 0.0057,-0.69005 0.619958,-1.247994 1.372205,-1.241834 0.752247,0.0062 1.357332,0.574092 1.351681,1.264142 -0.0057,0.690051 -0.619958,1.247995 -1.372204,1.241834 -0.752247,-0.0062 -1.357333,-0.574091 -1.351682,-1.264142 z"
       style="fill:none;stroke:#000000;stroke-width:0.45399675;stroke-linecap:butt;stroke-linejoin:miter;stroke-miterlimit:10;stroke-dasharray:none;stroke-opacity:1"
       id="path1836"
       inkscape:connector-curvature="0" />
    <path
       d="m 14.544791,48.357325 14.708984,0.120462 0.09235,-11.276889 -14.708984,-0.120462 z"
       style="fill:#000000;fill-opacity:1;fill-rule:evenodd;stroke:none;stroke-width:0.45399675"
       id="path1838"
       inkscape:connector-curvature="0" />
    <path
       d="m 14.544791,48.357325 14.708984,0.120462 0.09235,-11.276889 -14.708984,-0.120462 z"
       style="fill:none;stroke:#ffffff;stroke-width:0.45399675;stroke-linecap:butt;stroke-linejoin:miter;stroke-miterlimit:10;stroke-dasharray:none;stroke-opacity:1"
       id="path1840"
       inkscape:connector-curvature="0" />
    <path
       d="m 5.843239,55.264531 14.708985,0.120462 0.0928,-11.331366 -14.7089849,-0.120461 z"
       style="fill:#000000;fill-opacity:1;fill-rule:evenodd;stroke:none;stroke-width:0.45399675"
       id="path1842"
       inkscape:connector-curvature="0" />
    <path
       d="m 5.843239,55.264531 14.708985,0.120462 0.0928,-11.331366 -14.7089849,-0.120461 z"
       style="fill:none;stroke:#ffffff;stroke-width:0.45399675;stroke-linecap:butt;stroke-linejoin:miter;stroke-miterlimit:10;stroke-dasharray:none;stroke-opacity:1"
       id="path1844"
       inkscape:connector-curvature="0" />
    <path
       d="m 11.884903,49.316519 1.030083,0.0084 0.0084,-1.030537 0.609241,0.005 -0.0084,1.030537 1.030082,0.0084 -0.005,0.608334 -1.030082,-0.0084 -0.0084,1.030538 -0.609242,-0.005 0.0084,-1.030537 -1.030083,-0.0084 z"
       style="fill:#ffffff;fill-opacity:1;fill-rule:evenodd;stroke:none;stroke-width:0.45399675"
       id="path1846"
       inkscape:connector-curvature="0" />
    <path
       d="m 22.230226,55.320618 4.539151,-3.399723 -0.27207,-0.363103 -4.539607,3.399696 z m 4.856425,-2.21943 1.363478,-2.724392 -2.996521,0.541191 z"
       style="fill:#000000;fill-opacity:1;fill-rule:nonzero;stroke:none;stroke-width:0.45399675"
       id="path2100"
       inkscape:connector-curvature="0" />
    <text
       xml:space="preserve"
       style="font-style:normal;font-weight:normal;font-size:2.9413px;line-height:1.25;font-family:sans-serif;fill:#000000;fill-opacity:1;stroke:none;stroke-width:0.200543"
       x="29.032881"
       y="54.87851"
       id="text3411"
       transform="rotate(1.0100483)"><tspan
         sodipodi:role="line"
         id="tspan3409"
         style="font-size:2.9413px;stroke-width:0.200543"
         x="29.032881"
         y="54.87851">300 ms</tspan></text>
    <path
       d="m 31.066318,48.359073 4.539152,-3.399724 -0.27207,-0.363102 -4.539607,3.399696 z m 4.856425,-2.219431 1.363479,-2.724392 -2.996521,0.541192 z"
       style="fill:#000000;fill-opacity:1;fill-rule:nonzero;stroke:none;stroke-width:0.45399675"
       id="path2100-0"
       inkscape:connector-curvature="0" />
    <text
       xml:space="preserve"
       style="font-style:normal;font-weight:normal;font-size:2.9413px;line-height:1.25;font-family:sans-serif;fill:#000000;fill-opacity:1;stroke:none;stroke-width:0.200543"
       x="37.744884"
       y="47.76228"
       id="text3411-9"
       transform="rotate(1.0100483)"><tspan
         sodipodi:role="line"
         id="tspan3409-3"
         style="font-size:2.9413px;stroke-width:0.200543"
         x="37.744884"
         y="47.76228">300 ms</tspan></text>
    <path
       d="m 47.774786,35.195249 4.539153,-3.399724 -0.27207,-0.363102 -4.539607,3.399695 z m 4.856425,-2.219431 1.363479,-2.724392 -2.99652,0.541192 z"
       style="fill:#000000;fill-opacity:1;fill-rule:nonzero;stroke:none;stroke-width:0.45399675"
       id="path2100-0-6"
       inkscape:connector-curvature="0" />
    <text
       xml:space="preserve"
       style="font-style:normal;font-weight:normal;font-size:2.9413px;line-height:1.25;font-family:sans-serif;fill:#000000;fill-opacity:1;stroke:none;stroke-width:0.200543"
       x="54.218704"
       y="34.305969"
       id="text3411-9-0"
       transform="rotate(1.0100483)"><tspan
         sodipodi:role="line"
         id="tspan3409-3-6"
         style="font-size:2.9413px;stroke-width:0.200543"
         x="54.218704"
         y="34.305969">$\sim$950 ms</tspan></text>
    <path
       d="m 39.723287,41.845076 4.377651,-3.6053 -0.288516,-0.350179 -4.378106,3.605294 z m 4.748981,-2.440884 1.236474,-2.784334 -2.968395,0.678713 z"
       style="fill:#000000;fill-opacity:1;fill-rule:nonzero;stroke:none;stroke-width:0.45399675"
       id="path2100-3-1"
       inkscape:connector-curvature="0" />
    <text
       transform="rotate(1.0100483)"
       xml:space="preserve"
       style="font-style:normal;font-weight:normal;font-size:2.9413px;line-height:1.25;font-family:sans-serif;fill:#000000;fill-opacity:1;stroke:none;stroke-width:0.200543"
       x="46.165836"
       y="41.096695"
       id="text3411-6-2"><tspan
         sodipodi:role="line"
         id="tspan3409-7-7"
         style="font-size:2.9413px;stroke-width:0.200543"
         x="46.165836"
         y="41.096695">200 ms</tspan></text>
    <path
       d="m 63.970236,22.742036 4.377651,-3.605301 -0.288516,-0.350178 -4.378106,3.605293 z m 4.748981,-2.440884 1.236474,-2.784334 -2.968395,0.678713 z"
       style="fill:#000000;fill-opacity:1;fill-rule:nonzero;stroke:none;stroke-width:0.45399675"
       id="path2100-3-1-8"
       inkscape:connector-curvature="0" />
    <text
       xml:space="preserve"
       style="font-style:normal;font-weight:normal;font-size:2.9413px;line-height:1.25;font-family:sans-serif;fill:#000000;fill-opacity:1;stroke:none;stroke-width:0.200543"
       x="70.072273"
       y="21.569201"
       id="text3411-6-2-7"
       transform="rotate(1.0100483)"><tspan
         sodipodi:role="line"
         id="tspan3409-7-7-9"
         style="font-size:2.9413px;stroke-width:0.200543"
         x="70.072273"
         y="21.569201">200 ms</tspan></text>
    <path
       d="m 55.634322,29.003089 4.539151,-3.399724 -0.27207,-0.363102 -4.539607,3.399695 z m 4.856425,-2.219431 1.363478,-2.724393 -2.996521,0.541193 z"
       style="fill:#000000;fill-opacity:1;fill-rule:nonzero;stroke:none;stroke-width:0.45399675"
       id="path2100-0-2"
       inkscape:connector-curvature="0" />
    <text
       xml:space="preserve"
       style="font-style:normal;font-weight:normal;font-size:2.9413px;line-height:1.25;font-family:sans-serif;fill:#000000;fill-opacity:1;stroke:none;stroke-width:0.200543"
       x="61.967873"
       y="27.976229"
       id="text3411-9-6"
       transform="rotate(1.0100483)"><tspan
         sodipodi:role="line"
         id="tspan3409-3-1"
         style="font-size:2.9413px;stroke-width:0.200543"
         x="61.967873"
         y="27.976229">300 ms</tspan></text>
    <text
       transform="rotate(-90)"
       id="text4258"
       y="87.420883"
       x="-27.17536"
       style="font-style:normal;font-weight:normal;font-size:2.9413px;line-height:1.25;font-family:sans-serif;fill:#000000;fill-opacity:1;stroke:none;stroke-width:0.200543"
       xml:space="preserve"><tspan
         y="87.420883"
         x="-27.17536"
         style="font-size:2.9413px;stroke-width:0.200543"
         id="tspan4256"
         sodipodi:role="line">Congruent</tspan></text>
    <text
       transform="rotate(-90)"
       id="text4262"
       y="87.361618"
       x="-54.253876"
       style="font-style:normal;font-weight:normal;font-size:2.9413px;line-height:1.25;font-family:sans-serif;fill:#000000;fill-opacity:1;stroke:none;stroke-width:0.200543"
       xml:space="preserve"><tspan
         y="87.361618"
         x="-54.253876"
         style="font-size:2.9413px;stroke-width:0.200543"
         id="tspan4260"
         sodipodi:role="line">Incongruent</tspan></text>
    <text
       xml:space="preserve"
       style="font-style:normal;font-weight:normal;font-size:2.9413px;line-height:1.25;font-family:sans-serif;fill:#000000;fill-opacity:1;stroke:none;stroke-width:0.200543"
       x="-37.682838"
       y="110.08482"
       id="text4262-1"
       transform="rotate(-90)"><tspan
         sodipodi:role="line"
         id="tspan4260-7"
         style="font-size:2.9413px;stroke-width:0.200543"
         x="-37.682838"
         y="110.08482">Neutral</tspan></text>
    <path
       inkscape:connector-curvature="0"
       id="path1872-8"
       style="fill:#0045c2;fill-opacity:1;fill-rule:evenodd;stroke:none;stroke-width:0.25639099"
       d="m 121.29703,26.659394 c 0,-0.797715 0.64664,-1.443999 1.444,-1.443999 0.79736,0 1.444,0.646284 1.444,1.443999 0,0.797716 -0.64664,1.444001 -1.444,1.444001 -0.79736,0 -1.444,-0.646285 -1.444,-1.444001 z" />
    <path
       inkscape:connector-curvature="0"
       id="path1880-92"
       style="fill:#0045c2;fill-opacity:1;fill-rule:evenodd;stroke:none;stroke-width:0.25639099"
       d="m 114.68714,26.659394 c 0,-0.797715 0.64664,-1.443999 1.444,-1.443999 0.79736,0 1.444,0.646284 1.444,1.443999 0,0.797716 -0.64664,1.444001 -1.444,1.444001 -0.79736,0 -1.444,-0.646285 -1.444,-1.444001 z" />
    <path
       inkscape:connector-curvature="0"
       id="path1872-7-33"
       style="fill:#0045c2;fill-opacity:1;fill-rule:evenodd;stroke:none;stroke-width:0.25639099"
       d="m 119.45745,24.861089 c -0.79771,0 -1.444,-0.64664 -1.444,-1.444 0,-0.79736 0.64629,-1.444001 1.444,-1.444001 0.79772,0 1.444,0.646641 1.444,1.444001 0,0.79736 -0.64628,1.444 -1.444,1.444 z" />
    <path
       inkscape:connector-curvature="0"
       id="path1880-5-61"
       style="fill:#0045c2;fill-opacity:1;fill-rule:evenodd;stroke:none;stroke-width:0.25639099"
       d="m 119.45745,31.470975 c -0.79771,0 -1.444,-0.646641 -1.444,-1.444 0,-0.797359 0.64629,-1.444 1.444,-1.444 0.79772,0 1.444,0.646641 1.444,1.444 0,0.797359 -0.64628,1.444 -1.444,1.444 z" />
    <path
       inkscape:connector-curvature="0"
       id="path1884-4"
       style="fill:#00b050;fill-opacity:1;fill-rule:evenodd;stroke:none;stroke-width:0.256392"
       d="m 117.99208,26.659394 c 0,-0.797715 0.64665,-1.443999 1.44401,-1.443999 0.79735,0 1.44399,0.646284 1.44399,1.443999 0,0.797716 -0.64664,1.444001 -1.44399,1.444001 -0.79736,0 -1.44401,-0.646285 -1.44401,-1.444001 z" />
    <path
       inkscape:connector-curvature="0"
       id="path1872-3-8"
       style="fill:#0045c2;fill-opacity:1;fill-rule:evenodd;stroke:none;stroke-width:0.25639099"
       d="m 121.29703,37.805338 c 0,-0.797715 0.64664,-1.443999 1.444,-1.443999 0.79736,0 1.444,0.646284 1.444,1.443999 0,0.797716 -0.64664,1.444001 -1.444,1.444001 -0.79736,0 -1.444,-0.646285 -1.444,-1.444001 z" />
    <path
       inkscape:connector-curvature="0"
       id="path1880-56-8"
       style="fill:#0045c2;fill-opacity:1;fill-rule:evenodd;stroke:none;stroke-width:0.25639099"
       d="m 114.68714,37.805338 c 0,-0.797715 0.64664,-1.443999 1.444,-1.443999 0.79736,0 1.444,0.646284 1.444,1.443999 0,0.797716 -0.64664,1.444001 -1.444,1.444001 -0.79736,0 -1.444,-0.646285 -1.444,-1.444001 z" />
    <path
       inkscape:connector-curvature="0"
       id="path1872-7-2-8"
       style="fill:#0045c2;fill-opacity:1;fill-rule:evenodd;stroke:none;stroke-width:0.25639099"
       d="m 119.45745,36.007033 c -0.79771,0 -1.444,-0.64664 -1.444,-1.444 0,-0.79736 0.64629,-1.444001 1.444,-1.444001 0.79772,0 1.444,0.646641 1.444,1.444001 0,0.79736 -0.64628,1.444 -1.444,1.444 z" />
    <path
       inkscape:connector-curvature="0"
       id="path1880-5-9-4"
       style="fill:#0045c2;fill-opacity:1;fill-rule:evenodd;stroke:none;stroke-width:0.25639099"
       d="m 119.45745,42.616919 c -0.79771,0 -1.444,-0.646641 -1.444,-1.444 0,-0.797359 0.64629,-1.444 1.444,-1.444 0.79772,0 1.444,0.646641 1.444,1.444 0,0.797359 -0.64628,1.444 -1.444,1.444 z" />
    <path
       inkscape:connector-curvature="0"
       id="path1884-1-9"
       style="fill:#ff0000;fill-opacity:1;fill-rule:evenodd;stroke:none;stroke-width:0.256392"
       d="m 117.99208,37.805338 c 0,-0.797715 0.64665,-1.443999 1.44401,-1.443999 0.79735,0 1.44399,0.646284 1.44399,1.443999 0,0.797716 -0.64664,1.444001 -1.44399,1.444001 -0.79736,0 -1.44401,-0.646285 -1.44401,-1.444001 z" />
    <path
       d="m 98.573823,39.545907 c 0,-0.797715 0.64664,-1.443999 1.443997,-1.443999 0.79736,0 1.444,0.646284 1.444,1.443999 0,0.797716 -0.64664,1.444001 -1.444,1.444001 -0.797357,0 -1.443997,-0.646285 -1.443997,-1.444001 z"
       style="fill:#00b050;fill-opacity:1;fill-rule:evenodd;stroke:none;stroke-width:0.25639099"
       id="path1872"
       inkscape:connector-curvature="0" />
    <path
       d="m 91.963937,39.545907 c 0,-0.797715 0.646641,-1.443999 1.444,-1.443999 0.797359,0 1.444,0.646284 1.444,1.443999 0,0.797716 -0.646641,1.444001 -1.444,1.444001 -0.797359,0 -1.444,-0.646285 -1.444,-1.444001 z"
       style="fill:#00b050;fill-opacity:1;fill-rule:evenodd;stroke:none;stroke-width:0.25639099"
       id="path1880"
       inkscape:connector-curvature="0" />
    <path
       d="m 96.73425,37.747602 c -0.797715,0 -1.444,-0.64664 -1.444,-1.444 0,-0.79736 0.646285,-1.444001 1.444,-1.444001 0.797715,0 1.444001,0.646641 1.444001,1.444001 0,0.79736 -0.646286,1.444 -1.444001,1.444 z"
       style="fill:#00b050;fill-opacity:1;fill-rule:evenodd;stroke:none;stroke-width:0.25639099"
       id="path1872-7"
       inkscape:connector-curvature="0" />
    <path
       d="m 96.73425,44.357488 c -0.797715,0 -1.444,-0.646641 -1.444,-1.444 0,-0.797359 0.646285,-1.444 1.444,-1.444 0.797715,0 1.444001,0.646641 1.444001,1.444 0,0.797359 -0.646286,1.444 -1.444001,1.444 z"
       style="fill:#00b050;fill-opacity:1;fill-rule:evenodd;stroke:none;stroke-width:0.25639099"
       id="path1880-5"
       inkscape:connector-curvature="0" />
    <path
       d="m 95.26888,39.545907 c 0,-0.797715 0.646643,-1.443999 1.444006,-1.443999 0.797355,0 1.443994,0.646284 1.443994,1.443999 0,0.797716 -0.646639,1.444001 -1.443994,1.444001 -0.797363,0 -1.444006,-0.646285 -1.444006,-1.444001 z"
       style="fill:#00b050;fill-opacity:1;fill-rule:evenodd;stroke:none;stroke-width:0.256392"
       id="path1884"
       inkscape:connector-curvature="0" />
    <path
       d="m 98.573823,50.691853 c 0,-0.797715 0.64664,-1.443999 1.443997,-1.443999 0.79736,0 1.444,0.646284 1.444,1.443999 0,0.797716 -0.64664,1.444001 -1.444,1.444001 -0.797357,0 -1.443997,-0.646285 -1.443997,-1.444001 z"
       style="fill:#ff0000;fill-opacity:1;fill-rule:evenodd;stroke:none;stroke-width:0.25639099"
       id="path1872-3"
       inkscape:connector-curvature="0" />
    <path
       d="m 91.963937,50.691853 c 0,-0.797715 0.646641,-1.443999 1.444,-1.443999 0.797359,0 1.444,0.646284 1.444,1.443999 0,0.797716 -0.646641,1.444001 -1.444,1.444001 -0.797359,0 -1.444,-0.646285 -1.444,-1.444001 z"
       style="fill:#ff0000;fill-opacity:1;fill-rule:evenodd;stroke:none;stroke-width:0.25639099"
       id="path1880-56"
       inkscape:connector-curvature="0" />
    <path
       d="m 96.73425,48.893548 c -0.797715,0 -1.444,-0.64664 -1.444,-1.444 0,-0.79736 0.646285,-1.444001 1.444,-1.444001 0.797715,0 1.444001,0.646641 1.444001,1.444001 0,0.79736 -0.646286,1.444 -1.444001,1.444 z"
       style="fill:#ff0000;fill-opacity:1;fill-rule:evenodd;stroke:none;stroke-width:0.25639099"
       id="path1872-7-2"
       inkscape:connector-curvature="0" />
    <path
       d="m 96.73425,55.503434 c -0.797715,0 -1.444,-0.646641 -1.444,-1.444 0,-0.797359 0.646285,-1.444 1.444,-1.444 0.797715,0 1.444001,0.646641 1.444001,1.444 0,0.797359 -0.646286,1.444 -1.444001,1.444 z"
       style="fill:#ff0000;fill-opacity:1;fill-rule:evenodd;stroke:none;stroke-width:0.25639099"
       id="path1880-5-9"
       inkscape:connector-curvature="0" />
    <path
       d="m 95.26888,50.691853 c 0,-0.797715 0.646643,-1.443999 1.444006,-1.443999 0.797355,0 1.443994,0.646284 1.443994,1.443999 0,0.797716 -0.646639,1.444001 -1.443994,1.444001 -0.797363,0 -1.444006,-0.646285 -1.444006,-1.444001 z"
       style="fill:#ff0000;fill-opacity:1;fill-rule:evenodd;stroke:none;stroke-width:0.256392"
       id="path1884-1"
       inkscape:connector-curvature="0" />
    <path
       d="m 98.573823,13.772878 c 0,-0.797715 0.646638,-1.443999 1.443997,-1.443999 0.79736,0 1.444,0.646284 1.444,1.443999 0,0.797716 -0.64664,1.444001 -1.444,1.444001 -0.797359,0 -1.443997,-0.646285 -1.443997,-1.444001 z"
       style="fill:#ff0000;fill-opacity:1;fill-rule:evenodd;stroke:none;stroke-width:0.25639099"
       id="path1872-70"
       inkscape:connector-curvature="0" />
    <path
       d="m 91.963937,13.772878 c 0,-0.797715 0.646641,-1.443999 1.444,-1.443999 0.797359,0 1.444,0.646284 1.444,1.443999 0,0.797716 -0.646641,1.444001 -1.444,1.444001 -0.797359,0 -1.444,-0.646285 -1.444,-1.444001 z"
       style="fill:#ff0000;fill-opacity:1;fill-rule:evenodd;stroke:none;stroke-width:0.25639099"
       id="path1880-9"
       inkscape:connector-curvature="0" />
    <path
       d="m 96.73425,11.974573 c -0.797715,0 -1.444,-0.64664 -1.444,-1.444 0,-0.7973596 0.646285,-1.4440006 1.444,-1.4440006 0.797715,0 1.444001,0.646641 1.444001,1.4440006 0,0.79736 -0.646286,1.444 -1.444001,1.444 z"
       style="fill:#ff0000;fill-opacity:1;fill-rule:evenodd;stroke:none;stroke-width:0.25639099"
       id="path1872-7-3"
       inkscape:connector-curvature="0" />
    <path
       d="m 96.73425,18.584459 c -0.797715,0 -1.444,-0.646641 -1.444,-1.444 0,-0.797359 0.646285,-1.444 1.444,-1.444 0.797715,0 1.444001,0.646641 1.444001,1.444 0,0.797359 -0.646286,1.444 -1.444001,1.444 z"
       style="fill:#ff0000;fill-opacity:1;fill-rule:evenodd;stroke:none;stroke-width:0.25639099"
       id="path1880-5-6"
       inkscape:connector-curvature="0" />
    <path
       d="m 95.26888,13.772878 c 0,-0.797715 0.646643,-1.443999 1.444006,-1.443999 0.797355,0 1.443994,0.646284 1.443994,1.443999 0,0.797716 -0.646639,1.444001 -1.443994,1.444001 -0.797363,0 -1.444006,-0.646285 -1.444006,-1.444001 z"
       style="fill:#00b050;fill-opacity:1;fill-rule:evenodd;stroke:none;stroke-width:0.256392"
       id="path1884-0"
       inkscape:connector-curvature="0" />
    <path
       d="m 98.573823,24.918824 c 0,-0.797715 0.64664,-1.443999 1.443997,-1.443999 0.79736,0 1.444,0.646284 1.444,1.443999 0,0.797716 -0.64664,1.444001 -1.444,1.444001 -0.797357,0 -1.443997,-0.646285 -1.443997,-1.444001 z"
       style="fill:#00b050;fill-opacity:1;fill-rule:evenodd;stroke:none;stroke-width:0.25639099"
       id="path1872-3-2"
       inkscape:connector-curvature="0" />
    <path
       d="m 91.963937,24.918824 c 0,-0.797715 0.646641,-1.443999 1.444,-1.443999 0.797359,0 1.444,0.646284 1.444,1.443999 0,0.797716 -0.646641,1.444001 -1.444,1.444001 -0.797359,0 -1.444,-0.646285 -1.444,-1.444001 z"
       style="fill:#00b050;fill-opacity:1;fill-rule:evenodd;stroke:none;stroke-width:0.25639099"
       id="path1880-56-6"
       inkscape:connector-curvature="0" />
    <path
       d="m 96.73425,23.120519 c -0.797715,0 -1.444,-0.64664 -1.444,-1.444 0,-0.79736 0.646285,-1.444001 1.444,-1.444001 0.797715,0 1.444001,0.646641 1.444001,1.444001 0,0.79736 -0.646286,1.444 -1.444001,1.444 z"
       style="fill:#00b050;fill-opacity:1;fill-rule:evenodd;stroke:none;stroke-width:0.25639099"
       id="path1872-7-2-1"
       inkscape:connector-curvature="0" />
    <path
       d="m 96.73425,29.730405 c -0.797715,0 -1.444,-0.646641 -1.444,-1.444 0,-0.797359 0.646285,-1.444 1.444,-1.444 0.797715,0 1.444001,0.646641 1.444001,1.444 0,0.797359 -0.646286,1.444 -1.444001,1.444 z"
       style="fill:#00b050;fill-opacity:1;fill-rule:evenodd;stroke:none;stroke-width:0.25639099"
       id="path1880-5-9-8"
       inkscape:connector-curvature="0" />
    <path
       d="m 95.26888,24.918824 c 0,-0.797715 0.646643,-1.443999 1.444006,-1.443999 0.797355,0 1.443994,0.646284 1.443994,1.443999 0,0.797716 -0.646639,1.444001 -1.443994,1.444001 -0.797363,0 -1.444006,-0.646285 -1.444006,-1.444001 z"
       style="fill:#ff0000;fill-opacity:1;fill-rule:evenodd;stroke:none;stroke-width:0.256392"
       id="path1884-1-7"
       inkscape:connector-curvature="0" />
  </g>
</svg>
