<?xml version="1.0" encoding="UTF-8" standalone="no"?>
<!-- Created with Inkscape (http://www.inkscape.org/) -->

<svg
   width="70mm"
   height="90mm"
   viewBox="0 0 70 90"
   version="1.1"
   id="svg26806"
   inkscape:version="1.2.2 (1:1.2.2+202212051552+b0a8486541)"
   sodipodi:docname="paradigma_1.svg"
   xmlns:inkscape="http://www.inkscape.org/namespaces/inkscape"
   xmlns:sodipodi="http://sodipodi.sourceforge.net/DTD/sodipodi-0.dtd"
   xmlns="http://www.w3.org/2000/svg"
   xmlns:svg="http://www.w3.org/2000/svg">
  <sodipodi:namedview
     id="namedview26808"
     pagecolor="#ffffff"
     bordercolor="#666666"
     borderopacity="1.0"
     inkscape:showpageshadow="2"
     inkscape:pageopacity="0.0"
     inkscape:pagecheckerboard="0"
     inkscape:deskcolor="#d1d1d1"
     inkscape:document-units="mm"
     showgrid="false"
     inkscape:zoom="1.5500841"
     inkscape:cx="136.76677"
     inkscape:cy="57.41624"
     inkscape:window-width="1860"
     inkscape:window-height="1011"
     inkscape:window-x="1920"
     inkscape:window-y="32"
     inkscape:window-maximized="1"
     inkscape:current-layer="layer1" />
  <defs
     id="defs26803">
    <inkscape:path-effect
       effect="mirror_symmetry"
       start_point="49.162852,24.347196"
       end_point="49.162852,30.716901"
       center_point="49.162852,27.532049"
       id="path-effect3198"
       is_visible="true"
       lpeversion="1.2"
       lpesatellites=""
       mode="free"
       discard_orig_path="false"
       fuse_paths="false"
       oposite_fuse="false"
       split_items="false"
       split_open="false"
       link_styles="false" />
    <marker
       style="overflow:visible"
       id="TriangleStart"
       refX="0"
       refY="0"
       orient="auto-start-reverse"
       inkscape:stockid="TriangleStart"
       markerWidth="5.3244081"
       markerHeight="6.155385"
       viewBox="0 0 5.3244081 6.1553851"
       inkscape:isstock="true"
       inkscape:collect="always"
       preserveAspectRatio="xMidYMid">
      <path
         transform="scale(0.5)"
         style="fill:context-stroke;fill-rule:evenodd;stroke:context-stroke;stroke-width:1pt"
         d="M 5.77,0 -2.88,5 V -5 Z"
         id="path135" />
    </marker>
    <clipPath
       clipPathUnits="userSpaceOnUse"
       id="clipPath120">
      <path
         d="M 1.4842e-5,0 H 996.00001 V 398.25 H 1.4842e-5 Z"
         clip-rule="evenodd"
         id="path118" />
    </clipPath>
    <clipPath
       clipPathUnits="userSpaceOnUse"
       id="clipPath154">
      <path
         d="M 0,0 H 119.27 V 59.996 H 0 Z"
         id="path152" />
    </clipPath>
    <clipPath
       clipPathUnits="userSpaceOnUse"
       id="clipPath164">
      <path
         d="m 0.39674,0.34849 h 118.5 v 59.25 h -118.5 z"
         clip-rule="evenodd"
         id="path162" />
    </clipPath>
    <clipPath
       clipPathUnits="userSpaceOnUse"
       id="clipPath186">
      <path
         d="M 0,0 H 120 V 59.996 H 0 Z"
         id="path184" />
    </clipPath>
    <clipPath
       clipPathUnits="userSpaceOnUse"
       id="clipPath194">
      <path
         d="m 0.39674,0.34846 h 119.25 v 59.25 h -119.25 z"
         clip-rule="evenodd"
         id="path192" />
    </clipPath>
    <clipPath
       clipPathUnits="userSpaceOnUse"
       id="clipPath204">
      <path
         d="m 0.39674,0.34846 h 119.25 v 59.25 h -119.25 z"
         clip-rule="evenodd"
         id="path202" />
    </clipPath>
    <clipPath
       clipPathUnits="userSpaceOnUse"
       id="clipPath216">
      <path
         d="M 1.4842e-5,0 H 996.00001 V 398.25 H 1.4842e-5 Z"
         clip-rule="evenodd"
         id="path214" />
    </clipPath>
    <clipPath
       clipPathUnits="userSpaceOnUse"
       id="clipPath228">
      <path
         d="M 1.4842e-5,0 H 996.00001 V 398.25 H 1.4842e-5 Z"
         clip-rule="evenodd"
         id="path226" />
    </clipPath>
    <clipPath
       clipPathUnits="userSpaceOnUse"
       id="clipPath240">
      <path
         d="M 1.4842e-5,0 H 996.00001 V 398.25 H 1.4842e-5 Z"
         clip-rule="evenodd"
         id="path238" />
    </clipPath>
    <clipPath
       clipPathUnits="userSpaceOnUse"
       id="clipPath1484">
      <path
         d="M -3.0518e-5,398.25 H 996 V -9.1553e-5 L -4.5776e-5,-3.0518e-5"
         clip-rule="evenodd"
         id="path1482" />
    </clipPath>
    <clipPath
       clipPathUnits="userSpaceOnUse"
       id="clipPath1574">
      <path
         d="M -1.5259e-5,398.25 H 996 V -1.5259e-4 L 1.5259e-5,-3.0518e-5"
         clip-rule="evenodd"
         id="path1572" />
    </clipPath>
    <clipPath
       clipPathUnits="userSpaceOnUse"
       id="clipPath1604">
      <path
         d="m 207.75,252.79 h 33 v 17.995 h -33 z"
         clip-rule="evenodd"
         id="path1602" />
    </clipPath>
    <marker
       style="overflow:visible"
       id="TriangleStart-5"
       refX="0"
       refY="0"
       orient="auto-start-reverse"
       inkscape:stockid="TriangleStart"
       markerWidth="5.3244081"
       markerHeight="6.155385"
       viewBox="0 0 5.3244081 6.1553851"
       inkscape:isstock="true"
       inkscape:collect="always"
       preserveAspectRatio="xMidYMid">
      <path
         transform="scale(0.5)"
         style="fill:context-stroke;fill-rule:evenodd;stroke:context-stroke;stroke-width:1pt"
         d="M 5.77,0 -2.88,5 V -5 Z"
         id="path135-3" />
    </marker>
    <clipPath
       clipPathUnits="userSpaceOnUse"
       id="clipPath808">
      <g
         id="g818">
        <g
           id="g816">
          <g
             id="g814">
            <g
               id="g812">
              <path
                 d="M 47.980608,23.283667 H 69.608625 V 11.123729 H 47.980608 Z"
                 clip-rule="evenodd"
                 id="path810"
                 style="stroke-width:0.268274" />
            </g>
          </g>
        </g>
      </g>
    </clipPath>
    <clipPath
       clipPathUnits="userSpaceOnUse"
       id="clipPath832">
      <g
         id="g842">
        <g
           id="g840">
          <g
             id="g838">
            <g
               id="g836">
              <path
                 d="M 47.980608,23.283667 H 69.608625 V 11.123729 H 47.980608 Z"
                 clip-rule="evenodd"
                 id="path834"
                 style="stroke-width:0.268274" />
            </g>
          </g>
        </g>
      </g>
    </clipPath>
    <clipPath
       clipPathUnits="userSpaceOnUse"
       id="clipPath923">
      <g
         id="g937">
        <g
           id="g935">
          <g
             id="g933">
            <g
               id="g931">
              <g
                 id="g929">
                <g
                   id="g927">
                  <path
                     d="M 47.980608,23.283667 H 69.608625 V 11.123729 H 47.980608 Z"
                     clip-rule="evenodd"
                     id="path925"
                     style="stroke-width:0.268274" />
                </g>
              </g>
            </g>
          </g>
        </g>
      </g>
    </clipPath>
    <clipPath
       clipPathUnits="userSpaceOnUse"
       id="clipPath1121">
      <g
         id="g1131">
        <g
           id="g1129">
          <g
             id="g1127">
            <g
               id="g1125">
              <path
                 d="m 11.225388,23.283662 h 21.65363 V 11.123863 h -21.65363 z"
                 clip-rule="evenodd"
                 id="path1123"
                 style="stroke-width:0.270818" />
            </g>
          </g>
        </g>
      </g>
    </clipPath>
    <clipPath
       clipPathUnits="userSpaceOnUse"
       id="clipPath1288">
      <g
         id="g1303">
        <g
           id="g1301">
          <g
             id="g1299">
            <g
               id="g1297">
              <g
                 id="g1295">
                <g
                   id="g1292">
                  <path
                     d="m 11.225388,23.283662 h 21.65363 V 11.123863 h -21.65363 z"
                     clip-rule="evenodd"
                     id="path1290"
                     style="stroke-width:0.270818" />
                </g>
              </g>
            </g>
          </g>
        </g>
      </g>
    </clipPath>
    <clipPath
       clipPathUnits="userSpaceOnUse"
       id="clipPath1332">
      <g
         id="g1346">
        <g
           id="g1344">
          <g
             id="g1342">
            <g
               id="g1340">
              <g
                 id="g1338">
                <g
                   id="g1336">
                  <path
                     d="m 11.225388,23.283662 h 21.65363 V 11.123863 h -21.65363 z"
                     clip-rule="evenodd"
                     id="path1334"
                     style="stroke-width:0.270818" />
                </g>
              </g>
            </g>
          </g>
        </g>
      </g>
    </clipPath>
    <clipPath
       clipPathUnits="userSpaceOnUse"
       id="clipPath1410">
      <g
         id="g1415">
        <path
           d="M -71.557653,-13.619739 H 398.34685 V 174.27136 l -469.904489,-6e-5"
           clip-rule="evenodd"
           id="path1413"
           style="stroke-width:0.471792" />
      </g>
    </clipPath>
    <clipPath
       clipPathUnits="userSpaceOnUse"
       id="clipPath1446">
      <g
         id="g1451">
        <path
           d="M -71.556302,-13.693419 H 398.3482 V 174.19768 l -469.904488,-6e-5"
           clip-rule="evenodd"
           id="path1448"
           style="stroke-width:0.471792" />
      </g>
    </clipPath>
    <clipPath
       clipPathUnits="userSpaceOnUse"
       id="clipPath1496">
      <g
         id="g1501">
        <path
           d="M -71.588375,-13.650449 H 398.31613 V 174.24046 l -469.904498,8e-5"
           clip-rule="evenodd"
           id="path1498"
           style="stroke-width:0.471792" />
      </g>
    </clipPath>
    <clipPath
       clipPathUnits="userSpaceOnUse"
       id="clipPath1535">
      <g
         id="g1539">
        <path
           d="M -71.588375,-13.650449 H 398.31613 V 174.24046 l -469.904498,8e-5"
           clip-rule="evenodd"
           id="path1537"
           style="stroke-width:0.471792" />
      </g>
    </clipPath>
    <clipPath
       clipPathUnits="userSpaceOnUse"
       id="clipPath1572">
      <g
         id="g1576">
        <path
           d="M -71.588375,-13.650449 H 398.31613 V 174.24054 l -469.904505,1e-5"
           clip-rule="evenodd"
           id="path1574"
           style="stroke-width:0.471792" />
      </g>
    </clipPath>
    <clipPath
       clipPathUnits="userSpaceOnUse"
       id="clipPath1609">
      <g
         id="g1613">
        <path
           d="M -71.588375,-13.650449 H 398.31613 V 174.24054 l -469.904505,1e-5"
           clip-rule="evenodd"
           id="path1611"
           style="stroke-width:0.471792" />
      </g>
    </clipPath>
    <clipPath
       clipPathUnits="userSpaceOnUse"
       id="clipPath1646">
      <g
         id="g1650">
        <path
           d="M -71.588375,-13.650449 H 398.31613 V 174.24051 l -469.904491,1e-5"
           clip-rule="evenodd"
           id="path1648"
           style="stroke-width:0.471792" />
      </g>
    </clipPath>
    <clipPath
       clipPathUnits="userSpaceOnUse"
       id="clipPath1683">
      <g
         id="g1687">
        <path
           d="M -71.588375,-13.650449 H 398.31613 V 174.24051 l -469.904491,1e-5"
           clip-rule="evenodd"
           id="path1685"
           style="stroke-width:0.471792" />
      </g>
    </clipPath>
    <clipPath
       clipPathUnits="userSpaceOnUse"
       id="clipPath1720">
      <g
         id="g1724">
        <path
           d="M -71.588375,-13.650449 H 398.31613 V 174.24062 l -469.904513,-3e-5"
           clip-rule="evenodd"
           id="path1722"
           style="stroke-width:0.471792" />
      </g>
    </clipPath>
    <clipPath
       clipPathUnits="userSpaceOnUse"
       id="clipPath1757">
      <g
         id="g1761">
        <path
           d="M -71.588375,-13.650449 H 398.31613 V 174.24062 l -469.904513,-3e-5"
           clip-rule="evenodd"
           id="path1759"
           style="stroke-width:0.471792" />
      </g>
    </clipPath>
    <clipPath
       clipPathUnits="userSpaceOnUse"
       id="clipPath1794">
      <g
         id="g1798">
        <path
           d="M -71.588375,-13.650449 H 398.31613 V 174.24051 l -469.904505,3e-5"
           clip-rule="evenodd"
           id="path1796"
           style="stroke-width:0.471792" />
      </g>
    </clipPath>
    <clipPath
       clipPathUnits="userSpaceOnUse"
       id="clipPath1831">
      <g
         id="g1835">
        <path
           d="M -71.588375,-13.650449 H 398.31613 V 174.24051 l -469.904505,3e-5"
           clip-rule="evenodd"
           id="path1833"
           style="stroke-width:0.471792" />
      </g>
    </clipPath>
    <clipPath
       clipPathUnits="userSpaceOnUse"
       id="clipPath1868">
      <g
         id="g1872">
        <path
           d="M -71.588375,-13.650449 H 398.31613 V 174.24052 l -469.904491,2e-5"
           clip-rule="evenodd"
           id="path1870"
           style="stroke-width:0.471792" />
      </g>
    </clipPath>
    <clipPath
       clipPathUnits="userSpaceOnUse"
       id="clipPath1978">
      <g
         id="g1982">
        <path
           d="M -71.588375,-13.650449 H 398.31613 V 174.24052 l -469.904491,2e-5"
           clip-rule="evenodd"
           id="path1980"
           style="stroke-width:0.471792" />
      </g>
    </clipPath>
    <clipPath
       clipPathUnits="userSpaceOnUse"
       id="clipPath2015">
      <g
         id="g2019">
        <path
           d="M -71.58839,-13.650449 H 398.31613 V 174.24054 H -71.58839"
           clip-rule="evenodd"
           id="path2017"
           style="stroke-width:0.471792" />
      </g>
    </clipPath>
    <clipPath
       clipPathUnits="userSpaceOnUse"
       id="clipPath2052">
      <g
         id="g2056">
        <path
           d="M -71.58839,-13.650449 H 398.31613 V 174.24054 H -71.58839"
           clip-rule="evenodd"
           id="path2054"
           style="stroke-width:0.471792" />
      </g>
    </clipPath>
    <clipPath
       clipPathUnits="userSpaceOnUse"
       id="clipPath2089">
      <g
         id="g2093">
        <path
           d="M -71.588375,-13.650449 H 398.31613 V 174.24054 H -71.588383"
           clip-rule="evenodd"
           id="path2091"
           style="stroke-width:0.471792" />
      </g>
    </clipPath>
    <clipPath
       clipPathUnits="userSpaceOnUse"
       id="clipPath2126">
      <g
         id="g2130">
        <path
           d="M -71.588375,-13.650449 H 398.31613 V 174.24054 H -71.588368"
           clip-rule="evenodd"
           id="path2128"
           style="stroke-width:0.471792" />
      </g>
    </clipPath>
    <clipPath
       clipPathUnits="userSpaceOnUse"
       id="clipPath2163">
      <g
         id="g2167">
        <path
           d="M -71.588397,-13.650449 H 398.31613 V 174.24054 l -469.904505,1e-5"
           clip-rule="evenodd"
           id="path2165"
           style="stroke-width:0.471792" />
      </g>
    </clipPath>
    <clipPath
       clipPathUnits="userSpaceOnUse"
       id="clipPath2200">
      <g
         id="g2204">
        <path
           d="M -71.588368,-13.650449 H 398.31613 V 174.24052 l -469.904505,2e-5"
           clip-rule="evenodd"
           id="path2202"
           style="stroke-width:0.471792" />
      </g>
    </clipPath>
    <clipPath
       clipPathUnits="userSpaceOnUse"
       id="clipPath2237">
      <g
         id="g2241">
        <path
           d="M -71.588383,-13.650449 H 398.31613 V 174.24058 H -71.588383"
           clip-rule="evenodd"
           id="path2239"
           style="stroke-width:0.471792" />
      </g>
    </clipPath>
    <clipPath
       clipPathUnits="userSpaceOnUse"
       id="clipPath2274">
      <g
         id="g2278">
        <path
           d="M -71.588375,-13.650449 H 398.31613 V 174.24058 l -469.904505,-1e-5"
           clip-rule="evenodd"
           id="path2276"
           style="stroke-width:0.471792" />
      </g>
    </clipPath>
  </defs>
  <g
     inkscape:label="Layer 1"
     inkscape:groupmode="layer"
     id="layer1">
    <path
       d="M 24.303294,83.279148 H 26.7802 V 70.190232 h -2.476906 z"
       style="fill:#dbdbdb;fill-opacity:1;fill-rule:evenodd;stroke:none;stroke-width:0.471792"
       id="path1268"
       clip-path="url(#clipPath2274)" />
    <path
       d="M 27.487889,86.817582 H 41.641637 V 84.695038 H 27.487889 Z"
       style="fill:#dbdbdb;fill-opacity:1;fill-rule:evenodd;stroke:none;stroke-width:0.471792"
       id="path1270" />
    <path
       d="m 42.703169,83.279148 h 2.123062 V 70.190232 h -2.123062 z"
       style="fill:#dbdbdb;fill-opacity:1;fill-rule:evenodd;stroke:none;stroke-width:0.471792"
       id="path1280"
       clip-path="url(#clipPath2237)" />
    <path
       d="M 39.787505,83.279145 H 29.34203 l -1.854141,-1.854141 v -11.233358 0 h 14.153748 v 0 11.233358 z"
       style="fill:#dbdbdb;fill-opacity:1;fill-rule:evenodd;stroke:none;stroke-width:0.471792"
       id="path1282" />
    <path
       d="m 41.353844,72.578913 c -0.198152,-1.278555 -1.344606,-2.160806 -2.561828,-1.972089 -1.217223,0.188717 -2.042858,1.377632 -1.849424,2.656187 0.198153,1.278555 1.349325,2.160806 2.566547,1.972089 1.217223,-0.188717 2.042858,-1.377631 1.844705,-2.656187 z"
       style="fill:#4472c4;fill-opacity:1;fill-rule:evenodd;stroke:none;stroke-width:0.471792"
       id="path1292"
       clip-path="url(#clipPath2200)" />
    <path
       d="m 41.316101,72.998808 -4.264996,-0.811482 -2.047576,10.737978 4.264996,0.8162 z"
       style="fill:#4472c4;fill-opacity:1;fill-rule:evenodd;stroke:none;stroke-width:0.471792"
       id="path1302"
       clip-path="url(#clipPath2163)" />
    <path
       d="m 27.808706,72.578913 c 0.198152,-1.278555 1.339888,-2.160806 2.547675,-1.972089 1.212504,0.183999 2.033422,1.372914 1.835269,2.651469 -0.198152,1.278555 -1.339888,2.160806 -2.547675,1.976807 -1.212504,-0.188717 -2.033422,-1.377631 -1.835269,-2.656187 z"
       style="fill:#4472c4;fill-opacity:1;fill-rule:evenodd;stroke:none;stroke-width:0.471792"
       id="path1312"
       clip-path="url(#clipPath2126)" />
    <path
       d="m 27.82286,72.99409 4.264996,-0.811482 2.047576,10.742696 -4.264997,0.811482 z"
       style="fill:#4472c4;fill-opacity:1;fill-rule:evenodd;stroke:none;stroke-width:0.471792"
       id="path1322"
       clip-path="url(#clipPath2089)" />
    <path
       d="m 27.134048,81.863771 c 0,-2.151371 3.326127,-3.892281 7.430723,-3.892281 4.104574,0 7.430711,1.74091 7.430711,3.892281 0,2.146652 -3.326137,3.89228 -7.430711,3.89228 -4.104596,0 -7.430723,-1.745628 -7.430723,-3.89228 z"
       style="fill:#000000;fill-opacity:1;fill-rule:evenodd;stroke:none;stroke-width:0.471792"
       id="path1324" />
    <path
       d="m 42.854142,72.550606 c -0.0047,-0.83979 0.386869,-1.51917 0.872815,-1.51917 0.481227,0 0.877532,0.674663 0.877532,1.514452 0,0.835071 -0.386869,1.514451 -0.872815,1.519169 -0.481227,0 -0.877532,-0.67938 -0.877532,-1.514451 z"
       style="fill:#f1aa96;fill-opacity:1;fill-rule:evenodd;stroke:none;stroke-width:0.471792"
       id="path1416"
       clip-path="url(#clipPath2052)" />
    <path
       d="m 42.854142,72.550606 c -0.0047,-0.83979 0.386869,-1.51917 0.872815,-1.51917 0.481227,0 0.877532,0.674663 0.877532,1.514452 0,0.835071 -0.386869,1.514451 -0.872815,1.519169 -0.481227,0 -0.877532,-0.67938 -0.877532,-1.514451 z"
       style="fill:none;stroke:#f1aa96;stroke-width:0.471933;stroke-linecap:butt;stroke-linejoin:miter;stroke-miterlimit:10;stroke-dasharray:none;stroke-opacity:1"
       id="path1426"
       clip-path="url(#clipPath2015)" />
    <path
       d="m 41.707688,78.235695 1.448401,-5.453911 1.127582,0.254767 -1.004917,5.54827 z"
       style="fill:#f1aa96;fill-opacity:1;fill-rule:evenodd;stroke:none;stroke-width:0.471792"
       id="path1436"
       clip-path="url(#clipPath1978)" />
    <path
       d="m 41.707688,78.235695 1.448401,-5.453911 1.127582,0.254767 -1.004917,5.54827 z"
       style="fill:none;stroke:#f1aa96;stroke-width:0.471933;stroke-linecap:butt;stroke-linejoin:miter;stroke-miterlimit:10;stroke-dasharray:none;stroke-opacity:1"
       id="path1446"
       clip-path="url(#clipPath1868)" />
    <path
       d="m 41.792611,77.532726 c 0.09436,-0.13682 0.278357,-0.169845 0.415176,-0.07549 l 0.981327,0.693534 c 0.13682,0.09436 0.169845,0.283075 0.07077,0.415176 l -2.906237,4.132895 c -0.09436,0.132102 -0.278357,0.165127 -0.415176,0.07077 l -0.981327,-0.688816 c -0.13682,-0.09908 -0.169845,-0.283075 -0.07077,-0.419894 z"
       style="fill:#f1aa96;fill-opacity:1;fill-rule:evenodd;stroke:none;stroke-width:0.471792"
       id="path1456"
       clip-path="url(#clipPath1831)" />
    <path
       d="m 41.792611,77.532726 c 0.09436,-0.13682 0.278357,-0.169845 0.415176,-0.07549 l 0.981327,0.693534 c 0.13682,0.09436 0.169845,0.283075 0.07077,0.415176 l -2.906237,4.132895 c -0.09436,0.132102 -0.278357,0.165127 -0.415176,0.07077 l -0.981327,-0.688816 c -0.13682,-0.09908 -0.169845,-0.283075 -0.07077,-0.419894 z"
       style="fill:none;stroke:#f1aa96;stroke-width:0.471933;stroke-linecap:butt;stroke-linejoin:miter;stroke-miterlimit:10;stroke-dasharray:none;stroke-opacity:1"
       id="path1466"
       clip-path="url(#clipPath1794)" />
    <path
       d="m 41.099077,83.505608 c 0.0094,-0.01415 -0.56615,-0.325536 -1.278555,-0.698252 -0.712406,-0.372715 -1.29271,-0.660508 -1.302145,-0.646354 l 2.123062,-4.071562 c 0.0094,-0.01415 0.58974,0.278357 1.302145,0.646354 0.712405,0.372716 1.283273,0.684098 1.278555,0.698252 z"
       style="fill:#000000;fill-opacity:1;fill-rule:evenodd;stroke:none;stroke-width:0.471792"
       id="path1476"
       clip-path="url(#clipPath1757)" />
    <path
       d="m 38.518377,82.161002 c 0.0094,-0.01415 0.589739,0.273639 1.302145,0.646354 0.712405,0.372716 1.287991,0.684098 1.278555,0.698252 -0.0094,0.01415 -0.58974,-0.278357 -1.302145,-0.646355 -0.712405,-0.372715 -1.283273,-0.684098 -1.278555,-0.698251 l 2.123062,-4.071562 c 0.0094,-0.01415 0.58974,0.278357 1.302145,0.646354 0.712405,0.372716 1.283273,0.684098 1.278555,0.698252 l -2.123062,4.071562"
       style="fill:none;stroke:#000000;stroke-width:0.471933;stroke-linecap:butt;stroke-linejoin:miter;stroke-miterlimit:10;stroke-dasharray:none;stroke-opacity:1"
       id="path1496"
       clip-path="url(#clipPath1720)" />
    <path
       d="m 26.308408,72.550606 c 0.0047,-0.83979 -0.386869,-1.51917 -0.868096,-1.51917 -0.485946,0 -0.877533,0.674663 -0.882251,1.514452 0,0.835071 0.38687,1.514451 0.872815,1.519169 0.485945,0 0.877532,-0.67938 0.877532,-1.514451 z"
       style="fill:#f1aa96;fill-opacity:1;fill-rule:evenodd;stroke:none;stroke-width:0.471792"
       id="path1506"
       clip-path="url(#clipPath1683)" />
    <path
       d="m 26.308408,72.550606 c 0.0047,-0.83979 -0.386869,-1.51917 -0.868096,-1.51917 -0.485946,0 -0.877533,0.674663 -0.882251,1.514452 0,0.835071 0.38687,1.514451 0.872815,1.519169 0.485945,0 0.877532,-0.67938 0.877532,-1.514451 z"
       style="fill:none;stroke:#f1aa96;stroke-width:0.471933;stroke-linecap:butt;stroke-linejoin:miter;stroke-miterlimit:10;stroke-dasharray:none;stroke-opacity:1"
       id="path1516"
       clip-path="url(#clipPath1646)" />
    <path
       d="m 27.454862,78.235695 -1.4484,-5.453911 -1.127582,0.254767 1.004916,5.54827 z"
       style="fill:#f1aa96;fill-opacity:1;fill-rule:evenodd;stroke:none;stroke-width:0.471792"
       id="path1526"
       clip-path="url(#clipPath1609)" />
    <path
       d="m 27.454862,78.235695 -1.4484,-5.453911 -1.127582,0.254767 1.004916,5.54827 z"
       style="fill:none;stroke:#f1aa96;stroke-width:0.471933;stroke-linecap:butt;stroke-linejoin:miter;stroke-miterlimit:10;stroke-dasharray:none;stroke-opacity:1"
       id="path1536"
       clip-path="url(#clipPath1572)" />
    <path
       d="m 27.374658,77.532726 c -0.09908,-0.13682 -0.283075,-0.169845 -0.419895,-0.07549 l -0.981327,0.693534 c -0.136819,0.09436 -0.165127,0.283075 -0.07077,0.415176 l 2.906236,4.132895 c 0.09436,0.132102 0.283075,0.165127 0.415177,0.07077 l 0.981327,-0.688816 c 0.136819,-0.09908 0.169845,-0.283075 0.07549,-0.419894 z"
       style="fill:#f1aa96;fill-opacity:1;fill-rule:evenodd;stroke:none;stroke-width:0.471792"
       id="path1546"
       clip-path="url(#clipPath1535)" />
    <path
       d="m 27.374658,77.532726 c -0.09908,-0.13682 -0.283075,-0.169845 -0.419895,-0.07549 l -0.981327,0.693534 c -0.136819,0.09436 -0.165127,0.283075 -0.07077,0.415176 l 2.906236,4.132895 c 0.09436,0.132102 0.283075,0.165127 0.415177,0.07077 l 0.981327,-0.688816 c 0.136819,-0.09908 0.169845,-0.283075 0.07549,-0.419894 z"
       style="fill:none;stroke:#f1aa96;stroke-width:0.471933;stroke-linecap:butt;stroke-linejoin:miter;stroke-miterlimit:10;stroke-dasharray:none;stroke-opacity:1"
       id="path1556"
       clip-path="url(#clipPath1496)" />
    <path
       d="m 28.095539,83.462638 c -0.0047,-0.01415 0.56615,-0.325536 1.278556,-0.698252 0.712405,-0.372715 1.292709,-0.660508 1.302145,-0.646354 L 28.553177,78.04647 c -0.0047,-0.01415 -0.589739,0.278357 -1.302145,0.646354 -0.712405,0.372716 -1.283273,0.684098 -1.278555,0.698252 z"
       style="fill:#000000;fill-opacity:1;fill-rule:evenodd;stroke:none;stroke-width:0.471792"
       id="path1566"
       clip-path="url(#clipPath1446)" />
    <path
       d="m 30.674889,82.191712 c -0.0094,-0.01415 -0.58974,0.273639 -1.302145,0.646354 -0.712406,0.372716 -1.283273,0.684098 -1.278556,0.698252 0.0094,0.01415 0.58974,-0.278357 1.302145,-0.646355 0.712406,-0.372715 1.283274,-0.684098 1.278556,-0.698251 L 28.551826,78.12015 c -0.0047,-0.01415 -0.589739,0.278357 -1.302145,0.646354 -0.712405,0.372716 -1.283273,0.684098 -1.278555,0.698252 l 2.123062,4.071562"
       style="fill:none;stroke:#000000;stroke-width:0.471933;stroke-linecap:butt;stroke-linejoin:miter;stroke-miterlimit:10;stroke-dasharray:none;stroke-opacity:1"
       id="path1586"
       clip-path="url(#clipPath1410)" />
    <path
       d="m 18.997962,59.802255 31.845855,-0.06695 -0.03195,-15.21147 -31.845854,0.06695 z"
       style="fill:#dbdbdb;fill-opacity:1;fill-rule:evenodd;stroke:none;stroke-width:0.471792"
       id="path1592" />
    <path
       d="m 31.28464,56.924864 h 7.430719 V 53.741025 H 31.28464 Z"
       style="fill:#404040;fill-opacity:1;fill-rule:evenodd;stroke:none;stroke-width:0.471792"
       id="path1594" />
    <path
       d="m 31.28464,56.924864 h 7.430719 V 53.741025 H 31.28464 Z"
       style="fill:none;stroke:#000000;stroke-width:0.471934;stroke-linecap:butt;stroke-linejoin:miter;stroke-miterlimit:10;stroke-dasharray:none;stroke-opacity:1"
       id="path1596" />
    <path
       d="M 26.861589,55.509488 H 43.138411 V 46.31191 H 26.861589 Z"
       style="fill:#1a1a1a;stroke:#000000;stroke-width:0.471934;stroke-linecap:butt;stroke-linejoin:miter;stroke-miterlimit:10;stroke-dasharray:none;stroke-opacity:1"
       id="path1590" />
    <path
       d="m 30.847047,80.976801 c 0,-2.14665 1.745621,-3.887562 3.896997,-3.887562 2.146645,0 3.892282,1.740912 3.892282,3.887562 0,2.15137 -1.745637,3.892282 -3.892282,3.892282 -2.151376,0 -3.896997,-1.740912 -3.896997,-3.892282 z"
       style="fill:#f1aa96;fill-opacity:1;fill-rule:evenodd;stroke:none;stroke-width:0.471792"
       id="path1326" />
    <path
       d="m 30.847047,80.976801 c 0,-2.14665 1.745621,-3.887562 3.896997,-3.887562 2.146645,0 3.892282,1.740912 3.892282,3.887562 0,2.15137 -1.745637,3.892282 -3.892282,3.892282 -2.151376,0 -3.896997,-1.740912 -3.896997,-3.892282 z"
       style="fill:none;stroke:#f1aa96;stroke-width:0.471934;stroke-linecap:butt;stroke-linejoin:miter;stroke-miterlimit:10;stroke-dasharray:none;stroke-opacity:1"
       id="path1328" />
    <path
       d="m 30.847047,80.330448 c 0,-0.03303 0.02835,-0.05661 0.0614,-0.05661 h 0.235904 c 0.03305,0 0.0614,0.02359 0.0614,0.05661 v 0.589738 c 0,0.03303 -0.02835,0.05661 -0.0614,0.05661 h -0.235904 c -0.03305,0 -0.0614,-0.0236 -0.0614,-0.05661 z"
       style="fill:#f1aa96;fill-opacity:1;fill-rule:evenodd;stroke:none;stroke-width:0.471792"
       id="path1330" />
    <path
       d="m 30.446215,80.426416 c 0,-0.02676 0.02296,-0.04586 0.04977,-0.04586 h 0.191152 c 0.02681,0 0.04977,0.01912 0.04977,0.04586 v 0.47785 c 0,0.02676 -0.02296,0.04587 -0.04977,0.04587 h -0.191152 c -0.02681,0 -0.04977,-0.01913 -0.04977,-0.04587 z"
       style="fill:none;stroke:#f1aa96;stroke-width:0.382396;stroke-linecap:butt;stroke-linejoin:miter;stroke-miterlimit:10;stroke-dasharray:none;stroke-opacity:1"
       id="path1332" />
    <path
       d="m 38.740946,80.426406 c 0,-0.02676 0.02296,-0.04587 0.04977,-0.04587 h 0.191152 c 0.02681,0 0.04977,0.01912 0.04977,0.04587 v 0.477875 c 0,0.02677 -0.02296,0.04587 -0.04977,0.04587 h -0.191154 c -0.02681,0 -0.04977,-0.01912 -0.04977,-0.04587 z"
       style="fill:none;stroke:#f1aa96;stroke-width:0.382415;stroke-linecap:butt;stroke-linejoin:miter;stroke-miterlimit:10;stroke-dasharray:none;stroke-opacity:1"
       id="path1332-2" />
    <path
       d="m 34.036346,77.08924 0.707698,-0.707689 0.702968,0.707689 z"
       style="fill:#f1aa96;fill-opacity:1;fill-rule:evenodd;stroke:none;stroke-width:0.471792"
       id="path1338" />
    <path
       d="m 34.036346,77.08924 0.707698,-0.707689 0.702968,0.707689 z"
       style="fill:none;stroke:#f1aa96;stroke-width:0.471934;stroke-linecap:butt;stroke-linejoin:miter;stroke-miterlimit:10;stroke-dasharray:none;stroke-opacity:1"
       id="path1340" />
    <path
       id="path1342"
       style="fill:none;stroke:#000000;stroke-width:0.32823;stroke-linecap:butt;stroke-linejoin:miter;stroke-miterlimit:10;stroke-dasharray:none;stroke-opacity:1"
       d="m 34.743928,77.236626 c -1.957889,0 -3.538159,1.660709 -3.538159,3.71299 0,2.052278 1.58027,3.71299 3.538159,3.71299 1.953213,0 3.533707,-1.660712 3.533707,-3.71299 0,-2.05228 -1.580494,-3.71299 -3.533707,-3.71299 z" />
    <path
       d="m 35.853905,78.398345 c 0,0.139132 -0.110792,0.2525 -0.249916,0.2525 -0.13913,0 -0.252507,-0.113368 -0.252507,-0.2525 0,-0.139133 0.113377,-0.249923 0.252507,-0.249923 0.139124,0 0.249916,0.11079 0.249916,0.249923 z"
       style="fill:#000000;fill-opacity:1;fill-rule:evenodd;stroke:none;stroke-width:0.257652"
       id="path1366" />
    <path
       d="m 34.13192,78.398345 c 0,0.139132 -0.110799,0.2525 -0.24993,0.2525 -0.139131,0 -0.252492,-0.113368 -0.252492,-0.2525 0,-0.139133 0.113361,-0.249923 0.252492,-0.249923 0.139131,0 0.24993,0.11079 0.24993,0.249923 z"
       style="fill:#000000;fill-opacity:1;fill-rule:evenodd;stroke:none;stroke-width:0.257651"
       id="path1368" />
    <path
       d="m 32.071468,80.664056 c 0,0.139133 -0.113372,0.252499 -0.249933,0.252499 -0.139127,0 -0.252491,-0.113366 -0.252491,-0.252499 0,-0.136556 0.113364,-0.249923 0.252491,-0.249923 0.136561,0 0.249933,0.113367 0.249933,0.249923 z"
       style="fill:#000000;fill-opacity:1;fill-rule:evenodd;stroke:none;stroke-width:0.257652"
       id="path1364" />
    <path
       d="m 37.902804,80.664056 c 0,0.139132 -0.110784,0.252499 -0.249911,0.252499 -0.139142,0 -0.252514,-0.113367 -0.252514,-0.252499 0,-0.139133 0.113372,-0.249923 0.252514,-0.249923 0.139127,0 0.249911,0.11079 0.249911,0.249923 z"
       style="fill:#000000;fill-opacity:1;fill-rule:evenodd;stroke:none;stroke-width:0.257653"
       id="path1372" />
    <path
       d="m 36.444958,80.664056 c 0,0.139132 -0.113364,0.252499 -0.249918,0.252499 -0.139134,0 -0.252506,-0.113367 -0.252506,-0.252499 0,-0.139133 0.113372,-0.249923 0.252506,-0.249923 0.136554,0 0.249918,0.110791 0.249918,0.249923 z"
       style="fill:#000000;fill-opacity:1;fill-rule:evenodd;stroke:none;stroke-width:0.257649"
       id="path1374" />
    <path
       d="m 33.529291,80.664056 c 0,0.139132 -0.110792,0.252499 -0.249918,0.252499 -0.139135,0 -0.252507,-0.113367 -0.252507,-0.252499 0,-0.139133 0.113372,-0.249923 0.252507,-0.249923 0.139126,0 0.249918,0.110791 0.249918,0.249923 z"
       style="fill:#000000;fill-opacity:1;fill-rule:evenodd;stroke:none;stroke-width:0.257654"
       id="path1378" />
    <path
       d="m 35.505426,77.77913 c 0,0.139132 -0.110799,0.2525 -0.249923,0.2525 -0.139131,0 -0.2525,-0.113368 -0.2525,-0.2525 0,-0.136555 0.113369,-0.249923 0.2525,-0.249923 0.139124,0 0.249923,0.113368 0.249923,0.249923 z"
       style="fill:#000000;fill-opacity:1;fill-rule:evenodd;stroke:none;stroke-width:0.257652"
       id="path1370" />
    <path
       d="m 34.480398,77.781707 c 0,0.136555 -0.113369,0.249923 -0.252507,0.249923 -0.139131,0 -0.249916,-0.113368 -0.249916,-0.249923 0,-0.139132 0.110785,-0.2525 0.249916,-0.2525 0.139138,0 0.252507,0.113368 0.252507,0.2525 z"
       style="fill:#000000;fill-opacity:1;fill-rule:evenodd;stroke:none;stroke-width:0.257652"
       id="path1386" />
    <path
       d="m 33.876711,83.253984 c 0,0.139133 -0.113365,0.2525 -0.252499,0.2525 -0.139135,0 -0.249926,-0.113367 -0.249926,-0.2525 0,-0.139133 0.110791,-0.249923 0.249926,-0.249923 0.139134,0 0.252499,0.110791 0.252499,0.249923 z"
       style="fill:#000000;fill-opacity:1;fill-rule:evenodd;stroke:none;stroke-width:0.257652"
       id="path1388" />
    <path
       d="m 34.992914,83.602718 c 0,0.139132 -0.113364,0.249923 -0.252507,0.249923 -0.139126,0 -0.249918,-0.110791 -0.249918,-0.249923 0,-0.139133 0.110792,-0.252499 0.249918,-0.252499 0.139143,0 0.252507,0.113366 0.252507,0.252499 z"
       style="fill:#000000;fill-opacity:1;fill-rule:evenodd;stroke:none;stroke-width:0.257652"
       id="path1392" />
    <path
       d="m 35.994043,83.240589 c 0,0.136557 -0.110792,0.249923 -0.249926,0.249923 -0.139135,0 -0.252499,-0.113366 -0.252499,-0.249923 0,-0.139132 0.113364,-0.252499 0.252499,-0.252499 0.139134,0 0.249926,0.113367 0.249926,0.252499 z"
       style="fill:#000000;fill-opacity:1;fill-rule:evenodd;stroke:none;stroke-width:0.257652"
       id="path1400" />
    <path
       d="m 35.732675,83.929825 c 0,0.139132 -0.113376,0.2525 -0.252507,0.2525 -0.139123,0 -0.249915,-0.113368 -0.249915,-0.2525 0,-0.139132 0.110792,-0.249923 0.249915,-0.249923 0.139131,0 0.252507,0.110791 0.252507,0.249923 z"
       style="fill:#000000;fill-opacity:1;fill-rule:evenodd;stroke:none;stroke-width:0.257652"
       id="path1390" />
    <path
       d="m 34.253149,83.929825 c 0,0.139133 -0.113362,0.2525 -0.252493,0.2525 -0.136568,0 -0.24993,-0.113367 -0.24993,-0.2525 0,-0.136556 0.113362,-0.249923 0.24993,-0.249923 0.139131,0 0.252493,0.113366 0.252493,0.249923 z"
       style="fill:#000000;fill-opacity:1;fill-rule:evenodd;stroke:none;stroke-width:0.257651"
       id="path1402" />
    <path
       d="m 34.987152,80.664056 c 0,0.139132 -0.113373,0.252499 -0.252507,0.252499 -0.139135,0 -0.249918,-0.113367 -0.249918,-0.252499 0,-0.139133 0.110783,-0.249923 0.249918,-0.249923 0.139134,0 0.252507,0.11079 0.252507,0.249923 z"
       style="fill:#000000;fill-opacity:1;fill-rule:evenodd;stroke:none;stroke-width:0.257652"
       id="path1376" />
    <path
       d="m 34.992914,82.344643 c 0,0.136556 -0.113364,0.249923 -0.252499,0.249923 -0.139127,0 -0.249926,-0.113367 -0.249926,-0.249923 0,-0.139132 0.110799,-0.2525 0.249926,-0.2525 0.139135,0 0.252499,0.113368 0.252499,0.2525 z"
       style="fill:#000000;fill-opacity:1;fill-rule:evenodd;stroke:none;stroke-width:0.257652"
       id="path1394" />
    <path
       d="m 34.992914,79.05543 c 0,0.136553 -0.110714,0.249927 -0.24991,0.249927 -0.139104,0 -0.252515,-0.113372 -0.252515,-0.249927 0,-0.139133 0.113249,-0.252507 0.252515,-0.252507 0.139096,0 0.24991,0.113373 0.24991,0.252507 z"
       style="fill:#000000;fill-opacity:1;fill-rule:evenodd;stroke:none;stroke-width:0.257659"
       id="path1404" />
    <path
       d="m 35.767675,81.574147 c 0,0.139133 -0.113369,0.249923 -0.249922,0.249923 -0.139131,0 -0.2525,-0.11079 -0.2525,-0.249923 0,-0.139132 0.113369,-0.2525 0.2525,-0.2525 0.136553,0 0.249922,0.113368 0.249922,0.2525 z"
       style="fill:#000000;fill-opacity:1;fill-rule:evenodd;stroke:none;stroke-width:0.25765"
       id="path1382" />
    <path
       d="m 34.218148,81.572858 c 0,0.139849 -0.113376,0.251212 -0.252507,0.251212 -0.139138,0 -0.249915,-0.111363 -0.249915,-0.251212 0,-0.139849 0.110777,-0.251211 0.249915,-0.251211 0.139131,0 0.252507,0.111362 0.252507,0.251211 z"
       style="fill:#000000;fill-opacity:1;fill-rule:evenodd;stroke:none;stroke-width:0.258315"
       id="path1398" />
    <path
       d="m 33.090267,81.655344 c 0,0.139132 -0.113369,0.252499 -0.249923,0.252499 -0.139131,0 -0.252499,-0.113367 -0.252499,-0.252499 0,-0.136555 0.113368,-0.249924 0.252499,-0.249924 0.136554,0 0.249923,0.113369 0.249923,0.249924 z"
       style="fill:#000000;fill-opacity:1;fill-rule:evenodd;stroke:none;stroke-width:0.257654"
       id="path1380" />
    <path
       d="m 36.895556,81.655343 c 0,0.139133 -0.113369,0.2525 -0.2525,0.2525 -0.13913,0 -0.249923,-0.113367 -0.249923,-0.2525 0,-0.139132 0.110793,-0.249923 0.249923,-0.249923 0.139131,0 0.2525,0.110791 0.2525,0.249923 z"
       style="fill:#000000;fill-opacity:1;fill-rule:evenodd;stroke:none;stroke-width:0.257652"
       id="path1406" />
    <path
       d="m 33.714908,79.79976 c 0.0015,-0.139124 0.116116,-0.248658 0.252661,-0.247154 0.139122,0.0015 0.251264,0.113566 0.249731,0.25269 -0.0015,0.139124 -0.116145,0.251235 -0.255267,0.249702 -0.136545,-0.0015 -0.248658,-0.116114 -0.247125,-0.255238 z"
       style="fill:#000000;fill-opacity:1;fill-rule:evenodd;stroke:none;stroke-width:0.25765"
       id="path1382-0" />
    <path
       d="m 35.264327,79.818123 c 0.0015,-0.139841 0.116137,-0.249948 0.255259,-0.248415 0.13913,0.0015 0.248673,0.11411 0.247133,0.253951 -0.0015,0.13984 -0.113539,0.249974 -0.252669,0.248441 -0.139122,-0.0015 -0.251264,-0.114137 -0.249723,-0.253977 z"
       style="fill:#000000;fill-opacity:1;fill-rule:evenodd;stroke:none;stroke-width:0.258315"
       id="path1398-9" />
    <path
       d="m 36.393044,79.748068 c 0.0015,-0.139124 0.116145,-0.251235 0.25269,-0.24973 0.139122,0.0015 0.251235,0.116142 0.249702,0.255265 -0.0015,0.136547 -0.116115,0.24866 -0.255238,0.247127 -0.136545,-0.0015 -0.248658,-0.116115 -0.247154,-0.252662 z"
       style="fill:#000000;fill-opacity:1;fill-rule:evenodd;stroke:none;stroke-width:0.257654"
       id="path1380-6" />
    <path
       d="m 32.587986,79.70614 c 0.0015,-0.139124 0.116145,-0.251235 0.255267,-0.249702 0.139122,0.0015 0.248659,0.116114 0.247125,0.255238 -0.0015,0.139124 -0.113539,0.248687 -0.252661,0.247154 -0.139122,-0.0015 -0.251264,-0.113566 -0.249731,-0.25269 z"
       style="fill:#000000;fill-opacity:1;fill-rule:evenodd;stroke:none;stroke-width:0.257652"
       id="path1406-0" />
    <path
       d="m 36.314294,82.4844 c 0,0.139133 -0.113369,0.249922 -0.249923,0.249922 -0.139131,0 -0.2525,-0.110789 -0.2525,-0.249922 0,-0.139133 0.113369,-0.2525 0.2525,-0.2525 0.136554,0 0.249923,0.113367 0.249923,0.2525 z"
       style="fill:#000000;fill-opacity:1;fill-rule:evenodd;stroke:none;stroke-width:0.25765"
       id="path1382-3" />
    <path
       d="m 33.729128,82.48311 c 0,0.13985 -0.113383,0.251212 -0.252514,0.251212 -0.13913,0 -0.249915,-0.111362 -0.249915,-0.251212 0,-0.139849 0.110777,-0.25121 0.249915,-0.25121 0.139131,0 0.252514,0.111361 0.252514,0.25121 z"
       style="fill:#000000;fill-opacity:1;fill-rule:evenodd;stroke:none;stroke-width:0.258315"
       id="path1398-6" />
    <path
       d="m 32.710978,82.621845 c 0,0.139132 -0.113369,0.252499 -0.249923,0.252499 -0.139131,0 -0.2525,-0.113367 -0.2525,-0.252499 0,-0.136556 0.113369,-0.249924 0.2525,-0.249924 0.136554,0 0.249923,0.113368 0.249923,0.249924 z"
       style="fill:#000000;fill-opacity:1;fill-rule:evenodd;stroke:none;stroke-width:0.257654"
       id="path1380-5" />
    <path
       d="m 37.274845,82.621844 c 0,0.139133 -0.113369,0.2525 -0.252499,0.2525 -0.139131,0 -0.249923,-0.113367 -0.249923,-0.2525 0,-0.139132 0.110792,-0.249923 0.249923,-0.249923 0.13913,0 0.252499,0.110791 0.252499,0.249923 z"
       style="fill:#000000;fill-opacity:1;fill-rule:evenodd;stroke:none;stroke-width:0.257652"
       id="path1406-3" />
    <path
       d="m 33.168164,79.002308 c 0.001,-0.13913 0.115171,-0.249098 0.251721,-0.248112 0.139127,0.001 0.251693,0.112611 0.250688,0.25174 -10e-4,0.139129 -0.115189,0.251675 -0.254316,0.25067 -0.136551,-9.86e-4 -0.249098,-0.11517 -0.248093,-0.254298 z"
       style="fill:#000000;fill-opacity:1;fill-rule:evenodd;stroke:none;stroke-width:0.25765"
       id="path1382-3-6" />
    <path
       d="m 35.753252,79.022268 c 10e-4,-0.139846 0.115195,-0.250387 0.254322,-0.249382 0.139127,0.001 0.249105,0.113165 0.248095,0.25301 -10e-4,0.139846 -0.112589,0.250404 -0.251723,0.249399 -0.139127,-0.001 -0.251704,-0.113182 -0.250694,-0.253027 z"
       style="fill:#000000;fill-opacity:1;fill-rule:evenodd;stroke:none;stroke-width:0.258315"
       id="path1398-6-1" />
    <path
       d="m 36.772382,78.890891 c 10e-4,-0.139129 0.11519,-0.251674 0.25174,-0.250688 0.139127,0.001 0.251675,0.115188 0.25067,0.254316 -9.86e-4,0.136552 -0.115171,0.249099 -0.254298,0.248094 -0.136551,-9.86e-4 -0.249098,-0.11517 -0.248112,-0.251722 z"
       style="fill:#000000;fill-opacity:1;fill-rule:evenodd;stroke:none;stroke-width:0.257654"
       id="path1380-5-7" />
    <path
       d="m 32.208634,78.85793 c 10e-4,-0.139129 0.115189,-0.251674 0.254316,-0.250669 0.139128,0.001 0.249098,0.115168 0.248093,0.254298 -10e-4,0.139128 -0.112594,0.249116 -0.251721,0.248111 -0.139127,-10e-4 -0.251693,-0.112611 -0.250688,-0.25174 z"
       style="fill:#000000;fill-opacity:1;fill-rule:evenodd;stroke:none;stroke-width:0.257652"
       id="path1406-3-9" />
    <path
       d="m 43.23629,70.852153 c 0,0.07549 0.235897,0.132104 0.528403,0.132104 0.292506,0 0.533133,-0.05661 0.533133,-0.132104 v 0.797329 c 0,0.07077 -0.240627,0.132105 -0.533133,0.132105 -0.292506,0 -0.528403,-0.06133 -0.528403,-0.132105 z"
       style="fill:#000000;fill-opacity:1;fill-rule:evenodd;stroke:none;stroke-width:0.471792"
       id="path1610" />
    <path
       d="m 43.23629,70.852153 c 0,-0.07077 0.235897,-0.132104 0.528403,-0.132104 0.292506,0 0.533133,0.06133 0.533133,0.132104 0,0.07549 -0.240627,0.132104 -0.533133,0.132104 -0.292506,0 -0.528403,-0.05661 -0.528403,-0.132104 z"
       style="fill:#666666;fill-opacity:1;fill-rule:evenodd;stroke:none;stroke-width:0.471792"
       id="path1612" />
    <path
       d="m 44.297826,70.852153 c 0,0.07549 -0.240627,0.132104 -0.533133,0.132104 -0.292506,0 -0.528403,-0.05661 -0.528403,-0.132104 0,-0.07077 0.235897,-0.132104 0.528403,-0.132104 0.292506,0 0.533133,0.06133 0.533133,0.132104 v 0.797329 c 0,0.07077 -0.240627,0.132105 -0.533133,0.132105 -0.292506,0 -0.528403,-0.06133 -0.528403,-0.132105 v -0.797329"
       style="fill:none;stroke:#000000;stroke-width:0.471934;stroke-linecap:butt;stroke-linejoin:miter;stroke-miterlimit:10;stroke-dasharray:none;stroke-opacity:1"
       id="path1614" />
    <path
       d="M 25.643279,70.941873 25.539498,59.565588"
       style="fill:none;stroke:#000000;stroke-width:0.237952;stroke-linecap:butt;stroke-linejoin:miter;stroke-miterlimit:10;stroke-dasharray:none;stroke-opacity:1"
       id="path1616" />
    <path
       d="M 43.689122,70.941873 43.585342,59.565588"
       style="fill:none;stroke:#000000;stroke-width:0.237952;stroke-linecap:butt;stroke-linejoin:miter;stroke-miterlimit:10;stroke-dasharray:none;stroke-opacity:1"
       id="path1618" />
    <path
       d="m 25.190256,70.852153 c 0,0.07549 0.235901,0.132104 0.528407,0.132104 0.292506,0 0.528408,-0.05661 0.528408,-0.132104 v 0.797329 c 0,0.07077 -0.235902,0.132105 -0.528408,0.132105 -0.292506,0 -0.528407,-0.06133 -0.528407,-0.132105 z"
       style="fill:#000000;fill-opacity:1;fill-rule:evenodd;stroke:none;stroke-width:0.471792"
       id="path1620" />
    <path
       d="m 25.190256,70.852153 c 0,-0.07077 0.235901,-0.132104 0.528407,-0.132104 0.292506,0 0.528408,0.06133 0.528408,0.132104 0,0.07549 -0.235902,0.132104 -0.528408,0.132104 -0.292506,0 -0.528407,-0.05661 -0.528407,-0.132104 z"
       style="fill:#666666;fill-opacity:1;fill-rule:evenodd;stroke:none;stroke-width:0.471792"
       id="path1622" />
    <path
       d="m 26.247071,70.852153 c 0,0.07549 -0.235902,0.132104 -0.528408,0.132104 -0.292506,0 -0.528407,-0.05661 -0.528407,-0.132104 0,-0.07077 0.235901,-0.132104 0.528407,-0.132104 0.292506,0 0.528408,0.06133 0.528408,0.132104 v 0.797329 c 0,0.07077 -0.235902,0.132105 -0.528408,0.132105 -0.292506,0 -0.528407,-0.06133 -0.528407,-0.132105 v -0.797329"
       style="fill:none;stroke:#000000;stroke-width:0.471934;stroke-linecap:butt;stroke-linejoin:miter;stroke-miterlimit:10;stroke-dasharray:none;stroke-opacity:1"
       id="path1624" />
    <path
       style="fill:none;stroke:#000000;stroke-width:0.465;stroke-linecap:butt;stroke-linejoin:miter;stroke-dasharray:none;stroke-opacity:1;marker-start:url(#TriangleStart)"
       d="m 25.465026,37.502139 4.599228,5.718002"
       id="path1358" />
    <path
       style="fill:none;stroke:#000000;stroke-width:0.465;stroke-linecap:butt;stroke-linejoin:miter;stroke-dasharray:none;stroke-opacity:1;marker-start:url(#TriangleStart-5)"
       d="m 44.460964,37.605776 -4.928126,5.437096"
       id="path1358-5" />
    <path
       d="m 48.14216,23.213028 21.385652,4e-6 -2e-6,-12.008591 -21.385652,-4e-6 z"
       style="fill:#1a1a1a;fill-opacity:1;fill-rule:nonzero;stroke:none;stroke-width:0.191716"
       id="path156"
       clip-path="url(#clipPath832)"
       transform="matrix(0.87700757,0,0,0.98969176,1.8070929,11.912086)" />
    <path
       d="m 48.323943,23.213028 0.07014,-3.440244 0.07013,-0.854716 0.07014,-0.152621 0.07014,-0.08878 0.03509,-0.01621 0.07014,0.101342 0.03507,-0.03223 0.03505,0.0069 0.105214,0.245855 0.03507,-0.02331 0.03507,-0.03365 0.03505,0.0148 0.03507,-0.05736 0.07014,-0.192752 0.07013,0.100125 0.07014,-0.08878 0.03507,0.01824 0.03509,-0.08655 0.140286,-0.90255 0.105197,-0.654059 0.350715,-1.190158 0.63125,-4.799544 0.035,-0.02351 0.03518,0.04115 0.140177,0.509546 0.175358,0.84438 0.10536,0.58616 0.280536,2.905671 0.350716,3.089302 0.175357,0.900522 0.175358,0.551502 0.105178,0.179983 0.035,0.101139 0.03518,-0.0095 0.210356,0.726174 0.035,-0.02268 0.03518,0.164903 0.07,0.01316 0.175357,0.428858 0.03518,0.01561 0.035,-0.03525 0.07018,0.106753 0.07018,0.08509 0.035,0.06078 0.07018,-0.06383 0.035,0.03342 0.03518,-0.0784 0.035,0.0077 0.03518,-0.03504 0.105179,-0.318051 0.105178,-0.846386 0.420894,-4.914264 0.105178,-0.964368 0.280535,-2.057237 0.07018,-0.251733 0.07018,-0.274028 0.07,-0.175321 0.105178,-0.479346 0.07018,-0.105396 0.07018,-0.187279 0.035,-0.0069 0.03518,0.03587 0.035,-0.09222 0.03518,0.02209 0.07,0.229843 0.07018,0.21525 0.210538,2.056021 0.490893,5.348615 0.175358,1.173537 0.105179,0.379018 0.210538,0.815619 0.210356,0.317037 0.035,-6.08e-4 0.07018,0.161661 0.035,0.0099 0.03518,-0.08975 0.175358,0.237829 0.035,-0.06907 0.03518,0.02795 0.035,-0.09844 0.035,0.03099 0.03518,-0.0075 0.035,-0.03748 0.03518,0.0081 0.105179,-0.09583 0.035,-0.139973 0.035,0.04009 0.105359,-0.07838 0.035,-0.01865 0.07018,-0.141615 0.105178,-0.03707 0.105178,-0.151729 0.03518,-0.02045 0.280535,-1.103713 0.105179,-0.599943 0.175357,-1.391827 0.175357,-1.786452 0.105179,-0.931128 0.210356,-1.366087 0.175358,-0.742429 0.245536,-0.722364 0.035,0.02777 0.03518,-0.08006 0.035,0.0047 0.07018,0.181604 0.035,0.01682 0.03518,0.07965 0.280537,2.33917 0.210538,2.257691 0.420713,2.658194 0.245538,0.982184 0.03518,0.06099 0.07,0.200555 0.03518,-0.02412 0.035,-0.08266 0.07,0.154769 0.105179,-0.05651 0.07018,0.156188 0.03518,-0.04437 0.105179,0.209878 0.035,-0.04497 0.105179,0.06806 0.105359,-0.120738 0.03518,0.02957 0.03482,-0.05651 0.07018,-0.202379 0.03518,0.03829 0.175358,-0.711256 0.280535,-1.859419 0.526073,-3.734848 0.175357,-0.8006 0.07,-0.174916 0.03518,0.02513 0.035,-0.02838 0.03518,-0.06425 0.07,-0.154648 0.07036,-0.16924 0.03482,-0.111071 0.03536,0.02392 0.105178,-0.172686 0.03482,-0.0057 0.03518,-0.06506 0.07018,0.05939 0.07,8.11e-4 0.03518,-0.04155 0.035,0.09161 0.03518,-0.01925 0.03518,-0.05858 0.03482,0.0024 0.14054,0.268353 0.420713,1.854553 0.210539,1.996635 0.140177,1.241031 0.105178,0.623252 0.10536,0.580283 0.03482,0.108638 0.07018,0.388139 0.315717,0.793405 0.03518,0.01356 0.07018,0.05775 0.07,0.220215 0.07,-0.08407 0.07018,0.123171 0.140358,0.02511 0.07018,-0.09867 0.03518,0.04011 0.07,0.0053 0.07018,-0.157607 0.03518,-0.03322 0.03482,0.06301 0.10536,-0.145669 0.139996,-0.404232 0.175538,-0.957071 0.525891,-4.492885 0.175902,-0.875389 0.105178,-0.441445 0.07072,-0.167619 0.174089,-0.362601 h 0.03446 l 0.106991,-0.111273 0.03446,0.0229 0.105179,-0.116746 0.07072,0.03466 0.06891,-0.07945 0.03627,0.06263 0.03446,-0.0012 0.03445,0.03729 0.105178,0.233492 0.03627,0.07661 0.210357,1.427702 0.210357,2.367749 0.139633,1.379666 0.210357,1.303458 0.07072,0.326928 0.06891,0.106004 0.07072,0.220317 0.03627,0.03575 0.06891,0.211683 0.07072,-0.01214 0.06891,0.176841 0.03627,0.01034 0.105178,0.140176 0.03445,-0.01599 0.03627,0.07353"
       style="fill:none;stroke:#ffff00;stroke-width:0.375131;stroke-linecap:round;stroke-linejoin:round;stroke-miterlimit:10;stroke-dasharray:none;stroke-opacity:1"
       id="path166"
       clip-path="url(#clipPath923)"
       transform="matrix(0.87700757,0,0,0.98969176,1.8070929,11.912086)" />
    <path
       d="m 48.243898,21.497174 0.0704,-0.02351 0.105614,-0.122542 0.105613,-0.224614 0.14083,-0.448336 0.211209,-0.948964 0.281624,-1.62917 0.598464,-3.59074 0.21119,-0.897685 0.176083,-0.481982 0.105541,-0.157282 0.105723,-0.0529 0.07036,0.02351 0.105541,0.122826 0.105723,0.224573 0.140721,0.448336 0.211263,0.948762 0.281625,1.62917 0.598428,3.59074 0.211264,0.897888 0.176083,0.482042 0.105541,0.156999 0.105541,0.05288 0.07054,-0.02351 0.105541,-0.122543 0.105541,-0.224613 0.140903,-0.448336 0.211263,-0.948964 0.281623,-1.62917 0.598428,-3.59074 0.211263,-0.897686 0.175902,-0.481981 0.105722,-0.157282 0.105541,-0.0529 0.07036,0.02351 0.105722,0.122826 0.105541,0.224573 0.140903,0.448336 0.211082,0.948762 0.281624,1.629169 0.598611,3.590741 0.211082,0.897888 0.176083,0.482042 0.105541,0.156999 0.105722,0.05288 0.07036,-0.02351 0.105541,-0.122766 0.105722,-0.224391 0.140721,-0.448336 0.211264,-0.948964 0.281623,-1.629169 0.598428,-3.590741 0.211263,-0.897685 0.176083,-0.482184 0.105541,-0.157079 0.105722,-0.0529 0.07036,0.02351 0.105541,0.122827 0.105723,0.224573 0.140721,0.448133 0.211263,0.948964 0.281443,1.62917 0.598792,3.590741 0.210901,0.897888 0.176083,0.482042 0.105722,0.156998 0.105541,0.05288 0.07036,-0.02351 0.105722,-0.122765 0.105722,-0.224594 0.14054,-0.448133 0.211445,-0.948964 0.281623,-1.62917 0.598428,-3.59074 0.211263,-0.897685 0.176083,-0.482184 0.105541,-0.15708 0.10536,-0.0529 0.07072,0.02351 0.10536,0.122826 0.105722,0.224371 0.140903,0.448336 0.211082,0.948964 0.281624,1.62917 0.598429,3.590741 0.211264,0.897887 0.176083,0.48184 0.105722,0.157201 0.105541,0.05288 0.07036,-0.02351 0.105722,-0.122765 0.105541,-0.224594 0.140721,-0.448336 0.211445,-0.948761 0.281261,-1.62917 0.598428,-3.59074 0.21217,-0.897685 0.175901,-0.482184 0.105178,-0.15708 0.105179,-0.0529 0.07072,0.02351 0.105178,0.122624 0.105179,0.224573 0.141447,0.448336 0.21217,0.948964 0.28108,1.62917 0.598429,3.59074 0.210356,0.897888 0.175902,0.48184 0.106992,0.157201 0.07072,0.0468"
       style="fill:none;stroke:#00ff00;stroke-width:0.376549;stroke-linecap:round;stroke-linejoin:round;stroke-miterlimit:10;stroke-dasharray:none;stroke-opacity:1"
       id="path168"
       clip-path="url(#clipPath808)"
       transform="matrix(0.87700757,0,0,0.98969176,1.8070929,11.912086)" />
    <path
       d="m 11.324605,23.212729 21.461999,4e-6 -2e-6,-12.008996 -21.461999,-4e-6 z"
       style="fill:#1a1a1a;fill-opacity:1;fill-rule:nonzero;stroke:none;stroke-width:0.191241"
       id="path196"
       clip-path="url(#clipPath1288)"
       transform="matrix(0.87759819,0,0,0.99996192,-4.0400559,11.794337)" />
    <path
       d="m 11.603743,23.210757 0.07007,-0.474685 0.07008,-0.0787 0.03504,0.04266 0.07007,-0.113523 0.07008,0.03498 0.105145,-0.0979 0.105109,0.180469 0.03504,0.0027 0.07008,-0.0592 0.03504,0.05572 0.03502,-0.0108 0.07008,-0.11561 0.03504,-0.01107 0.07007,-0.101139 0.03504,0.0681 0.03504,-0.02298 0.0701,0.05843 0.07008,0.05351 0.140151,-0.170072 0.03504,0.0077 0.07008,-0.07625 0.03503,0.06916 0.03504,-0.0095 0.03495,-0.04749 0.03519,0.01026 0.03501,-0.03652 0.03501,0.03016 0.07019,-0.13446 0.07001,-0.0498 0.07001,0.09846 0.03501,0.0074 0.07019,-0.10499 0.03501,-0.0024 0.03501,-0.05416 0.07019,0.02343 0.03501,-6.49e-4 0.07001,-0.04566 0.07019,-0.175686 0.03501,0.0057 0.03501,-0.0457 0.07001,0.09443 0.175211,-0.09573 0.140205,-0.251712 0.07001,-0.01498 0.03519,-0.06239 0.105018,0.113482 0.03501,0.0041 0.105199,-0.180206 0.07001,7.71e-4 0.03501,0.05288 0.03519,-0.0091 0.07001,0.105233 0.03501,-0.03896 0.03501,0.01005 0.03519,-0.01688 0.03501,0.03259 0.07001,-0.06115 0.03501,0.0012 0.03519,-0.04092 0.07001,0.086 0.03501,0.01674 0.07001,0.119461 0.03519,-0.01929 0.03501,-0.07349 0.03501,0.0081 0.105199,-0.0812 0.07001,0.08742 0.03501,-0.0575 0.175211,0.118286 0.07019,-0.05827 0.07001,-0.04183 0.07001,-0.024 0.03501,-0.07684 0.07019,0.0193 0.07001,0.04871 0.03501,-0.07005 0.03519,0.08492 0.03501,-0.0022 0.105019,0.118327 0.03519,-0.02434 0.03501,0.01644 0.07001,-0.0139 0.07001,-0.0088 0.03519,-0.07645 0.03501,0.02675 0.07001,0.102923 0.140205,0.0074 0.03501,-0.0287 0.07019,0.06342 0.03501,1.42e-4 0.07001,-0.0405 0.03501,0.0095 0.03501,-0.03083 0.03519,0.02049 0.03501,-0.03184 0.105018,0.07434 0.07019,-0.187644 0.105018,0.132393 0.03519,0.0097 0.03501,-0.07661 0.03501,0.05142 0.07001,-0.05002 0.105199,-0.0501 0.07001,0.08103 0.07019,-0.07424 0.105018,0.05685 0.07019,-0.05888 0.03501,-0.0057 0.03501,0.05 0.03501,-0.06018 0.105199,0.0098 0.03501,-0.0079 0.03501,0.08456 0.07001,-0.03253 0.07019,0.09794 0.03501,-0.0055 0.07019,-0.05365 0.03501,0.001 0.03501,-0.02369 0.03501,0.03602 0.03501,-0.05849 0.03501,0.0088 0.07019,-0.10041 0.07001,0.06378 0.03501,0.01127 0.03501,-0.05002 0.03519,0.04191 0.03501,-0.02454 0.03501,0.04714 0.07001,-0.09054 0.03519,0.01401 0.03501,-0.01729 0.03501,0.01202 0.03501,0.05809 0.03501,-0.04451 0.07019,0.021 0.03501,0.0082 0.07001,-0.07189 0.03519,0.0013 0.03501,0.07285 0.105018,-0.04534 0.07019,0.05456 0.03501,0.002 0.07001,-0.06999 0.03501,0.03496 0.07019,0.0606 0.07001,-0.03713 0.03501,0.04739 0.07019,-0.06976 0.03501,0.01885 0.03501,-0.02734 0.07001,0.05349 0.245404,-0.09905 0.07001,0.0103 0.07019,-0.02047 0.105018,-0.02065 0.03501,0.03687 0.07019,-0.04402 0.03501,-0.0064 0.03501,-0.05053 0.07001,0.05637 0.03519,-0.05237 0.140025,0.116198 0.03519,0.0107 0.03501,0.03541 0.105019,-0.07576 0.07019,0.07524 0.03501,0.03711 0.03501,-0.01269 0.07001,0.06737 0.07019,-0.04346 0.03501,0.108699 0.07001,-0.04907 0.07019,-0.06751 0.03501,0.01297 0.03501,-0.0969 0.03501,0.02744 0.07019,-0.06269 0.07001,0.114496 0.03501,0.02398 0.07019,-0.0018 0.07001,-0.102983 0.07001,0.120049 0.07019,0.0044 0.07001,0.0815 0.07019,-0.127001 0.03501,0.04117 0.03501,-0.03204 0.03501,-0.08034 0.03501,0.0059 0.03519,-0.05584 0.210217,0.01802 0.03501,0.06944 0.03501,-0.02708 0.03501,0.06251 0.03501,-0.0498 0.245404,0.06867 0.07001,-0.0948 0.140025,-0.01301 0.03519,-0.02625 0.03519,0.02765 0.03483,-0.03719 0.07001,0.05357 0.03519,-0.0017 0.07001,0.09832 0.03519,0.0022 0.03483,-0.04038 0.105199,0.05708 0.07001,-0.09763 0.03519,-0.01611 0.105199,-0.1314 0.105199,0.07779 0.03483,-0.01222 0.07001,0.03873 0.03519,0.0017 0.03501,0.100227 0.03501,-0.0563 0.03519,0.05521 0.140025,-0.0577 0.03501,-0.06036 0.175211,0.01723 0.07001,0.07007 0.03519,-0.06873 0.03483,0.01291 0.03519,0.100612 0.03519,-0.01111 0.07001,-0.11936 0.07001,-0.02649 0.03519,0.05596 0.03483,-0.03971 0.140386,0.119462 0.03483,-0.0455 0.07001,0.0037 0.07037,-0.03693 0.03482,0.01573 0.07001,-0.0649 0.03519,0.04058 0.03519,-0.04609 0.03482,0.04102 0.03519,-0.0066 0.07001,0.113706 0.07001,-0.06261 0.07019,0.08677 0.175211,-0.212594 0.03501,0.0031 0.03501,0.04577 0.03501,-0.01771 0.140205,0.132615 0.03483,-0.0035 0.03519,0.04907 0.03519,-0.02923 0.07001,-0.152276 0.140025,0.01565 0.03519,0.0737 0.03483,-0.0032 0.07037,0.05337 0.03483,0.02483 0.03519,-0.08383 0.03519,2.22e-4 0.07001,-0.06575 0.03483,0.0483 0.03519,-0.01324 0.03519,-0.03956 0.07001,0.06802 0.105199,0.122563 0.03483,-0.07465 0.03519,0.01883 0.03483,-0.08182 0.03519,-2e-5 0.07001,-0.0827 0.03501,-0.03308 0.03501,0.01502 0.07019,0.07884 0.03501,-0.04465 0.03501,0.0768 0.03501,-0.0575 0.07019,0.01285 0.175211,-0.01948 0.03483,0.02736 0.03519,-0.08531 0.07001,0.115712 0.07001,-0.01715 0.03519,-0.03249 0.03519,0.01944 0.03482,-0.06532 0.03519,0.02633 0.03483,-0.04694 0.105198,0.06316 0.03519,-0.04127 0.03483,0.0041 0.03519,0.04457 0.07001,-0.01054 0.03519,-0.05945 0.03483,0.04593 0.03519,-0.02234 0.03519,0.03217 0.03483,-0.02075 0.07001,0.01632 0.07037,0.01171 0.07001,0.04086 0.07001,-6.48e-4 0.03501,0.05308 0.105741,-0.103003 0.07037,0.07842 0.03428,-0.0095 0.03428,-0.07503 0.03609,0.0088 0.104658,0.118469 0.03428,-0.0076 0.07037,0.03626 0.07037,-0.0049 0.03609,-0.100997 0.06857,0.13442 0.07037,-0.109611 0.03609,0.01628 0.03428,0.04017 0.104657,-0.07047 0.07037,0.07576 0.03428,-0.08308 0.03609,0.04798 0.03428,-0.01792 0.03609,0.04037 0.03428,-0.006 0.07037,0.05525 0.07037,0.05438 0.104658,-0.116746 0.07037,-0.07678 0.03428,-0.04654 0.07037,0.04806 0.07037,-0.01496 0.07037,0.103125 0.03428,0.04208 0.03609,-0.03419 0.07037,0.0547 0.104657,-0.0607 0.07037,-0.08351 0.104657,-0.06466 0.07037,0.04787 0.03428,-0.03044 0.104658,0.148527 0.03609,-0.03865 0.03428,0.005 0.03609,-0.06749 0.07037,0.07607 0.03428,-0.03036 0.07037,-0.09313 0.07037,0.03754 0.03428,-0.0073 0.104657,0.114192 0.140747,-0.0084 0.03428,-0.01581 0.106462,-0.09765 0.03428,0.04327 0.03609,-0.06228 0.03428,0.01094 0.140747,0.117881"
       style="fill:none;stroke:#ffff00;stroke-width:0.375731;stroke-linecap:butt;stroke-linejoin:round;stroke-miterlimit:10;stroke-dasharray:none;stroke-opacity:1"
       id="path206"
       clip-path="url(#clipPath1332)"
       transform="matrix(0.87759819,0,0,0.99996192,-4.0400559,11.794337)" />
    <path
       d="m 11.603743,21.50175 20.989813,4e-6"
       style="fill:none;stroke:#00ff00;stroke-width:0.375731;stroke-linecap:butt;stroke-linejoin:round;stroke-miterlimit:10;stroke-dasharray:none;stroke-opacity:1"
       id="path208"
       clip-path="url(#clipPath1121)"
       transform="matrix(0.87759819,0,0,0.99996192,-4.0400559,11.794337)" />
    <text
       xml:space="preserve"
       style="font-style:normal;font-weight:normal;font-size:4.23333px;line-height:1.25;font-family:sans-serif;fill:#000000;fill-opacity:1;stroke:none;stroke-width:0.264583"
       x="9.4491072"
       y="19.507917"
       id="text31241"><tspan
         sodipodi:role="line"
         id="tspan31239"
         style="font-size:4.23333px;stroke-width:0.264583"
         x="9.4491072"
         y="19.507917">steady</tspan></text>
    <text
       xml:space="preserve"
       style="font-style:normal;font-weight:normal;font-size:4.23333px;line-height:1.25;font-family:sans-serif;fill:#000000;fill-opacity:1;stroke:none;stroke-width:0.264583"
       x="48.858009"
       y="19.918228"
       id="text31245"><tspan
         sodipodi:role="line"
         id="tspan31243"
         style="font-size:4.23333px;stroke-width:0.264583"
         x="48.858009"
         y="19.918228">sine</tspan></text>
    <text
       xml:space="preserve"
       style="font-style:normal;font-weight:normal;font-size:4.23333px;line-height:1.25;font-family:sans-serif;fill:#000000;fill-opacity:1;stroke:none;stroke-width:0.264583"
       x="19.729631"
       y="9.4524221"
       id="text31249"><tspan
         sodipodi:role="line"
         id="tspan31247"
         style="font-size:4.23333px;stroke-width:0.264583"
         x="19.729631"
         y="9.4524221">left or right hand</tspan></text>
    <text
       xml:space="preserve"
       style="font-style:normal;font-weight:normal;font-size:4.23333px;line-height:1.25;font-family:sans-serif;fill:#000000;fill-opacity:1;stroke:none;stroke-width:0.264583"
       x="32.717972"
       y="29.404394"
       id="text31303"><tspan
         sodipodi:role="line"
         id="tspan31301"
         style="font-size:4.23333px;stroke-width:0.264583"
         x="32.717972"
         y="29.404394">or</tspan><tspan
         sodipodi:role="line"
         style="font-size:4.23333px;stroke-width:0.264583"
         x="32.717972"
         y="34.696056"
         id="tspan31305" /></text>
  </g>
</svg>
