<?xml version="1.0" encoding="UTF-8" standalone="no"?>
<svg
   xmlns:dc="http://purl.org/dc/elements/1.1/"
   xmlns:cc="http://creativecommons.org/ns#"
   xmlns:rdf="http://www.w3.org/1999/02/22-rdf-syntax-ns#"
   xmlns:svg="http://www.w3.org/2000/svg"
   xmlns="http://www.w3.org/2000/svg"
   xmlns:sodipodi="http://sodipodi.sourceforge.net/DTD/sodipodi-0.dtd"
   xmlns:inkscape="http://www.inkscape.org/namespaces/inkscape"
   width="40mm"
   height="40mm"
   viewBox="0 0 40 40"
   version="1.1"
   id="svg1030"
   inkscape:version="1.0.1 (c497b03c, 2020-09-10)"
   sodipodi:docname="reinforcement.svg">
  <defs
     id="defs1024">
    <clipPath
       clipPathUnits="userSpaceOnUse"
       id="clipPath8985">
      <path
         d="M 300,127.5 H 542.25 V 372 H 300 Z"
         clip-rule="evenodd"
         id="path8983" />
    </clipPath>
    <clipPath
       clipPathUnits="userSpaceOnUse"
       id="clipPath8995">
      <path
         d="M 0,0 H 72.761 V 72.764 H 0 Z"
         id="path8993" />
    </clipPath>
    <clipPath
       clipPathUnits="userSpaceOnUse"
       id="clipPath9253">
      <path
         d="M 621,225 H 740.25 V 345 H 621 Z"
         clip-rule="evenodd"
         id="path9251" />
    </clipPath>
    <clipPath
       clipPathUnits="userSpaceOnUse"
       id="clipPath9263">
      <path
         d="M 0,0 H 72.761 V 72.764 H 0 Z"
         id="path9261" />
    </clipPath>
    <marker
       style="overflow:visible"
       id="marker934"
       refX="0"
       refY="0"
       orient="auto-start-reverse"
       inkscape:stockid="TriangleStart"
       markerWidth="5.3244081"
       markerHeight="6.155385"
       viewBox="0 0 5.3244081 6.1553851"
       inkscape:isstock="true"
       preserveAspectRatio="xMidYMid">
      <path
         transform="scale(0.5)"
         style="fill:context-stroke;fill-rule:evenodd;stroke:#000000;stroke-width:1pt;stroke-opacity:1"
         d="M 5.77,0 -2.88,5 V -5 Z"
         id="path932" />
    </marker>
    <marker
       style="overflow:visible"
       id="marker924"
       refX="0"
       refY="0"
       orient="auto-start-reverse"
       inkscape:stockid="TriangleStart"
       markerWidth="5.3244081"
       markerHeight="6.155385"
       viewBox="0 0 5.3244081 6.1553851"
       inkscape:isstock="true"
       preserveAspectRatio="xMidYMid">
      <path
         transform="scale(0.5)"
         style="fill:context-stroke;fill-rule:evenodd;stroke:#000000;stroke-width:1pt;stroke-opacity:1"
         d="M 5.77,0 -2.88,5 V -5 Z"
         id="path922" />
    </marker>
  </defs>
  <sodipodi:namedview
     id="base"
     pagecolor="#ffffff"
     bordercolor="#666666"
     borderopacity="1.0"
     inkscape:pageopacity="0.0"
     inkscape:pageshadow="2"
     inkscape:zoom="1.5068582"
     inkscape:cx="144.66579"
     inkscape:cy="148.56024"
     inkscape:document-units="mm"
     inkscape:current-layer="layer1"
     inkscape:document-rotation="0"
     showgrid="false"
     inkscape:window-width="1248"
     inkscape:window-height="747"
     inkscape:window-x="0"
     inkscape:window-y="25"
     inkscape:window-maximized="0" />
  <metadata
     id="metadata1027">
    <rdf:RDF>
      <cc:Work
         rdf:about="">
        <dc:format>image/svg+xml</dc:format>
        <dc:type
           rdf:resource="http://purl.org/dc/dcmitype/StillImage" />
        <dc:title></dc:title>
      </cc:Work>
    </rdf:RDF>
  </metadata>
  <g
     inkscape:label="Ebene 1"
     inkscape:groupmode="layer"
     id="layer1">
    <text
       xml:space="preserve"
       style="font-style:normal;font-weight:normal;font-size:2.57387px;line-height:1.25;font-family:sans-serif;fill:#000000;fill-opacity:1;stroke:none;stroke-width:0.321731"
       x="12.11125"
       y="6.4223828"
       id="text3202-7"><tspan
         sodipodi:role="line"
         id="tspan3200-5"
         style="font-size:2.57387px;stroke-width:0.321731"
         x="12.11125"
         y="6.4223828">Environment</tspan></text>
    <text
       xml:space="preserve"
       style="font-style:normal;font-weight:normal;font-size:2.57387px;line-height:1.25;font-family:sans-serif;fill:#000000;fill-opacity:1;stroke:none;stroke-width:0.321731"
       x="-16.350864"
       y="15.748982"
       id="text3202-7-2"
       transform="rotate(-54.466722)"><tspan
         sodipodi:role="line"
         id="tspan3200-5-2"
         style="font-size:2.57387px;stroke-width:0.321731"
         x="-16.350864"
         y="15.748982">Reward</tspan></text>
    <text
       xml:space="preserve"
       style="font-style:normal;font-weight:normal;font-size:2.57387px;line-height:1.25;font-family:sans-serif;fill:#000000;fill-opacity:1;stroke:none;stroke-width:0.321731"
       x="-18.150646"
       y="21.620411"
       id="text3202-7-2-8"
       transform="rotate(-66.033618)"><tspan
         sodipodi:role="line"
         id="tspan3200-5-2-9"
         style="font-size:2.57387px;stroke-width:0.321731"
         x="-18.150646"
         y="21.620411">State</tspan></text>
    <text
       xml:space="preserve"
       style="font-style:normal;font-weight:normal;font-size:2.57387px;line-height:1.25;font-family:sans-serif;fill:#000000;fill-opacity:1;stroke:none;stroke-width:0.321731"
       x="29.969419"
       y="-20.265844"
       id="text3202-7-2-8-1"
       transform="rotate(62.078946)"><tspan
         sodipodi:role="line"
         style="font-size:2.57387px;stroke-width:0.321731"
         x="29.969419"
         y="-20.265844"
         id="tspan9774">Action</tspan></text>
    <g
       id="g8979"
       transform="matrix(0.04245903,0,0,-0.04245903,2.6378141,43.39642)">
      <g
         id="g8981"
         clip-path="url(#clipPath8985)">
        <g
           id="g8987"
           transform="matrix(3.3646,-1.88e-7,-3.77e-7,3.3958,300,127.5)">
          <g
             id="g8989"
             transform="scale(0.98955,0.9895)">
            <g
               id="g8991"
               clip-path="url(#clipPath8995)">
              <path
                 d="m 48.712,18.367 h -24.75 c -3.107,0 -5.625,-2.518 -5.625,-5.625 0,-3.1066 2.518,-5.6251 5.625,-5.6251 h 24.75 c 3.106,0 5.625,2.5185 5.625,5.6251 0,3.107 -2.519,5.625 -5.625,5.625 z m -23.25,-7.875 c -1.243,0 -2.25,1.007 -2.25,2.25 0,1.243 1.007,2.25 2.25,2.25 1.242,0 2.25,-1.007 2.25,-2.25 0,-1.243 -1.008,-2.25 -2.25,-2.25 z m 10.875,0 c -1.243,0 -2.25,1.007 -2.25,2.25 0,1.243 1.007,2.25 2.25,2.25 1.242,0 2.25,-1.007 2.25,-2.25 0,-1.243 -1.008,-2.25 -2.25,-2.25 z m 10.875,0 c -1.243,0 -2.25,1.007 -2.25,2.25 0,1.243 1.007,2.25 2.25,2.25 1.242,0 2.25,-1.007 2.25,-2.25 0,-1.243 -1.008,-2.25 -2.25,-2.25 z"
                 style="fill:#000000;fill-opacity:1;fill-rule:nonzero;stroke:none"
                 id="path8997" />
              <path
                 d="m 41.519,51.367 c 0,-0.621 -0.503,-1.125 -1.125,-1.125 -0.621,0 -1.125,0.504 -1.125,1.125 0,0.621 0.504,1.125 1.125,1.125 0.622,0 1.125,-0.504 1.125,-1.125 z"
                 style="fill:#000000;fill-opacity:1;fill-rule:nonzero;stroke:none"
                 id="path8999" />
              <path
                 d="m 42.854,58.867 h -4.957 v 3.412 c 1.435,0.829 1.926,2.664 1.098,4.099 -0.829,1.434 -2.663,1.926 -4.098,1.098 -1.435,-0.829 -1.927,-2.664 -1.098,-4.098 0.263,-0.457 0.642,-0.835 1.098,-1.099 v -3.412 h -4.958 c -1.816,-0.004 -3.288,-1.476 -3.292,-3.293 v -8.415 c 0.004,-1.816 1.476,-3.288 3.292,-3.292 h 12.915 c 1.817,0.004 3.289,1.476 3.293,3.292 v 8.415 c -0.004,1.817 -1.476,3.289 -3.293,3.293 z m -10.207,-9.75 c -1.243,0 -2.25,1.007 -2.25,2.25 0,1.243 1.007,2.25 2.25,2.25 1.242,0 2.25,-1.007 2.25,-2.25 0,-1.243 -1.008,-2.25 -2.25,-2.25 z m 7.5,0 c -1.243,0 -2.25,1.007 -2.25,2.25 0,1.243 1.007,2.25 2.25,2.25 1.242,0 2.25,-1.007 2.25,-2.25 0,-1.243 -1.008,-2.25 -2.25,-2.25 z"
                 style="fill:#000000;fill-opacity:1;fill-rule:nonzero;stroke:none"
                 id="path9001" />
              <path
                 d="m 34.019,51.367 c 0,-0.621 -0.503,-1.125 -1.125,-1.125 -0.621,0 -1.125,0.504 -1.125,1.125 0,0.621 0.504,1.125 1.125,1.125 0.622,0 1.125,-0.504 1.125,-1.125 z"
                 style="fill:#000000;fill-opacity:1;fill-rule:nonzero;stroke:none"
                 id="path9003" />
              <path
                 d="m 55.897,28.252 v 6.247 c 0,1.86 -1.508,3.368 -3.368,3.368 h -4.132 v 3.75 h -24 v -4.5 h -5.633 c -0.203,0 -0.367,0.164 -0.367,0.367 v 6.218 c 2.578,0.761 4.051,3.469 3.289,6.047 -0.204,0.691 -0.559,1.328 -1.039,1.865 l -2.25,-1.995 c 0.314,-0.342 0.493,-0.787 0.502,-1.252 -0.005,-1.036 -0.849,-1.87 -1.885,-1.865 -1.035,0.006 -1.87,0.85 -1.865,1.885 0.003,0.448 0.165,0.879 0.458,1.217 l -2.25,1.973 c -1.768,-2.031 -1.555,-5.11 0.476,-6.878 0.46,-0.4 0.99,-0.71 1.564,-0.915 v -6.3 c 0,-1.859 1.507,-3.367 3.367,-3.367 h 5.633 v -13.5 h 24 v 14.25 h 4.132 c 0.203,0 0.368,-0.165 0.368,-0.368 v -6.247 c -2.562,-0.829 -3.967,-3.577 -3.138,-6.139 0.207,-0.641 0.545,-1.232 0.993,-1.736 l 2.25,1.995 c -0.311,0.34 -0.482,0.784 -0.48,1.245 0.001,1.035 0.841,1.874 1.876,1.873 1.036,-10e-4 1.875,-0.841 1.874,-1.876 -10e-4,-0.454 -0.166,-0.893 -0.465,-1.235 l 2.25,-1.972 c 1.774,2.019 1.576,5.095 -0.443,6.869 -0.5,0.439 -1.084,0.771 -1.717,0.976 z m -10.5,2.865 H 43.312 C 43.239,31.104 43.17,31.076 43.109,31.034 l -2.295,-2.347 -1.747,4.14 -3.263,-6.75 -2.287,8.79 -1.763,-3.75 h -3.607 v 1.5 h 2.655 l 3.12,6.637 2.31,-8.835 2.932,6 2.16,-5.115 0.75,0.75 c 0.33,0.334 0.77,0.534 1.238,0.563 h 2.085 z"
                 style="fill:#000000;fill-opacity:1;fill-rule:nonzero;stroke:none"
                 id="path9005" />
            </g>
          </g>
        </g>
      </g>
    </g>
    <g
       id="g9247"
       transform="matrix(0.07740125,0,0,-0.07740125,-32.259077,34.966392)">
      <g
         id="g9249"
         clip-path="url(#clipPath9253)">
        <g
           id="g9255"
           transform="matrix(1.6562,-1.88e-7,-7.54e-7,1.6667,621,225)">
          <g
             id="g9257"
             transform="scale(0.98955,0.9895)">
            <g
               id="g9259"
               clip-path="url(#clipPath9263)">
              <path
                 d="m 36.397,64.867 c -15.75,0 -28.5002,-12.75 -28.5002,-28.5 0,-15.75 12.7502,-28.5001 28.5002,-28.5001 15.75,0 28.5,12.7501 28.5,28.5001 0,15.75 -12.75,28.5 -28.5,28.5 z m 0,-54 c -14.025,0 -25.5,11.475 -25.5,25.5 0,0.375 0,0.675 0,1.05 l 1.05,1.35 c 0.3,0.375 0.75,0.6 1.2,0.6 h 2.55 c 0.3,0 0.525,-0.15 0.675,-0.45 l 2.7,-5.4 c 0.075,-0.15 0.15,-0.225 0.225,-0.3 l 0.9,-0.6 c 0.525,-0.3 1.2,0 1.2,0.6 v 2.475 c 0,0.375 0.15,0.75 0.45,1.05 l 1.95,1.95 c 0.3,0.3 0.825,0.3 1.125,-0.075 l 2.25,-2.85 c 0.15,-0.15 0.375,-0.3 0.6,-0.3 h 0.525 c 0.375,0 0.75,-0.15 1.05,-0.45 l 0.6,-0.6 c 0.3,-0.3 0.675,-0.45 1.05,-0.45 h 0.15 c 0.45,0 0.75,0.3 0.75,0.75 v 1.8 c 0,0.3 -0.15,0.525 -0.45,0.675 l -0.675,0.3 c -0.225,0.15 -0.45,0.375 -0.45,0.675 v 1.2 c 0,0.45 0.3,0.75 0.75,0.75 h 1.875 c 0.225,0 0.45,0.15 0.6,0.3 l 1.05,1.575 c 0.15,0.225 0.225,0.525 0.225,0.825 v 1.575 c 0,0.15 0,0.225 -0.075,0.375 l -0.525,2.25 c -0.075,0.375 0.075,0.675 0.375,0.825 l 0.375,0.15 c 0.375,0.15 0.75,0.075 0.975,-0.225 0,0 0.675,-1.425 1.125,-1.725 0.15,-0.075 0.6,-0.15 0.75,0 0.45,0.45 0.3,1.95 0.15,2.925 -0.075,0.525 0.15,1.05 0.6,1.425 l 1.95,1.5 c 0.225,0.15 0.3,0.375 0.3,0.6 v 0.375 c 0,0.45 0.3,0.75 0.75,0.75 0.45,0 0.75,0.3 0.75,0.75 v 0.15 c 0,0.375 -0.225,0.675 -0.6,0.75 l -1.35,0.3 c -0.525,0.15 -0.75,0.75 -0.45,1.2 l 0.9,1.2 c 0.45,0.6 1.125,0.9 1.8,0.9 h 2.325 c 0.6,0 1.125,0.375 1.35,0.9 9.225,-3.9 15.6,-12.9 15.6,-23.4 0,-14.025 -11.475,-25.5 -25.5,-25.5 z"
                 style="fill:#000000;fill-opacity:1;fill-rule:nonzero;stroke:none"
                 id="path9265" />
              <path
                 d="m 49.222,21.067 c -0.075,0.15 -0.15,0.375 -0.3,0.525 l -2.925,4.425 c -0.375,0.6 -1.35,0.375 -1.35,-0.375 v -0.525 c 0,-0.45 -0.3,-0.75 -0.75,-0.75 h -0.3 c -0.3,0 -0.525,0.15 -0.675,0.45 l -0.6,1.275 c -0.3,0.525 -1.05,0.525 -1.35,0 l -0.6,-0.675 c -0.15,-0.15 -0.375,-0.225 -0.525,-0.225 h -0.525 c -0.375,0 -0.75,-0.15 -1.05,-0.45 l -3,-2.4 c -0.6,-0.525 -0.75,-1.425 -0.3,-2.025 l 1.95,-3.225 c 0.525,-0.825 1.65,-0.975 2.325,-0.3 l 1.425,1.425 c 0.525,0.525 1.425,0.6 2.025,0.075 l 2.475,-2.025 c 0.15,-0.075 0.3,-0.15 0.45,-0.15 h 2.025 c 0.45,0 0.75,0.3 0.75,0.75 v 1.05 c 0,0.3 0.15,0.525 0.45,0.675 l 0.525,0.225 c 0.3,0.15 0.525,0.525 0.375,0.9 z"
                 style="fill:#000000;fill-opacity:1;fill-rule:nonzero;stroke:none"
                 id="path9267" />
              <path
                 d="m 40.897,31.117 1.875,-2.475 c 0.225,-0.3 0.6,-0.375 0.9,-0.225 l 0.975,0.45 1.275,-0.45 c 0.45,-0.15 0.975,0.225 0.975,0.675 v 0 c 0,0.3 -0.15,0.525 -0.375,0.675 l -3.225,1.95 c -0.075,0.15 -0.225,0.15 -0.375,0.15 h -2.025 z"
                 style="fill:#000000;fill-opacity:1;fill-rule:nonzero;stroke:none"
                 id="path9269" />
              <path
                 d="m 35.122,30.517 0.45,1.65 c 0.075,0.225 0,0.525 -0.225,0.675 -0.225,0.225 -0.675,0.3 -0.975,0.075 l -1.5,-1.125 c -0.45,-0.3 -0.375,-1.05 0.15,-1.275 l 1.05,-0.525 c 0.45,-0.15 0.9,0.075 1.05,0.525 z"
                 style="fill:#000000;fill-opacity:1;fill-rule:nonzero;stroke:none"
                 id="path9271" />
              <path
                 d="m 27.922,32.242 c -0.3,0.225 -0.675,0.15 -0.975,-0.075 l -0.3,-0.3 4.425,-3.675 c 0.075,-0.075 0.15,-0.075 0.225,-0.15 l 1.65,-0.525 c 0.3,-0.075 0.6,0 0.75,0.15 l 0.45,0.45 c -3.15,0.9 -6.225,4.125 -6.225,4.125 z"
                 style="fill:#000000;fill-opacity:1;fill-rule:nonzero;stroke:none"
                 id="path9273" />
              <path
                 d="m 38.647,43.867 c 2.025,1.35 4.35,2.925 3.75,5.25 -0.075,0.15 -0.675,0.15 -0.75,0 -0.3,-1.35 -0.6,-2.475 -3.75,-4.5 -0.15,-0.15 0.45,-0.9 0.75,-0.75 z"
                 style="fill:#000000;fill-opacity:1;fill-rule:nonzero;stroke:none"
                 id="path9275" />
            </g>
          </g>
        </g>
      </g>
    </g>
    <path
       style="fill:none;stroke:#000000;stroke-width:0.274508px;stroke-linecap:butt;stroke-linejoin:miter;stroke-opacity:1"
       d="m 14.755198,13.492144 c 0,0 -15.46528413,20.006885 1.120403,20.607289"
       id="path9580" />
    <path
       style="fill:none;stroke:#000000;stroke-width:0.338275px;stroke-linecap:butt;stroke-linejoin:miter;stroke-opacity:1;marker-end:url(#marker934)"
       d="m 14.280413,12.994615 c 0,0 -22.8859058,20.530275 1.657996,21.146384"
       id="path9580-9" />
    <path
       style="fill:none;stroke:#000000;stroke-width:0.302107px;stroke-linecap:butt;stroke-linejoin:miter;stroke-opacity:1;marker-start:url(#marker924)"
       d="m 26.128555,13.075752 c 0,0 18.232922,20.553692 -1.320906,21.170506"
       id="path9580-9-7" />
  </g>
</svg>
